<?xml version="1.0" encoding="UTF-8"?>
<svg width="180px" height="99px" viewBox="0 0 180 99" version="1.1" xmlns="http://www.w3.org/2000/svg" xmlns:xlink="http://www.w3.org/1999/xlink">
    <!-- Generator: Sketch 46.2 (44496) - http://www.bohemiancoding.com/sketch -->
    <title>Group 4</title>
    <desc>Created with Sketch.</desc>
    <defs>
        <polygon id="path-1" points="0 0.388253024 0 98.0917431 179.726087 98.0917431 179.726087 0.388253024 5.3031628e-20 0.388253024"></polygon>
    </defs>
    <g id="Header" stroke="none" stroke-width="1" fill="none" fill-rule="evenodd">
        <g id="Navigation-Sticky-Header---Logged-In" transform="translate(-630.000000, -48.000000)">
            <g id="Group-4" transform="translate(630.000000, 48.000000)">
                <g id="Group-3">
                    <mask id="mask-2" fill="white">
                        <use xlink:href="#path-1"></use>
                    </mask>
                    <g id="Clip-2"></g>
                    <path d="M160.206261,54.7434468 C160.229739,54.6263272 160.253217,54.5092077 160.276696,54.3920881 C160.703217,51.9716169 159.560609,48.8601403 154.931478,48.0442072 C154.246696,47.9544156 153.691043,47.9153757 153.151043,47.9153757 C151.840174,47.9153757 150.521478,48.1261909 149.214522,48.5400134 C149.331913,48.3565261 149.453217,48.1769427 149.566696,47.9934554 C150.591913,46.3576854 151.261043,44.6047958 151.546696,42.7933464 C151.671913,42.0086452 151.660174,41.3644876 151.570174,40.7632738 C156.441913,31.6982188 157.518,23.2031458 154.501043,16.1720675 C150.141913,5.99047259 138.081913,0.388253024 120.547565,0.388253024 C111.700174,0.388253024 101.952783,1.86395964 91.9393043,4.64750149 C91.454087,4.60455765 90.9101739,4.58113373 90.2801739,4.58113373 C88.7384348,4.58113373 88.1397391,4.59674968 87.8423478,4.61236562 C85.2166957,4.64750149 82.9706087,4.72948519 81.1823478,4.85441274 C74.6045217,5.26433124 68.8758261,5.82650519 64.1762609,6.52141466 C61.5193043,6.90400526 59.6997391,7.3880995 58.4827826,8.03616113 C56.5184348,9.05510142 55.3875652,10.9094947 55.3875652,13.1113426 C55.3875652,15.2194949 56.3110435,17.0504643 57.9388696,18.2411799 C56.901913,18.7526021 55.9666957,19.1351927 55.2388696,19.6505188 C54.7771304,19.9706456 54.381913,20.3493322 54.0688696,20.7865786 C53.3488696,20.3259083 52.4684348,20.0721492 51.501913,20.0721492 C51.1223478,20.0721492 50.7271304,20.1072851 50.3084348,20.1814608 C49.6862609,20.3141964 49.2206087,20.4586438 48.7706087,20.6499391 C48.9545217,19.8808539 48.9506087,19.2757361 48.8410435,18.6979463 C48.704087,17.9288611 48.3284348,17.2222396 47.7571304,16.6522577 C47.5536522,16.4453465 47.3266957,16.2735711 47.0723478,16.1252196 C46.4110435,15.7348211 45.6597391,15.5318138 44.9006087,15.5318138 C44.6462609,15.5318138 44.391913,15.5552377 44.1336522,15.5981816 C43.1710435,15.7699569 42.2788696,16.2345312 41.5393043,16.9450566 C41.2966957,16.7771853 41.0384348,16.6327378 40.7645217,16.5156182 C40.1032174,16.2189153 39.3323478,16.0783718 38.4166957,16.0783718 C38.2249565,16.0783718 38.0175652,16.0861798 37.7984348,16.0978917 C37.0197391,16.1447396 35.9553913,16.2852831 34.5427826,16.5351381 C33.1066957,16.7928012 31.6706087,17.1714878 30.2775652,17.667294 C28.7671304,18.206044 27.5306087,18.8072579 26.4975652,19.5099753 C24.2788696,21.0130098 23.8327826,22.7190516 23.8484348,23.8433995 C23.8484348,24.0190788 23.8406087,24.3470137 23.8288696,24.8272039 C23.8132174,25.5104014 23.8249565,26.0179196 23.871913,26.4161261 C23.8953913,26.6698852 23.9501739,26.9158363 24.0362609,27.1539794 C24.2162609,27.6888255 24.408,28.2431914 24.8932174,28.7858455 C25.0653913,28.9771408 25.2571304,29.1489161 25.4723478,29.3011716 C26.3684348,29.9258093 27.2645217,29.9258093 27.558,29.9258093 C27.7497391,29.9258093 27.9806087,29.9180013 28.2858261,29.8906734 C27.2762609,32.2916247 26.8614783,34.0249944 26.9553913,35.4187173 C26.9632174,35.5397408 26.9749565,35.6607644 26.9984348,35.777884 C27.194087,36.9139438 27.8123478,37.9055562 28.7358261,38.5692338 C28.8453913,38.9010726 28.6262609,39.0299041 28.4110435,39.1509277 C26.6423478,40.1854839 25.2532174,41.2200401 24.1693043,42.3209641 C22.6627826,43.8474225 21.8958261,45.4480567 21.891913,47.0877307 C21.8958261,47.3141619 21.888,47.7240804 21.8253913,48.661037 C21.801913,49.0084917 21.7901739,49.3090986 21.7823478,49.5979936 C16.2610435,57.3044615 13.3223478,64.7571703 13.1149565,71.4525059 C6.86973913,73.0843719 2.95669565,74.2594716 2.39713043,74.427343 C0.863217391,74.8919173 -0.134608696,76.3715279 0.0140869565,77.9643541 C0.162782609,79.5571803 1.41886957,80.8298797 3.01147826,81.005559 C3.15626087,81.021175 13.154087,82.1728508 19.0706087,87.037217 C19.5088696,87.4783674 19.9666957,87.9039019 20.448,88.3177244 C22.0953913,90.074518 23.2106087,92.2295181 23.328,94.8725165 C23.3788696,95.9773444 23.9658261,96.9845728 24.9049565,97.5740746 C25.4488696,97.9215293 26.0749565,98.0933047 26.7049565,98.0933047 C27.1510435,98.0933047 27.6049565,98.003513 28.0314783,97.8200257 C28.1214783,97.7809859 30.7197391,96.6956778 35.2745217,95.1418915 C39.2971304,96.0046723 43.7893043,96.4692466 48.7353913,96.4692466 C64.1645217,96.4692466 82.3366957,91.9991829 99.8866957,83.8788926 C100.309304,83.6836933 100.716261,83.480686 101.134957,83.2854867 C102.711913,83.2464469 104.300609,83.219119 105.904957,83.219119 C109.035391,83.219119 112.177565,83.2971987 115.194522,83.4455501 C116.34887,83.5197259 119.870609,83.9179324 123.936261,84.3786027 C133.957565,85.5146626 149.104957,87.2324163 155.702348,87.2324163 C156.261913,87.2324163 156.751043,87.2207044 157.193217,87.1972804 C172.567565,85.8113655 180.131478,75.7195623 179.712783,66.4632121 C179.376261,58.9948873 173.854957,53.7752583 166.291043,53.7752583 C164.369739,53.7752583 162.319304,54.0992892 160.206261,54.7434468 Z" id="Fill-1" fill="#08080B" mask="url(#mask-2)"></path>
                </g>
                <path d="M152.465941,17.6716937 C144.484547,-0.948029856 107.619221,-1.98418371 70.1198943,15.358781 C65.8958233,17.3146669 61.8506724,19.4141397 58,21.633915 L58.5484291,22.6429038 C62.3018623,20.345514 66.3003384,18.2033532 70.5049615,16.2591094 C102.986745,1.23293818 135.620222,3.74764866 143.387689,21.87452 C148.047392,32.7444337 142.695346,46.7654969 130.664912,59.4865168 L132.831401,61 C149.420409,46.183388 157.631288,29.7213481 152.465941,17.6716937" id="Fill-4" fill="#EE3E33"></path>
                <path d="M125.475793,64.7560218 C118.155643,71.0995089 109.180639,76.9173143 98.9941876,81.5974504 C65.924842,96.787297 32.7129731,94.2451946 24.8068935,75.9208729 C18.4250205,61.135095 30.4682324,40.5982027 52.7295673,25.2357442 L52.1080077,24 C24.5772727,41.4024172 8.79282629,64.481412 15.5626792,80.1655563 C23.6865026,98.9920216 61.2176168,100.039462 99.3861264,82.5036628 C109.730937,77.7529128 119.054331,72.1155652 127,66.058457 L125.475793,64.7560218 Z" id="Fill-6" fill="#EE3E33"></path>
                <path d="M38.921318,23.7934171 C38.8152773,24.1052404 38.6895994,24.4248592 38.5521392,24.7522737 C38.5010826,24.877003 38.4421711,25.0095279 38.3832596,25.1459506 C38.6031959,24.6860113 38.8427693,24.2182763 39.0941251,23.7544392 C39.039141,23.7661325 38.9841569,23.7778259 38.921318,23.7934171 M69.8459309,47.4491122 C70.3407875,47.9402339 70.7806601,48.7003032 70.9691769,49.8696405 C70.9888141,50.0138588 71.0045238,50.1541793 71.0202335,50.3022954 C71.2244601,49.8384582 71.467961,49.3785188 71.7507362,48.9380684 C72.8229256,47.246427 74.2760761,45.8354266 76.0669858,44.7518406 C77.861823,43.6682547 79.7037894,43.0368125 81.5575381,42.877003 C81.8088939,42.8536163 82.0406125,42.8419229 82.2605487,42.8419229 C84.5934444,42.8419229 85.5478107,44.1671719 85.6577789,45.398874 C85.6734886,45.6093547 85.6734886,45.8822001 85.6145771,46.1940234 C85.8462957,46.4590732 86.0544497,46.7864877 86.2233293,47.2035513 C86.9106302,45.0285838 87.9553276,42.877003 89.3220745,40.8072759 C90.2253843,39.4430489 91.2857914,38.0359463 92.4954409,36.6249459 C92.1105524,36.7496752 91.753156,36.8237332 91.4075418,36.84712 C91.36434,36.84712 91.3250657,36.8510178 91.2857914,36.8510178 C91.2033152,36.8510178 91.1208391,36.84712 91.0344356,36.8315288 C89.5537931,36.6132525 88.5444426,35.6504981 88.2223931,34.1654396 C87.868924,34.4733651 87.5625842,34.7384149 87.2994462,34.9527934 C86.5414515,35.5803378 85.8777152,36.0090948 85.2728904,36.2663491 C85.1000833,36.3404071 84.9154939,36.3871806 84.7230497,36.398874 C84.6602107,36.4027718 84.5973718,36.4027718 84.5384603,36.4027718 C83.8197399,36.4027718 83.0853098,36.1338242 82.2880408,35.57644 C81.7460549,35.1983543 81.2551257,34.7306193 80.8191806,34.177133 C80.3086142,34.792984 79.7980478,35.3503681 79.2914089,35.837592 C77.9010974,37.1862278 76.8014159,37.9190126 75.8234849,38.1333911 C75.7920655,38.1372889 75.7527911,38.1450845 75.7213717,38.15288 C75.5171451,38.1801646 75.3129185,38.1957557 75.108692,38.1957557 L74.9830141,38.1918579 C74.2642938,38.172369 73.5612831,37.9501949 72.9132566,37.5253356 C72.0452937,36.9679515 71.4365415,36.1065396 71.0987822,34.960589 C71.079145,34.8904288 71.0634353,34.8241663 71.051653,34.7540061 C70.9770318,34.251191 70.9456123,33.7483759 70.9691769,33.2533564 C70.843499,33.4014725 70.7178211,33.5573841 70.5764335,33.7210914 C69.1075733,35.4867908 67.6033662,36.7457774 66.1030866,37.4590732 C65.9420618,37.5331312 65.7928193,37.5993937 65.6553591,37.650065 C65.3568742,37.8683413 64.9994777,37.985275 64.6381538,37.985275 C64.2729025,37.985275 63.8958688,37.8605457 63.589529,37.6188826 C63.2674794,37.3655262 63.0671803,37.0264184 62.9807768,36.660026 C62.4859201,35.3659593 63.5109803,34.2355998 66.1109414,31.3707233 C66.3937166,31.0627977 66.7314759,30.6886098 67.0456706,30.3339108 C66.9749768,30.1974881 66.9121379,30.049372 66.8650087,29.8973582 C66.8218069,29.7609355 66.78646,29.6089216 66.758968,29.4491122 C66.5861609,28.3772196 66.8532264,27.1883932 67.5601645,25.8163707 C67.882214,25.1849285 68.2788848,24.5885665 68.7462494,24.0311823 C68.1296423,24.1909918 67.5169627,24.354699 66.9121379,24.5184062 C66.1816352,25.4577739 65.4000759,26.5257687 64.5753148,27.7029017 C63.0396883,29.8661758 61.8771679,31.5851018 61.1034635,32.8284972 C61.5040617,33.0467735 61.9282245,33.4560416 62.19529,34.2122131 C62.584106,35.3308792 62.8904458,38.8466869 61.2527059,40.1290602 C59.9841449,41.1074058 58.8491165,41.5790385 57.7769271,41.5790385 C57.2310139,41.5790385 56.6929554,41.4465136 56.1941714,41.1931572 C56.7518669,42.2260719 57.16032,43.3642269 57.4195307,44.5725422 C57.6473218,45.6288437 57.7494351,46.8098744 57.7376528,48.0883499 C57.7297979,48.3923777 57.7101608,48.6886098 57.6787413,48.9848419 C58.4053165,48.1195323 59.2536422,47.3438718 60.2197909,46.6617583 C61.932152,45.4612386 63.7309166,44.7011693 65.5689556,44.4127328 C65.9695538,44.3464703 66.3505149,44.3191858 66.6882742,44.3191858 C68.7305397,44.3191858 69.6495592,45.5197055 69.8341486,46.6422694 C69.865568,46.8566479 69.8812778,47.1333911 69.8459309,47.4491122 M104.085298,53.5062798 C104.132427,53.5101776 104.183484,53.5101776 104.222758,53.5101776 C104.489823,53.5101776 104.70976,53.4711997 104.910059,53.389346 C106.975889,52.531832 109.536576,51.0077956 111.276429,49.5967951 C111.288211,49.5889996 111.296066,49.581204 111.307848,49.5695106 C110.730516,49.5461239 110.196385,49.226505 109.909682,48.7158943 C109.583705,48.1312256 109.626907,47.4218276 110.027505,46.8839324 C110.467377,46.2992638 110.867976,45.7964487 111.225372,45.3598961 C110.706951,45.7379818 110.137473,46.0186228 109.516939,46.201819 C109.544431,46.3811174 109.552285,46.556518 109.544431,46.743612 C109.489446,47.7219576 108.974953,48.7431789 107.977385,49.8774361 C107.18797,50.7778259 106.284661,51.6431356 105.298875,52.4460806 C104.796163,52.8592464 104.344508,53.2100476 103.94391,53.4945864 C103.987112,53.502382 104.038169,53.502382 104.085298,53.5062798 M118.883868,50.4621048 C117.921647,51.4833261 117.159724,52.4421828 116.621666,53.3191858 C116.170011,54.044175 115.902946,54.6015591 115.741921,55.0264184 C115.816542,54.995236 115.891163,54.9601559 115.969712,54.921178 C116.515625,54.6561282 119.575096,53.0658294 121.149997,52.2394976 C121.974758,51.7561715 122.669914,51.2962321 123.219755,50.8752707 C123.235464,50.8713729 123.243319,50.8635773 123.251174,50.8557817 C122.827011,50.8245994 122.43034,50.6297098 122.143638,50.3178865 C121.962976,50.3724556 121.778387,50.4231269 121.585942,50.4621048 C121.232473,50.532265 120.827948,50.571243 120.376293,50.571243 C119.975694,50.571243 119.516185,50.5400606 119.029183,50.4815938 C118.989909,50.4815938 118.942779,50.4699004 118.883868,50.4621048 M77.2295062,53.4010394 C76.8446177,53.9155479 76.6600283,54.5002165 76.6600283,55.2096146 C76.9781504,55.1160676 77.2844903,54.9640537 77.5829752,54.753573 C77.4533699,54.4417497 77.3512566,54.1221308 77.2766354,53.8025119 C77.2530708,53.6972715 77.2373611,53.5881334 77.2334336,53.4750974 C77.2295062,53.4478129 77.2295062,53.4283239 77.2295062,53.4010394 M130.791847,52.0056301 C129.790351,52.9917713 129.000937,53.9233434 128.431459,54.7769597 C127.960167,55.4941533 127.669537,56.0437419 127.492803,56.4569078 C127.567424,56.4296232 127.642045,56.3984409 127.720594,56.359463 C128.360765,56.0749242 129.888537,55.3304461 132.260707,54.1416197 C132.496353,53.4595063 132.771273,52.7968818 133.085468,52.1498484 C132.912661,52.1654396 132.739854,52.1693374 132.551337,52.1693374 C132.068263,52.1693374 131.541987,52.1264617 130.941089,52.0290169 C130.89396,52.0251191 130.850758,52.0173235 130.791847,52.0056301 M61.9949909,55.2135123 C61.6415219,55.7475097 61.5001343,56.3516674 61.5511909,57.0532698 C61.8575307,56.9402339 62.1560157,56.7687311 62.4387909,56.5348636 C62.285621,56.2308359 62.1599431,55.9229104 62.0656847,55.6110871 C62.0303378,55.5097445 62.0107007,55.3928107 61.9989183,55.2875704 C61.9949909,55.2602858 61.9949909,55.2368991 61.9949909,55.2135123 M104.238468,60.2065829 C105.699473,60.2533564 107.136914,60.3274145 108.539008,60.4170637 C108.436894,60.2767432 108.354418,60.1403205 108.287652,60.0155912 C107.993094,59.4699004 107.820287,58.8735383 107.788868,58.2226072 C107.215462,58.6318753 106.716678,58.9631875 106.398556,59.1502815 C105.640561,59.6063231 104.917914,59.9532265 104.238468,60.2065829 M42.507065,45.3170204 C42.3381853,46.0848852 42.1221765,46.7319186 41.855111,47.2932005 L35.6968949,60.1364227 C35.6458383,60.2494586 35.5987091,60.3469034 35.5594348,60.4443482 C35.7832985,60.4326548 36.0425091,60.4092681 36.3292118,60.3624946 C37.6841764,59.9844088 38.8781162,59.6024253 39.8796118,59.2126462 C41.4859322,58.5227371 43.0372685,57.7158943 44.4943464,56.807709 C45.9357146,55.911217 47.2317677,54.9133824 48.3510863,53.8297964 C49.4272031,52.7968818 50.2637465,51.7055002 50.8410792,50.5868341 C51.3752102,49.5422261 51.6187111,48.5404937 51.5794368,47.5036812 C51.5755093,47.1918579 51.5519447,46.9501949 51.508743,46.7553053 C51.3084439,45.8159376 50.8685713,45.472932 50.5072474,45.2741447 C49.7649624,44.8648766 48.9323465,44.6543958 47.9622703,44.6154179 C47.714842,44.6076223 47.4595588,44.5998268 47.2121305,44.5998268 C46.3206031,44.5998268 45.3937287,44.6621914 44.4589995,44.783023 C43.7677712,44.8648766 43.1393818,44.950628 42.5699039,45.024686 C42.5502667,45.1221308 42.5306296,45.2195756 42.507065,45.3170204 M82.9910514,57.9536596 C81.4279328,59.6219142 79.7666284,60.6821135 78.0307027,61.0991771 C84.880147,60.4716327 91.7374462,60.1013426 98.3787366,60.1013426 C98.8618109,60.1013426 99.333103,60.1013426 99.8122499,60.1091382 C98.8618109,59.6063231 97.8171136,58.6669554 97.3340392,56.9285405 C97.1455224,57.0961455 97.0002074,57.2325682 96.9098764,57.3222174 C96.1283171,58.0589 95.2721366,58.6942399 94.3609719,59.2048506 C93.3634038,59.7661325 92.3108515,60.093547 91.246517,60.1909918 C91.0619276,60.2065829 90.8851931,60.2143785 90.712386,60.2143785 C89.4516798,60.2143785 88.3559258,59.8090082 87.4643984,59.0138588 C86.8320816,58.4564747 86.3568621,57.7821568 86.0426674,57.0064963 C85.1550674,57.4469467 84.1300072,57.7626678 82.9910514,57.9536596 M115.765486,61.064097 C117.171507,61.2278042 118.644294,61.4343872 120.156356,61.6721524 C120.038533,61.5006496 119.93642,61.3408402 119.865726,61.1849285 C119.559386,60.5729753 119.414071,59.8908618 119.425854,59.1541793 C119.221627,59.2828064 119.040965,59.3997401 118.89565,59.4854916 C117.866663,60.1130359 116.81411,60.6431356 115.765486,61.064097 M68.0510937,59.3529667 C66.6529273,61.0757904 65.1173007,62.2295366 63.471706,62.7908185 C67.5955114,62.2139454 71.7821557,61.7111304 75.9805823,61.2940667 C74.4331734,61.2005197 73.1096283,60.5028151 72.1159875,59.271113 C71.8057203,58.8813339 71.5268725,58.468168 71.2951539,58.0355132 C70.3839893,58.6162841 69.3000176,59.0567345 68.0510937,59.3529667 M55.0473607,55.6929407 C53.5549359,57.8328281 51.654058,59.8051104 49.3918562,61.5552187 C47.0943075,63.3287137 44.6671535,64.8254656 42.1928703,66.0142919 C41.7569251,66.2247726 41.3288349,66.4196622 40.9085994,66.6028584 C47.1767836,65.3672586 53.9162598,64.1784322 60.8678174,63.1611087 C59.5010705,63.0675617 58.2678563,62.4711997 57.2977802,61.418796 C56.1588245,60.1909918 55.4361767,58.6630576 55.1534014,56.8856648 C55.0944899,56.4880901 55.0552156,56.0866176 55.0473607,55.6929407 M126.499162,62.7596362 C129.464374,63.3131226 132.496353,63.9133824 135.492985,64.5097445 C144.506445,66.3066262 153.830173,68.1658727 159.733106,68.1658727 C161.787153,68.1658727 163.30707,67.9436986 164.269292,67.5149415 C167.674377,65.9909052 168.868316,63.6561282 168.534485,62.1320918 C168.287056,60.9861412 167.226649,60.3274145 165.616401,60.3274145 L165.455377,60.3274145 C163.652684,60.5846687 161.66933,61.531832 159.379637,62.6232135 C157.87543,63.3443049 156.163068,64.1589433 154.270045,64.8800346 C152.80904,65.620615 151.438366,66.1312256 150.205152,66.4079688 C149.403955,66.5833694 148.630251,66.6730186 147.907603,66.6730186 C147.440238,66.6730186 146.984656,66.6340407 146.552638,66.5599827 C144.781366,66.2520572 143.391054,65.3087917 142.534874,63.84712 C142.346357,63.5236033 142.185332,63.1883932 142.063582,62.8414898 C141.992888,62.8765699 141.922194,62.9194456 141.8515,62.9584236 C140.912843,63.492421 139.930985,63.8977913 138.925562,64.1745344 C138.210769,64.369424 137.495976,64.4707666 136.792965,64.4707666 C136.415932,64.4707666 136.034971,64.443482 135.657937,64.3811174 C134.200859,64.1511477 133.038339,63.4456475 132.272489,62.3386748 C131.875819,61.7540061 131.608753,61.1303595 131.463438,60.4560416 C131.121751,60.6587267 130.795774,60.8497185 130.489434,61.0251191 C129.181599,61.7618016 127.858054,62.3425725 126.546291,62.7479428 L126.499162,62.7596362 M27.1075975,96 C26.7934028,96 26.4792081,95.9103508 26.2042877,95.7427458 C25.7329957,95.4465136 25.4384382,94.9436986 25.4148735,94.3902122 C24.8336134,81.3443049 3.72758473,78.9666522 3.51157587,78.9432655 C2.7103794,78.8614119 2.08199001,78.2260719 2.00736877,77.4309225 C1.93274753,76.6357731 2.43153161,75.8951927 3.20130861,75.665223 C3.4448095,75.591165 14.8225849,72.2078822 31.2431851,68.6141187 C29.47584,68.2126462 28.8945798,67.0939801 28.7021355,66.4430489 C28.6903532,66.4079688 28.6785709,66.3650931 28.6707161,66.3261152 C28.317247,64.6812473 28.3015373,63.1260286 28.6235869,61.7033348 C28.9299267,60.3819835 29.4797674,58.9125162 30.273109,57.330013 L34.0827197,49.842356 C34.0159533,49.8696405 33.9531144,49.9008229 33.886348,49.9281074 C33.4936046,50.1152014 33.0772967,50.3178865 32.6374241,50.532265 L31.0900152,51.2962321 C30.5048276,51.5924643 29.9432046,51.8536163 29.4247833,52.0874838 C28.8945798,52.3213512 28.3761585,52.5396275 27.873447,52.7384149 C27.7831161,52.773495 27.6888577,52.8007796 27.5945992,52.8202685 C27.3275338,52.8787354 27.0604683,52.9099177 26.8091125,52.9099177 C25.4580753,52.9099177 24.3976682,52.0991771 23.9656505,50.7427458 C23.9381585,50.6530966 23.9145939,50.5595496 23.9028116,50.4621048 C23.8439001,50.0138588 23.8439001,49.374621 23.9028116,48.4352534 C23.9538682,47.6790819 23.9774328,47.1294933 23.9735054,46.7942832 C23.9774328,45.566479 24.5665479,44.3932438 25.7683426,43.1810307 C26.7384187,42.2026851 28.054109,41.2321351 29.6800665,40.2810741 C31.25104,39.3767865 32.9948206,38.546557 34.8603516,37.8254656 C36.72981,37.1043742 38.6503251,36.5313989 40.5669127,36.1260286 C42.4560083,35.7284539 44.2115712,35.5257687 45.794327,35.5257687 C46.9568473,35.5257687 48.0604562,35.6349069 49.0619518,35.8531832 C50.5465217,36.1728021 51.8857766,36.7613686 53.0443695,37.5877003 C53.1386279,37.6539628 53.2250315,37.7202252 53.3153625,37.7903854 C52.7655217,36.6210481 52.4906014,35.482893 52.4906014,34.4032049 C52.4906014,33.5378952 52.6516262,32.6881767 52.9736757,31.8657427 C52.6869731,32.0996102 52.4081253,32.3061932 52.1332049,32.4815938 C51.4262669,32.925942 50.7193288,33.2104807 50.0398828,33.3313123 C49.7845996,33.374188 49.5371713,33.3975747 49.2897429,33.3975747 C48.4139252,33.3975747 47.597019,33.1091382 46.9215004,32.5634474 C46.2459818,33.1754006 45.6647216,33.6002599 45.1502278,33.8614119 C45.1109535,33.8809008 45.0716792,33.896492 45.0284774,33.9159809 C44.6632261,34.064097 44.3647411,34.157644 44.101603,34.2044175 C43.9405783,34.231702 43.7834809,34.2472932 43.6263836,34.2472932 C42.9979942,34.2472932 42.2910561,34.0017324 41.7765623,33.3819835 C41.4191658,33.8692074 40.9596561,34.3525336 40.315557,34.5591165 C40.1466773,34.6136856 39.9660154,34.6409701 39.7932083,34.6409701 C38.3636224,34.6409701 37.4406755,33.522304 37.0479321,31.3122564 C36.9065445,30.5288003 36.8908348,29.7258553 37.0008029,28.9307059 C37.0047304,28.8995236 37.0086578,28.8683413 37.0165127,28.8332612 C37.146118,28.1745344 37.3935463,27.4066696 37.7705799,26.5062798 C37.6449021,26.7791252 37.5388613,27.0090948 37.4524578,27.2039844 L35.6301286,31.3980078 C35.6890401,31.5344305 35.7283144,31.6786488 35.7558064,31.8345604 C35.9207587,32.7622347 35.516233,33.8302295 34.212325,35.9233434 C33.7842347,36.6561282 33.0419498,37.1706366 32.1504223,37.3304461 C31.9893975,37.3577306 31.8205179,37.369424 31.6594931,37.369424 C31.105725,37.369424 30.5833763,37.201819 30.1356488,36.8860979 C29.566171,36.472932 29.1930648,35.8882633 29.0752417,35.1788653 C29.0634594,35.1203984 29.0556046,35.0619316 29.0516771,34.9995669 C28.9652736,33.7210914 29.4915497,31.8969251 30.6972719,29.2542226 C30.9918294,28.6110871 31.2667497,28.0459073 31.5141781,27.5508878 C31.3885002,27.5820702 31.2549674,27.5976613 31.1253621,27.5976613 C31.0900152,27.5976613 31.0193214,27.5937635 31.015394,27.5937635 C30.3320205,27.6522304 29.9746241,27.7029017 29.7978895,27.734084 L29.0045479,27.8705067 C28.9574187,27.8822001 28.9063621,27.8860979 28.8553055,27.8899957 C28.4350701,27.9289736 28.1405125,27.940667 27.963778,27.940667 C27.7870435,27.940667 27.3039692,27.940667 26.8483868,27.6210481 C26.7384187,27.54699 26.6402329,27.4573408 26.5577568,27.3637939 C26.3103284,27.0870507 26.2042877,26.8103075 26.0314806,26.3113902 C25.9922063,26.1905587 25.9607868,26.0658294 25.9490045,25.9411 C25.9136576,25.6136856 25.9018753,25.1810307 25.9175851,24.5729753 C25.9293674,24.074058 25.9372222,23.7310524 25.9372222,23.5478562 C25.9215125,22.4798614 26.5656116,21.4820269 27.8577373,20.6128194 C28.7571196,20.004764 29.9078577,19.4512776 31.2628223,18.9679515 C32.5745852,18.5041143 33.9256224,18.1494153 35.2727321,17.9116501 C36.6237693,17.6738848 37.6291923,17.5413599 38.3439852,17.4945864 C38.5285746,17.482893 38.7013817,17.4789952 38.8624065,17.4789952 C39.54578,17.4789952 40.0916932,17.57644 40.5394207,17.7713296 C41.1638826,18.044175 41.6823039,18.5197055 42.0711198,19.1862278 C42.4128065,18.7457774 42.6955818,18.3871806 42.9430101,18.1143352 C43.4889234,17.502382 44.164442,17.1048073 44.8988721,16.9761802 C45.0559694,16.9488956 45.2169942,16.9372023 45.3701641,16.9372023 C45.8375287,16.9372023 46.2852562,17.054136 46.6976367,17.295799 C46.8233146,17.3659593 46.9411376,17.4595063 47.0432509,17.5569511 C47.3731553,17.8843655 47.5891641,18.285838 47.6637854,18.7145951 C47.8287376,19.6383716 47.5420349,20.881767 45.8139641,23.7856215 C46.1595783,23.8557817 46.4934102,23.9961022 46.8154597,24.2065829 C46.8429517,24.2260719 46.8743712,24.2455608 46.8979358,24.2650498 C47.1610739,23.925942 47.4556314,23.6063231 47.777681,23.3061932 C48.7320474,22.413599 49.8278014,21.8289303 51.0256686,21.5599827 C51.0492332,21.5560849 51.0727978,21.5521871 51.0963624,21.5482893 C51.4144846,21.4937202 51.716897,21.4664357 51.9996722,21.4664357 C53.7905819,21.4664357 54.6310528,22.6006929 54.8156421,23.6608922 C54.9020457,24.1325249 54.8824085,24.6080554 54.7685129,25.0874838 C55.1966032,25.2394976 55.5539997,25.5591165 55.7464439,25.9878735 L56.0920581,26.7518406 C56.1195501,26.8220009 56.1470422,26.8921611 56.1666793,26.9623214 C56.4376722,26.6037246 56.6418988,26.3230836 56.7832864,26.1242962 C56.7989961,26.1009095 56.8147059,26.0814205 56.8304156,26.0658294 C56.7479395,25.9995669 56.661536,25.9372023 56.5908422,25.8709398 C55.7935731,25.2161109 55.3654829,24.3313123 55.3654829,23.3334777 C55.3654829,22.2537895 55.8446298,21.3339108 56.7243749,20.7414465 C57.3488369,20.2932005 58.2874935,19.9540927 59.677805,19.6773495 L62.0735396,19.1550455 C62.1167414,19.1472499 62.1599431,19.1394543 62.19529,19.1277609 C62.5251945,18.734084 62.9140104,18.2936336 63.3499555,17.8064097 C61.75149,17.7362495 60.447582,17.3386748 59.4735785,16.6136856 C58.2521466,15.7210914 57.5962652,14.4114335 57.5962652,12.8367259 C57.5962652,11.2581204 58.3778245,9.98744045 59.7877732,9.25855349 C60.8324705,8.70896492 62.5251945,8.26851451 64.9602033,7.92161109 C69.6417043,7.23170204 75.3404106,6.67431789 81.8952974,6.2689476 C83.6704974,6.14811607 85.9052072,6.06626245 88.520878,6.02728454 C88.937186,6.00779558 89.7226727,6 90.92054,6 C92.5818445,6 93.5754852,6.14421828 94.2313666,6.47163274 C94.8008445,6.77176267 95.2367896,7.18492854 95.5745489,7.71892594 C95.9358728,8.26851451 96.1243897,8.86097878 96.1243897,9.45344305 C96.1243897,10.6071893 95.3192658,11.955825 93.0492091,11.955825 L92.6171914,11.955825 C90.6770391,11.955825 88.4737488,12.0415764 86.0583771,12.2130793 C83.9061435,12.3728887 81.2826178,12.6184495 78.2742036,12.9497618 C77.861823,12.9965353 77.4494425,13.0472066 77.0449168,13.0978779 C76.9702956,13.2810741 76.8799646,13.4564747 76.7778513,13.6279775 C76.4361646,14.1814638 75.9688,14.7154612 75.3404106,15.280641 C74.8691185,15.7405803 74.2564389,16.3603291 73.5023716,17.1398874 C74.782715,16.9722824 75.9334531,16.8397575 76.9388761,16.7423127 C79.138239,16.4967518 79.3778124,16.4967518 79.5231275,16.4967518 C80.3125416,16.4967518 81.031262,16.8280641 81.5614655,17.4322217 C82.0563222,17.9701169 82.3116054,18.6483326 82.3116054,19.3967085 C82.3116054,20.1450845 81.9581363,20.8233001 81.3415293,21.2598528 C80.9644956,21.5365959 80.4735664,21.704201 79.6566602,21.8445214 C79.0871823,21.9419662 78.5334142,22.0355132 77.9992832,22.132958 C78.6787292,22.2966652 79.2717717,22.7332178 79.6841522,23.3724556 C80.0886779,23.9961022 80.351816,24.7055002 80.4814213,25.4811607 C80.5638974,26.0190559 80.5678248,26.3932438 80.4853487,26.7284539 C80.3871629,27.1961888 80.1122425,27.6483326 79.4210142,28.5019489 C79.0871823,28.9151148 78.8083345,29.2620182 78.5883982,29.5504547 C79.1775133,29.004764 79.7823381,28.4122997 80.2300655,27.9094846 C80.5442602,27.305327 80.9644956,26.7050671 81.4789894,26.1165006 C82.4294284,25.0329147 83.576239,24.0428757 84.8919293,23.1697705 C86.1644178,22.320052 87.4840355,21.5989606 88.8115081,21.0259853 C90.1664728,20.4374188 91.4153967,20.0476397 92.5072232,19.8722391 C92.5582799,19.8644435 92.6093365,19.8566479 92.6603931,19.8527501 L92.9981524,19.8293634 C93.0963383,19.8215678 93.202379,19.81767 93.2966374,19.81767 C94.0585595,19.81767 94.7890622,20.0164573 95.4724357,20.4062365 C96.4464392,20.9597228 97.0198445,21.8445214 97.0944658,22.8930273 C97.1141029,23.1190992 97.0866109,23.3412733 97.0276994,23.5595496 C96.9805702,23.7349502 96.9138038,23.8908618 96.8313277,24.0389779 C96.960933,24.3702902 97.0159171,24.6821135 97.0316268,24.9198787 C97.0944658,25.8787354 96.7409967,26.8804677 95.9790746,27.8977913 C95.865179,28.0498051 95.7552109,28.1901256 95.6609525,28.3265483 C95.9044534,28.1316587 96.191156,27.901689 96.5053507,27.6444348 C96.7920534,27.3949762 97.5029189,26.8220009 97.5029189,26.8220009 C98.0881065,26.3269814 98.681149,25.8202685 99.1602959,25.3993071 C99.3802322,25.0290169 99.5844587,24.709398 99.7886853,24.428757 C99.9693472,24.1754006 100.153937,23.9415331 100.346381,23.719359 C101.43428,22.5032482 101.650289,22.2849718 101.72491,22.2148116 C102.058742,21.8796016 102.463268,21.610654 102.942415,21.4196622 C103.397997,21.236466 103.932128,21.1468168 104.5723,21.1468168 L105.479537,21.162408 C106.771662,21.1857947 107.553222,21.7860546 107.906691,22.5461239 C108.330854,22.2498917 108.84142,21.9107839 109.450172,21.517107 C110.836556,20.6245128 111.822342,20.1255955 112.564627,19.9385015 C112.737434,19.8995236 112.886677,19.8722391 113.028064,19.8566479 C113.083048,19.8527501 113.138032,19.8488523 113.196944,19.8488523 L113.228363,19.8488523 C114.59511,19.8761369 115.137096,21.2286704 115.368815,21.8055435 C115.686937,22.6006929 115.844034,23.3685578 115.832252,24.074058 C115.824397,24.4638372 115.816542,25.0913816 115.408089,25.6097878 C115.392379,25.6331745 115.37667,25.6604591 115.353105,25.6838458 C116.032551,25.1810307 116.67665,24.6977046 117.187217,24.3079255 C117.524976,23.906453 117.843098,23.5400606 118.165148,23.2048506 C119.127369,22.1914249 120.25847,21.0961455 121.530958,19.9385015 C121.845153,19.6617583 122.15542,19.3850152 122.481397,19.1121698 C124.720034,17.221741 127.422109,15.3897791 130.516926,13.6630576 C131.640172,13.0277176 132.712362,12.7003032 133.702075,12.7003032 L133.764914,12.7003032 C133.925939,12.704201 134.090891,12.7158943 134.244061,12.7353833 C135.634373,12.9068861 136.486626,13.9670853 136.317746,15.3235167 C136.207778,16.2161109 135.646155,17.1515808 134.507199,18.3559983 C134.200859,18.6834127 133.84739,19.0303162 133.458574,19.4006063 C132.65345,20.1489822 131.671592,20.9987007 130.540491,21.9263751 C130.685806,21.9302728 130.799702,21.9380684 130.90967,21.9497618 C131.549842,22.0316154 132.712362,22.39411 133.376098,23.9571243 C133.74135,24.8263317 133.874882,25.6877436 133.772769,26.5140754 C133.674583,27.2741447 133.423227,27.9757471 133.014774,28.6149848 C133.073686,28.6071893 133.136525,28.6032915 133.203291,28.6032915 C133.458574,28.6032915 133.717785,28.6617583 133.961286,28.7786921 C134.479707,29.0359463 134.825321,29.5348636 134.88816,30.1078389 L135.045258,31.5889996 C135.115951,32.2048506 134.829249,32.8090082 134.314755,33.1559117 C132.091827,34.6604591 130.348047,35.7596362 129.146252,36.4339541 C127.78736,37.1862278 126.62484,37.630576 125.572287,37.7864877 C125.489811,37.8020788 125.39948,37.8059766 125.320932,37.8059766 C125.250238,37.8059766 125.175617,37.8020788 125.104923,37.7942832 C125.073503,37.7903854 125.018519,37.7864877 124.943898,37.7825899 C124.739672,37.7747943 124.55901,37.7592031 124.397985,37.7397142 C122.709188,37.5331312 121.220691,36.3443049 119.877509,34.1186661 C119.571169,34.4889563 119.319813,34.7812906 119.131296,35.0034647 C118.581455,35.6349069 117.858808,35.9857081 117.089031,35.9857081 C117.057611,35.9857081 116.986917,35.9818103 116.963353,35.9818103 C116.924078,35.9779125 116.880877,35.9740147 116.837675,35.9701169 C116.605956,35.9467302 116.378165,35.8843655 116.166084,35.7947163 C115.745848,35.6193157 115.164588,35.2373322 114.799337,34.4110004 C114.579401,33.9198787 114.430158,33.3508012 114.359464,32.7154612 L114.359464,32.7076657 C114.143455,32.8713729 113.962793,33.019489 113.821406,33.1364227 C112.867039,33.97055 111.904818,34.679948 110.950452,35.2490256 C109.831133,35.9233434 108.817855,36.2507579 107.867416,36.2507579 L107.80065,36.2507579 C107.160478,36.2429623 106.594928,36.0831529 106.119708,35.7869207 C105.671981,35.502382 105.314584,35.1242962 105.055374,34.6604591 C105.008245,34.5669121 104.953261,34.4616717 104.906131,34.3525336 C104.776526,34.064097 104.674413,33.7444781 104.576227,33.3624946 C104.564445,33.3040277 104.544807,33.2494586 104.54088,33.2026851 C104.25025,33.5339974 103.884999,33.9549589 103.884999,33.9549589 C103.865361,33.97055 103.853579,33.990039 103.833942,34.0056301 C102.997399,34.8514508 102.043032,35.334777 100.99048,35.4478129 C100.931568,35.4556085 100.86873,35.4595063 100.805891,35.4595063 C100.743052,35.4595063 100.68414,35.4556085 100.621301,35.4478129 C100.582027,35.4439151 100.538825,35.4400173 100.499551,35.4322217 C100.578099,36.9094846 100.369945,38.414032 99.8829437,39.8990905 C99.3802322,41.4270247 98.7047136,42.877003 97.8760251,44.2139454 C97.0866109,45.4846254 96.1204622,46.8605457 95.0011436,48.2988307 C93.8150587,49.7877869 92.8528374,50.8986574 92.0634232,51.6938068 C92.0634232,51.7795583 92.0516409,52.4694673 92.0477135,52.6136856 C92.134117,53.1710697 92.2755046,53.3191858 92.2794321,53.3191858 C92.2755046,53.3191858 92.2794321,53.3191858 92.2794321,53.3191858 C92.2912144,53.3191858 92.3383436,53.3269814 92.4168923,53.3269814 C92.4522392,53.3269814 92.4875861,53.3269814 92.5307878,53.3230836 C93.4772994,53.24123 96.2107932,51.7483759 98.4415755,49.5734084 C99.2624092,48.142919 100.452422,46.7864877 101.991976,45.54699 C102.49076,45.1104374 103.111294,44.7011693 103.837869,44.3386748 C104.336654,44.0892161 104.83151,43.9177133 105.326367,43.8241663 C105.267455,43.5747077 105.232108,43.3174534 105.224254,43.0485058 C105.220326,42.896492 105.239963,42.7444781 105.27531,42.6002599 C105.503101,41.7115634 105.691618,41.216544 105.954756,40.8579472 C106.508524,40.0705933 107.20368,39.4781291 108.000949,39.1000433 C108.719669,38.7609355 109.446245,38.5933304 110.161038,38.5933304 C110.239586,38.5933304 110.318135,38.5933304 110.396684,38.5972282 C111.19788,38.6401039 111.904818,38.9324383 112.435022,39.4469467 C112.85133,39.8445214 113.334404,40.561715 113.267638,41.6920745 C113.232291,42.448246 113.028064,43.1615418 112.662813,43.7890862 C113.189089,43.3096579 113.70751,42.9471633 114.237714,42.6977046 C114.925015,42.374188 115.643735,42.1948896 116.378165,42.167605 C116.50777,42.1598094 116.653086,42.1598094 116.81411,42.1598094 C117.179362,42.1598094 117.634944,42.1715028 118.184785,42.1987874 C119.08024,41.1502815 119.857871,40.4603725 120.580519,40.0511044 C121.362079,39.610654 122.214332,39.3845821 123.117641,39.3845821 C123.34936,39.3845821 123.581079,39.4001732 123.816725,39.4313556 C125.686183,39.6574275 126.385266,40.9398008 126.239951,42.1130359 C126.196749,42.448246 126.086781,42.783456 125.894337,43.1459506 C126.267443,43.3096579 126.565928,43.5902988 126.742663,43.9566912 C127.339633,43.7423127 127.960167,43.6292767 128.588557,43.6292767 C129.028429,43.6292767 129.613617,43.6604591 130.387321,43.7228237 C131.318123,42.709398 132.111465,42.0467735 132.85375,41.6608922 C133.596034,41.2750108 134.389376,41.0801213 135.229847,41.0801213 C135.512622,41.0801213 135.80718,41.103508 136.109592,41.1502815 C137.975123,41.4426159 138.619222,42.7522737 138.434633,43.9177133 C138.387504,44.2490256 138.257898,44.5842356 138.057599,44.9389346 C138.195059,45.0012993 138.324665,45.0870507 138.434633,45.1883932 C138.462125,45.1650065 138.489617,45.1416197 138.521036,45.1143352 C140.315874,43.4694673 142.472035,41.832395 144.910971,40.2576873 C147.126044,38.8700736 147.994006,38.6790819 148.606686,38.6790819 C148.732364,38.6790819 148.854114,38.6868774 148.960155,38.7024686 C149.859537,38.8466869 150.519346,39.4898224 150.739283,40.4291901 C150.853178,40.9125162 150.853178,41.477696 150.735355,42.2026851 C150.487927,43.7890862 149.890957,45.3248159 148.987647,46.7708965 C148.123612,48.1273278 147.118189,49.374621 145.987088,50.4737982 C144.910971,51.522304 143.634555,52.625379 142.197114,53.7518406 C140.692907,54.901689 139.483258,55.7553053 138.521036,56.3360762 C138.505327,56.414032 138.324665,57.0883499 138.28539,57.2247726 C138.238261,57.75877 138.328592,57.945864 138.340374,57.965353 C138.344302,57.965353 138.414996,58.0004331 138.579948,58.0277176 C138.689916,58.0433088 138.795957,58.0511044 138.91378,58.0511044 C139.538242,58.0511044 140.633996,57.8289303 142.428833,56.8194023 C142.888343,55.7864877 143.536369,54.7925509 144.36113,53.857081 C145.731805,52.3018623 147.420601,51.0896492 149.38039,50.2555219 C150.91209,49.6006929 152.479136,49.2654829 154.01869,49.2654829 C154.497837,49.2654829 154.969129,49.300563 155.440421,49.3629277 C155.467913,49.3668255 155.491477,49.3668255 155.515042,49.374621 C159.803799,50.122997 159.654557,52.9216111 159.501387,53.7596362 C159.297161,54.8977913 158.696263,55.9307059 157.698695,56.8194023 C157.031031,57.4313556 156.202343,57.9731485 155.247976,58.4213945 C154.356449,58.8345604 153.429575,59.1814638 152.490918,59.4426159 C151.59939,59.6959723 150.837468,59.8791685 150.220861,59.9961022 C149.934159,60.0506713 149.608182,60.1052404 149.227221,60.1754006 C149.462867,60.2728454 149.741714,60.3469034 150.004852,60.3508012 C150.652879,60.3508012 151.50906,60.1442183 152.51841,59.7427458 C153.233203,59.4621048 155.856729,58.3551321 156.748256,57.9692508 C157.946123,57.3611953 159.143991,56.8466869 160.314366,56.4296232 C160.443971,56.3711563 160.648198,56.2932005 160.98203,56.1996535 C163.16961,55.4824599 165.262932,55.1160676 167.210939,55.1160676 C173.950416,55.1160676 178.686901,59.5595496 178.985386,66.1779991 C179.366347,74.6245128 172.296966,83.8388913 158.048237,85.1173668 C158.024672,85.1212646 158.005035,85.1212646 157.98147,85.1212646 C157.573017,85.1446514 157.105653,85.1563447 156.579376,85.1563447 C150.059836,85.1563447 134.911725,83.4491122 124.888914,82.3187527 C120.615866,81.8354266 117.234346,81.4573408 116.036478,81.3754872 C112.953443,81.2234734 109.776149,81.1494153 106.602783,81.1494153 C62.9572122,81.1494153 28.1208754,95.719359 27.7752612,95.8635773 C27.5592523,95.9571243 27.3314612,96 27.1075975,96" id="Fill-8" fill="#EE3E33"></path>
                <path d="M26.99149,25.9452018 C26.9678724,25.7014442 26.9560637,25.3222657 26.9757449,24.8037972 C26.9836175,24.2891978 26.99149,23.9371035 26.99149,23.7475143 C26.9836175,23.2561299 27.3772432,22.7453997 28.168431,22.2153237 C28.9596188,21.6852477 29.9751732,21.2054708 31.2032856,20.7759932 C32.4392705,20.3426463 33.6831279,20.013767 34.9427303,19.7970936 C36.222014,19.576551 37.1824609,19.4449993 37.8280071,19.4101768 C38.4774896,19.3714851 38.9498405,19.414046 39.2450598,19.5417285 C39.5402791,19.6694111 39.7921996,19.9092995 39.996885,20.2691321 C40.2094429,20.6250956 40.4377459,21.0274891 40.6857301,21.4724434 C40.7093476,21.6194718 40.3708295,22.199847 39.0443107,22.130202 C38.3357843,22.2656229 37.6311942,22.428128 36.9226679,22.6022405 C36.9108591,22.7453997 36.8714965,22.9311198 36.7927714,23.1671391 C36.6825561,23.5231025 36.5408509,23.902281 36.3715918,24.2969362 C36.2023327,24.6915913 36.0133924,25.1171998 35.8008344,25.5776308 C35.5882765,26.0341926 35.4150812,26.4056328 35.2851847,26.6919512 L32.9391752,32.0314032 C33.2462033,31.9772349 33.4272711,32.0584874 33.4626974,32.2674225 C33.5374863,32.6775543 33.0966255,33.637108 32.1440511,35.1499528 C31.9354295,35.5020471 31.6323377,35.7109821 31.2269031,35.7806272 C30.9474288,35.8309264 30.7033809,35.7806272 30.4947592,35.6335988 C30.2822013,35.4865704 30.1523048,35.2737661 30.109006,35.0067935 C30.0460259,34.0433707 30.5459306,32.4105817 31.6087201,30.1045575 C31.8960669,29.4893598 32.1597962,28.9399379 32.4038441,28.4601611 C32.6478921,27.9803842 32.966729,27.376794 33.364291,26.6377829 C33.761853,25.8987718 34.127925,25.2177982 34.4664431,24.5948621 C34.8049613,23.9680569 35.076563,23.4611958 35.2851847,23.0704099 C35.2340133,23.0820174 35.198587,23.0820174 35.1592245,23.0820174 C34.0531361,23.4031583 32.998219,23.7591218 32.0023459,24.1421694 C30.9316838,24.5600396 29.9515557,24.9972556 29.0580252,25.4615558 L29.0265351,25.511855 C29.5776112,25.4963783 30.0184721,25.5157241 30.3530539,25.5698925 C30.4593329,25.5698925 30.5538031,25.5969767 30.6246557,25.651145 C30.6994446,25.7053134 30.7466797,25.7749584 30.7624247,25.8484726 C30.7781698,25.9452018 30.6836996,26.0264543 30.4947592,26.0960993 C30.4317791,26.0806227 30.3491177,26.0806227 30.2389025,26.1038377 C29.6327188,26.1502677 29.1761129,26.204436 28.8651486,26.2586044 L28.0739608,26.3978945 C27.5189485,26.4404553 27.2197929,26.4481936 27.1804303,26.4249786 C27.160749,26.4017636 27.0977689,26.2431277 26.99149,25.9452018 L26.99149,25.9452018 Z M63.2286773,14.4266883 C63.2286773,14.3028749 63.2955937,14.2100148 63.4215539,14.1403698 C63.5042153,14.0668556 63.7561358,13.9817339 64.1655066,13.8772664 C65.393619,13.5251721 67.2830226,13.1227786 69.8494625,12.6700859 C70.0265941,12.6391326 70.2115982,12.6081792 70.3887298,12.5772259 C69.9596778,12.9950961 69.4400917,13.5251721 68.8102905,14.1713232 C68.298577,14.6704459 67.7042022,15.2817744 67.0192933,16.0014397 C64.492216,15.3552886 63.2286773,14.8290817 63.2286773,14.4266883 L63.2286773,14.4266883 Z M54.667317,37.9318846 C55.1317954,38.6670266 55.5608475,39.181626 55.950537,39.4795519 C56.3402265,39.8123004 56.7614061,39.9786746 57.2062032,39.9786746 C57.8832395,39.9786746 58.6901723,39.6188419 59.6348741,38.9030458 C60.5717034,38.1679039 60.3788268,33.8499123 59.4183799,34.4457642 C59.3829536,34.4457642 59.3593361,34.4535025 59.343591,34.4728483 C59.3199735,34.488325 59.2766747,34.5154092 59.205822,34.5502317 C59.1703957,34.5695775 59.1389057,34.5889234 59.1152881,34.6160076 C59.083798,34.6430917 59.0562442,34.6624376 59.0168817,34.6817834 C58.6626185,34.8713727 58.394953,34.971971 58.2178214,34.971971 C57.9501559,34.971971 57.8202594,34.8365501 57.8202594,34.5734467 C57.8202594,34.3838575 57.9226021,34.0936699 58.13516,33.7106222 L58.2965465,33.4243038 C58.9932641,32.1436091 60.4339344,29.976875 62.6224936,26.916363 C63.6026218,25.53507 64.5158335,24.3124128 65.3700014,23.2483916 C66.5272611,22.9311198 67.7120747,22.6254555 68.9165695,22.3275296 C71.6404597,21.6968552 74.9508524,21.0584424 78.8438111,20.4122914 C79.3594609,20.3233005 79.6901065,20.2265713 79.8278755,20.1259729 C80.0050071,20.0021595 80.095541,19.8357853 80.095541,19.6268502 C80.095541,19.2941018 79.9892621,19.0116525 79.7767042,18.7872407 C79.56021,18.539614 79.3043533,18.4196698 79.0012614,18.4196698 C78.8083848,18.4196698 77.9975157,18.4970531 76.5765267,18.655689 C74.7264857,18.8298016 72.4119662,19.1277275 69.6408409,19.5455977 L68.3851747,19.7313178 L69.2117888,18.8646241 C71.2350252,16.7327125 72.7150581,15.2198677 73.6400786,14.3260899 C74.1517921,13.8733972 74.5375453,13.4477887 74.7894658,13.0453952 C74.9980875,12.6933009 75.1083027,12.3179916 75.1083027,11.9155981 L75.1083027,11.8730373 C75.9152355,11.7647006 76.7300408,11.6641022 77.5605911,11.567373 C80.6190633,11.2346246 83.2406108,10.990867 85.4331063,10.8322311 C87.9050761,10.6581185 90.1329979,10.5691276 92.1247442,10.5691276 L92.5537963,10.5691276 C93.4788168,10.5691276 93.9393589,10.2982859 93.9393589,9.75660233 C93.9393589,9.49736807 93.8409525,9.21878796 93.6480759,8.91699285 C93.4709443,8.63841274 93.2505139,8.42947766 92.9828484,8.28631844 C92.5892226,8.0967292 91.7350547,8 90.4203447,8 C89.2276586,8 88.4443434,8.0116075 88.0703989,8.02708418 C85.4606601,8.06190669 83.2602921,8.13929005 81.4811037,8.26310343 C74.9351073,8.66549692 69.322004,9.20718046 64.64573,9.88815405 C62.4217445,10.2054258 60.870859,10.5884735 60.0088186,11.0450353 C59.1467782,11.4783821 58.7216623,12.1709632 58.7216623,13.1150403 C58.7216623,14.1481082 59.1231606,14.949026 59.9222209,15.5294012 C60.7055362,16.1059072 61.8391784,16.3922257 63.3113387,16.3922257 C64.2363592,16.3922257 65.4723441,16.260674 67.0192933,16.0014397 C66.5784325,16.4618707 66.0982091,16.9726009 65.5825593,17.5297611 C64.2521043,18.9265308 63.2444223,20.0485896 62.567386,20.8843299 C62.1225889,20.9733207 61.894286,21.0158816 61.8746047,21.0158816 L59.4459337,21.5382193 C58.304419,21.7665002 57.5368488,22.0296036 57.127478,22.3275296 C56.7023622,22.6061097 56.4819318,23.0123723 56.4819318,23.53471 C56.4819318,24.0222252 56.7023622,24.4439645 57.127478,24.7921897 C57.5368488,25.1404148 58.0603711,25.3183965 58.7019811,25.3183965 L59.0168817,25.3183965 C59.0011366,25.3725649 58.9578378,25.4422099 58.8909214,25.5273316 C58.8161325,25.6163225 58.7334711,25.72079 58.6429372,25.8446034 C58.4303793,26.1038377 58.3162278,26.2547352 58.2965465,26.2856886 C58.2099489,26.409502 57.9777097,26.7345121 57.6037652,27.2568498 C57.4463149,27.4851307 57.2022669,27.8101408 56.8873663,28.228011 C56.7259798,28.4562919 56.4819318,28.7774329 56.1630949,29.1991722 C55.2616919,30.4566518 54.651572,31.334953 54.3524164,31.8224682 C53.8485755,32.6969002 53.6045275,33.5984163 53.6045275,34.5231475 C53.6045275,35.5716921 53.9587907,36.7092275 54.667317,37.9318846 L54.667317,37.9318846 Z M91.8688875,25.0630314 L91.8728237,25.1365456 C87.7161357,29.9227066 85.0434168,32.3757592 83.8625395,32.4995726 C83.4452962,32.4531426 83.2209295,32.2442075 83.197312,31.8766365 C83.1303956,30.874522 83.5318939,29.95366 84.4214881,29.1179196 C85.3032098,28.2821793 86.2912105,27.5934674 87.3854901,27.0633914 C88.0664626,26.7306429 88.9048855,26.3475953 89.9046949,25.9103793 C90.5069423,25.6434067 91.1603611,25.3648266 91.8688875,25.0630314 L91.8688875,25.0630314 Z M128.546936,27.3497098 C128.527254,27.5354299 128.334378,27.7830566 127.972242,28.0964593 C127.610106,28.4098619 127.047221,28.7851712 126.29146,29.218518 C125.531762,29.655734 124.567379,30.1432492 123.394374,30.6849327 C122.98894,30.2206326 122.492971,29.8801458 121.902533,29.655734 C123.260542,28.804517 124.52408,28.1506276 125.704958,27.7018041 C126.740193,27.307149 127.503827,27.1059522 128.003732,27.1020831 C128.078521,27.1020831 128.137565,27.1059522 128.204481,27.1098214 C128.444593,27.1407747 128.570553,27.2220273 128.546936,27.3497098 L128.546936,27.3497098 Z M92.2861308,21.7471544 C91.3217477,21.9019211 90.2195955,22.2424079 88.9836107,22.7724839 C87.7476258,23.3025599 86.5273859,23.9641877 85.3228911,24.7573672 C84.1223325,25.5505466 83.091033,26.432717 82.2408014,27.3922707 C81.760578,27.9339542 81.3905698,28.4756377 81.1229043,29.0134521 C80.0483059,30.2593242 77.6393163,32.4183201 76.7890847,32.8439286 C76.0648133,33.199892 75.265753,32.7355918 75.2500079,32.1590858 C75.2342629,31.7837765 75.387777,31.1376254 75.7302314,30.2245017 C75.9703431,29.7292482 76.2261998,29.3113781 76.4820566,28.9824988 C76.7418496,28.6458811 77.1039853,28.1970576 77.5684637,27.6205516 C78.0368783,27.0517839 78.2809263,26.6880821 78.3084801,26.5333153 C78.3360339,26.432717 78.3281614,26.2353894 78.2809263,25.9258559 C78.1903924,25.3803032 78.0093245,24.9005264 77.7337865,24.4749179 C77.5291011,24.1615153 77.2653718,23.9796644 76.9425987,23.9409727 C76.840256,23.9293652 76.7300408,23.9293652 76.6080168,23.948711 C76.3993952,23.9835335 76.1120484,24.0493094 75.7381039,24.1499078 C75.3720319,24.2543753 74.8209559,24.4130112 74.1006207,24.6296846 C73.3684768,24.8386197 72.6599505,25.0475548 71.9632329,25.2448824 C72.0773843,24.869573 72.1206832,24.5600396 72.0813206,24.316282 C72.0301492,24.0183561 71.9002527,23.8481127 71.6876948,23.8016826 C71.6168422,23.7900751 71.538117,23.786206 71.4515194,23.8016826 C71.2980053,23.8248976 71.0893837,23.902281 70.8295907,24.0299636 C69.8219087,24.823143 69.0543385,25.7323975 68.5190075,26.7577271 C67.9836764,27.7869258 67.7711185,28.6458811 67.88527,29.3423314 C67.8970788,29.4158456 67.9128238,29.4854906 67.9325051,29.5512665 C68.0584653,29.930445 68.3300671,30.1200342 68.7512467,30.1122959 C68.8220993,30.1084267 68.8968882,30.1045575 68.9716771,30.09295 C68.4009197,31.2034013 62.933458,36.3919557 64.2048692,36.2642732 C64.1300803,36.3571332 64.0828452,36.4151707 64.0828452,36.4151707 C64.1064627,36.3842174 64.1733791,36.3261799 64.263913,36.2526657 C64.3938095,36.2294507 64.5670049,36.167544 64.8110528,36.0553381 C66.6177951,35.2002519 68.1096367,33.5171638 68.7315654,32.785891 C69.3456216,32.0507491 69.8022274,31.4703739 70.101383,31.0408962 C70.3966023,30.6152877 70.6682041,30.1316417 70.8965071,29.5822198 C70.9161883,29.5744815 70.9398059,29.5667432 70.9752322,29.5551356 C71.1759813,29.4661448 71.6168422,29.2959014 72.2899422,29.0444055 C73.0614487,28.758087 73.7266763,28.5065911 74.2816886,28.2821793 L74.3525412,28.3363477 C73.4983733,29.655734 72.8843171,30.7777928 72.5064364,31.7063931 C72.4159025,31.9385432 72.3371773,32.1745625 72.2781335,32.4105817 C72.0931294,33.1186395 72.0655756,33.8537814 72.1836633,34.6082692 C72.40803,35.3511495 72.7780382,35.892833 73.3015604,36.2217123 C73.6873137,36.4732083 74.0927482,36.60476 74.5060553,36.6163675 C74.6438243,36.6241058 74.7894658,36.6124983 74.9272348,36.5931525 C75.5688448,36.4538624 76.4505665,35.8425339 77.5842087,34.7552976 C78.2887988,34.0781932 79.0091339,33.2540604 79.7373416,32.2945067 C80.0483059,31.8843749 80.3632065,31.451028 80.6781071,30.9944662 C80.6781071,31.0215504 80.6781071,31.0447654 80.6820434,31.0718496 C80.7253422,31.6677014 80.9457727,32.2674225 81.3472709,32.8710127 C81.7487692,33.4707338 82.2132476,33.9543798 82.7485786,34.3258199 C83.2799734,34.6933909 83.7287068,34.8636343 84.0947787,34.8404193 C84.5435121,34.6508301 85.0788431,34.2987358 85.7086443,33.7841364 C86.3384456,33.2734062 87.2477211,32.4763576 88.4325346,31.3891213 C89.6173481,30.3096234 90.2510856,29.7331174 90.318002,29.6712107 L90.3927909,29.7331174 C89.692137,31.3465605 89.3378738,32.6775543 89.3418101,33.7106222 C89.4677703,34.6353534 89.9479938,35.1576911 90.7864166,35.2815045 C91.4201541,35.2428128 92.2152781,34.8984568 93.1796612,34.2523058 C94.1519169,33.6100238 95.1163,32.8477977 96.0728106,31.9733657 C96.7774007,31.3310838 97.9464692,30.4798668 98.7730833,29.7911549 C98.7022306,30.1587259 98.6510593,30.5146893 98.6431868,30.8551761 C98.662868,31.7644306 98.8242546,32.4879651 99.1391552,33.0219103 C99.4501196,33.5558555 99.8516178,33.8499123 100.331841,33.9002115 C100.98526,33.8305664 101.59538,33.5171638 102.154329,32.9600036 C102.170074,32.9483961 102.185819,32.9251811 102.2055,32.9019661 C102.355078,32.7317227 102.701468,32.3370675 103.240736,31.7102623 C103.858728,30.9944662 104.433422,30.3521843 104.96088,29.7834166 C105.488339,29.2146489 106.070905,28.6458811 106.704642,28.0732443 C107.334444,27.5044765 107.956372,27.0246997 108.570428,26.6300445 L108.641281,26.7074279 C108.019352,27.5470374 107.507639,28.251226 107.129758,28.8238629 C106.747941,29.3964998 106.405487,30.0039591 106.102395,30.6578486 C105.799303,31.3078688 105.63398,31.9153282 105.598554,32.4763576 C105.60249,32.4802268 105.606426,32.4995726 105.618235,32.5266568 C105.637916,32.6156476 105.685152,32.8013677 105.75994,33.0876861 C105.830793,33.3740046 105.909518,33.6100238 105.99218,33.8034823 C106.019733,33.8653889 106.051224,33.9272956 106.082714,33.9775948 C106.196865,34.1865299 106.362188,34.3606425 106.566873,34.488325 C106.771559,34.6160076 107.039224,34.6856526 107.36987,34.6895218 C108.003607,34.7011293 108.755432,34.4496333 109.621409,33.935034 C110.491322,33.4204346 111.369108,32.7820219 112.254765,32.0120574 C112.982973,31.381383 114.510241,30.3637918 115.714736,29.3771539 C115.596648,29.7331174 115.502178,30.0890808 115.462815,30.437306 C115.423453,30.7120169 115.423453,31.0022045 115.451007,31.3078688 C115.502178,31.7450848 115.549413,32.1939083 115.600584,32.6582085 C115.651756,33.1225087 115.758035,33.521033 115.907613,33.8615198 C116.017828,34.1130157 116.179214,34.2832591 116.3839,34.3645116 C116.458689,34.395465 116.529541,34.4148108 116.608266,34.4225492 C116.899549,34.4380258 117.163279,34.3064741 117.411263,34.027894 C117.647438,33.7531831 117.989893,33.3585279 118.422881,32.8323211 C118.863742,32.3138525 119.35971,31.8727674 119.922595,31.5090656 C121.256987,34.441895 122.681912,35.9973006 124.181626,36.1791515 C124.307586,36.190759 124.449291,36.2062357 124.590997,36.213974 C124.736638,36.2178432 124.838981,36.2217123 124.898025,36.2333198 C125.736448,36.1056373 126.740193,35.7264588 127.901389,35.0841769 C129.070458,34.4380258 130.75124,33.3817429 132.95948,31.9075899 L132.80203,30.437306 C131.880946,30.9789895 131.101567,31.4394205 130.459957,31.8147298 C129.818347,32.1900391 129.243653,32.5073109 128.735876,32.762676 C128.228099,33.0219103 127.740003,33.2192379 127.271588,33.3623971 C126.917325,33.4668646 126.586679,33.5249021 126.287524,33.5326405 C126.185181,33.5365097 126.086775,33.5326405 125.992304,33.5249021 C125.370376,33.3972196 124.8193,32.9367886 124.319395,32.1436091 C124.252479,32.0314032 124.181626,31.911459 124.110773,31.7837765 C124.405993,31.6522248 124.97675,31.4200747 125.8073,31.0950646 C126.641787,30.7739236 127.373931,30.4682593 128.007668,30.1819409 C128.645342,29.8994916 129.200354,29.5976965 129.684514,29.2842939 C130.8772,28.5259369 131.546364,27.5934674 131.688069,26.4868853 C131.751049,25.9529401 131.656579,25.3919107 131.400722,24.799928 C131.152738,24.2040761 130.78273,23.879066 130.29857,23.8210285 C130.227718,23.8132901 130.14112,23.809421 130.066331,23.809421 C129.814411,23.8132901 129.527064,23.8597202 129.200354,23.9525802 C128.76343,24.0763936 128.326505,24.2311603 127.885644,24.4168804 C127.771493,24.4671796 127.665214,24.5136096 127.566807,24.5561704 C127.259779,24.6877221 126.99605,24.8076664 126.787428,24.9121339 C126.492209,25.0552931 126.07103,25.260359 125.512081,25.53507 C123.634486,26.5681379 121.142835,28.1119359 118.029255,30.1703334 L118.214259,29.2765555 C118.296921,29.2107797 118.391391,29.1372655 118.489797,29.0598821 C119.186515,28.5143294 120.257177,27.6940658 121.686039,26.5990912 C123.323522,25.3493499 124.665786,24.316282 125.720703,23.4998875 C126.77562,22.6796239 127.869899,21.8129302 128.999605,20.8959374 C130.125375,19.9750754 131.093694,19.1470734 131.892755,18.4080623 C132.262763,18.0675755 132.593408,17.7503037 132.872883,17.4562469 C133.719178,16.5663382 134.175784,15.8737571 134.234828,15.3823728 C134.289935,14.9645026 134.089186,14.7284834 133.636517,14.6704459 C133.542046,14.6588383 133.44364,14.6549692 133.341297,14.6511 C132.636707,14.6433617 131.837647,14.8909884 130.94018,15.3901111 C127.917134,17.0615918 125.319204,18.8027174 123.150326,20.6173573 C122.843298,20.8765915 122.540207,21.1358258 122.248923,21.3989292 C121.005066,22.5171188 119.90685,23.5656634 118.970021,24.5523013 C118.596076,24.9353489 118.261495,25.3222657 117.934785,25.7091825 C117.222323,26.2508661 116.191023,27.0130922 115.171532,27.7598416 C115.171532,27.7598416 112.770415,29.5203131 111.95561,30.0968192 C111.136868,30.6694561 110.495258,30.9635128 110.03078,30.9828587 C109.743433,30.9751203 109.523003,30.5727269 109.526939,30.2090251 C109.558429,29.6944257 109.782796,29.1643497 110.207912,28.618797 C110.625155,28.0732443 111.231339,27.3884015 112.030399,26.5642687 C112.821587,25.744005 113.352981,25.144284 113.616711,24.7805822 C113.663946,24.7380213 113.687563,24.5600396 113.6915,24.2427678 C113.703308,23.762991 113.589157,23.2251766 113.345109,22.637063 C113.108933,22.0450803 112.904248,21.7510235 112.746798,21.7471544 C112.687754,21.7548927 112.612965,21.7665002 112.53424,21.785846 C111.9871,21.9173978 111.117187,22.3662213 109.920565,23.1323166 C108.893202,23.7900751 108.13744,24.3046745 107.661153,24.6799838 C107.499766,24.8037972 107.373806,24.9121339 107.2754,25.0049939 C106.114204,25.8523417 105.224609,26.5526612 104.618426,27.1020831 C104.008306,27.6553741 103.299779,28.3789085 102.484974,29.2765555 C102.130711,29.6286498 101.504846,29.6634724 101.603252,29.2610789 C101.65836,29.125658 101.729213,28.9824988 101.811874,28.8316012 C101.863045,28.7503487 101.933898,28.6536195 102.028368,28.5375444 C102.303906,28.2009268 102.756576,27.72115 103.382441,27.1020831 C104.216927,26.2740811 104.854601,25.6085842 105.295462,25.097854 C105.732387,24.5871238 105.956753,24.1499078 105.964626,23.7707293 C105.964626,23.3025599 105.641853,23.0626715 104.984498,23.051064 L104.201182,23.0355873 C103.736704,23.027849 103.374568,23.0781482 103.110839,23.1826157 C102.84711,23.2870833 102.630616,23.4225042 102.461357,23.5927476 C102.292098,23.762991 101.863045,24.2311603 101.162392,24.9972556 C101.004941,25.1868448 100.847491,25.3841724 100.690041,25.5931075 C100.453865,25.9181176 100.229499,26.2740811 100.024813,26.6532595 C99.5052272,27.1098214 98.7967008,27.7018041 98.0881744,28.2899177 C98.0881744,28.2899177 97.4150744,28.8354704 97.10411,29.102443 C96.4349463,29.6441265 95.8405714,30.1084267 95.4784357,30.3753993 C95.4272643,30.4102218 95.3642842,30.4566518 95.3091766,30.4914743 C95.3013041,30.4953435 95.2894953,30.5108202 95.2776865,30.5146893 C94.5140526,31.0099429 93.83308,31.2807846 93.2308326,31.3233455 C92.6955016,31.288523 92.396346,31.0486345 92.3333659,30.6075494 C92.3097483,29.8530616 92.9080595,28.6729653 94.1322356,27.0633914 C94.6478853,26.3824178 94.887997,25.7749584 94.8486344,25.2255365 C94.8092719,24.7031988 94.4825625,24.316282 93.848825,24.0570477 C94.4864988,23.7978135 94.8368257,23.5501867 94.9076783,23.3141675 C94.9155508,23.2793449 94.9194871,23.2483916 94.9155508,23.2135691 C94.8840608,22.7299231 94.6242678,22.3507446 94.1401081,22.0760337 C93.6559484,21.8051919 93.1521074,21.6852477 92.6285852,21.7239394 L92.2861308,21.7471544 Z M109.853648,40.3539839 C110.247274,40.3733297 110.562175,40.4971431 110.802286,40.725424 C111.042398,40.9575741 111.152613,41.2709767 111.128996,41.6695011 C111.085697,42.4936339 110.755051,43.186215 110.140995,43.7472443 C109.526939,44.3082737 108.798731,44.6526297 107.952436,44.7725739 C107.535193,44.7532281 107.180929,44.5791155 106.901455,44.2541054 C106.618045,43.9290952 106.468467,43.5383093 106.456658,43.0662708 C106.618045,42.4433347 106.755814,42.0564179 106.869965,41.9055203 C107.267527,41.3483601 107.732006,40.9498358 108.271273,40.6983399 C108.818413,40.4391056 109.341935,40.3268997 109.853648,40.3539839 L109.853648,40.3539839 Z M40.240933,44.9969856 C40.3865745,44.3663112 40.4259371,43.9020111 40.3590207,43.5963468 C41.2486149,43.4725334 42.3389583,43.3293742 43.6379233,43.1668691 C44.9368883,43.0043641 46.200427,42.9463265 47.4324756,42.9888874 C48.6645242,43.0353174 49.7666763,43.3216358 50.738932,43.8517119 C51.7072513,44.3779187 52.32918,45.2407432 52.5811005,46.4363162 C52.6519532,46.7381113 52.6834432,47.0824673 52.6913157,47.4655149 C52.7385508,48.7655554 52.4315227,50.0655959 51.7662952,51.3462905 C51.0971314,52.6308544 50.1563658,53.8496423 48.9400623,55.0103928 C47.7276949,56.167274 46.3460685,57.2235569 44.795183,58.1792415 C43.2482338,59.1310568 41.6225594,59.9706663 39.9102874,60.6942007 C38.819944,61.1120709 37.5406603,61.5222027 36.0724362,61.9245962 C34.2381402,62.218653 33.2462033,61.9981104 33.0848167,61.2707068 C33.0493904,60.6787241 33.1989682,60.0403113 33.5414226,59.3554686 L39.7095382,46.6065596 C39.9260324,46.1654744 40.0992277,45.6276601 40.240933,44.9969856 L40.240933,44.9969856 Z M26.6018005,51.1760471 C27.0898964,50.9825887 27.5858649,50.7775228 28.0897058,50.5531111 C28.5935468,50.3325685 29.1288778,50.0810726 29.6996352,49.7986233 C30.2703925,49.5200432 30.7860423,49.2646781 31.2544569,49.0402663 C31.7189353,48.8158546 32.1558599,48.6030503 32.5652307,48.4134611 C33.3564185,48.0845818 33.730363,47.790525 33.6713191,47.5158141 C33.6044027,47.2178882 33.0021553,47.190804 31.8685131,47.4268232 C31.7228716,47.4616457 31.4866961,47.5196833 31.1678593,47.6164125 C30.8450861,47.7015342 30.5971019,47.7711792 30.4160341,47.8060017 C31.1954131,47.1869348 32.3684178,46.5214379 33.9350483,45.8133801 C35.5095514,45.097584 36.9384129,44.5868538 38.2255691,44.2773204 L31.163923,58.0206056 C30.4239066,59.4831511 29.9161294,60.8064066 29.6445276,61.9865029 C29.3729258,63.1665992 29.3886708,64.4589013 29.6956989,65.8634094 C29.8570855,66.4089621 30.3530539,66.753318 31.1836043,66.8964773 C32.0141546,67.0396365 33.0690717,66.9777298 34.3404829,66.7107572 C36.2889304,66.3044945 38.4617446,65.5306609 40.8471167,64.3969946 C43.2324888,63.2671976 45.5351994,61.851082 47.7552487,60.1563864 C49.975298,58.4578216 51.7977853,56.5696675 53.2227105,54.4880551 C54.6397632,52.4064426 55.3915884,50.274531 55.4663773,48.0923202 C55.4821224,46.939308 55.3876522,45.8946327 55.186903,44.9621631 C54.9192375,43.7278985 54.4744404,42.6019706 53.8525117,41.5882485 C53.2345193,40.5783956 52.4393952,39.7310478 51.4671396,39.0384667 C50.494884,38.3458856 49.3769868,37.8661088 48.1055756,37.595267 C45.9681878,37.1387052 43.3702578,37.227696 40.3078494,37.869978 C38.4696171,38.2530256 36.6510661,38.7869708 34.8521964,39.4756827 C33.0533266,40.1643947 31.4040347,40.9420974 29.9003843,41.8049219 C28.3927977,42.6677464 27.2079841,43.5383093 26.3380712,44.4050029 C25.464222,45.2755658 25.0233612,46.0764836 25.0233612,46.8038872 C25.0272974,47.1791965 25.0036799,47.76731 24.9485723,48.5643587 C24.8974009,49.3575381 24.8895284,49.9146983 24.9367635,50.2397085 C25.1926203,51.0406263 25.7476326,51.3501597 26.6018005,51.1760471 L26.6018005,51.1760471 Z M79.178393,55.0568228 C78.2691175,56.0782832 77.2614356,56.6818734 76.1553472,56.8830701 C75.0964939,56.8946776 74.5296728,56.4226391 74.4430751,55.4669546 C74.3682862,54.0933999 74.7894658,52.9287803 75.6869325,51.9808341 C76.5922718,51.0290188 77.9187906,49.9959509 79.666489,48.8816304 C78.7887035,50.734962 78.3714602,52.2439376 78.4068865,53.4085572 C78.536783,53.9734557 78.7926398,54.5267467 79.178393,55.0568228 L79.178393,55.0568228 Z M63.1263346,55.0877761 C63.3034662,55.6410672 63.5947492,56.1750124 64.0119925,56.6857426 C63.1814422,57.7613713 62.2209953,58.4346066 61.130652,58.7131867 C60.075735,58.7944392 59.4734875,58.3649615 59.3199735,57.4170153 C59.1467782,56.0473298 59.4813601,54.8633644 60.3197829,53.8496423 C61.1503333,52.8397894 62.4020632,51.7177307 64.0631639,50.4834661 C63.3192112,52.3948351 63.0082469,53.9270257 63.1263346,55.0877761 L63.1263346,55.0877761 Z M91.6720746,44.3353579 C92.2546407,43.1436541 92.9080595,42.0254645 93.6402034,40.9807891 C94.368411,39.9322446 95.0415111,39.1622801 95.6555673,38.6631574 C95.2619415,40.1527872 94.50618,41.7933144 93.3961554,43.5847393 C92.2861308,45.372295 91.2981301,46.6878121 90.4321534,47.5312908 C90.6801377,46.5949521 91.0895085,45.5309308 91.6720746,44.3353579 L91.6720746,44.3353579 Z M140.044744,49.1872947 C140.902848,48.1697035 141.81606,47.2411032 142.780443,46.3976245 C143.744826,45.558015 144.591122,44.9660323 145.303584,44.6294147 C144.551759,45.9836235 143.414181,47.3920007 141.898721,48.8661538 C140.383262,50.3403068 139.103978,51.3811131 138.056934,51.9924416 C138.525349,51.1412246 139.18664,50.2048859 140.044744,49.1872947 L140.044744,49.1872947 Z M151.015094,53.8999415 C152.317995,53.2770054 153.313868,53.0293787 154.00665,53.1493229 C154.018458,53.1609304 154.030267,53.1880146 154.046012,53.2305754 C154.061757,53.2731363 154.061757,53.3389121 154.042076,53.427903 C153.990905,53.7296981 153.691749,54.1088766 153.136737,54.5847843 C152.585661,55.0568228 151.837772,55.5133846 150.877325,55.9467315 C149.920814,56.3839475 148.834407,56.7089576 147.610231,56.9333693 C148.574614,55.5288613 149.712193,54.5190084 151.015094,53.8999415 L151.015094,53.8999415 Z M105.098649,54.9059252 C104.594808,55.1187295 104.059477,55.1806362 103.528082,55.1574212 C102.799875,55.1148603 102.280289,54.9562244 101.969324,54.6660368 C101.666233,54.3797184 101.504846,53.9076798 101.504846,53.2615288 C101.56389,53.0564629 101.603252,52.8707428 101.611125,52.6966302 C102.122838,52.4025734 102.839237,51.8841049 103.756385,51.1412246 C104.673533,50.3983444 105.496211,49.6167724 106.240164,48.7887704 C106.972308,47.9568993 107.358061,47.260449 107.389551,46.683943 C107.409232,46.3047645 107.263591,46.0107077 106.944754,45.8056418 C106.625917,45.6005759 106.267718,45.48837 105.866219,45.465155 C105.31908,45.4380708 104.744386,45.5734917 104.13033,45.879156 C103.52021,46.1809511 103.012433,46.5059612 102.618807,46.8580555 C101.146647,48.0304135 100.056303,49.2762856 99.3241593,50.5995411 C96.9427235,52.967472 93.7307373,54.8362802 92.1837881,54.9639627 C90.837588,55.083907 90.058209,54.32555 89.8495873,52.6927611 C89.8574598,52.6076394 89.8613961,52.3522743 89.8653323,51.9382733 C89.8692686,51.5204031 89.8889499,51.1876547 89.92044,50.9361587 C90.7195002,50.2048859 91.8019711,48.9899672 93.1717887,47.2991407 C94.2542596,45.9139785 95.1832163,44.6100688 95.9507866,43.3874117 C96.7104843,42.1647546 97.3245405,40.8569758 97.7890189,39.4602061 C98.2534973,38.0673055 98.4188201,36.6821433 98.3007324,35.3085887 C98.2141347,34.3258199 97.9622142,33.8460431 97.5607159,33.8847348 C97.1316638,33.9195573 96.308986,34.5657084 95.0887462,35.8154497 C93.1599799,37.8545013 91.5421781,39.850992 90.2392768,41.8010528 C88.9363756,43.7472443 87.9601837,45.7437351 87.3185737,47.7827867 C86.9328204,49.0054438 86.7005813,50.2397085 86.6100473,51.4894498 C86.1140789,52.0659558 85.5984291,52.5573402 85.1772496,52.8436586 C84.4293606,53.358258 83.6263641,53.520763 83.2563559,53.4898097 C84.11446,51.7525532 84.4765957,50.2048859 84.358508,48.8584154 C84.2443565,47.5583749 83.7050892,46.892878 82.7525149,46.8619247 C83.2642284,46.4866154 83.4925313,46.0571377 83.4531687,45.5850992 C83.3823161,44.8035272 82.6304909,44.4707788 81.1898206,44.5945922 C79.5838275,44.7338822 77.9975157,45.2755658 76.4190764,46.2196428 C74.8445734,47.167589 73.5810347,48.3747694 72.6442054,49.8411841 C72.1167469,50.665317 71.7624837,51.5049264 71.5735434,52.3677509 C71.5735434,52.3677509 71.1169375,53.2383138 70.0502117,54.0198857 C69.1921075,54.6505601 68.3733659,54.8362802 67.9758039,54.8401494 C68.7040116,53.0448554 68.9598683,51.4778423 68.7433742,50.1391101 C68.5386888,48.8506771 67.9521864,48.227741 67.0035483,48.2625635 C67.4798355,47.8485626 67.6845209,47.4074774 67.6057957,46.939308 C67.4837717,46.1654744 66.7043927,45.8868943 65.2794675,46.1074369 C63.6892194,46.3550637 62.1422702,47.0012147 60.6386198,48.0574976 C59.1310331,49.1060422 57.9619646,50.3983444 57.127478,51.9266658 C56.2890552,53.4549872 55.9977721,55.0065236 56.2536288,56.581275 C56.4819318,58.0206056 57.0566254,59.2316552 57.9737734,60.2105547 C58.8909214,61.1855851 60.0363724,61.5725019 61.40619,61.3558285 C63.2483586,61.0695101 64.9606306,59.8816754 66.5430062,57.7884555 C67.8537799,57.5369596 68.9559321,57.1384352 69.84159,56.5735367 C70.4320287,56.1982274 70.9909772,55.6410672 71.5026907,54.9214019 C71.6876948,56.167274 72.1561095,57.2467719 72.9000622,58.1637648 C73.7463575,59.2007018 74.8603184,59.6611329 76.2419449,59.5450578 C78.0998584,59.3864219 79.8908556,58.3107932 81.6188727,56.3336483 C82.9453915,56.1750124 84.0711612,55.8500022 84.9922455,55.3508796 C85.5630028,55.0452153 86.1140789,54.5847843 86.6297286,53.9850632 L86.6297286,54.0005399 C86.6533462,54.2249516 86.7202625,54.7008593 86.8422865,55.4243938 C87.0115456,56.3646016 87.4287889,57.1306969 88.0900802,57.7110721 C88.7474352,58.2953165 89.5858581,58.5429433 90.5974763,58.4578216 C91.4280266,58.3881765 92.2388957,58.1289423 93.0340197,57.6878571 C93.8252075,57.2506411 94.5652239,56.7089576 95.2461965,56.0666757 C95.6713123,55.6642822 97.2025165,54.2945967 98.3952025,53.1996221 C98.3361587,53.5323705 98.2967961,53.865119 98.2810511,54.2017366 C98.1472183,56.7050884 98.9541511,58.2450173 100.709722,58.8099159 C100.930152,58.8756917 101.107284,58.9066451 101.241117,58.9143834 C102.276353,58.9685518 103.5517,58.5506816 105.067159,57.6569038 C106.251973,56.9643227 110.518876,53.7567823 110.518876,53.7567823 C109.672581,55.0993836 109.184485,56.3143024 109.046716,57.3976695 C108.960118,58.0786431 109.054588,58.6628875 109.322254,59.1504027 C109.585983,59.641787 110.050461,59.9667971 110.692071,60.125433 C111.707626,60.2492464 112.81765,60.1060872 114.010336,59.6920862 C115.203022,59.2780852 116.391772,58.7170558 117.568713,58.0012597 C118.725973,57.3009403 122.343394,55.0181311 122.343394,55.0181311 C121.445927,56.3297791 120.910596,57.525352 120.741337,58.6009808 C120.631122,59.2780852 120.705911,59.8700679 120.953895,60.3653215 C121.205815,60.8644441 121.650612,61.2049309 122.292222,61.3867818 C123.303841,61.5454177 124.413865,61.437081 125.622296,61.0656409 C126.830727,60.6942007 128.035222,60.171863 129.235781,59.502497 C130.286761,58.9143834 131.475511,58.1753723 132.786285,57.3125478 C132.786285,57.3318936 132.782349,57.3473703 132.774476,57.3667162 C132.73905,57.5872587 132.691815,58.0631664 132.628835,58.7983084 C132.561918,59.7501237 132.774476,60.585864 133.274381,61.3132676 C133.778222,62.0368021 134.526111,62.4778873 135.52592,62.6287848 C136.352534,62.7603365 137.202766,62.7061682 138.084488,62.4662797 C138.958337,62.2302605 139.808569,61.8781662 140.62731,61.4216044 C141.379135,60.9959959 142.166387,60.4852657 142.97332,59.8971521 C142.898531,61.0424259 143.115025,62.0484096 143.626738,62.9189724 C144.228986,63.944302 145.18156,64.5711072 146.472653,64.7993881 C147.346502,64.9502857 148.350248,64.9038557 149.476017,64.6600981 C150.593914,64.4124713 151.841708,63.944302 153.215462,63.25559 C158.037377,61.4448194 161.564264,59.0381968 164.980936,58.5932425 C171.196287,58.3494849 172.172478,65.5654834 164.638481,68.9123139 C157.080867,72.2707518 129.771112,63.9752553 113.167977,62.4430647 C68.0505928,57.7420255 3,77.0801278 3,77.0801278 C3,77.0801278 25.814549,79.4635353 26.4640315,94 C26.4640315,94 66.6571576,77.1072119 115.702927,79.4867503 C120.017065,79.7614613 149.920814,83.6112836 157.541409,83.2088901 C183.839546,80.8680434 181.918652,50.9516354 161.139148,57.7613713 C161.139148,57.7613713 160.749459,57.8619697 160.615626,57.9354839 C159.505602,58.3224007 158.344406,58.813785 157.124166,59.4212444 C156.242444,59.8042921 153.526426,60.9418275 152.78641,61.2281459 C151.570106,61.7079228 150.511253,61.9478112 149.613786,61.9516804 C148.763555,61.9400729 147.799171,61.5725019 147.259904,61.0424259 C146.858406,60.6477707 146.728509,60.1409097 146.826916,59.572142 C146.94894,59.2703469 147.070964,58.9762901 147.216605,58.6822333 C148.196733,58.5235974 148.96824,58.3959149 149.538997,58.2875782 C150.105818,58.1831106 150.814345,58.0089981 151.672449,57.776848 C152.526617,57.5369596 153.361103,57.2312953 154.168036,56.8521168 C154.978905,56.4845458 155.655942,56.0357223 156.210954,55.5327305 C156.927353,54.9020561 157.352469,54.209475 157.482365,53.4472488 C157.714604,52.1742925 156.840755,51.3656364 154.864754,51.0251496 C153.144609,50.8007378 151.416592,51.0599721 149.684639,51.7951141 C147.948749,52.5263868 146.472653,53.5749314 145.264222,54.9330094 C144.406117,55.8925631 143.792061,56.8908085 143.406308,57.9277455 C141.14296,59.2703469 139.316536,59.8391146 137.923101,59.6224412 C136.592646,59.4135061 136.021889,58.4926441 136.222638,56.8598551 C136.246255,56.7786026 136.309236,56.5309758 136.419451,56.1324515 C136.521793,55.7261889 136.632009,55.4089171 136.722543,55.176767 C137.675117,54.6544293 139.025253,53.7374365 140.761143,52.4180501 C142.162451,51.334683 143.378754,50.2900076 144.421862,49.2840239 C145.472843,48.2741711 146.389991,47.1521123 147.181179,45.9101093 C147.968431,44.6681064 148.480144,43.3641967 148.696638,42.0022495 C148.854088,41.0272191 148.732065,40.5087506 148.32663,40.4429748 C147.90545,40.3733297 146.94894,40.8066766 145.461034,41.7314077 C143.083535,43.2519908 141.024872,44.8035272 139.277174,46.3821478 C137.537348,47.9646376 136.10455,49.6709407 134.978781,51.4933189 C134.223019,52.7004994 133.656198,53.9695865 133.2547,55.2889729 C130.475702,56.6741351 128.720131,57.5292212 128.003732,57.8426238 C127.275524,58.1637648 126.657532,58.3030548 126.161564,58.260494 C125.77581,58.0863814 125.512081,57.9006614 125.393993,57.707203 C125.268033,57.5098754 125.19718,57.1848653 125.19718,56.7283034 C125.370376,55.9273856 125.834854,54.9639627 126.602424,53.8302965 C127.362122,52.6966302 128.440657,51.4855806 129.845901,50.1894093 C129.960052,50.2087551 130.125375,50.2358393 130.333997,50.2822693 C130.546554,50.3286993 130.696132,50.3596527 130.798475,50.3751293 C131.632962,50.5066811 132.309998,50.5298961 132.817775,50.4447744 C133.329489,50.3635218 133.782158,50.1700634 134.17972,49.8643992 C134.585155,49.562604 135.029952,49.0712197 135.537729,48.3902461 C136.045506,47.7131417 136.502112,47.0824673 136.931164,46.4904845 L134.553665,45.9604085 C135.687307,44.9273406 136.289554,44.1805912 136.368279,43.7124218 C136.443068,43.2597292 136.13604,42.9772799 135.447195,42.8689432 C134.648135,42.748999 133.912055,42.8573357 133.235018,43.2055608 C132.554046,43.5537859 131.711687,44.3276196 130.680387,45.5154542 C129.523128,45.4032483 128.688641,45.3490799 128.176927,45.3529491 C127.665214,45.3529491 127.169245,45.4574167 126.68115,45.6663517 C126.189117,45.8752868 125.665595,46.2428578 125.122392,46.7729338 C124.567379,47.2991407 123.85098,48.1039277 122.965322,49.1911639 C123.713211,49.1524722 124.39812,49.1795564 125.020049,49.2762856 L126.657532,49.5355199 C125.740384,50.5918028 124.799618,51.4855806 123.831299,52.2052459 C123.213307,52.6656769 122.453609,53.1609304 121.552206,53.6871373 C121.552206,53.6871373 116.990083,56.0434607 116.281557,56.3878166 C115.557286,56.7360418 114.951102,56.8908085 114.455133,56.8675935 C114.057571,56.7050884 113.793842,56.5309758 113.656073,56.3413866 C113.526177,56.1517974 113.455324,55.8267872 113.431707,55.3663562 C113.577348,54.5654384 114.010336,53.5865389 114.730672,52.4257885 C115.454943,51.2689072 116.490179,50.0191659 117.844251,48.6726954 C117.962339,48.688172 118.123726,48.7152562 118.336283,48.7539479 C118.548841,48.7887704 118.702355,48.8158546 118.800762,48.8235929 C119.647057,48.9280605 120.320157,48.9280605 120.831871,48.8274621 C121.335712,48.7307329 121.780509,48.5179286 122.170198,48.204526 C122.555952,47.8872542 122.996812,47.376524 123.4731,46.6800738 C123.949387,45.9913619 124.390248,45.3374724 124.799618,44.730013 L122.398501,44.2850587 C123.500653,43.2210375 124.079283,42.4472039 124.130455,41.9790345 C124.193435,41.5224727 123.874598,41.2516309 123.181817,41.1742475 C122.37882,41.0736492 121.650612,41.20907 120.981449,41.5805102 C120.324094,41.9558195 119.501416,42.748999 118.517351,43.9755253 C117.352219,43.9058802 116.517732,43.8787961 116.006019,43.8981419 C115.494305,43.9213569 114.998337,44.0413011 114.52205,44.2618437 C114.033954,44.4901246 113.534049,44.8770414 113.006591,45.418725 C112.475196,45.9642777 111.782415,46.7961488 110.932183,47.9182076 C111.676136,47.8485626 112.361044,47.8524317 112.994782,47.9298151 L114.644074,48.1271427 C113.75448,49.2182481 112.84914,50.1391101 111.896566,50.897467 C109.995354,52.4257885 107.271463,54.0198857 105.098649,54.9059252 L105.098649,54.9059252 Z M49.4045406,25.5428083 C49.9438079,24.9933864 50.3964776,24.6877221 50.7664858,24.6258154 C50.7743583,24.6296846 50.7861671,24.6451613 50.8058483,24.6567688 C50.8176571,24.6761146 50.8294659,24.7109371 50.8373384,24.7573672 C50.8648922,24.9160031 50.7861671,25.167499 50.601163,25.5002474 C50.4122226,25.8368651 50.1170033,26.1966977 49.715505,26.5874837 C49.3218792,26.9821388 48.8377196,27.3419715 48.2590897,27.6708508 C48.4873926,26.7964188 48.8692096,26.0844918 49.4045406,25.5428083 L49.4045406,25.5428083 Z M38.9301592,26.8389796 C38.4814259,27.8449633 38.1940791,28.6729653 38.0641826,29.3191164 C37.9775849,29.9381833 37.9854574,30.553381 38.0996089,31.1647096 C38.3279118,32.4492734 38.6900475,33.0876861 39.1781434,33.0876861 C39.3907014,33.0219103 39.6426218,32.7665452 39.9417774,32.3215909 C40.0165663,32.2016466 40.1661441,31.9694966 40.3905108,31.6174023 C40.6188137,31.2691771 40.882543,30.8822603 41.1816986,30.460521 C41.4847904,30.0426508 41.8469261,29.5822198 42.2681057,29.079228 C42.6892852,28.5801053 43.1222735,28.1274126 43.5710069,27.7250191 L43.6103695,27.7366266 C43.3978116,28.1351509 43.1734449,28.5530211 42.9372694,28.9863679 C42.7050302,29.4197148 42.5082174,29.8762766 42.3468308,30.3521843 C42.1893805,30.828092 42.1264004,31.2730463 42.165763,31.6870473 C42.303532,32.4454042 42.6459864,32.7781527 43.2009987,32.6814235 C43.3387677,32.6582085 43.5316443,32.5963018 43.7796286,32.4957034 C44.4330473,32.1706933 45.3541316,31.3736447 46.5350089,30.1239034 C46.7160767,30.6462411 46.995551,31.0679804 47.377368,31.381383 C47.8733365,31.7915148 48.4637751,31.934674 49.1526202,31.8147298 C49.6210348,31.7334773 50.1170033,31.5322806 50.632653,31.2072704 C51.1483028,30.8861295 51.6836338,30.4256985 52.2465186,29.8298466 C52.8094035,29.2339947 53.3801608,28.4949836 53.9627269,27.6128132 L53.6163363,26.846718 C52.833021,27.7559725 52.175666,28.4369461 51.65608,28.8935079 C51.1325577,29.3539389 50.6523343,29.6634724 50.1996647,29.8221082 C50.0658319,29.8491924 49.9438079,29.8801458 49.8414652,29.9265758 C49.455712,29.9730058 49.1250664,29.930445 48.8534646,29.7911549 C48.5739903,29.655734 48.4126037,29.4351914 48.3614324,29.1333963 C48.3653686,28.9592838 48.3732412,28.7890404 48.3929225,28.618797 C48.8534646,28.3634319 49.2156003,28.1544968 49.4832658,28.0035992 C49.7430588,27.8488325 50.0697682,27.6360283 50.4555214,27.3613173 C50.8412747,27.0904755 51.1994741,26.7886804 51.534056,26.455932 C51.8686379,26.1231835 52.1323672,25.7788276 52.3173713,25.4267333 C52.5535467,24.9817789 52.6401444,24.5600396 52.5653555,24.1499078 C52.4433315,23.4728033 51.8568291,23.2213074 50.8058483,23.4070275 C49.9005091,23.6082242 49.0817675,24.0454402 48.3456874,24.7225447 C47.6135434,25.3996491 47.0703399,26.1889594 46.7160767,27.0866064 C46.4366024,27.7946641 46.3145784,28.4678994 46.3460685,29.1140505 C45.4919006,29.8994916 44.8384819,30.3405768 44.3897485,30.4179601 C44.275597,30.4102218 44.1575093,30.3289693 44.0512303,30.1742025 C44.0354853,30.0310433 44.0630391,29.8685383 44.122083,29.6866874 C44.1771906,29.5009673 44.2677245,29.3036397 44.3740035,29.0830971 C44.4842187,28.8664237 44.5471988,28.7387412 44.5629438,28.7000495 C44.6613503,28.5220678 44.8345456,28.2318801 45.0864661,27.8294867 C45.3305141,27.4348315 45.5037094,27.1291672 45.5981796,26.9202322 C45.6847772,26.7112971 45.7162673,26.5217078 45.6847772,26.3475953 C45.6493509,26.1309219 45.5115819,25.9452018 45.2754064,25.7904351 C45.0352947,25.6356683 44.8109281,25.5776308 44.5944339,25.6163225 C44.4054935,25.6472758 44.2086806,25.7362667 44.0039952,25.8716876 C43.8032461,26.0109776 43.5355806,26.2353894 43.204935,26.5410537 C42.8742893,26.8505871 42.6814127,27.0208305 42.6341776,27.0672605 C42.3783209,27.2955415 42.1106553,27.5702524 41.8351173,27.8797858 C41.555643,28.1931885 41.2131886,28.5839744 40.8195629,29.0521438 C40.4220008,29.5203131 39.9772037,30.0349125 39.4851715,30.5920727 L39.3513388,29.8530616 C39.7646458,29.2378639 40.0952915,28.7503487 40.3354032,28.3866469 C40.5755149,28.0268142 40.7526465,27.7521033 40.866798,27.5702524 C40.9848857,27.3961398 41.1620173,27.1291672 41.3942565,26.7770729 C41.6225594,26.4288478 41.9492688,25.9452018 42.3665121,25.3222657 C44.5235812,22.0489495 45.5351994,20.0215054 45.3974304,19.2476718 C45.3816854,19.1548117 45.3265778,19.0658208 45.2439164,18.9845683 C45.039231,18.8646241 44.8227368,18.8298016 44.5944339,18.8684933 C44.2362344,18.9304 43.9055888,19.1277275 43.6103695,19.460476 C43.3112139,19.7893553 42.9097156,20.2962163 42.3980022,20.9771899 C41.7957547,21.7548927 41.1777623,22.6796239 40.5479611,23.7397759 C39.9181599,24.8037972 39.3828288,25.8368651 38.9301592,26.8389796 L38.9301592,26.8389796 Z" id="Fill-10" fill="#FFD600"></path>
                <path d="M141.891725,72.2194405 L138.661366,74.5802321 L136.584152,71.2210771 L134.196326,70.7706876 L137.372328,75.6424007 L136.696748,78.9790363 L138.509943,79.324335 L139.189405,75.9389072 L144,72.609778 L141.891725,72.2194405 Z M126.481514,73.6531804 C126.473749,73.7470116 126.458218,73.8821284 126.44657,74.0622842 C126.438805,74.2386868 126.419392,74.5389464 126.392213,74.9668165 C126.291264,74.8129334 126.178668,74.6665568 126.050541,74.516427 C125.926296,74.3700504 125.782638,74.2086608 125.611802,74.0397647 L120.680845,68.9428568 L119.446164,68.7964802 L118.487152,76.3405045 L120.117862,76.53192 L120.630371,72.455895 C120.657549,72.3057651 120.665314,72.1256093 120.68861,71.9191808 C120.696376,71.7052458 120.708023,71.4875575 120.715789,71.251103 C120.789559,71.3599472 120.874977,71.4687913 120.964278,71.5776354 C121.053579,71.6827263 121.162293,71.8103367 121.282655,71.9417003 L126.423274,77.2825692 L127.661837,77.4289458 L128.616968,69.8849215 L126.986258,69.6897527 L126.481514,73.6531804 Z M109.417297,72.7711676 L107.833179,69.6259476 L105.973393,72.654817 L109.417297,72.7711676 Z M108.827135,68.1847011 L113.055334,75.9276474 L111.005298,75.860089 L110.123938,74.1673751 L105.138624,73.998479 L104.164081,75.6273877 L102.343121,75.5710891 L107.064415,68.1246492 L108.827135,68.1847011 Z M96.9113034,70.7218954 L96.8957728,69.907441 C96.8880075,69.6859995 96.8336505,69.5321164 96.7094059,69.4457918 C96.5929266,69.3594671 96.3754986,69.3219346 96.0571219,69.3256879 L91.9492854,69.3932463 L91.9881118,71.4087394 L96.0959483,71.3411809 C96.414325,71.3374277 96.6317531,71.2886355 96.7443497,71.1985576 C96.8569464,71.1047264 96.915186,70.9508434 96.9113034,70.7218954 L96.9113034,70.7218954 Z M98.6546102,69.4382853 L98.6856713,71.1385057 C98.6934366,71.6564536 98.5614267,72.0280249 98.2857591,72.2682327 C98.0062088,72.5046872 97.5558221,72.624791 96.9307166,72.6360508 L92.0114077,72.7223754 L92.0657647,75.6799332 L90.2681009,75.7099592 L90.1283257,68.1133895 L96.8452984,68.0007921 C97.4781693,67.9895323 97.9285559,68.0983765 98.2119888,68.3235712 C98.4993044,68.548766 98.6429622,68.9240906 98.6546102,69.4382853 L98.6546102,69.4382853 Z M81.6991074,68.274779 L78.5075747,73.1539987 L74.4036208,68.8903114 L72.9282164,69.0141685 L73.6115616,76.5844655 L75.086966,76.4606083 L74.6676405,71.7878172 C74.65211,71.6677133 74.640462,71.540103 74.6210488,71.4124926 C74.597753,71.2848822 74.5744571,71.1460121 74.5472786,70.9883758 C74.6055182,71.1009732 74.6792885,71.2210771 74.7685893,71.3411809 C74.8540074,71.4612848 74.9627214,71.5851419 75.0830834,71.7202588 L78.3794474,75.2708294 L78.7405332,75.2370502 L81.3380215,71.2060641 C81.3923785,71.1197394 81.4506182,71.0108953 81.5127405,70.8795317 C81.5748628,70.7444148 81.6447503,70.5755188 81.7301685,70.3728435 C81.7224032,70.5492461 81.7224032,70.7031291 81.7224032,70.8419992 C81.7224032,70.9808693 81.7262859,71.09722 81.7379338,71.1872979 L82.1572592,75.8638422 L83.8423264,75.7212189 L83.1550986,68.1509219 L81.6991074,68.274779 Z M64.8057268,76.4455954 L64.0253155,71.6902328 L58.0693409,72.6060248 L58.8458695,77.3576341 L64.8057268,76.4455954 Z M66.5490336,75.8075436 C66.6616303,76.4943876 66.6072733,76.9823095 66.38208,77.2713095 C66.1607693,77.5565561 65.6676736,77.7629847 64.9105582,77.875582 L59.1953074,78.7500883 C58.4459573,78.866439 57.9140352,78.8214 57.6073064,78.6112182 C57.3044602,78.4047897 57.0947975,77.9581535 56.9860834,77.2750627 L56.337682,73.311635 C56.2250854,72.6322975 56.2755597,72.1443756 56.5046357,71.8553756 C56.7259463,71.5663757 57.2112767,71.3599472 57.9683922,71.2473498 L63.6797603,70.3728435 C64.4407584,70.2564929 64.9726805,70.3015318 65.2794093,70.5117136 C65.5822555,70.7218954 65.7880356,71.1685316 65.9006322,71.8478691 L66.5490336,75.8075436 Z M50.4050032,78.6900364 C50.5680742,79.3656207 50.5525437,79.8572959 50.3467636,80.1575555 C50.1371009,80.4615685 49.667301,80.698023 48.9334815,80.8631658 L44.3519625,81.8840487 C43.6103776,82.0491915 43.0784555,82.0379317 42.7600788,81.8502694 C42.441702,81.6663604 42.2009782,81.2309839 42.0379072,80.5591529 L41.1060728,76.6557771 C40.9468844,75.9801929 40.9662976,75.4922709 41.1681951,75.188258 C41.3700925,74.8842451 41.8398924,74.6477906 42.5853598,74.4826478 L47.1629962,73.4617649 C47.9006984,73.2928688 48.4287378,73.3078818 48.7548799,73.4917908 C49.0732566,73.6869596 49.3139805,74.1148297 49.4731689,74.7866607 L49.6401225,75.4885177 L47.9278769,76.1603487 L47.5978522,74.7528815 L42.7833746,75.8263098 L43.9054585,80.5178672 L48.7121708,79.4444388 L48.3316718,77.8530626 L50.2031058,77.8117769 L50.4050032,78.6900364 Z" id="Fill-12" fill="#EE3E33"></path>
            </g>
        </g>
    </g>
</svg>