
<svg width="391px" height="59px" viewBox="0 0 391 59" version="1.1" xmlns="http://www.w3.org/2000/svg" xmlns:xlink="http://www.w3.org/1999/xlink">
    <!-- Generator: Sketch 46.2 (44496) - http://www.bohemiancoding.com/sketch -->
    <desc>Created with Sketch.</desc>
    <defs></defs>
    <g id="Symbols" stroke="none" stroke-width="1" fill="none" fill-rule="evenodd">
        <g id="Footer-(no-CTA)" transform="translate(-534.000000, -243.000000)">
            <g id="FOOTER" transform="translate(0.000000, 21.000000)">
                <g id="Footer-3" transform="translate(0.000000, 158.000000)">
                    <polygon id="Rectangle-8" fill="#1E1E1E" points="535.076877 80 923.755592 80 924.551567 80.9949932 923.755592 82 535.076877 82 534 80.9940295"></polygon>
                    <rect id="Rectangle-7" fill="#FEFEFE" x="674.154719" y="64" width="108.910125" height="59"></rect>
                    <g id="Local-Info" fill="#1E1E1E">
                        <path d="M747.014566,70.993667 C747.231642,70.993667 747.71273,71.1779822 747.844736,71.1779822 C748.006077,71.1779822 747.809535,71.0541454 747.970875,71.0570254 L750.578725,71.0570254 L750.578725,71.921003 L749.684018,71.921003 L749.684018,75.4921107 L748.74531,75.4921107 L748.74531,71.9267629 L748.029544,71.9267629 C747.868204,71.9325227 747.970875,71.9642019 747.947407,72.0563595 C747.777266,71.7482075 747.439918,71.805806 747.266844,71.805806 C746.88256,71.805806 746.372137,72.1744365 746.372137,72.5977855 L746.372137,73.9599903 C746.372137,74.4697371 746.952963,74.6857315 747.231642,74.6857315 C747.566057,74.6857315 747.489787,74.4927765 747.965008,74.4438178 L747.965008,75.2905159 C747.753799,75.6677861 747.369515,75.6274672 747.014566,75.6274672 C745.885182,75.6274672 745.289689,74.1788646 745.289689,73.3408063 C745.289689,72.3616316 745.776644,70.993667 747.014566,70.993667 L747.014566,70.993667 Z M752.086525,70.993667 C753.453519,70.993667 753.776201,72.2838736 753.776201,73.2774479 C753.776201,74.3027014 753.38605,75.6274672 752.086525,75.6274672 C750.807535,75.6274672 750.584592,74.0751873 750.584592,73.2774479 C750.584592,72.384671 750.807535,70.993667 752.086525,70.993667 L752.086525,70.993667 Z M753.981543,71.0599053 L755.797357,71.0599053 C756.342982,71.5898116 756.650995,71.6646897 756.650995,72.306913 C756.650995,72.9808156 756.474987,72.928977 755.876561,73.3408063 C755.93523,73.3724855 756.650995,74.6482925 756.639261,75.0399624 L756.639261,75.4949906 L755.70642,75.4949906 C755.597882,74.8470073 755.40134,74.2307033 755.134394,73.6172792 L754.914385,73.6172792 L754.914385,75.4921107 L753.981543,75.4921107 L753.981543,71.0599053 Z M756.90914,75.4921107 L757.847849,75.4921107 L757.847849,71.0627852 L756.90914,71.0627852 L756.90914,75.4921107 Z M758.959632,71.0599053 L759.895407,71.0599053 C760.288491,72.4537892 760.605305,73.8995119 760.913319,75.4921107 L759.939409,75.4921107 C759.968743,75.2127579 759.901274,74.9650843 759.939409,74.6770917 L758.868694,74.6770917 C758.947898,74.898846 758.880428,75.1580393 758.868694,75.4921107 L757.924119,75.4921107 L757.924119,75.0860412 C757.924119,74.6166133 758.85696,71.4314157 758.959632,71.0599053 L758.959632,71.0599053 Z M761.062925,71.0627852 L761.995767,71.0627852 L761.995767,74.6972512 L763.400896,74.6972512 L763.400896,75.4921107 L761.062925,75.4921107 L761.062925,71.0627852 Z M759.338048,72.5632264 C759.692998,72.6697837 759.540457,73.545281 759.775135,73.7929546 L759.150307,73.7929546 C759.264712,73.3350465 759.332182,72.966416 759.338048,72.5632264 L759.338048,72.5632264 Z M754.931985,71.8115659 L755.231199,71.8115659 C755.515745,72.0649993 755.56268,72.1485171 755.56268,72.3702714 C755.56268,72.4883484 755.430674,72.6150651 755.357338,72.8627387 L754.931985,72.8627387 L754.931985,71.8115659 Z M751.942785,71.8086859 L752.227331,71.8086859 C752.41214,71.9526822 752.532412,72.2349149 752.687885,72.4537892 L752.687885,74.0809472 C752.687885,74.4265382 752.341737,74.7490899 752.086525,74.7490899 C751.576102,74.7490899 751.540901,73.5280015 751.540901,73.2774479 C751.540901,72.8857781 751.719842,72.2637142 751.942785,71.8086859 L751.942785,71.8086859 Z M759.549258,85.7705648 C761.027724,85.7705648 761.253601,87.5532387 761.502945,88.5583327 L761.502945,89.6815037 C761.502945,90.712517 760.845849,92.4116731 759.549258,92.4116731 C758.176397,92.4116731 758.193997,91.6196935 757.601438,90.2574888 L757.601438,88.0514658 C757.601438,87.2306871 758.478543,85.7705648 759.549258,85.7705648 L759.549258,85.7705648 Z M763.64144,85.7705648 C764.820693,85.7705648 765.457255,87.0722912 765.457255,87.9967472 C765.457255,89.4597494 764.30147,91.4036991 763.714777,92.4030333 L762.330182,92.4030333 C762.696865,91.6369731 763.10755,90.9141118 763.544636,90.2430891 L763.544636,90.0213349 C762.277379,90.1797308 761.687753,88.9039238 761.687753,87.9967472 C761.687753,86.9455744 762.324315,85.7705648 763.64144,85.7705648 L763.64144,85.7705648 Z M767.507746,85.7792046 L768.625396,85.7792046 L768.625396,89.7304624 L769.083016,89.7304624 L769.083016,90.712517 L768.625396,90.712517 L768.625396,92.2791965 L767.501879,92.2791965 L767.501879,90.712517 L765.474855,90.712517 L765.474855,89.6239052 L767.507746,85.7792046 Z M755.254666,92.2763166 L756.45152,92.2763166 L756.45152,85.9088012 L755.254666,85.9088012 L755.254666,92.2763166 Z M744.430184,87.7145145 C745.811845,87.7145145 745.926251,89.1861565 745.926251,90.0616538 C745.926251,91.1445058 745.583035,92.4116731 744.386182,92.4116731 C743.949096,92.4116731 743.294933,91.9595248 743.209863,91.5966541 C743.180528,91.7636898 743.186395,92.0056036 743.174661,92.2791965 L740.833757,92.2791965 L740.833757,87.7865127 L741.772465,87.7865127 L741.772465,91.6081738 L743.186395,91.6081738 C743.107192,91.2021043 742.860781,90.4936427 742.860781,90.0616538 C742.860781,89.3099933 743.180528,87.7145145 744.430184,87.7145145 L744.430184,87.7145145 Z M747.71273,87.7145145 C747.868204,87.7145145 748.270088,87.8412313 748.5341,87.9132294 L748.5341,88.8405654 C748.366893,88.7052089 748.097014,88.5266535 747.935673,88.5266535 C747.554323,88.5266535 747.014566,88.895284 747.014566,89.3186331 L747.014566,90.8075545 C747.014566,91.2827423 747.56899,91.4728173 747.777266,91.4728173 C747.935673,91.4728173 748.258355,91.2827423 748.419695,91.2827423 C748.572235,91.2827423 748.5341,91.4209787 748.566368,91.4728173 C748.859715,90.3525263 749.076791,89.013361 749.387738,87.7836328 L750.314713,87.7836328 C750.754732,89.2869539 750.801668,90.557001 751.432363,92.1006411 L751.432363,87.7865127 L752.359337,87.7865127 L752.359337,91.6081738 L753.770334,91.6081738 L753.770334,92.2763166 L750.399783,92.2763166 C750.46432,91.9336054 750.338181,91.6859318 750.399783,91.3374608 L749.546145,91.3374608 C749.399472,91.5736147 749.34667,91.8673671 749.370137,92.2100783 C748.842114,92.3857537 747.970875,92.4116731 747.651127,92.4116731 C746.65375,92.4116731 746.360403,91.6945716 746.058256,90.8824326 L746.058256,89.3013535 C746.058256,88.5669725 746.906028,87.7145145 747.71273,87.7145145 L747.71273,87.7145145 Z M749.839492,89.4079107 C750.0331,89.6383048 749.942163,89.900378 750.132838,90.1134925 L750.132838,90.5858003 L749.821891,90.5858003 C749.748554,89.629665 749.845359,89.8168602 749.839492,89.4079107 L749.839492,89.4079107 Z M744.368581,88.5295335 C744.729397,88.8117662 745.101947,89.8744587 745.101947,90.0299747 C745.101947,90.4130048 744.940607,91.5966541 744.430184,91.5966541 C743.846425,91.5966541 743.822957,90.4130048 743.822957,90.0299747 C743.822957,89.4971884 743.949096,88.6447305 744.368581,88.5295335 L744.368581,88.5295335 Z M767.475478,87.5906777 L767.475478,89.7045431 L766.281558,89.7045431 C766.736245,89.0450401 767.055993,88.2904996 767.475478,87.5906777 L767.475478,87.5906777 Z M763.503567,86.9599741 C763.582771,86.9599741 763.961188,87.2969253 764.175331,87.4178822 L764.175331,88.6389706 C763.905452,88.7772071 763.779313,88.9615223 763.573971,89.0911189 C763.430231,88.9672821 763.125151,88.7340082 762.966744,88.6389706 L762.966744,87.2882856 C763.359828,87.1442893 763.304092,86.9599741 763.503567,86.9599741 L763.503567,86.9599741 Z M759.549258,86.9599741 C760.003945,86.9599741 760.077281,87.9218692 760.221021,88.1119443 L760.221021,90.1797308 C760.221021,90.4763631 759.901274,91.2827423 759.522857,91.2827423 C758.965499,91.2827423 759.150307,90.6088397 758.815892,90.1970103 L758.815892,88.1148242 C758.815892,87.7922725 759.132706,86.9599741 759.549258,86.9599741 L759.549258,86.9599741 Z M742.230086,71.8115659 L742.590902,71.8115659 C742.819712,71.998761 742.92825,72.1197179 742.92825,72.4019506 C742.92825,72.5574666 742.860781,72.7129825 742.854914,72.8627387 L742.230086,72.8627387 L742.230086,71.8115659 Z M728.542542,72.0563595 L732.174171,72.0563595 C734.852424,72.0563595 740.804422,74.0233487 741.737264,74.4553375 C743.262665,75.2041181 746.102258,77.1941466 746.219597,77.1999065 L762.960877,77.1999065 C762.902207,77.4187808 762.764335,77.5570173 762.644062,77.6635745 C763.113417,78.2453195 763.732378,78.922102 763.732378,79.7601603 C763.732378,80.9639691 762.58246,82.1332189 762.58246,82.3895323 C762.58246,82.5450482 762.960877,82.9655174 763.154485,83.2563898 L748.607437,83.2563898 C748.446096,83.2707895 748.642638,83.3946263 748.481298,83.3917463 L746.219597,83.3917463 C741.220974,86.7842986 736.025809,88.7167286 729.718861,88.7167286 C719.566142,88.7167286 714.8726,83.5155831 714.054163,83.5155831 L703.590497,83.5818214 C703.528894,83.5818214 703.43209,83.6135006 703.420356,83.6912586 L698.269193,83.6912586 C698.395332,83.4695043 698.594807,83.2160709 698.773749,83.0461553 C698.21639,82.3780126 697.717701,81.9517836 697.307016,81.240442 L697.307016,79.9703948 C697.307016,79.8782372 697.723568,78.6945878 698.401199,78.7061075 L698.401199,77.761492 L703.684367,77.761492 C703.848641,77.7557321 703.655033,77.6318953 703.81344,77.6318953 L710.519339,77.6318953 C710.671879,77.6318953 710.484137,77.5080585 710.645478,77.5080585 L714.180302,77.5080585 C714.476582,77.5080585 721.267551,72.0563595 728.542542,72.0563595 L728.542542,72.0563595 Z M713.080253,72.2493145 C713.262128,72.3155528 713.573075,72.8080201 713.573075,72.8713784 C713.573075,73.0297743 713.452803,73.2889676 713.370666,73.4876825 L713.080253,73.4876825 L713.080253,72.2493145 Z M710.357998,72.5574666 C710.381466,72.7763409 710.381466,72.9548963 710.437202,73.1680108 L710.140922,73.1680108 C710.196658,73.0153747 710.255327,72.7677011 710.357998,72.5574666 L710.357998,72.5574666 Z M731.795754,73.9974293 C731.825089,74.279662 731.825089,74.5417352 731.728284,74.7490899 C731.69895,74.4697371 731.704817,74.2076639 731.795754,73.9974293 L731.795754,73.9974293 Z M727.762241,74.3430204 C727.809176,74.5014163 727.988118,74.5964538 727.762241,74.6828516 L727.762241,74.3430204 Z M726.125368,74.5618947 C726.148836,74.7202906 726.142969,74.9190055 726.046164,75.0630018 C726.01683,74.9046059 726.022697,74.7030111 726.125368,74.5618947 L726.125368,74.5618947 Z M735.550588,75.0774014 L735.785265,75.0774014 C735.706062,75.1781988 735.647392,75.3596341 735.550588,75.5007504 L735.550588,75.0774014 Z M738.322712,75.5036304 C738.272843,75.7282646 738.196573,75.9298593 738.029365,76.0623359 L738.029365,75.8290619 C738.161371,75.7541839 738.22004,75.5756285 738.322712,75.5036304 L738.322712,75.5036304 Z M726.811798,75.9384991 C727.201949,76.0335367 727.166748,76.2552909 727.166748,76.5346437 C727.166748,76.6987995 727.21955,77.1941466 726.888069,77.1941466 C726.720861,77.1941466 726.750196,77.1279084 726.668059,77.1192686 C726.659258,76.6757601 726.538986,76.5893623 726.538986,76.4712853 C726.538986,76.3157694 726.668059,76.0767355 726.811798,75.9384991 L726.811798,75.9384991 Z M727.768108,75.9384991 C728.120123,75.9384991 728.061454,76.2840902 728.061454,76.5346437 C728.061454,76.6296812 727.970517,76.9551128 727.923581,77.1192686 L727.621435,77.1192686 C727.615568,76.909034 727.489429,76.6296812 727.489429,76.4712853 C727.489429,76.3100095 727.430759,75.9384991 727.768108,75.9384991 L727.768108,75.9384991 Z M728.519075,75.9471389 L728.879891,75.9471389 C728.956161,76.1516136 729.017763,76.3474485 729.017763,76.5058444 C729.017763,76.8485556 728.93856,76.6584805 728.812421,77.1221485 L728.589478,77.1221485 C728.507341,76.9205537 728.387069,76.7247188 728.387069,76.563443 C728.387069,76.407927 728.507341,76.1573735 728.519075,75.9471389 L728.519075,75.9471389 Z M730.326088,75.941379 C730.537298,76.0364166 730.610634,76.1573735 730.610634,76.2552909 C730.610634,76.407927 730.549032,76.4223266 730.461028,76.563443 C730.220484,76.4540058 730.170615,76.3157694 730.170615,76.2552909 C730.170615,76.096895 730.238085,76.0824954 730.326088,75.941379 L730.326088,75.941379 Z M729.475384,76.0767355 L729.774597,76.0767355 L729.774597,76.6843998 C729.68366,76.6930396 729.660192,76.7247188 729.642591,76.8139965 C729.575122,76.7880771 729.340445,76.4885649 729.340445,76.407927 C729.340445,76.2552909 729.466583,76.2207318 729.475384,76.0767355 L729.475384,76.0767355 Z M731.062388,76.4309664 L731.244263,76.4309664 L731.244263,76.0767355 L731.062388,76.0767355 L731.062388,76.4309664 Z M732.136036,76.0767355 L732.136036,76.4309664 L731.895492,76.4309664 L731.895492,76.137214 C731.986429,76.1256943 732.048032,76.0652158 732.136036,76.0767355 L732.136036,76.0767355 Z M725.902425,76.1343341 L726.131235,76.1343341 C726.204571,76.2725705 726.342444,76.3762478 726.342444,76.5346437 C726.342444,76.6930396 726.204571,76.9176738 726.131235,77.1855069 L725.902425,77.1855069 C725.832021,76.8514355 725.832021,76.4655255 725.902425,76.1343341 L725.902425,76.1343341 Z M725.081055,76.3848876 L725.368534,76.3848876 L725.368534,77.1192686 C725.289331,77.1279084 725.3568,77.1941466 725.192526,77.1941466 C724.940248,77.1941466 724.940248,76.7391184 724.940248,76.7247188 C724.940248,76.563443 724.951982,76.445366 725.081055,76.3848876 L725.081055,76.3848876 Z M739.628103,76.4540058 L739.86278,76.4540058 C739.733708,76.6757601 739.537166,76.9320734 739.308356,77.1279084 L739.308356,76.8888745 C739.619303,76.8485556 739.501964,76.6354411 739.628103,76.4540058 L739.628103,76.4540058 Z M724.412225,76.5749627 C724.423959,76.6584805 724.479694,76.7304786 724.321287,77.1279084 C724.321287,77.1279084 724.333021,76.563443 724.412225,76.5749627 L724.412225,76.5749627 Z M731.408537,77.1941466 C731.675482,77.1941466 732.021631,77.1451879 732.021631,77.4734994 C732.021631,77.6318953 731.825089,78.0062856 731.825089,78.1618016 C731.825089,78.4123551 731.872024,78.570751 732.118435,78.570751 C732.628858,78.570751 733.464895,77.9486871 733.291821,77.5138184 L733.591034,77.5138184 C734.025187,77.7816514 734.735085,78.22516 735.016698,78.7925053 C734.594279,79.2792127 734.133725,79.2820926 733.693705,79.924316 C732.925138,79.7371209 732.341378,80.2065487 732.341378,80.9207703 C732.341378,81.2721212 732.341378,81.2116427 732.702194,81.6407516 L733.916649,81.6407516 C733.992919,81.7127498 734.042787,81.7674684 734.192394,81.8538661 C733.802243,82.1936973 733.881447,82.6400858 733.385692,82.6400858 C733.224351,82.6400858 732.593656,82.2656955 732.432316,82.2656955 C732.027498,82.2656955 731.825089,82.4615304 731.825089,82.8618401 C731.825089,82.9539977 731.895492,83.2419902 732.14777,83.4176657 C731.493607,84.2672437 728.86229,84.7712307 728.668681,84.7712307 C728.507341,84.7712307 728.601212,84.6473939 728.445738,84.6473939 C728.284397,84.6473939 728.319599,84.7712307 728.158258,84.7712307 C727.999851,84.7712307 727.838511,84.6473939 727.621435,84.6301143 C727.683037,84.4774783 727.741707,84.3018028 727.741707,84.1434069 C727.741707,83.9331723 727.609701,83.3946263 727.260618,83.3946263 C726.709127,83.3946263 726.767796,83.8150954 726.77953,84.4515589 L726.509652,84.4515589 C725.562143,84.4573188 724.737839,83.1325531 724.737839,82.2973747 C724.737839,79.2129744 728.903358,77.1941466 731.408537,77.1941466 L731.408537,77.1941466 Z M699.413244,79.3310514 L700.158344,79.3310514 C700.240481,79.4635279 700.30795,79.4779276 700.30795,79.6334436 C700.30795,79.7918395 700.240481,79.8062391 700.158344,79.9415956 L699.413244,79.9415956 L699.413244,79.3310514 Z M711.229237,79.3310514 L711.962603,79.3310514 C712.03594,79.4635279 712.106343,79.4779276 712.106343,79.6334436 C712.106343,79.7918395 712.03594,79.8062391 711.962603,79.9415956 L711.229237,79.9415956 L711.229237,79.3310514 Z M721.305686,79.3310514 L722.050786,79.3310514 C722.165191,79.7688001 722.379334,79.6824023 722.379334,79.9790346 C722.379334,80.235348 722.314798,80.4167833 722.109456,80.7537346 L721.305686,80.7537346 L721.305686,79.3310514 Z M701.86562,79.4491283 C701.906688,79.7284811 702.032827,79.9761547 702.079763,80.313106 L701.586941,80.313106 C701.71308,79.9703948 701.768815,79.7198413 701.86562,79.4491283 L701.86562,79.4491283 Z M717.1255,79.4491283 C717.151901,79.7284811 717.21057,80.0279933 717.336709,80.313106 L716.767617,80.313106 L716.767617,80.0971116 C716.76175,79.9387157 717.025762,79.656483 717.1255,79.4491283 L717.1255,79.4491283 Z M747.020433,79.4548882 L747.759666,79.4548882 C747.965008,79.6449633 748.097014,79.9790346 748.097014,80.1345506 C748.097014,80.2929465 747.897538,80.6874963 747.759666,80.8833312 L747.020433,80.8833312 L747.020433,79.4548882 Z M752.250799,79.4548882 L753.186574,79.4548882 L753.186574,79.9387157 C753.110304,79.9473554 753.0135,79.9790346 752.995899,80.0654324 L752.250799,80.0654324 L752.250799,79.4548882 Z M756.97661,79.4548882 L757.715843,79.4548882 C757.918252,79.6449633 758.050258,79.9790346 758.050258,80.1345506 C758.050258,80.2929465 757.853716,80.6874963 757.715843,80.8833312 L756.97661,80.8833312 L756.97661,79.4548882 Z M738.123236,79.6363235 C738.146704,79.9185562 738.20244,80.2123086 738.328579,80.4340628 L737.697884,80.4340628 C737.82989,80.1518301 737.894426,79.8321584 738.123236,79.6363235 L738.123236,79.6363235 Z M754.937852,79.7688001 L755.166662,79.7688001 C755.178396,79.9790346 755.237066,80.2123086 755.369072,80.4340628 L754.744244,80.4340628 C754.799979,80.2785469 754.858649,80.0366331 754.937852,79.7688001 L754.937852,79.7688001 Z M732.174171,84.7712307 C732.273909,84.9152269 732.467517,84.9584258 732.467517,85.1139418 C732.467517,85.2147392 732.221106,85.5027318 732.027498,85.5776098 C732.021631,85.4825723 732.048032,85.2924972 731.895492,85.1283414 C731.889625,84.990105 732.0891,84.9152269 732.174171,84.7712307 L732.174171,84.7712307 Z M732.857668,85.3904147 L733.092345,85.3904147 L733.092345,84.9065872 L732.857668,84.9065872 L732.857668,85.3904147 Z M725.133857,85.3904147 L725.506407,85.3904147 L725.506407,84.9670656 L725.133857,84.9670656 L725.133857,85.3904147 Z M726.028564,84.9670656 L726.33071,84.9670656 L726.33071,85.453773 C726.239773,85.4595329 726.204571,85.491212 726.192838,85.5804897 C726.028564,85.5027318 725.890691,85.3040169 725.890691,85.2406585 C725.890691,85.0851426 725.952293,85.1024221 726.028564,84.9670656 L726.028564,84.9670656 Z M731.270664,84.9670656 L731.499474,84.9670656 L731.499474,85.5776098 L731.270664,85.5776098 C731.185593,85.376015 731.185593,85.1686604 731.270664,84.9670656 L731.270664,84.9670656 Z M730.434627,85.0937823 L730.730907,85.0937823 L730.730907,85.6985667 L730.496229,85.6985667 C730.490362,85.6179288 730.422893,85.5545704 730.434627,85.0937823 L730.434627,85.0937823 Z M726.858734,85.7014466 L727.157947,85.7014466 L727.157947,85.2809775 L726.858734,85.2809775 L726.858734,85.7014466 Z M727.832644,85.2723377 C727.923581,85.3443358 728.043853,85.3990544 728.181726,85.4739325 C728.19346,85.5545704 728.061454,85.6179288 728.04972,85.7043265 L727.82091,85.7043265 C727.747574,85.5660901 727.747574,85.4134541 727.832644,85.2723377 L727.832644,85.2723377 Z M729.666059,85.2809775 C729.815666,85.2694578 729.8274,85.3990544 729.974073,85.4854522 C729.906603,85.5747299 729.8274,85.7072065 729.666059,85.7676849 L729.666059,85.2809775 Z M728.164125,86.7756588 L728.164125,87.5762781 L727.941182,87.5762781 C728.067321,87.233567 728.067321,86.9830135 728.164125,86.7756588 L728.164125,86.7756588 Z M737.155193,91.1589055 C737.181594,91.4411382 737.181594,91.7003315 737.08479,91.910566 C737.052522,91.6283333 737.061322,91.36914 737.155193,91.1589055 L737.155193,91.1589055 Z M736.747441,90.8536334 C737.210929,90.8449936 737.348802,90.9083519 737.492541,90.9169917 L737.492541,92.0891214 C737.407471,92.1006411 737.378136,92.1294404 737.366402,92.2129582 L736.747441,92.2129582 L736.747441,90.8536334 Z M735.342312,90.8536334 L735.96714,90.8536334 L735.96714,91.1531456 C735.870336,91.1589055 735.767664,91.1531456 735.647392,91.2078642 L735.647392,91.3576203 L735.96714,91.3576203 L735.96714,91.6513727 C735.870336,91.6628924 735.767664,91.6542526 735.647392,91.7089712 L735.647392,91.8673671 C735.767664,91.9134459 735.946606,91.910566 736.093279,91.9220857 L736.093279,92.2129582 L735.342312,92.2129582 L735.342312,90.8536334 Z M733.881447,90.8536334 L734.342001,90.8536334 C734.500408,90.8449936 734.702817,91.0321887 734.702817,91.1905846 C734.702817,91.3461006 734.570811,91.3921794 734.506275,91.5102564 C734.506275,91.5678549 734.600146,91.5966541 734.685216,91.6081738 L734.685216,92.2129582 L734.386003,92.2129582 C734.374269,92.0056036 734.386003,91.8241683 734.330267,91.6542526 L734.168926,91.6542526 L734.168926,92.2129582 L733.881447,92.2129582 L733.881447,90.8536334 Z M732.473384,90.8536334 L733.159815,90.8536334 L733.159815,91.1531456 C733.068877,91.1589055 732.960339,91.1531456 732.840067,91.1992244 C732.925138,91.3086616 732.954472,91.3777798 733.092345,91.3518605 L733.092345,91.6513727 C733.013142,91.6628924 732.895803,91.6513727 732.840067,91.7032114 L732.840067,91.9220857 L733.159815,91.9220857 L733.159815,92.2129582 L732.473384,92.2129582 L732.473384,90.8536334 Z M731.185593,90.8565133 L731.889625,90.8565133 C731.757619,91.4382582 731.763486,91.75505 731.687216,92.2129582 L731.396803,92.2129582 C731.314666,91.8529675 731.349867,91.5102564 731.185593,90.8565133 L731.185593,90.8565133 Z M730.478629,90.9198716 L730.478629,91.2741025 C730.387691,91.2827423 730.279153,91.2827423 730.170615,91.3201813 C730.434627,91.5592151 730.490362,91.5332958 730.490362,91.8472077 C730.490362,92.0056036 730.478629,92.0804816 730.405292,92.2158381 L729.859668,92.2158381 C729.842067,92.1294404 729.786331,92.066082 729.792198,91.6715322 C729.871402,91.6628924 729.991674,91.6628924 730.100212,91.6283333 C729.991674,91.5908943 729.847934,91.5793746 729.786331,91.446898 L729.786331,90.9198716 C729.991674,90.8478735 730.267419,90.8478735 730.478629,90.9198716 L730.478629,90.9198716 Z M728.835889,92.2129582 L729.140969,92.2129582 L729.140969,90.8536334 L728.835889,90.8536334 L728.835889,92.2129582 Z M728.04972,90.9198716 L728.04972,91.3374608 L727.747574,91.3374608 C727.741707,91.253943 727.706505,91.1589055 727.639035,91.1531456 L727.639035,91.4296185 C727.724106,91.4756973 727.900114,91.4728173 728.04972,91.4814571 L728.04972,92.218718 L727.867846,92.218718 C727.706505,92.2244779 727.935315,92.1006411 727.768108,92.1006411 C727.615568,92.1006411 727.741707,92.2244779 727.580366,92.2244779 C727.419026,92.2244779 727.436626,92.1582396 727.30462,92.0833616 L727.30462,90.9198716 C727.507029,90.8478735 727.779842,90.8478735 728.04972,90.9198716 L728.04972,90.9198716 Z M725.896558,90.8536334 L726.653391,90.8536334 L726.653391,91.1531456 C726.497918,91.1589055 726.318976,91.1531456 726.204571,91.2078642 L726.204571,91.3576203 L726.515519,91.3576203 L726.515519,91.6513727 C726.433382,91.6628924 726.318976,91.6542526 726.204571,91.7089712 L726.204571,91.8673671 C726.318976,91.9134459 726.497918,91.910566 726.653391,91.9220857 L726.653391,92.2129582 L725.896558,92.2129582 L725.896558,90.8536334 Z M724.429826,90.8853125 C725.025319,90.8449936 725.145591,90.9141118 725.242395,90.8824326 L725.242395,91.4238586 C725.248262,91.5793746 725.12799,91.3777798 725.12799,91.5332958 C725.12799,91.6945716 725.248262,91.5044965 725.242395,91.6628924 L725.242395,92.2129582 L724.946115,92.2129582 C724.940248,92.0056036 724.940248,91.8241683 724.887446,91.6542526 L724.731972,91.6542526 L724.731972,92.2129582 L724.429826,92.2129582 L724.429826,90.8853125 Z M731.385069,86.5337451 L731.786954,86.5337451 C731.69895,86.8793361 731.825089,87.1846083 731.786954,87.5964376 L732.136036,87.5964376 L732.136036,87.8959499 L731.522942,87.8959499 C731.511208,87.8066722 731.476006,87.7145145 731.385069,87.7058748 L731.385069,86.5337451 Z M729.155636,86.5337451 L729.516452,86.5337451 C729.557521,86.7554993 729.630857,86.8591767 729.809799,87.1500491 L729.809799,86.5251053 C729.842067,86.6172629 729.941805,86.6489421 730.094345,86.6575819 L730.094345,87.8959499 L729.666059,87.8959499 C729.660192,87.6828354 729.534053,87.5014001 729.492985,87.2767659 C729.466583,87.4409216 729.466583,87.6828354 729.45485,87.8930699 L729.155636,87.8930699 L729.155636,86.5337451 Z M732.793132,86.4703867 L733.285954,86.4703867 C733.327022,86.7324599 733.429693,87.1327696 733.602768,87.4236421 L733.602768,87.7663532 L733.303555,87.7663532 C733.291821,87.6828354 733.303555,87.6425164 733.253686,87.5877978 C733.080611,87.6482763 732.966206,87.7663532 732.798999,87.8988298 C732.781398,87.4322818 732.781398,86.9311748 732.793132,86.4703867 L732.793132,86.4703867 Z M728.090789,86.4617469 C728.519075,86.4617469 728.571877,86.6719815 728.571877,86.9599741 C728.571877,87.3401242 728.519075,87.9045896 728.090789,87.9045896 C727.671303,87.9045896 727.615568,87.5877978 727.615568,87.3401242 C727.615568,87.1817283 727.741707,86.807338 727.747574,86.5337451 C727.838511,86.5251053 727.935315,86.4617469 728.090789,86.4617469 L728.090789,86.4617469 Z M734.221729,86.3465499 L734.811355,86.3465499 C734.884692,86.4790265 735.016698,86.5567845 735.016698,86.7123005 C735.016698,86.8678164 734.884692,86.7123005 734.884692,86.8678164 C734.884692,87.0262123 735.148703,87.1500491 735.148703,87.3055651 C735.148703,87.463961 734.943361,87.582038 734.805488,87.7058748 L734.221729,87.7058748 C734.24813,87.4898804 734.24813,87.2450867 734.221729,86.3465499 L734.221729,86.3465499 Z M726.800065,86.3465499 L727.040609,86.3465499 C726.979006,86.9340547 726.979006,87.2998053 727.040609,87.7029948 L726.538986,87.7029948 C726.70326,87.1039703 726.515519,86.6950209 726.800065,86.3465499 L726.800065,86.3465499 Z M736.283954,86.0959964 L736.283954,86.3263904 L735.841001,86.3263904 C735.905537,86.4847864 735.96714,86.5423849 736.014075,86.654702 C736.072745,86.6489421 736.134347,86.5251053 736.283954,86.5337451 L736.283954,86.8274975 L735.96714,86.8274975 C736.014075,87.1471692 736.327956,87.1327696 736.477563,87.1644488 L736.477563,87.3919629 C736.327956,87.4006027 736.201817,87.4006027 735.796999,87.4582012 C735.659126,87.0665313 735.532987,86.6201429 735.468451,86.0959964 C735.750064,86.0873566 736.008208,86.0268782 736.283954,86.0959964 L736.283954,86.0959964 Z M725.318665,86.0239983 C725.764552,86.0239983 725.248262,86.2975912 725.837888,86.5308652 L725.837888,86.2198332 L726.142969,86.2198332 L726.142969,86.6115031 C726.148836,86.654702 725.890691,87.2940454 725.884824,87.582038 C725.392002,87.5532387 725.685348,87.1126101 725.362667,86.8332573 L725.362667,87.4582012 C725.207194,87.3977227 725.092788,87.4006027 724.946115,87.386203 C725.098655,87.0262123 725.157325,86.5337451 725.133857,86.0959964 C725.213061,86.0873566 725.157325,86.0239983 725.318665,86.0239983 L725.318665,86.0239983 Z M737.155193,85.7705648 C737.38987,86.0815968 737.187461,86.8678164 737.806422,86.7814187 C737.82989,86.8678164 737.888559,86.9945332 737.876825,87.078051 C737.727218,87.0895707 737.612813,87.0895707 737.199195,87.1471692 C737.061322,86.7554993 736.929316,86.3695893 736.87358,85.9088012 C736.964518,85.8972815 737.061322,85.8454429 737.155193,85.7705648 L737.155193,85.7705648 Z M723.793264,85.7158462 C723.878334,85.7100864 724.01034,85.7705648 724.165814,85.7878444 C724.01034,86.2083135 723.954604,86.4761466 723.851933,86.8102179 C723.851933,86.8678164 723.846066,86.9081354 723.884201,86.962854 C724.303687,86.844777 724.256751,86.113276 724.303687,85.7820845 C724.388757,85.7705648 724.45916,85.8972815 724.605833,85.9145611 C724.400491,86.421428 724.635168,87.1500491 723.981006,87.1500491 C723.702327,87.1500491 723.523385,86.9138953 723.523385,86.7410997 C723.523385,86.5884637 723.719927,86.113276 723.793264,85.7158462 L723.793264,85.7158462 Z M729.39618,83.5155831 C729.712994,83.5155831 730.170615,83.6135006 730.170615,83.8640541 C730.170615,84.2125251 729.774597,84.333482 729.498852,84.333482 C729.120435,84.333482 728.885758,84.2125251 728.885758,83.8640541 C728.885758,83.483904 729.105767,83.5155831 729.39618,83.5155831 L729.39618,83.5155831 Z M726.028564,80.3275056 L726.450982,80.3275056 C726.527252,80.465742 726.538986,80.5406201 726.538986,80.699016 C726.538986,81.0618866 726.233906,80.9985282 725.987495,81.3901981 C725.837888,81.2548416 725.705882,81.0734063 725.705882,80.9207703 C725.705882,80.7623744 725.896558,80.5262205 726.028564,80.3275056 L726.028564,80.3275056 Z M693.038826,79.0776179 L693.531648,79.0776179 C693.684188,79.4577681 693.778059,79.8321584 694.006869,80.2612673 L694.006869,79.0804979 L694.367685,79.0804979 L694.367685,81.1914833 L693.868997,81.1914833 C693.86313,80.8343725 693.827928,80.6356576 693.531648,80.3217458 L693.531648,81.1914833 L693.038826,81.1914833 L693.038826,79.0776179 Z M692.281992,81.1914833 L692.763081,81.1914833 L692.763081,79.0804979 L692.281992,79.0804979 L692.281992,81.1914833 Z M761.784558,79.0084997 C762.29498,79.0084997 762.306714,79.1928149 762.764335,79.460648 L762.764335,79.7515205 L762.341916,79.7515205 C762.289113,79.6305636 761.969366,79.3224116 761.854961,79.3224116 C761.687753,79.3224116 761.544013,79.4433685 761.368006,79.5556856 L761.368006,79.7140815 C761.860828,79.9761547 762.902207,79.7918395 762.902207,80.6039785 C762.902207,81.1166052 762.330182,81.3901981 761.910696,81.3901981 C761.784558,81.3901981 760.983722,80.9150104 760.930919,80.8718115 L760.930919,80.5866989 L761.362139,80.5866989 C761.350405,80.7738941 761.585082,80.9524494 761.854961,80.9524494 C762.013368,80.9524494 762.162974,80.8890911 762.341916,80.8948509 L762.341916,80.4398227 C761.963499,80.4340628 760.919186,80.4571023 760.919186,79.6996818 C760.919186,79.1582558 761.297602,79.0084997 761.784558,79.0084997 L761.784558,79.0084997 Z M758.827626,79.0171395 L760.593571,79.0171395 L760.593571,79.4376086 L759.326315,79.4376086 L759.326315,79.9559952 L760.402896,79.9559952 L760.402896,80.2526275 L759.314581,80.2526275 L759.314581,80.8948509 L760.593571,80.8948509 L760.593571,81.2548416 L758.827626,81.2548416 L758.827626,79.0171395 Z M756.59526,79.0142596 L757.827314,79.0142596 C758.279068,79.0084997 758.496144,79.8926368 758.496144,80.1028714 C758.496144,80.5406201 758.320136,81.2634814 757.695309,81.2577215 L756.59526,81.2577215 L756.59526,79.0142596 Z M754.750111,79.0142596 L755.357338,79.0142596 C755.56268,79.7860796 755.876561,80.5348602 756.128839,81.2519617 L755.568547,81.2519617 C755.677085,80.7882937 755.178396,80.8890911 755.04639,80.8890911 C754.788246,80.8890911 754.744244,80.9754888 754.401028,81.2548416 L753.969809,81.2548416 C754.222087,80.5348602 754.535968,79.7860796 754.750111,79.0142596 L754.750111,79.0142596 Z M751.878249,79.0142596 L753.168973,79.0142596 C753.476987,79.0084997 753.776201,79.500967 753.776201,79.6651227 C753.776201,79.8235186 753.638328,80.0683123 753.459386,80.1748695 C753.518056,80.2785469 753.655928,80.3332655 753.644195,80.4859015 L753.644195,81.2548416 L753.180707,81.2548416 C753.139639,80.9841286 753.139639,80.7278152 753.180707,80.4398227 L752.233198,80.4398227 L752.233198,81.2548416 L751.878249,81.2548416 L751.878249,79.0142596 Z M749.57548,79.0171395 L751.529167,79.0171395 L751.529167,79.4376086 L750.772333,79.4376086 L750.772333,81.2548416 L750.344048,81.2548416 L750.344048,79.4376086 L749.57548,79.4376086 L749.57548,79.0171395 Z M746.51001,79.0142596 L747.85647,79.0142596 C748.325824,79.0084997 748.539967,79.8926368 748.539967,80.1028714 C748.539967,80.5406201 748.366893,81.2634814 747.736198,81.2577215 L746.51001,81.2577215 L746.51001,79.0142596 Z M744.345113,79.0171395 L746.172662,79.0171395 L746.172662,79.4376086 L744.832068,79.4376086 L744.832068,79.9559952 L745.920384,79.9559952 L745.920384,80.2526275 L744.832068,80.2526275 L744.832068,80.8948509 L746.172662,80.8948509 L746.172662,81.2548416 L744.345113,81.2548416 L744.345113,79.0171395 Z M743.388804,81.2519617 L743.875759,81.2519617 L743.875759,79.0171395 L743.388804,79.0171395 L743.388804,81.2519617 Z M741.473252,79.0171395 L741.966074,79.0171395 L741.966074,80.8948509 L743.174661,80.8948509 L743.174661,81.2548416 L741.473252,81.2548416 L741.473252,79.0171395 Z M739.560633,79.0171395 L739.92145,79.0171395 L739.92145,80.8948509 L741.135904,80.8948509 L741.135904,81.2548416 L739.560633,81.2548416 L739.560633,79.0171395 Z M737.709618,79.0142596 L738.322712,79.0142596 C738.665927,79.6910421 738.839001,80.3188658 739.091279,80.9754888 L739.091279,81.2577215 L738.671794,81.2577215 C738.478185,81.1569242 738.539788,81.1079654 738.539788,80.8833312 L737.61868,80.8833312 C737.565878,80.9956483 737.510142,81.1050855 737.492541,81.2548416 L737.061322,81.2548416 L737.061322,80.7825338 C737.342935,80.3073461 737.521876,79.6507231 737.709618,79.0142596 L737.709618,79.0142596 Z M695.329862,79.0084997 C695.696545,79.0084997 695.725879,79.2187343 696.022159,79.3339313 L696.022159,79.8148789 L695.467735,79.8148789 C695.403198,79.6766424 695.617341,79.5700852 695.277059,79.4433685 L695.277059,80.891971 C695.403198,80.7508547 695.461868,80.4513424 695.461868,80.3361454 L696.022159,80.3361454 L696.022159,80.8775714 C695.846151,80.9265301 695.617341,81.2634814 695.29466,81.2634814 C695.127453,81.2634814 694.807705,81.1137253 694.757836,81.0561268 L694.757836,79.2100945 C694.969046,79.1352164 695.162654,79.0084997 695.329862,79.0084997 L695.329862,79.0084997 Z M720.865667,78.8875428 L721.959849,78.8875428 C722.487872,78.8846629 722.89269,79.6593629 722.89269,80.0107138 C722.89269,80.7306952 722.716683,80.5118208 722.235594,81.1943632 L720.865667,81.1943632 L720.865667,78.8875428 Z M718.430892,78.8933027 L718.917847,78.8933027 C719.243461,79.3339313 719.507473,79.8379183 719.753884,80.2699071 C719.753884,80.2699071 719.81842,80.2699071 719.856555,80.3246257 C719.909357,80.2699071 719.897624,80.1662298 719.838954,78.8933027 L720.337643,78.8933027 L720.337643,81.1943632 L719.838954,81.1943632 C719.627745,80.7594944 719.319731,80.1892692 718.917847,79.7572804 L718.917847,81.1914833 L718.430892,81.1914833 L718.430892,78.8933027 Z M716.767617,78.8875428 L717.336709,78.8875428 C717.685792,79.4462484 717.753261,80.1518301 718.09941,80.7882937 L718.09941,81.1943632 L717.679925,81.1943632 C717.600721,81.0590067 717.530318,80.9207703 717.542052,80.7537346 L716.562275,80.7537346 C716.574009,80.854532 716.562275,81.0676465 716.430269,81.1914833 L715.943314,81.1914833 C716.265995,80.468622 716.453737,79.656483 716.767617,78.8875428 L716.767617,78.8875428 Z M713.869355,78.8846629 C714.362177,78.8846629 714.247772,79.037299 714.781662,79.3368112 L714.781662,79.6276837 L714.35631,79.6276837 C714.344576,79.4779276 714.218437,79.4289688 714.168568,79.3166517 L713.441069,79.3166517 C713.452803,79.4174491 713.3824,79.5643253 713.441069,79.7688001 C713.705081,79.8148789 714.854999,79.846558 714.854999,80.5118208 C714.854999,81.1367647 714.326975,81.2634814 713.892823,81.2634814 C713.441069,81.2634814 713.23866,80.92941 712.948247,80.7479747 L712.948247,80.4571023 L713.370666,80.4571023 C713.452803,80.6903762 713.749083,80.8890911 713.960292,80.8890911 C714.168568,80.8890911 714.470715,80.6529372 714.470715,80.5406201 C714.470715,80.1115112 712.936513,80.4398227 712.936513,79.5412859 C712.936513,79.0401789 713.347198,78.8846629 713.869355,78.8846629 L713.869355,78.8846629 Z M710.718814,78.8875428 L711.939135,78.8875428 C712.294085,78.8846629 712.619699,79.2043347 712.619699,79.5729651 C712.619699,79.8148789 712.563963,79.9012766 712.299952,80.0999915 C712.672501,80.2411078 712.299952,80.969729 712.619699,81.1857234 L712.118077,81.1857234 C712.047674,80.8775714 712.282351,80.5147008 711.939135,80.3159859 L711.199902,80.3159859 L711.199902,81.1914833 L710.718814,81.1914833 L710.718814,78.8875428 Z M708.548051,78.8933027 L710.24946,78.8933027 L710.24946,79.3137718 L708.976337,79.3137718 L708.976337,79.8321584 L710.123321,79.8321584 L710.123321,80.2526275 L708.976337,80.2526275 L708.976337,80.7738941 L710.24946,80.7738941 L710.24946,81.1914833 L708.548051,81.1914833 L708.548051,78.8933027 Z M706.312751,78.8933027 L708.204836,78.8933027 L708.204836,79.3137718 L707.568274,79.3137718 L707.568274,81.1914833 L707.081319,81.1914833 L707.081319,79.3137718 L706.312751,79.3137718 L706.312751,78.8933027 Z M704.141988,78.8933027 L704.696413,78.8933027 C704.942824,79.4836874 705.189235,79.8955168 705.682057,80.4513424 L705.682057,78.8933027 L706.101542,78.8933027 L706.101542,81.1943632 L705.550051,81.1943632 C705.291906,80.5866989 705.051362,80.1662298 704.570274,79.6305636 L704.570274,81.1914833 L704.141988,81.1914833 L704.141988,78.8933027 Z M703.311818,81.1914833 L703.740103,81.1914833 L703.740103,78.8933027 L703.311818,78.8933027 L703.311818,81.1914833 Z M701.586941,78.8875428 L702.091496,78.8875428 C702.405377,79.656483 702.663522,80.4081435 702.977403,81.1914833 L702.422978,81.1914833 C702.340841,81.0590067 702.340841,80.9207703 702.352575,80.7537346 L701.378665,80.7537346 C701.384532,80.854532 701.378665,81.0676465 701.240792,81.1914833 L700.759704,81.1914833 C701.076518,80.468622 701.270127,79.656483 701.586941,78.8875428 L701.586941,78.8875428 Z M699.040694,78.8875428 L700.137809,78.8875428 C700.613031,78.8846629 700.750903,79.3368112 700.750903,79.6651227 C700.750903,80.4398227 700.439956,80.3073461 699.404443,80.313106 L699.404443,81.1914833 L699.040694,81.1914833 L699.040694,78.8875428 Z M730.713306,77.4447002 C730.868779,77.4447002 731.024253,77.5080585 731.17386,77.5109384 C731.253063,77.6491749 731.253063,77.7240529 731.253063,77.8824488 C731.253063,78.0379648 731.059454,78.3691563 730.921582,78.5621113 L730.496229,78.5621113 C730.422893,78.3633964 730.422893,78.1618016 730.422893,78.0062856 C730.422893,77.8018109 730.417026,77.4447002 730.713306,77.4447002 L730.713306,77.4447002 Z M721.17368,77.220066 C720.985939,77.4763793 720.79233,77.3986214 720.660324,77.4734994 C720.660324,77.4734994 720.698459,77.5080585 720.780596,77.5138184 L720.780596,77.7413325 C720.674992,77.8075708 720.566453,77.954447 720.440314,78.1330024 C720.102966,77.9400474 719.712815,77.7470923 719.44587,77.4850191 C719.44587,77.413021 719.51334,77.335263 719.604277,77.1941466 C719.81842,77.3899816 720.144035,77.5771767 720.384579,77.8219704 C720.434447,77.8190905 720.475516,77.8277303 720.534185,77.7816514 C720.34351,77.490779 720.091232,77.1855069 719.833087,76.9061541 C719.97096,76.8197563 720.193903,76.8197563 720.305375,76.8802348 C720.305375,76.8802348 720.34351,76.9435931 720.34351,76.7851972 C720.34351,76.6296812 720.211504,76.7851972 720.211504,76.6296812 L720.361111,76.5692028 C720.493117,76.5144842 720.853933,77.0184712 721.17368,77.220066 L721.17368,77.220066 Z M739.733708,76.1256943 C740.065189,76.1256943 740.053455,76.407927 740.053455,76.5346437 C740.053455,76.8629552 740.000653,76.8197563 739.733708,77.1538277 C739.733708,77.1538277 739.675039,77.1941466 739.836379,77.1941466 C739.994786,77.1941466 740.214796,76.6930396 740.373203,76.6930396 C740.534544,76.6930396 740.757487,77.0213511 740.816156,77.1855069 L740.581479,77.1855069 C740.511076,77.1192686 740.511076,77.0559102 740.45534,77.0011916 C740.408405,77.0040716 740.352669,77.1250284 740.247064,77.1624675 C740.352669,77.1941466 740.431872,77.3266232 740.499342,77.4245407 C740.408405,77.4447002 740.472941,77.5080585 740.317467,77.5080585 C740.156127,77.5080585 740.197195,77.3698221 740.144393,77.3179834 C740.035855,77.3784619 739.933183,77.487899 739.85398,77.6232555 L739.619303,77.6232555 C739.613436,77.5368578 739.613436,77.413021 739.619303,77.3669422 C739.446228,77.3179834 739.25262,77.1941466 738.982741,77.1163887 L738.982741,76.831276 C739.164616,76.7189589 739.493164,76.1256943 739.733708,76.1256943 L739.733708,76.1256943 Z M721.08861,75.944259 C721.106211,76.0335367 721.106211,76.096895 721.106211,76.2552909 C721.106211,76.407927 721.414225,76.7016794 721.616634,76.8975143 C721.616634,76.9752723 721.490495,77.0357507 721.478761,77.1279084 C721.208882,76.9263136 720.906735,76.4021671 720.534185,76.3589682 C720.672058,76.1976924 720.865667,76.0709757 721.08861,75.944259 L721.08861,75.944259 Z M731.534676,75.5007504 C731.69895,75.5007504 732.238707,75.6965854 732.564322,75.7282646 C734.24813,75.9096999 736.151948,76.1919326 737.378136,77.220066 C737.295999,77.3583024 736.914649,77.5080585 736.832512,77.4994187 L735.195639,77.4994187 C735.207373,77.5368578 735.148703,77.568537 735.148703,77.7240529 C735.148703,77.7643719 735.462584,78.8126648 735.459651,79.2360138 L735.459651,79.77168 C735.852735,79.7918395 736.307422,80.1345506 736.729841,80.1489502 C736.679972,80.4254231 736.609569,80.5118208 736.609569,80.6673368 C736.609569,80.8257327 736.735708,80.9207703 736.735708,81.0734063 C736.735708,81.4276371 736.656504,81.3901981 736.404226,82.1389788 L735.245508,82.1389788 C735.087101,82.1418587 735.207373,82.015142 735.046032,82.015142 C734.919893,82.015142 733.195016,83.6307802 732.526187,84.0656489 C732.526187,84.1146077 732.652325,84.1635664 732.708061,84.2730036 L736.5685,84.2730036 C736.621302,84.215405 736.580234,84.1434069 736.735708,84.1434069 C736.897048,84.1434069 737.222663,84.2701236 737.504275,84.3536415 C737.378136,84.566756 737.251997,84.8115496 737.166927,85.0793827 C736.952784,85.0189043 736.87358,84.9584258 736.700506,84.9584258 C736.547966,84.9584258 734.312666,85.7705648 734.151326,85.7705648 L732.526187,85.7705648 C732.364846,85.7705648 732.552588,85.8972815 732.400048,85.8857618 L728.830022,85.8857618 C728.973762,85.7763247 729.149769,85.649608 729.149769,85.491212 C729.149769,85.3328161 729.017763,85.2694578 728.86229,85.2694578 C728.715617,85.2694578 728.571877,85.5632102 728.571877,85.5862496 C728.571877,85.7417656 728.560143,85.6582477 728.639347,85.761925 L726.823532,85.761925 C725.547475,85.7705648 721.725172,84.8835478 721.490495,84.7539511 C721.490495,84.6128348 721.616634,84.4573188 721.775041,84.4573188 C721.936381,84.4573188 721.839577,84.5840355 722.006784,84.5840355 C722.159324,84.5840355 722.006784,84.4573188 722.159324,84.4573188 C722.320665,84.4573188 722.159324,84.5840355 722.320665,84.5840355 C722.482005,84.5840355 722.285463,84.4573188 722.440937,84.4573188 L724.579432,84.4573188 C724.731972,84.4573188 724.773041,84.333482 724.887446,84.3392418 C724.887446,84.3392418 724.940248,84.3939604 724.940248,84.2384445 C724.940248,83.7373374 724.022074,82.1418587 723.719927,82.1418587 C723.564454,82.1418587 722.482005,82.3319338 722.320665,82.3319338 C722.159324,82.3319338 722.229728,82.2656955 722.13879,82.2570557 L722.13879,82.0266617 C722.394002,81.9143446 724.29782,81.8711457 724.29782,81.2346821 C724.29782,80.6356576 723.209505,80.8890911 722.842822,80.8775714 C722.831088,80.7940535 722.89269,80.6673368 722.898557,80.4571023 C723.385512,80.4484625 723.822599,80.3246257 724.039675,80.3246257 C724.206882,80.3246257 724.039675,80.4484625 724.206882,80.4484625 C724.359422,80.4484625 724.377023,80.3275056 724.491428,80.2900666 C724.171681,80.0366331 723.426581,79.9473554 723.030563,79.9387157 L723.030563,79.4548882 C723.822599,79.5096068 724.550098,79.6334436 724.714372,79.6334436 C725.884824,79.6334436 726.383513,78.6139499 727.292887,77.9054882 C727.237151,77.8018109 727.105145,77.7384526 727.052343,77.6290154 L724.808242,77.6290154 C724.646902,77.6318953 724.840511,77.7557321 724.682104,77.7557321 C724.52663,77.7557321 724.714372,77.6318953 724.550098,77.6318953 C724.388757,77.6318953 724.550098,77.7557321 724.388757,77.7557321 C724.227417,77.7557321 724.359422,77.6318953 724.206882,77.6318953 C724.039675,77.6318953 724.206882,77.7557321 724.039675,77.7557321 C723.878334,77.7557321 724.039675,77.6318953 723.878334,77.6318953 C723.719927,77.6318953 723.878334,77.7557321 723.719927,77.7470923 L721.299819,77.7470923 C721.563831,77.4533399 721.839577,77.0472704 722.159324,76.8975143 C722.543608,76.7189589 725.638413,75.6274672 726.186971,75.6274672 C726.342444,75.6274672 726.113634,75.751304 726.274975,75.751304 C726.594722,75.751304 727.275286,75.5007504 727.653703,75.5007504 L731.534676,75.5007504 Z M724.118878,74.5647746 C724.462094,74.6828516 724.579432,75.2905159 724.737839,75.6101876 C724.646902,75.6274672 724.617567,75.6591463 724.605833,75.7426642 C724.52663,75.751304 724.497295,75.6793058 724.45916,75.6274672 C724.286086,75.8060225 724.022074,75.9356192 723.752195,76.0652158 C723.672992,75.9932177 723.529252,75.9240995 723.494051,75.8117824 C723.461782,75.866501 723.467649,75.9701783 723.461782,76.1170545 C723.312176,76.1256943 723.150835,76.2552909 722.992428,76.2552909 C722.831088,76.2552909 722.716683,76.0536961 722.602277,75.9384991 C722.561209,75.9932177 722.572943,75.9384991 722.572943,76.096895 C722.572943,76.2552909 722.704949,76.2840902 722.687348,76.4367262 C722.285463,76.2984898 722.182792,76.9176738 721.760373,76.8744749 C721.616634,76.5461634 721.425958,76.1775329 721.17368,75.8290619 C721.311553,75.8463415 721.399557,75.7455441 721.508095,75.633227 L721.798508,75.633227 C721.810242,75.7196248 721.725172,75.8117824 721.610767,75.8607411 L721.610767,76.022017 C721.610767,76.022017 721.54623,76.0652158 721.707571,76.0652158 C721.880645,76.0652158 721.810242,76.0335367 721.816109,75.9471389 C721.895313,75.9384991 721.971583,76.0652158 722.050786,76.0767355 C722.06252,76.2207318 721.924647,76.2380114 721.798508,76.3935273 C721.839577,76.3762478 721.971583,76.4396062 722.338266,76.4482459 C722.338266,76.4482459 722.379334,76.5058444 722.379334,76.3474485 C722.379334,76.1919326 722.13879,75.8636211 721.936381,75.595788 C722.018518,75.4373921 722.429203,75.2818761 722.543608,75.1897185 C722.790019,75.5641088 722.675614,75.9356192 723.106833,76.0652158 C723.156702,76.0104973 723.150835,76.0652158 723.150835,75.9096999 C723.150835,75.751304 722.89269,75.3509943 722.842822,75.0082832 L723.106833,75.0082832 C723.26524,74.9996434 723.241773,75.1868386 723.288708,75.1954783 C723.288708,75.1954783 723.34151,75.2530768 723.34151,75.0946809 C723.34151,74.939165 723.209505,74.9708441 723.227105,74.8844464 C723.312176,74.8758066 723.40898,74.8930862 723.499917,74.7490899 C723.690593,75.0226828 723.672992,75.4633114 723.986873,75.8146623 L723.986873,75.3365947 C723.981006,75.3135553 723.851933,75.0226828 723.851933,74.9996434 C723.851933,74.6338929 723.972205,74.9535646 724.118878,74.5647746 L724.118878,74.5647746 Z M724.825843,74.319981 L725.081055,74.319981 C725.06052,74.6598122 725.06052,74.9650843 725.081055,75.6188274 L724.819976,75.6188274 C724.708505,75.2905159 725.001851,74.7202906 724.423959,74.668452 C724.641035,74.35742 724.617567,74.4927765 724.825843,74.319981 L724.825843,74.319981 Z M734.582545,74.127026 C734.867091,74.2508628 735.119369,74.2508628 735.333512,74.3228609 L735.333512,74.6770917 C735.239641,74.6857315 735.195639,74.7404501 735.166304,74.7922888 L735.166304,75.4373921 C735.333512,75.0889211 735.521253,74.8153282 735.480185,74.3171011 C735.635658,74.3775795 735.750064,74.6454126 735.820467,74.7490899 C735.852735,74.6972512 735.846868,74.5935739 735.852735,74.4466977 L736.151948,74.4466977 C736.099146,74.7231706 736.099146,74.9622044 736.134347,75.1897185 C736.201817,75.0572419 736.260486,74.7606096 736.442361,74.6943713 L736.926383,74.6943713 C736.929316,74.9708441 736.929316,75.2185177 736.908782,75.6274672 C736.952784,75.5151501 737.052522,75.2818761 737.061322,75.0774014 C737.205062,75.0054033 737.281332,74.9996434 737.439739,74.9996434 C737.61868,74.9996434 737.82989,75.2674765 737.82989,75.3452345 C737.82989,75.5007504 737.750686,75.4921107 737.715485,75.5410694 L737.715485,75.7541839 C737.835757,75.6361069 737.950162,75.4633114 738.035232,75.1925984 C738.22004,75.2530768 738.654193,75.4460319 738.654193,75.6274672 C738.654193,75.7858631 738.396048,76.1055348 738.322712,76.3733679 L737.709618,76.3733679 C737.419205,75.8722608 737.061322,76.3733679 736.820778,75.6188274 C736.770909,75.6274672 736.735708,75.7196248 736.729841,75.8060225 L736.11088,75.8060225 C736.099146,75.6505066 736.283954,75.2962757 735.952473,75.1810787 C735.973007,75.3452345 735.846868,75.5324296 735.826334,75.748424 C735.612191,75.5871482 735.257242,75.4316322 734.84069,75.4949906 C734.828956,75.3913133 734.884692,75.287636 734.685216,75.0601218 L734.685216,75.4316322 C734.600146,75.4373921 734.523876,75.3740337 734.386003,75.2962757 C734.506275,74.898846 734.570811,74.5302155 734.582545,74.127026 L734.582545,74.127026 Z M732.983807,73.9427107 L733.27422,73.9427107 C733.356357,74.0780672 733.109946,74.1875044 733.43556,74.3171011 L733.43556,73.9369509 C733.538232,74.0060691 733.740641,74.0118289 733.740641,74.0118289 C733.740641,74.279662 733.614502,74.5302155 733.614502,74.6857315 C733.614502,74.8671668 733.561699,74.9334051 733.752375,75.0687616 C733.740641,74.6166133 734.054521,74.4927765 733.746508,74.0118289 L734.23933,74.0118289 C734.24813,74.0924669 734.368402,74.1327858 734.500408,74.2940617 C734.24813,74.2566226 734.133725,74.3286208 734.048654,74.5762944 L734.374269,74.5762944 C734.312666,74.6770917 734.168926,74.74621 734.054521,74.7980486 L734.054521,74.9593244 C734.113191,75.0082832 734.157193,74.9996434 734.24813,75.0255627 C733.740641,75.287636 733.629169,75.1378798 733.303555,75.1810787 C733.291821,75.0658817 733.470762,74.8470073 733.148081,74.6828516 L733.148081,75.054362 L732.851801,75.054362 L732.851801,74.4610973 C732.851801,74.397739 732.972073,74.4121386 732.983807,73.9427107 L732.983807,73.9427107 Z M732.215239,73.8217539 C732.508586,73.8735925 732.690461,73.934071 732.840067,73.9484706 C732.766731,74.319981 732.719795,74.7721293 732.646459,75.0572419 C732.118435,75.0399624 732.400048,74.2623825 732.215239,73.8217539 L732.215239,73.8217539 Z M731.763486,73.8102342 C732.162437,73.8102342 732.14777,74.0607877 732.14777,74.3430204 C732.14777,74.5014163 732.077367,74.7289304 732.00403,74.9938836 L731.522942,74.9938836 C731.458406,74.8383676 731.379202,74.5014163 731.379202,74.4063787 C731.379202,74.0406282 731.344001,73.8102342 731.763486,73.8102342 L731.763486,73.8102342 Z M727.768108,73.8102342 C728.090789,73.9369509 728.073188,74.3516602 728.222795,74.6857315 C728.252129,74.4610973 728.252129,74.1615851 728.19346,73.8188739 L728.560143,73.8188739 L728.560143,74.7606096 L728.879891,74.7606096 L728.879891,74.9967635 L728.445738,74.9967635 C728.284397,74.9996434 728.48094,74.8758066 728.319599,74.8758066 C728.158258,74.8758066 728.222795,75.0658817 728.061454,75.0658817 C727.900114,75.0658817 727.941182,74.9276453 727.900114,74.8758066 C727.729973,74.9938836 727.471828,75.0601218 727.190215,75.1868386 C727.069943,75.0255627 727.052343,74.9737241 726.835266,74.7490899 L726.835266,75.1839586 C726.538986,75.0457222 726.565387,74.7318103 726.497918,74.5618947 C726.33071,74.9190055 726.553654,75.3135553 726.084299,75.3135553 C725.80562,75.3135553 726.060832,75.2530768 725.685348,75.0572419 L725.685348,75.4316322 C725.603211,75.4373921 725.477072,75.5007504 725.386135,75.4921107 C725.482939,74.9938836 725.295198,74.8930862 725.133857,74.3228609 C725.213061,74.3113412 725.339199,74.3171011 725.494673,74.2508628 C725.535742,74.5273356 725.453605,74.7577297 725.723483,75.0025233 C725.776286,74.6367728 725.535742,74.1212661 726.01683,74.1212661 C726.186971,74.1212661 726.33071,74.2595025 726.480317,74.4380579 L726.480317,74.0060691 L726.767796,74.0060691 C726.794198,74.0463881 726.720861,74.201904 726.984873,74.3171011 L726.984873,73.9427107 C727.539298,74.0060691 727.328088,74.5446152 727.460094,74.9996434 C727.621435,74.6166133 727.272352,74.0147089 727.768108,73.8102342 L727.768108,73.8102342 Z M730.622368,73.6979171 L731.217862,73.6979171 C731.185593,73.7929546 731.253063,73.9052717 731.206128,74.9938836 L730.939182,74.9938836 C730.868779,74.7894088 731.109323,74.6194932 730.789576,74.4322981 L730.789576,74.9910036 L730.507963,74.9910036 L730.507963,74.0233487 C730.507963,74.0233487 730.610634,74.0550278 730.622368,73.6979171 L730.622368,73.6979171 Z M729.727662,73.6950371 L730.164748,73.6950371 C730.170615,73.7814349 730.261552,73.8102342 730.422893,73.8188739 L730.422893,74.201904 C730.422893,74.3602999 730.296754,74.1212661 730.296754,74.279662 C730.296754,74.435178 730.422893,74.435178 730.422893,74.5935739 C730.422893,74.7490899 730.35249,74.8585271 730.279153,74.9938836 L729.727662,74.9938836 C729.786331,74.7116508 729.786331,74.4092587 729.727662,73.6950371 L729.727662,73.6950371 Z M712.625566,71.9382826 L713.435202,71.9382826 C713.719748,72.3990707 714.024828,72.4969881 714.024828,72.9347368 C714.024828,73.3811253 713.875222,73.2774479 713.561341,73.8044743 L712.625566,73.8044743 L712.625566,71.9382826 Z M710.082253,71.9382826 L710.569208,71.9382826 C710.575075,72.4393896 710.569208,73.0758532 711.032695,73.4992022 L711.032695,71.9411625 L711.525517,71.9411625 C711.513783,72.3011532 711.771928,72.4163502 712.000738,72.8713784 L712.000738,71.9411625 L712.420224,71.9411625 L712.420224,73.8044743 L712.000738,73.8044743 C711.789529,73.4848026 711.669257,73.1046524 711.504983,72.7446617 C711.469781,73.0326543 711.469781,73.3984048 711.51965,73.7987145 L710.586808,73.7987145 L710.586808,73.4876825 L710.052918,73.4876825 L710.052918,73.7987145 L709.630499,73.7987145 C709.812374,73.0844929 709.932646,72.5200275 710.082253,71.9382826 L710.082253,71.9382826 Z M704.268127,71.5005339 L705.013227,71.5005339 C705.315374,72.1600368 705.406311,73.0758532 706.004738,73.6892773 L706.004738,71.5034138 L706.738104,71.5034138 L706.738104,75.9327393 L705.993004,75.9327393 C705.83753,74.9564445 705.291906,74.3602999 705.045495,73.4963223 C705.024961,73.5510409 705.027894,73.6518383 705.068963,75.9298593 L704.268127,75.9298593 L704.268127,71.5005339 Z M700.30795,75.9327393 L701.058917,75.9327393 L701.058917,71.5034138 L700.30795,71.5034138 L700.30795,75.9327393 Z M702.921667,71.3680573 C703.546495,71.3680573 703.05954,71.4861343 703.807573,71.6272506 L703.807573,72.5517067 C703.241414,72.5574666 703.396888,72.2435547 702.98327,72.2435547 C702.25577,72.2435547 702.091496,73.4185643 702.091496,73.7497557 C702.091496,74.2076639 702.1707,75.1868386 702.862998,75.1868386 C703.018471,75.1868386 703.071273,75.0658817 703.185679,75.014043 L703.185679,74.2393431 L702.742725,74.2393431 L702.742725,73.5049621 L703.927845,73.5049621 L703.927845,75.6101876 C703.470225,75.8809006 703.311818,76.0652158 702.824862,76.0652158 C701.56934,76.0652158 701.258393,74.6223732 701.258393,73.7497557 C701.258393,72.7936205 701.889087,71.3680573 702.921667,71.3680573 L702.921667,71.3680573 Z M695.866686,70.5559183 C696.561917,70.5559183 698.052116,72.2925134 698.233991,72.4653089 C698.286794,72.7907405 698.456934,73.4128044 698.577206,73.7094368 L698.577206,73.9916695 L696.996069,73.9916695 C696.960868,72.502748 695.535204,71.6186108 694.144742,71.6186108 C692.950822,71.6186108 691.375552,72.2838736 691.375552,73.6518383 C691.375552,76.8485556 696.623519,76.0796155 697.638498,77.5080585 L697.638498,77.1336682 L701.384532,77.1336682 C701.557606,77.1279084 701.361064,77.0040716 701.516537,77.0040716 L708.278172,77.0040716 C708.439513,77.0040716 708.242971,76.8773548 708.404311,76.8773548 L713.98376,76.8773548 C717.95567,73.5424011 722.922025,72.0736391 727.970517,71.3680573 L732.617124,71.3680573 C734.975629,71.3680573 739.985986,72.9750558 741.341246,73.6259189 L741.341246,71.0570254 L743.022121,71.0570254 C743.667483,71.0541454 743.881626,71.9872413 743.881626,72.4019506 C743.881626,73.3350465 743.547211,73.8102342 742.265287,73.6835174 C742.218352,73.738236 742.224219,73.6835174 742.224219,73.8419133 C742.224219,74.1471854 743.787755,74.7807691 743.931495,75.0082832 L744.148571,71.0627852 L745.101947,71.0627852 L745.101947,75.4546716 C745.101947,75.6101876 745.025677,75.4921107 744.975808,75.5295497 C745.398227,75.8204222 745.852914,76.0709757 746.287067,76.4511259 L764.363072,76.4511259 C764.110795,76.8687151 763.538769,77.4734994 763.538769,77.6318953 C763.538769,77.9198879 764.363072,78.8126648 764.363072,79.7601603 C764.363072,80.7710141 763.41263,81.9690631 763.41263,82.360733 C763.41263,82.4845698 764.283869,83.4666244 764.421742,83.8870935 L752.943097,83.8870935 C752.790557,83.8928534 752.984165,84.0166902 752.819891,84.0166902 L746.413206,84.0166902 C742.186084,87.1212499 736.964518,88.7311283 731.672548,89.4050308 L727.683037,89.4050308 C727.518763,89.4050308 727.706505,89.281194 727.551031,89.281194 L726.377646,89.281194 C723.26524,89.281194 715.095543,85.3184165 713.91629,84.2672437 L696.796594,84.3133225 C697.122208,83.9043731 697.439022,83.5271028 697.799838,83.1642322 L697.799838,82.9539977 C697.327551,83.5674218 696.165899,83.9043731 695.426666,84.2701236 L693.071094,84.2701236 C691.7129,84.2701236 689.39253,82.3348137 689.39253,80.92941 L689.39253,80.2699071 L691.038204,80.2699071 C691.09394,82.3031345 692.683877,82.9539977 694.373552,82.9539977 C694.842907,82.9539977 696.858196,82.5392884 696.858196,81.8279468 C696.858196,81.8049074 696.544316,80.7306952 696.544316,80.6039785 C696.544316,80.3620647 696.984335,79.0948975 696.984335,79.0401789 C696.984335,78.1330024 692.918554,77.1682273 692.091317,76.8946344 C691.525159,76.6959195 690.985401,76.2725705 690.436844,75.90394 C690.304838,75.558349 690.2139,74.9650843 689.902953,74.668452 L689.902953,73.0844929 C689.897086,72.1686766 691.862507,70.9216689 692.287859,70.5559183 L695.866686,70.5559183 Z M690.557116,87.2191674 C690.557116,87.5445989 690.598184,87.7778729 690.677388,87.9074696 C690.762458,88.0370662 690.906198,88.1033045 691.09394,88.1033045 C691.302215,88.1033045 691.440088,88.0341863 691.525159,87.8988298 C691.604362,87.7634733 691.657165,87.5359592 691.657165,87.2191674 C691.657165,86.8937358 691.604362,86.6633417 691.525159,86.5337451 C691.434221,86.4041484 691.290482,86.3379101 691.079272,86.3379101 C690.900331,86.3379101 690.750724,86.4070284 690.671521,86.536625 C690.598184,86.6719815 690.557116,86.8994956 690.557116,87.2191674 L690.557116,87.2191674 Z M691.09394,88.973042 C690.870996,88.973042 690.712589,89.0594398 690.618718,89.2293554 C690.539515,89.396391 690.483779,89.7304624 690.483779,90.2373293 C690.483779,90.6405189 690.539515,90.9169917 690.618718,91.0696278 C690.724323,91.216504 690.870996,91.291382 691.09394,91.291382 C691.337417,91.291382 691.495824,91.213624 691.583828,91.0523482 C691.674765,90.8968322 691.7129,90.5944401 691.7129,90.1365319 C691.7129,89.7045431 691.674765,89.4021509 691.577961,89.2322353 C691.48409,89.0594398 691.325683,88.973042 691.09394,88.973042 L691.09394,88.973042 Z M690.240301,88.5324134 C689.967489,88.4488956 689.750413,88.2876197 689.606673,88.0428261 C689.462933,87.8037922 689.39253,87.4898804 689.39253,87.0953306 C689.39253,86.5596644 689.542137,86.1535949 689.829616,85.8742421 C690.125896,85.5948894 690.557116,85.4566529 691.105673,85.4566529 C691.668898,85.4566529 692.091317,85.5977693 692.384664,85.8857618 C692.683877,86.1737544 692.824683,86.5884637 692.824683,87.1327696 C692.824683,87.5100398 692.751347,87.8181919 692.60174,88.045706 C692.452133,88.2761 692.235057,88.4402558 691.93291,88.5324134 C692.287859,88.5986517 692.546004,88.7656874 692.704411,89.0248807 C692.865752,89.2869539 692.950822,89.669984 692.950822,90.1797308 C692.950822,90.8853125 692.798282,91.4036991 692.493202,91.7377705 C692.199855,92.0718418 691.736368,92.2331177 691.091006,92.2331177 C690.460311,92.2331177 689.999757,92.0776017 689.709344,91.75505 C689.404264,91.4382582 689.251724,90.945791 689.251724,90.2690085 C689.251724,89.7391022 689.336795,89.3416725 689.498135,89.0680795 C689.656542,88.7916067 689.897086,88.6130513 690.240301,88.5324134 L690.240301,88.5324134 Z M694.969046,89.9464568 C694.969046,90.4562036 695.018914,90.8075545 695.112785,91.0005096 C695.203723,91.1963445 695.37093,91.291382 695.593873,91.291382 C695.828551,91.291382 695.992825,91.2078642 696.080829,91.0379486 C696.165899,90.868033 696.206967,90.5109222 696.206967,89.9637364 C696.206967,89.4107907 696.165899,89.0508 696.080829,88.8780045 C695.992825,88.7167286 695.822684,88.6303309 695.58214,88.6303309 C695.365063,88.6303309 695.203723,88.7253684 695.112785,88.9154435 C695.018914,89.1083985 694.969046,89.4511096 694.969046,89.9464568 L694.969046,89.9464568 Z M694.969046,88.0917848 C695.06585,87.9391487 695.197856,87.8325915 695.353329,87.7548335 C695.511736,87.6799554 695.708279,87.6453963 695.919488,87.6453963 C696.429911,87.6453963 696.820061,87.8153119 697.072339,88.1551431 C697.324617,88.4978543 697.450756,89.0248807 697.450756,89.7391022 C697.450756,90.6491586 697.307016,91.291382 697.019537,91.6744121 C696.732058,92.0516824 696.245102,92.2475173 695.58214,92.2475173 C695.221324,92.2475173 694.916243,92.1870389 694.681566,92.066082 C694.446889,91.9480051 694.247413,91.7608099 694.080206,91.5073764 C693.965801,91.3057817 693.868997,91.0091493 693.816194,90.6145995 C693.772192,90.2200497 693.736991,89.6411847 693.736991,88.8751245 C693.736991,88.1090643 693.772192,87.5273194 693.816194,87.1298897 C693.868997,86.7324599 693.954067,86.4387075 694.062605,86.2428726 C694.218079,85.9663998 694.429288,85.764805 694.687433,85.6352083 C694.951445,85.5113715 695.277059,85.4480132 695.678944,85.4480132 C696.201101,85.4480132 696.600052,85.57185 696.887531,85.8137637 C697.169144,86.0585574 697.31875,86.4041484 697.31875,86.847657 L697.31875,86.9455744 L696.148298,86.9455744 C696.148298,86.7007808 696.10723,86.5625443 696.010425,86.4703867 C695.931222,86.383989 695.793349,86.3379101 695.617341,86.3379101 C695.373864,86.3379101 695.215457,86.4415875 695.112785,86.6460622 C695.007181,86.847657 694.957312,87.2047677 694.957312,87.7145145 L694.969046,87.8988298 L694.969046,88.0917848 Z" id="Page-1"></path>
                    </g>
                </g>
            </g>
        </g>
    </g>
</svg>
