<svg xmlns="http://www.w3.org/2000/svg" width="180" height="99" viewBox="0 0 180 99" xmlns:xlink="http://www.w3.org/1999/xlink"><defs><path id="a" d="M0 .388v97.704h179.726V.388H0z"/></defs><g fill="none" fill-rule="evenodd"><g><mask id="b" fill="#fff"><use xlink:href="#a"/></mask><path fill="#08080B" d="M160.206 54.743l.07-.35c.427-2.42-.715-5.533-5.345-6.35-.683-.09-1.24-.128-1.78-.128-1.31 0-2.63.21-3.935.625.117-.183.238-.363.352-.547 1.025-1.635 1.694-3.388 1.98-5.2.125-.784.113-1.43.023-2.03 4.872-9.065 5.948-17.56 2.93-24.59C150.143 5.99 138.083.387 120.55.387c-8.848 0-18.595 1.476-28.61 4.26-.484-.043-1.028-.067-1.658-.067-1.542 0-2.14.017-2.438.032-2.625.036-4.87.117-6.66.242-6.577.41-12.306.973-17.006 1.667-2.657.384-4.476.868-5.693 1.516-1.965 1.02-3.095 2.873-3.095 5.075 0 2.11.923 3.94 2.55 5.13-1.036.513-1.97.895-2.7 1.41-.46.32-.856.7-1.17 1.137-.72-.46-1.6-.715-2.566-.715-.38 0-.775.035-1.194.11-.622.132-1.087.277-1.537.468.185-.77.18-1.374.07-1.952-.136-.77-.512-1.476-1.083-2.046-.203-.207-.43-.378-.685-.527-.66-.39-1.412-.593-2.17-.593-.256 0-.51.023-.768.066-.963.172-1.855.637-2.595 1.347-.243-.168-.502-.312-.775-.43-.662-.296-1.433-.437-2.348-.437-.192 0-.4.008-.62.02-.777.047-1.842.187-3.254.437-1.436.258-2.872.636-4.265 1.132-1.51.54-2.747 1.14-3.78 1.843-2.22 1.503-2.665 3.21-2.65 4.333 0 .176-.007.504-.02.984-.015.683-.003 1.19.044 1.59.023.253.078.5.164.737.18.535.372 1.09.857 1.632.172.19.364.363.58.515.895.626 1.792.626 2.085.626.192 0 .423-.008.728-.035-1.01 2.402-1.425 4.135-1.33 5.53.007.12.02.24.042.358.196 1.136.814 2.128 1.738 2.79.11.333-.11.462-.325.583-1.768 1.035-3.157 2.07-4.24 3.17-1.507 1.527-2.274 3.128-2.278 4.768.004.226-.004.636-.067 1.573-.023.348-.035.65-.043.938-5.52 7.706-8.46 15.16-8.667 21.855-6.245 1.63-10.158 2.806-10.718 2.974-1.534.465-2.532 1.945-2.383 3.537.15 1.593 1.405 2.866 2.997 3.042.146.015 10.144 1.167 16.06 6.03.44.442.897.868 1.378 1.282 1.647 1.757 2.763 3.912 2.88 6.555.05 1.104.638 2.112 1.577 2.7.544.35 1.17.52 1.8.52.446 0 .9-.09 1.326-.273.09-.04 2.69-1.124 7.245-2.678 4.022.863 8.514 1.327 13.46 1.327 15.43 0 33.602-4.47 51.152-12.59.422-.196.83-.4 1.248-.595 1.577-.04 3.166-.066 4.77-.066 3.13 0 6.273.077 9.29.226 1.154.074 4.676.472 8.74.933 10.023 1.135 25.17 2.852 31.767 2.852.56 0 1.05-.01 1.49-.035 15.376-1.386 22.94-11.477 22.52-20.734-.336-7.468-5.857-12.688-13.42-12.688-1.922 0-3.973.324-6.086.968z" mask="url(#b)"/></g><path fill="#EE3E33" d="M152.466 17.672C144.486-.948 107.62-1.984 70.12 15.36c-4.224 1.955-8.27 4.054-12.12 6.274l.548 1.01c3.754-2.298 7.752-4.44 11.957-6.385 32.482-15.027 65.115-12.512 72.883 5.615 4.66 10.87-.693 24.89-12.723 37.612L132.83 61c16.59-14.817 24.8-31.28 19.636-43.328M125.476 64.756c-7.32 6.344-16.295 12.16-26.482 16.84-33.07 15.19-66.28 12.65-74.187-5.675-6.382-14.785 5.66-35.322 27.923-50.684L52.108 24C24.578 41.402 8.793 64.48 15.563 80.166c8.124 18.826 45.655 19.873 83.823 2.338 10.345-4.75 19.668-10.388 27.614-16.446l-1.524-1.302z"/><path fill="#EE3E33" d="M38.92 23.793c-.105.312-.23.632-.368.96-.05.124-.11.257-.17.393.22-.46.46-.928.712-1.392-.055.012-.11.024-.173.04m30.926 23.655c.495.49.935 1.25 1.123 2.42.02.144.035.284.05.432.204-.464.448-.923.73-1.364 1.073-1.692 2.526-3.103 4.317-4.186 1.795-1.084 3.637-1.715 5.49-1.875.252-.023.484-.035.704-.035 2.333 0 3.288 1.325 3.398 2.557.015.21.015.482-.043.794.23.265.44.592.608 1.01.688-2.175 1.732-4.327 3.1-6.397.902-1.364 1.963-2.77 3.172-4.182-.384.125-.742.2-1.087.222-.044 0-.083.004-.122.004-.083 0-.165-.003-.252-.018-1.48-.22-2.49-1.182-2.812-2.667-.353.308-.66.573-.923.788-.76.627-1.422 1.056-2.027 1.313-.173.074-.358.12-.55.133-.063.003-.126.003-.185.003-.718 0-1.453-.27-2.25-.827-.542-.378-1.033-.845-1.47-1.4-.51.617-1.02 1.174-1.527 1.662-1.39 1.348-2.49 2.08-3.467 2.295-.03.004-.07.012-.102.02-.203.027-.407.043-.61.043l-.127-.004c-.72-.02-1.422-.242-2.07-.667-.868-.557-1.476-1.418-1.814-2.564-.02-.07-.037-.136-.048-.206-.075-.503-.106-1.006-.083-1.5-.127.147-.252.303-.394.467-1.468 1.767-2.973 3.026-4.473 3.74-.16.073-.31.14-.448.19-.298.218-.656.335-1.017.335-.365 0-.742-.124-1.048-.366-.323-.254-.523-.594-.61-.96-.494-1.294.53-2.424 3.13-5.29.284-.307.62-.68.936-1.036-.07-.137-.134-.285-.18-.437-.044-.136-.08-.288-.107-.448-.174-1.073.093-2.262.8-3.634.322-.63.72-1.227 1.186-1.785-.616.16-1.23.325-1.834.488-.73.94-1.512 2.008-2.337 3.185-1.535 2.163-2.698 3.882-3.472 5.125.4.22.825.628 1.092 1.384.39 1.12.695 4.635-.942 5.917-1.27.977-2.404 1.45-3.476 1.45-.546 0-1.084-.133-1.583-.387.558 1.033.966 2.17 1.226 3.38.227 1.056.33 2.237.318 3.515-.008.304-.028.6-.06.897.727-.865 1.576-1.64 2.542-2.323 1.712-1.2 3.51-1.96 5.35-2.25.4-.066.78-.093 1.118-.093 2.043 0 2.962 1.2 3.146 2.322.032.215.047.49.012.807m34.24 6.056c.046.004.097.004.137.004.267 0 .487-.04.687-.12 2.066-.858 4.627-2.382 6.366-3.793.012-.008.02-.016.032-.027-.577-.024-1.112-.343-1.398-.854-.326-.585-.283-1.294.118-1.832.44-.585.84-1.088 1.197-1.524-.518.378-1.088.66-1.708.842.027.18.035.355.027.542-.055.978-.57 2-1.567 3.133-.79.9-1.692 1.766-2.678 2.57-.504.412-.955.763-1.356 1.048.043.007.094.007.14.01m14.8-3.043c-.962 1.02-1.724 1.98-2.262 2.857-.452.724-.72 1.282-.88 1.706.075-.03.15-.066.228-.105.546-.264 3.605-1.854 5.18-2.68.825-.484 1.52-.944 2.07-1.365.015-.004.023-.01.03-.02-.423-.03-.82-.225-1.106-.537-.18.054-.366.105-.558.144-.354.07-.758.11-1.21.11-.4 0-.86-.032-1.347-.09-.04 0-.087-.012-.146-.02m-41.654 2.94c-.385.514-.57 1.098-.57 1.808.318-.094.624-.246.923-.456-.13-.312-.232-.632-.306-.95-.024-.107-.04-.216-.044-.33-.003-.026-.003-.046-.003-.073m53.562-1.394c-1.002.986-1.79 1.917-2.36 2.77-.472.718-.762 1.268-.94 1.68.075-.026.15-.058.23-.097.64-.285 2.167-1.03 4.54-2.218.234-.682.51-1.345.823-1.992-.172.015-.345.02-.534.02-.482 0-1.008-.044-1.61-.14-.046-.005-.09-.013-.148-.024m-68.797 3.208c-.353.534-.495 1.138-.444 1.84.308-.114.606-.285.89-.52-.154-.303-.28-.61-.374-.923-.036-.1-.055-.217-.067-.322-.005-.028-.005-.05-.005-.074m42.243 4.993c1.46.046 2.9.12 4.3.21-.1-.14-.184-.277-.25-.4-.295-.547-.468-1.143-.5-1.794-.573.41-1.07.74-1.39.927-.757.456-1.48.803-2.16 1.057m-61.73-14.89c-.17.768-.386 1.415-.653 1.976l-6.158 12.843c-.05.113-.098.21-.138.308.223-.01.483-.035.77-.082 1.354-.378 2.548-.76 3.55-1.15 1.606-.69 3.157-1.496 4.614-2.404 1.442-.897 2.738-1.895 3.857-2.978 1.077-1.033 1.914-2.124 2.49-3.243.535-1.045.78-2.047.74-3.083-.004-.312-.028-.554-.07-.75-.202-.938-.64-1.28-1.003-1.48-.742-.41-1.575-.62-2.545-.66-.247-.006-.502-.014-.75-.014-.89 0-1.818.062-2.753.183-.692.082-1.32.168-1.89.242-.02.097-.04.195-.063.292M82.99 57.954c-1.562 1.668-3.223 2.728-4.96 3.145 6.85-.628 13.707-1 20.35-1 .482 0 .953 0 1.432.01-.95-.504-1.995-1.443-2.478-3.18-.188.166-.334.303-.424.392-.782.737-1.638 1.372-2.55 1.883-.997.56-2.05.89-3.113.986-.185.017-.362.024-.535.024-1.26 0-2.356-.405-3.248-1.2-.632-.558-1.107-1.232-1.42-2.008-.89.44-1.914.757-3.053.948m32.775 3.11c1.407.164 2.88.37 4.39.608-.116-.17-.22-.33-.29-.487-.306-.612-.45-1.294-.44-2.03-.203.128-.384.245-.53.33-1.028.628-2.08 1.158-3.13 1.58M68.05 59.352c-1.397 1.723-2.933 2.877-4.578 3.438 4.124-.576 8.31-1.08 12.51-1.496-1.55-.093-2.872-.79-3.866-2.023-.31-.39-.59-.802-.82-1.234-.912.58-1.996 1.02-3.245 1.317m-13.003-3.66c-1.492 2.14-3.393 4.112-5.655 5.862-2.298 1.774-4.725 3.27-7.2 4.46-.435.21-.863.405-1.283.588 6.267-1.236 13.006-2.425 19.958-3.442-1.367-.092-2.6-.69-3.57-1.74-1.14-1.23-1.862-2.757-2.145-4.534-.06-.398-.098-.8-.106-1.193M126.5 62.76c2.964.553 5.996 1.153 8.993 1.75 9.013 1.797 18.337 3.656 24.24 3.656 2.054 0 3.574-.222 4.536-.65 3.404-1.525 4.598-3.86 4.264-5.384-.247-1.146-1.307-1.805-2.918-1.805h-.16c-1.803.258-3.787 1.205-6.076 2.296-1.505.72-3.217 1.536-5.11 2.257-1.46.74-2.832 1.25-4.065 1.528-.8.175-1.575.265-2.297.265-.468 0-.923-.04-1.355-.113-1.772-.308-3.162-1.25-4.018-2.713-.19-.323-.35-.66-.47-1.006-.072.037-.143.08-.214.118-.937.534-1.92.94-2.924 1.217-.715.194-1.43.296-2.133.296-.377 0-.758-.027-1.135-.09-1.457-.23-2.62-.934-3.386-2.04-.396-.586-.663-1.21-.81-1.884-.34.203-.666.394-.973.57-1.308.736-2.632 1.317-3.944 1.722l-.047.012M27.107 96c-.315 0-.63-.09-.904-.257-.47-.296-.766-.8-.79-1.353-.58-13.046-21.686-15.423-21.902-15.447-.802-.082-1.43-.717-1.505-1.512-.074-.794.425-1.535 1.194-1.765.245-.074 11.623-3.457 28.043-7.05-1.767-.402-2.348-1.52-2.54-2.172-.013-.035-.024-.078-.032-.117-.353-1.645-.368-3.2-.046-4.623.306-1.32.856-2.79 1.65-4.373l3.81-7.488c-.068.028-.13.06-.198.086-.392.187-.81.39-1.25.604l-1.546.764c-.585.296-1.147.558-1.665.79-.53.235-1.05.454-1.552.652-.09.035-.184.063-.278.082-.267.06-.535.09-.786.09-1.352 0-2.412-.81-2.844-2.167-.028-.09-.05-.183-.063-.28-.06-.45-.06-1.088 0-2.028.05-.756.074-1.306.07-1.64.004-1.23.594-2.402 1.795-3.614.97-.977 2.286-1.948 3.912-2.9 1.57-.903 3.315-1.733 5.18-2.455 1.87-.72 3.79-1.294 5.707-1.7 1.89-.397 3.645-.6 5.227-.6 1.163 0 2.266.11 3.268.328 1.485.32 2.824.908 3.982 1.735.095.066.18.132.27.202-.548-1.17-.823-2.307-.823-3.387 0-.865.162-1.715.484-2.537-.287.234-.566.44-.84.616-.708.444-1.415.728-2.094.85-.255.042-.503.066-.75.066-.876 0-1.693-.29-2.368-.835-.676.612-1.257 1.037-1.772 1.298-.04.02-.078.036-.122.056-.365.148-.663.242-.926.288-.16.028-.32.043-.476.043-.628 0-1.335-.245-1.85-.865-.357.487-.816.97-1.46 1.177-.17.054-.35.08-.523.08-1.43 0-2.352-1.118-2.745-3.328-.14-.783-.157-1.586-.047-2.38l.017-.1c.13-.657.377-1.425.754-2.326l-.318.698-1.822 4.194c.06.136.098.28.126.437.165.927-.24 1.995-1.544 4.088-.428.733-1.17 1.248-2.062 1.407-.16.028-.33.04-.49.04-.554 0-1.077-.168-1.524-.484-.57-.413-.943-.998-1.06-1.707-.013-.06-.02-.118-.024-.18-.087-1.28.44-3.103 1.645-5.746.295-.643.57-1.208.817-1.703-.125.032-.26.048-.39.048-.034 0-.105-.004-.11-.004-.682.058-1.04.11-1.216.14l-.793.137c-.048.012-.1.016-.15.02-.42.04-.714.05-.89.05-.178 0-.66 0-1.117-.32-.11-.073-.208-.163-.29-.256-.248-.277-.354-.554-.527-1.053-.038-.12-.07-.244-.08-.37-.036-.326-.048-.76-.032-1.367.01-.5.02-.842.02-1.025-.016-1.068.628-2.066 1.92-2.935.9-.608 2.05-1.162 3.405-1.645 1.312-.464 2.663-.82 4.01-1.056 1.35-.238 2.356-.37 3.07-.417.186-.012.358-.016.52-.016.683 0 1.23.096 1.676.29.624.274 1.142.75 1.53 1.416.343-.44.626-.8.873-1.072.546-.612 1.22-1.01 1.956-1.138.156-.027.317-.04.47-.04.468 0 .915.118 1.328.36.125.07.243.164.345.26.33.328.546.73.62 1.16.166.922-.12 2.166-1.85 5.07.347.07.68.21 1.002.42.028.02.06.04.083.06.263-.34.558-.66.88-.96.954-.892 2.05-1.477 3.248-1.746l.07-.012c.318-.054.62-.082.904-.082 1.79 0 2.63 1.135 2.816 2.195.086.473.066.948-.047 1.427.427.152.784.472.976.9l.346.765c.028.07.055.14.075.21.27-.358.475-.64.616-.838.016-.023.032-.043.047-.058-.082-.066-.168-.13-.24-.195-.796-.654-1.225-1.54-1.225-2.537 0-1.08.48-2 1.36-2.592.624-.447 1.562-.786 2.953-1.063l2.396-.522c.043-.008.086-.016.12-.027.33-.394.72-.834 1.156-1.322-1.6-.07-2.902-.467-3.876-1.192-1.222-.893-1.878-2.203-1.878-3.777 0-1.58.782-2.85 2.192-3.578 1.044-.55 2.737-.99 5.172-1.338 4.682-.69 10.38-1.248 16.935-1.653 1.775-.122 4.01-.204 6.626-.243.417-.02 1.203-.027 2.4-.027 1.662 0 2.655.144 3.31.472.57.3 1.007.713 1.345 1.247.36.55.55 1.14.55 1.733 0 1.154-.806 2.503-3.076 2.503h-.433c-1.94 0-4.143.086-6.56.257-2.15.16-4.774.405-7.783.737-.412.047-.825.097-1.23.148-.074.183-.164.358-.266.53-.342.553-.81 1.087-1.438 1.653-.47.46-1.084 1.08-1.838 1.86 1.28-.168 2.43-.3 3.437-.398 2.198-.245 2.438-.245 2.583-.245.79 0 1.508.33 2.038.935.496.538.752 1.216.752 1.965 0 .748-.354 1.426-.97 1.863-.378.277-.868.444-1.685.585-.57.097-1.124.19-1.658.288.68.164 1.272.6 1.684 1.24.405.623.668 1.333.797 2.108.084.54.088.913.005 1.248-.098.468-.373.92-1.064 1.774-.333.413-.612.76-.832 1.048.59-.545 1.194-1.138 1.642-1.64.314-.605.734-1.205 1.25-1.793.95-1.084 2.096-2.074 3.412-2.947 1.272-.85 2.592-1.57 3.92-2.144 1.354-.59 2.603-.978 3.695-1.154.05-.008.102-.015.153-.02l.338-.023c.098-.008.204-.012.3-.012.76 0 1.49.198 2.174.588.974.554 1.548 1.44 1.622 2.487.02.226-.007.448-.066.667-.047.175-.114.33-.197.48.13.33.186.642.202.88.062.96-.29 1.96-1.053 2.978-.115.152-.225.292-.32.43.244-.196.53-.426.845-.684.287-.25.998-.822.998-.822.585-.495 1.178-1.002 1.657-1.423.22-.37.424-.69.63-.97.18-.255.364-.488.556-.71 1.088-1.217 1.304-1.435 1.38-1.505.333-.335.737-.604 1.216-.795.456-.184.99-.273 1.63-.273l.908.015c1.292.024 2.073.624 2.427 1.384.424-.296.934-.635 1.543-1.03 1.387-.89 2.372-1.39 3.115-1.577.172-.04.322-.068.463-.083.055-.004.11-.008.17-.008h.03c1.367.026 1.91 1.38 2.14 1.956.32.795.476 1.563.464 2.268-.008.39-.015 1.017-.424 1.536-.016.023-.03.05-.055.074.68-.503 1.324-.986 1.834-1.376.338-.402.656-.768.978-1.103.962-1.014 2.093-2.11 3.366-3.266.315-.278.625-.555.95-.828 2.24-1.89 4.942-3.722 8.037-5.45 1.123-.634 2.195-.962 3.185-.962h.063c.16.004.326.016.48.035 1.39.172 2.242 1.232 2.073 2.59-.11.89-.672 1.827-1.81 3.03-.307.328-.66.675-1.05 1.046-.805.75-1.786 1.6-2.918 2.526.146.004.26.012.37.024.64.082 1.802.444 2.466 2.007.365.87.5 1.73.397 2.557-.098.76-.35 1.462-.758 2.1.06-.007.122-.01.188-.01.256 0 .515.058.758.175.52.256.865.755.928 1.328l.157 1.48c.07.617-.216 1.22-.73 1.568-2.223 1.504-3.967 2.604-5.17 3.278-1.358.752-2.52 1.197-3.573 1.352-.082.016-.173.02-.25.02-.072 0-.146-.004-.217-.012-.03-.004-.086-.008-.16-.01-.205-.01-.386-.025-.547-.044-1.69-.207-3.177-1.396-4.52-3.62-.307.37-.558.66-.747.883-.55.632-1.27.983-2.04.983-.032 0-.103-.004-.127-.004l-.125-.012c-.232-.023-.46-.086-.672-.175-.42-.176-1-.558-1.367-1.384-.22-.49-.37-1.06-.44-1.695v-.007c-.217.163-.397.31-.54.428-.953.835-1.915 1.544-2.87 2.113-1.12.673-2.132 1-3.083 1h-.066c-.64-.007-1.205-.167-1.68-.463-.448-.285-.805-.663-1.065-1.127-.047-.093-.102-.198-.15-.307-.128-.29-.23-.61-.33-.99-.01-.06-.03-.114-.034-.16-.29.33-.655.752-.655.752-.02.016-.03.035-.05.05-.838.846-1.792 1.33-2.845 1.443-.058.008-.12.012-.184.012-.063 0-.122-.004-.185-.012-.038-.004-.08-.008-.12-.016.078 1.477-.13 2.982-.617 4.467-.503 1.527-1.178 2.977-2.007 4.314-.79 1.27-1.756 2.647-2.875 4.085-1.185 1.488-2.147 2.6-2.937 3.394 0 .086-.01.775-.015.92.086.557.228.705.23.705-.002 0 0 0 0 0 .013 0 .06.007.14.007.034 0 .07 0 .113-.004.947-.082 3.68-1.575 5.912-3.75.82-1.43 2.01-2.787 3.55-4.026.5-.437 1.12-.846 1.846-1.208.5-.25.994-.422 1.488-.516-.06-.25-.094-.507-.102-.775-.004-.154.016-.306.05-.45.23-.888.418-1.383.68-1.742.555-.787 1.25-1.38 2.047-1.758.72-.34 1.446-.507 2.16-.507.08 0 .158 0 .237.004.8.043 1.508.335 2.038.85.416.398.9 1.115.833 2.245-.036.756-.24 1.47-.605 2.097.526-.48 1.045-.843 1.575-1.092.687-.324 1.406-.503 2.14-.53.13-.008.275-.008.436-.008.365 0 .82.012 1.37.04.896-1.05 1.674-1.74 2.397-2.15.782-.44 1.634-.665 2.538-.665.23 0 .463.015.7.046 1.868.227 2.567 1.51 2.422 2.683-.043.335-.153.67-.346 1.033.373.164.672.444.85.81.596-.214 1.216-.327 1.845-.327.438 0 1.024.03 1.797.093.93-1.014 1.724-1.676 2.467-2.062.742-.385 1.535-.58 2.376-.58.283 0 .577.024.88.07 1.865.293 2.51 1.602 2.325 2.768-.047.33-.177.666-.377 1.02.137.063.267.15.377.25.027-.023.055-.046.086-.074 1.796-1.645 3.952-3.282 6.39-4.856 2.216-1.388 3.084-1.58 3.697-1.58.125 0 .247.01.353.024.9.145 1.56.788 1.78 1.727.113.483.113 1.048-.005 1.773-.247 1.586-.844 3.122-1.747 4.568-.864 1.357-1.87 2.605-3 3.704-1.077 1.048-2.353 2.15-3.79 3.278-1.505 1.15-2.715 2.003-3.677 2.584-.015.078-.195.752-.235.89-.047.533.044.72.055.74.004 0 .075.034.24.062.11.015.216.023.334.023.624 0 1.72-.22 3.515-1.23.458-1.034 1.106-2.027 1.93-2.963 1.372-1.555 3.06-2.767 5.02-3.6 1.532-.656 3.1-.992 4.64-.992.478 0 .95.036 1.42.098.028.004.05.004.075.012 4.29.748 4.14 3.547 3.986 4.385-.203 1.138-.804 2.17-1.8 3.06-.67.61-1.498 1.153-2.452 1.6-.892.415-1.818.76-2.757 1.023-.89.253-1.653.436-2.27.553-.286.055-.612.11-.993.18.236.097.515.17.778.175.648 0 1.504-.206 2.513-.607.715-.28 3.34-1.388 4.23-1.774 1.198-.61 2.396-1.123 3.566-1.54.13-.06.334-.137.668-.23 2.188-.718 4.28-1.084 6.23-1.084 6.738 0 11.475 4.444 11.773 11.062.38 8.447-6.688 17.66-20.937 18.94-.023.003-.043.003-.067.003-.407.025-.874.036-1.4.036-6.52 0-21.668-1.707-31.69-2.837-4.274-.485-7.656-.863-8.854-.945-3.083-.152-6.26-.226-9.433-.226-43.646 0-78.482 14.57-78.828 14.714-.216.093-.444.136-.667.136"/><path fill="#FFD600" d="M26.99 25.945c-.022-.244-.034-.623-.014-1.14.008-.516.015-.868.015-1.057-.006-.492.387-1.003 1.178-1.533.792-.53 1.807-1.01 3.035-1.44 1.236-.432 2.48-.76 3.74-.978 1.28-.22 2.24-.352 2.885-.387.65-.04 1.122.004 1.417.132.295.127.547.367.752.727.212.355.44.757.69 1.202.022.147-.316.728-1.643.658-.708.136-1.413.298-2.12.472-.013.143-.053.33-.13.565-.11.356-.253.735-.422 1.13-.17.395-.36.82-.57 1.28-.214.457-.387.83-.517 1.115l-2.346 5.34c.306-.055.487.026.523.235.074.41-.366 1.37-1.32 2.883-.208.352-.51.56-.916.63-.28.05-.524 0-.732-.146-.213-.147-.343-.36-.386-.627-.064-.964.436-2.596 1.5-4.902.286-.616.55-1.165.794-1.645s.563-1.083.96-1.822c.398-.74.764-1.42 1.102-2.043.34-.627.61-1.134.82-1.525-.052.012-.087.012-.127.012-1.107.32-2.162.677-3.158 1.06-1.07.418-2.05.855-2.944 1.32l-.03.05c.55-.016.99.004 1.325.058.106 0 .2.027.272.08.074.055.122.125.137.198.016.097-.078.178-.267.248-.063-.015-.146-.015-.256.008-.607.046-1.064.1-1.375.155l-.79.138c-.556.042-.855.05-.895.027-.02-.023-.082-.182-.19-.48zm36.24-11.518c0-.124.066-.217.192-.287.082-.073.334-.158.744-.263 1.228-.352 3.117-.754 5.683-1.207l.54-.093c-.43.418-.95.948-1.58 1.594-.51.5-1.106 1.112-1.79 1.83-2.528-.645-3.79-1.17-3.79-1.573zm-8.563 23.505c.465.735.894 1.25 1.284 1.548.39.332.81.5 1.256.5.677 0 1.484-.36 2.43-1.077.936-.735.743-5.053-.218-4.457-.035 0-.06.008-.074.027-.024.015-.067.042-.138.077-.036.02-.067.04-.09.066-.032.027-.06.046-.1.066-.353.19-.62.29-.798.29-.268 0-.398-.135-.398-.4 0-.188.103-.478.315-.86l.162-.288c.696-1.28 2.137-3.447 4.325-6.508.98-1.38 1.894-2.604 2.748-3.668 1.157-.317 2.342-.623 3.547-.92 2.723-.63 6.034-1.27 9.927-1.916.515-.09.846-.185.984-.286.177-.124.268-.29.268-.5 0-.332-.107-.614-.32-.84-.216-.246-.472-.366-.775-.366-.192 0-1.002.077-2.423.236-1.85.174-4.165.472-6.936.89l-1.255.185.827-.865c2.023-2.132 3.503-3.645 4.428-4.54.512-.452.898-.877 1.15-1.28.208-.352.318-.727.318-1.13v-.042c.807-.108 1.622-.21 2.453-.306 3.06-.332 5.68-.576 7.873-.735 2.472-.174 4.7-.263 6.692-.263h.43c.924 0 1.384-.272 1.384-.813 0-.26-.1-.538-.292-.84-.177-.28-.397-.488-.665-.63C92.59 8.096 91.735 8 90.42 8c-1.192 0-1.976.012-2.35.027-2.61.035-4.81.112-6.59.236-6.545.402-12.158.944-16.834 1.625-2.224.317-3.775.7-4.637 1.157-.863.433-1.288 1.126-1.288 2.07 0 1.033.4 1.834 1.2 2.414.784.576 1.917.862 3.39.862.924 0 2.16-.13 3.707-.39-.442.46-.922.97-1.437 1.528-1.33 1.397-2.34 2.52-3.016 3.354-.444.09-.673.132-.692.132l-2.43.522c-1.14.23-1.908.492-2.318.79-.425.278-.645.684-.645 1.207 0 .487.22.91.645 1.257.41.348.933.526 1.575.526h.315c-.016.055-.06.124-.126.21-.074.088-.157.193-.247.317-.213.26-.327.41-.346.44-.087.125-.32.45-.693.972-.158.228-.402.553-.717.97-.16.23-.405.55-.724.972-.9 1.257-1.51 2.135-1.81 2.622-.504.875-.748 1.776-.748 2.7 0 1.05.354 2.187 1.062 3.41zm37.202-12.87l.003.075c-4.157 4.786-6.83 7.24-8.01 7.363-.418-.047-.642-.256-.666-.623-.067-1.002.335-1.923 1.224-2.76.883-.835 1.87-1.524 2.965-2.054.68-.332 1.52-.715 2.52-1.153.602-.267 1.255-.545 1.964-.847zm36.677 2.288c-.02.185-.213.433-.575.746-.362.314-.925.69-1.68 1.123-.76.436-1.725.923-2.898 1.465-.405-.464-.9-.805-1.49-1.03 1.357-.85 2.62-1.504 3.8-1.953 1.036-.395 1.8-.596 2.3-.6.075 0 .134.004.2.008.24.03.367.112.343.24zm-36.26-5.603c-.965.155-2.067.495-3.303 1.025-1.236.53-2.457 1.192-3.66 1.985-1.202.794-2.233 1.676-3.083 2.635-.48.542-.85 1.084-1.117 1.62-1.075 1.247-3.484 3.406-4.334 3.832-.725.356-1.524-.108-1.54-.685-.016-.376.138-1.022.48-1.935.24-.496.496-.914.752-1.243.26-.336.622-.785 1.086-1.36.47-.57.713-.934.74-1.09.028-.1.02-.297-.027-.606-.09-.546-.27-1.025-.546-1.45-.205-.314-.47-.496-.79-.535-.104-.01-.214-.01-.336.01-.21.034-.496.1-.87.2-.366.104-.917.263-1.637.48-.732.21-1.44.418-2.137.615.114-.375.158-.685.118-.93-.05-.297-.18-.467-.392-.513-.07-.012-.15-.016-.236 0-.154.023-.363.1-.622.228-1.008.793-1.776 1.702-2.31 2.728-.536 1.03-.75 1.888-.635 2.584.012.074.028.143.048.21.125.378.397.568.818.56.072-.004.147-.007.222-.02-.57 1.11-6.04 6.3-4.767 6.172l-.122.15c.023-.03.09-.088.18-.16.13-.025.304-.086.548-.2 1.808-.854 3.3-2.537 3.922-3.268.614-.735 1.07-1.316 1.37-1.745.295-.425.566-.908.795-1.458.02-.008.043-.015.078-.027.2-.09.642-.26 1.315-.51.77-.287 1.437-.538 1.992-.763l.07.054c-.854 1.32-1.468 2.442-1.846 3.37-.09.233-.17.47-.228.705-.185.71-.212 1.444-.094 2.198.224.743.594 1.285 1.118 1.614.385.25.79.383 1.204.394.138.008.283-.004.42-.023.643-.14 1.525-.75 2.658-1.838.705-.677 1.425-1.5 2.153-2.46.31-.41.626-.844.94-1.3 0 .027 0 .05.005.077.043.596.264 1.195.665 1.8.402.6.866 1.082 1.402 1.454.53.367.98.538 1.345.514.45-.19.984-.54 1.614-1.056.628-.51 1.538-1.308 2.723-2.395 1.184-1.08 1.818-1.657 1.885-1.72l.075.063c-.7 1.614-1.055 2.945-1.05 3.978.125.925.605 1.448 1.443 1.572.634-.04 1.43-.384 2.394-1.03.972-.642 1.936-1.404 2.893-2.28.704-.64 1.873-1.492 2.7-2.18-.07.367-.122.723-.13 1.063.02.91.18 1.633.496 2.167.31.534.712.828 1.192.878.653-.07 1.263-.383 1.822-.94.016-.012.032-.035.052-.058.15-.17.495-.565 1.035-1.192.62-.716 1.193-1.358 1.72-1.927.528-.568 1.11-1.137 1.745-1.71.63-.57 1.25-1.048 1.865-1.443l.07.077c-.62.84-1.132 1.544-1.51 2.117-.382.572-.725 1.18-1.028 1.834-.303.65-.468 1.257-.503 1.818.002.004.006.024.018.05.02.09.067.275.142.562.07.286.15.522.232.715.028.062.06.124.09.175.115.21.28.383.485.51.205.128.472.198.803.202.634.01 1.385-.24 2.25-.755.87-.515 1.75-1.153 2.635-1.923.728-.63 2.255-1.648 3.46-2.635-.118.356-.213.712-.252 1.06-.04.275-.04.565-.012.87.052.438.1.887.15 1.35.052.466.158.864.308 1.205.11.25.27.42.476.503.075.03.146.05.224.058.292.015.555-.117.803-.395.237-.275.58-.67 1.013-1.196.44-.518.937-.96 1.5-1.323 1.334 2.932 2.76 4.487 4.26 4.67.125.01.266.026.408.034.147.004.25.008.308.02.838-.128 1.842-.508 3.003-1.15 1.17-.646 2.85-1.702 5.06-3.176l-.158-1.47-2.342 1.377c-.642.375-1.216.692-1.724.948-.508.26-.996.456-1.464.6-.355.104-.685.162-.984.17-.103.004-.2 0-.296-.008-.622-.128-1.173-.588-1.673-1.38-.068-.114-.138-.234-.21-.36.296-.133.867-.365 1.697-.69.835-.32 1.567-.627 2.2-.913.638-.283 1.193-.584 1.678-.898 1.192-.758 1.86-1.69 2.003-2.797.063-.534-.03-1.095-.287-1.687-.247-.596-.617-.92-1.1-.98-.072-.007-.16-.01-.234-.01-.252.003-.54.05-.866.143-.437.123-.873.278-1.314.464l-.32.14c-.306.13-.57.25-.78.355-.294.143-.715.348-1.274.623-1.878 1.033-4.37 2.577-7.483 4.635l.184-.893.276-.217c.697-.546 1.767-1.366 3.196-2.46 1.638-1.25 2.98-2.284 4.035-3.1 1.056-.82 2.15-1.687 3.28-2.604 1.125-.92 2.094-1.75 2.893-2.488.37-.34.7-.658.98-.952.846-.89 1.303-1.582 1.362-2.074.055-.417-.146-.654-.598-.712-.095-.01-.193-.015-.296-.02-.703-.007-1.502.24-2.4.74-3.023 1.672-5.62 3.413-7.79 5.227-.307.26-.61.52-.9.782-1.245 1.117-2.343 2.166-3.28 3.152-.374.383-.71.77-1.035 1.157-.713.54-1.744 1.303-2.763 2.05 0 0-2.402 1.76-3.216 2.337-.82.572-1.46.867-1.925.886-.287-.008-.507-.41-.503-.774.03-.516.256-1.046.68-1.59.418-.547 1.024-1.232 1.823-2.056.792-.82 1.323-1.42 1.587-1.783.047-.042.07-.22.075-.537.01-.48-.103-1.018-.347-1.606-.236-.592-.44-.886-.598-.89-.06.008-.134.02-.213.04-.547.13-1.417.58-2.613 1.345-1.027.658-1.783 1.173-2.26 1.548-.16.124-.286.232-.385.325-1.16.847-2.05 1.548-2.657 2.097-.61.553-1.318 1.277-2.133 2.175-.354.352-.98.386-.882-.016.055-.134.126-.278.21-.428.05-.082.12-.178.215-.294.276-.337.73-.817 1.354-1.436.835-.828 1.473-1.493 1.913-2.004.437-.51.662-.948.67-1.327 0-.467-.323-.707-.98-.72l-.784-.014c-.463-.008-.825.042-1.09.147-.263.104-.48.24-.65.41-.168.17-.597.638-1.298 1.404-.157.19-.315.387-.472.596-.236.325-.46.68-.665 1.06-.52.457-1.228 1.05-1.937 1.637 0 0-.673.545-.984.812-.67.542-1.263 1.006-1.626 1.273-.05.035-.114.082-.17.116-.007.005-.02.02-.03.025-.764.495-1.445.766-2.047.808-.534-.034-.834-.274-.897-.715-.023-.755.575-1.935 1.8-3.545.515-.68.755-1.288.716-1.837-.04-.523-.367-.91-1-1.17.636-.258.987-.506 1.058-.742.008-.035.01-.066.008-.1-.032-.484-.292-.863-.776-1.138-.484-.27-.988-.39-1.51-.352l-.344.023zm17.567 18.607c.393.02.708.143.948.37.24.234.35.547.327.946-.044.824-.375 1.516-.99 2.077-.613.56-1.34.906-2.188 1.026-.417-.02-.77-.194-1.05-.52-.284-.324-.434-.715-.445-1.187.16-.623.3-1.01.413-1.16.398-.558.862-.956 1.4-1.208.548-.26 1.072-.37 1.584-.344zM40.24 44.997c.147-.63.186-1.095.12-1.4.89-.124 1.98-.268 3.278-.43 1.3-.163 2.562-.22 3.794-.178 1.233.045 2.335.332 3.307.862.967.526 1.59 1.39 1.84 2.584.072.302.103.646.11 1.03.05 1.3-.258 2.6-.924 3.88-.67 1.285-1.61 2.504-2.826 3.664-1.212 1.157-2.594 2.214-4.145 3.17-1.547.95-3.172 1.79-4.885 2.514-1.09.418-2.37.828-3.838 1.23-1.834.295-2.826.074-2.987-.653-.036-.59.114-1.23.456-1.915l6.17-12.748c.216-.442.39-.98.53-1.61zm-13.638 6.18c.488-.194.984-.4 1.488-.624.504-.22 1.04-.472 1.61-.754.57-.28 1.086-.535 1.554-.76.465-.224.902-.437 1.31-.627.792-.328 1.166-.622 1.107-.897-.066-.298-.668-.325-1.8-.09-.147.036-.383.094-.702.19-.323.086-.57.155-.752.19.78-.62 1.952-1.285 3.52-1.993 1.574-.715 3.002-1.226 4.29-1.536L31.164 58.02c-.74 1.463-1.248 2.786-1.52 3.967-.27 1.18-.255 2.472.052 3.876.16.546.657.89 1.488 1.033.83.144 1.885.082 3.156-.185 1.95-.406 4.122-1.18 6.507-2.313 2.385-1.13 4.688-2.546 6.908-4.24 2.22-1.7 4.043-3.587 5.468-5.67 1.417-2.08 2.17-4.212 2.243-6.395.016-1.153-.078-2.197-.28-3.13-.267-1.234-.712-2.36-1.333-3.374-.618-1.01-1.414-1.857-2.386-2.55-.972-.692-2.09-1.172-3.36-1.443-2.14-.456-4.737-.367-7.8.275-1.837.383-3.656.917-5.455 1.606-1.8.688-3.448 1.466-4.952 2.33-1.507.862-2.692 1.732-3.562 2.6-.874.87-1.315 1.67-1.315 2.398.004.375-.02.963-.074 1.76-.053.794-.06 1.35-.013 1.676.256.8.81 1.11 1.665.936zm52.576 3.88c-.91 1.02-1.917 1.625-3.023 1.826-1.06.012-1.625-.46-1.712-1.416-.075-1.374.346-2.538 1.244-3.486.905-.95 2.232-1.984 3.98-3.098-.878 1.853-1.296 3.362-1.26 4.527.13.563.386 1.117.77 1.647zm-16.052.03c.177.554.47 1.088.886 1.6-.83 1.074-1.79 1.748-2.88 2.026-1.056.08-1.66-.348-1.812-1.296-.173-1.37.16-2.554 1-3.567.83-1.01 2.082-2.132 3.743-3.367-.744 1.912-1.055 3.444-.937 4.605zm28.546-10.752c.583-1.19 1.236-2.31 1.968-3.354.728-1.048 1.402-1.818 2.016-2.317-.394 1.49-1.15 3.13-2.26 4.922-1.11 1.787-2.098 3.103-2.964 3.946.248-.935.658-2 1.24-3.195zm48.373 4.852c.858-1.017 1.77-1.946 2.735-2.79.965-.84 1.81-1.43 2.524-1.768-.752 1.354-1.89 2.762-3.405 4.236-1.517 1.474-2.796 2.515-3.843 3.126.468-.85 1.13-1.787 1.988-2.805zm10.97 4.713c1.303-.623 2.3-.87 2.992-.75.01.01.023.038.04.08.015.043.015.11-.005.198-.05.302-.35.68-.905 1.157-.55.472-1.3.928-2.26 1.362-.956.437-2.043.762-3.267.986.965-1.404 2.102-2.414 3.405-3.033zM105.1 54.906c-.505.213-1.04.275-1.572.25-.728-.04-1.248-.2-1.56-.49-.302-.286-.463-.758-.463-1.404.06-.206.098-.39.106-.565.513-.294 1.23-.813 2.146-1.556.918-.742 1.74-1.523 2.484-2.35.732-.833 1.118-1.53 1.15-2.106.02-.38-.126-.673-.445-.878-.32-.205-.677-.318-1.08-.34-.546-.028-1.12.107-1.735.413-.61.3-1.118.626-1.51.978-1.473 1.172-2.564 2.418-3.296 3.742-2.38 2.367-5.593 4.236-7.14 4.364-1.346.12-2.126-.638-2.334-2.27.007-.086.01-.342.015-.756.004-.418.024-.75.055-1.002.8-.73 1.882-1.946 3.252-3.637 1.082-1.386 2.01-2.69 2.78-3.913.758-1.222 1.373-2.53 1.837-3.927.463-1.393.63-2.778.51-4.15-.086-.984-.338-1.464-.74-1.425-.428.035-1.25.68-2.47 1.93-1.93 2.04-3.548 4.036-4.85 5.986-1.304 1.947-2.28 3.944-2.92 5.983-.387 1.222-.62 2.457-.71 3.706-.496.576-1.012 1.067-1.433 1.354-.748.514-1.55.677-1.92.646.857-1.737 1.22-3.285 1.102-4.632-.116-1.3-.655-1.965-1.607-1.996.51-.375.74-.805.7-1.277-.07-.78-.823-1.114-2.263-.99-1.606.14-3.192.68-4.77 1.625-1.575.948-2.84 2.155-3.776 3.62-.527.825-.882 1.665-1.07 2.528 0 0-.457.87-1.524 1.652-.858.63-1.677.816-2.074.82.728-1.795.984-3.362.767-4.7-.204-1.29-.79-1.912-1.74-1.877.477-.414.682-.856.603-1.324-.122-.775-.902-1.053-2.327-.833-1.59.248-3.138.894-4.64 1.95-1.51 1.05-2.678 2.34-3.513 3.87-.838 1.528-1.13 3.08-.873 4.654.228 1.44.803 2.652 1.72 3.63.917.976 2.062 1.363 3.432 1.146 1.842-.286 3.555-1.474 5.137-3.568 1.31-.25 2.413-.65 3.3-1.214.59-.376 1.148-.933 1.66-1.653.185 1.247.653 2.327 1.397 3.244.846 1.037 1.96 1.497 3.342 1.38 1.858-.158 3.65-1.233 5.377-3.21 1.325-.16 2.45-.484 3.372-.983.57-.305 1.122-.765 1.638-1.365V54c.023.225.09.7.212 1.424.17.94.587 1.707 1.248 2.287.657.585 1.496.833 2.507.748.83-.07 1.642-.33 2.437-.77.79-.437 1.53-.98 2.212-1.62.425-.404 1.957-1.773 3.15-2.868-.06.332-.1.665-.115 1.002-.133 2.503.674 4.043 2.43 4.608.22.066.397.097.53.104 1.036.055 2.312-.363 3.827-1.257 1.185-.693 5.452-3.9 5.452-3.9-.847 1.342-1.336 2.557-1.473 3.64-.087.682.008 1.266.275 1.753.264.492.728.817 1.37.975 1.016.124 2.126-.02 3.318-.433 1.193-.414 2.382-.975 3.56-1.69 1.156-.7 4.773-2.984 4.773-2.984-.897 1.312-1.432 2.507-1.602 3.583-.11.678-.034 1.27.214 1.765.252.5.697.84 1.338 1.022 1.012.158 2.122.05 3.33-.32 1.21-.373 2.413-.895 3.614-1.565 1.05-.588 2.24-1.327 3.55-2.19 0 .02-.004.035-.012.055-.035.22-.082.696-.145 1.43-.068.953.144 1.79.644 2.516.504.724 1.252 1.165 2.252 1.316.827.13 1.677.076 2.558-.164.874-.236 1.725-.588 2.543-1.044.752-.426 1.54-.937 2.346-1.525-.074 1.145.142 2.15.654 3.022.602 1.024 1.555 1.65 2.846 1.88.874.15 1.877.104 3.003-.14 1.118-.248 2.366-.716 3.74-1.404 4.82-1.81 8.348-4.218 11.765-4.663 6.216-.244 7.192 6.972-.342 10.32-7.557 3.358-34.867-4.938-51.47-6.47C68.05 57.743 3 77.08 3 77.08S25.815 79.464 26.464 94c0 0 40.193-16.893 89.24-14.513 4.313.274 34.217 4.124 41.837 3.722 26.3-2.342 24.38-32.258 3.6-25.45 0 0-.39.102-.524.175-1.11.387-2.272.88-3.492 1.486-.882.384-3.598 1.522-4.338 1.808-1.216.48-2.275.72-3.172.724-.85-.012-1.815-.38-2.354-.91-.402-.394-.53-.9-.433-1.47.122-.302.244-.596.39-.89.98-.158 1.75-.286 2.322-.394.566-.105 1.274-.28 2.132-.51.855-.24 1.69-.547 2.496-.926.81-.367 1.488-.816 2.043-1.32.717-.63 1.142-1.323 1.272-2.085.233-1.273-.64-2.08-2.617-2.422-1.72-.224-3.448.035-5.18.77-1.736.73-3.212 1.78-4.42 3.138-.86.96-1.473 1.958-1.86 2.995-2.262 1.342-4.088 1.91-5.482 1.694-1.33-.208-1.9-1.13-1.7-2.762.023-.08.086-.33.196-.728.102-.406.212-.723.303-.955.952-.523 2.302-1.44 4.038-2.76 1.402-1.082 2.62-2.127 3.662-3.133 1.05-1.01 1.968-2.132 2.76-3.374.786-1.242 1.298-2.546 1.515-3.908.157-.975.035-1.493-.37-1.56-.422-.07-1.378.365-2.866 1.29-2.376 1.52-4.435 3.072-6.183 4.65-1.74 1.583-3.172 3.29-4.298 5.11-.757 1.208-1.324 2.478-1.725 3.797-2.78 1.384-4.535 2.24-5.25 2.553-.73.32-1.347.46-1.843.417-.386-.174-.65-.36-.768-.553-.126-.197-.197-.522-.197-.98.173-.8.638-1.763 1.405-2.897.76-1.133 1.84-2.344 3.244-3.64.114.02.28.046.488.092.213.047.362.078.464.093.835.132 1.512.155 2.02.07.51-.08.964-.275 1.362-.58.405-.302.85-.794 1.358-1.475.508-.677.964-1.308 1.393-1.9l-2.376-.53c1.133-1.033 1.736-1.78 1.814-2.248.075-.452-.232-.735-.92-.843-.8-.12-1.536-.013-2.213.336-.68.348-1.523 1.122-2.555 2.31-1.157-.113-1.99-.167-2.503-.163-.512 0-1.008.104-1.496.313-.49.21-1.014.577-1.558 1.107-.555.526-1.27 1.33-2.157 2.418.748-.038 1.433-.01 2.055.086l1.638.26c-.918 1.056-1.858 1.95-2.827 2.67-.617.46-1.376.955-2.278 1.48 0 0-4.562 2.357-5.27 2.702-.725.348-1.33.503-1.827.48-.397-.163-.66-.337-.8-.527-.13-.188-.2-.513-.223-.974.145-.8.578-1.78 1.3-2.94.723-1.157 1.758-2.407 3.112-3.753.118.015.28.042.492.08.213.036.366.063.465.07.847.105 1.52.105 2.032.004.504-.096.95-.31 1.338-.622.386-.318.827-.828 1.303-1.525.476-.69.917-1.343 1.327-1.95l-2.4-.445c1.1-1.064 1.68-1.838 1.73-2.306.063-.458-.255-.728-.948-.806-.803-.1-1.53.035-2.2.407-.658.376-1.48 1.17-2.465 2.396-1.165-.07-2-.097-2.51-.078-.513.023-1.01.143-1.485.364-.488.228-.988.615-1.515 1.157-.532.544-1.225 1.376-2.075 2.498.744-.07 1.43-.066 2.063.012l1.65.197c-.89 1.09-1.796 2.012-2.748 2.77-1.902 1.53-4.626 3.123-6.798 4.01zM49.404 25.543c.54-.55.99-.855 1.36-.917.01.004.02.02.04.03.013.02.024.055.032.1.028.16-.05.41-.236.744-.188.337-.483.697-.884 1.087-.394.395-.878.755-1.457 1.084.227-.874.61-1.586 1.145-2.127zM38.93 26.84c-.45 1.005-.736 1.833-.866 2.48-.086.618-.08 1.233.036 1.845.228 1.284.59 1.923 1.078 1.923.213-.066.465-.32.764-.766.075-.12.224-.353.45-.705.227-.348.49-.735.79-1.156.303-.417.665-.878 1.086-1.38.42-.5.854-.953 1.303-1.355l.04.012c-.212.398-.437.816-.673 1.25-.232.433-.43.89-.59 1.365-.158.476-.22.92-.18 1.335.137.758.48 1.09 1.034.994.14-.022.332-.084.58-.184.653-.325 1.574-1.122 2.755-2.372.18.522.46.944.842 1.257.496.412 1.087.555 1.776.435.468-.082.964-.283 1.48-.608.515-.32 1.05-.78 1.614-1.377.562-.596 1.133-1.335 1.716-2.217l-.347-.766c-.783.91-1.44 1.59-1.96 2.047-.523.46-1.004.77-1.456.928-.134.027-.256.058-.36.105-.384.046-.715.003-.987-.136-.28-.134-.44-.355-.492-.657.005-.174.013-.344.033-.514.46-.257.823-.466 1.09-.616.26-.155.587-.368.973-.643.385-.27.743-.57 1.078-.904.335-.333.598-.677.783-1.03.237-.444.323-.866.248-1.276-.122-.677-.708-.93-1.76-.743-.904.2-1.723.638-2.46 1.316-.73.677-1.275 1.466-1.63 2.364-.278.708-.4 1.38-.37 2.027-.853.785-1.507 1.227-1.955 1.304-.114-.008-.232-.09-.34-.244-.015-.143.013-.305.072-.487.055-.186.146-.383.252-.604.11-.217.173-.344.19-.383.097-.178.27-.468.522-.87.245-.395.418-.7.512-.91.087-.21.118-.398.087-.572-.036-.217-.173-.403-.41-.558-.24-.154-.464-.212-.68-.174-.19.03-.386.12-.59.256-.202.14-.47.363-.8.67-.33.31-.524.48-.57.525-.257.23-.524.503-.8.813-.28.313-.622.704-1.015 1.172-.398.468-.843.983-1.335 1.54l-.134-.74c.415-.614.745-1.102.985-1.465.24-.36.418-.635.532-.817.118-.174.295-.44.527-.793.23-.348.555-.832.973-1.455 2.157-3.273 3.168-5.3 3.03-6.074-.015-.093-.07-.182-.153-.263-.205-.12-.42-.155-.65-.117-.358.062-.688.26-.984.592-.3.33-.7.836-1.212 1.517-.602.778-1.22 1.703-1.85 2.763-.63 1.064-1.165 2.097-1.618 3.1z"/><path fill="#EE3E33" d="M141.892 72.22l-3.23 2.36-2.078-3.36-2.388-.45 3.176 4.872-.675 3.337 1.813.344.68-3.385 4.81-3.33-2.108-.39zm-15.41 1.433c-.008.094-.024.23-.035.41-.008.176-.028.476-.055.904-.1-.154-.213-.3-.34-.45-.126-.147-.27-.308-.44-.477l-4.93-5.097-1.236-.147-.96 7.545 1.632.192.512-4.076c.028-.15.035-.33.06-.537.006-.215.018-.432.026-.67.074.11.16.22.248.328.09.105.198.232.32.364l5.14 5.34 1.238.147.955-7.545-1.63-.195-.505 3.963zm-17.065-.882l-1.584-3.144-1.86 3.03 3.444.115zm-.59-4.585l4.228 7.743-2.05-.068-.88-1.693-4.986-.17-.976 1.63-1.82-.056 4.72-7.445 1.763.06zM96.91 70.722l-.014-.815c-.008-.22-.062-.375-.187-.46-.117-.088-.335-.125-.653-.12l-4.108.066.038 2.016 4.108-.07c.318-.003.536-.05.648-.14.113-.095.17-.25.167-.478zm1.745-1.284l.03 1.7c.008.518-.124.89-.4 1.13-.28.237-.73.357-1.354.368l-4.92.086.056 2.958-1.798.03-.14-7.597L96.845 68c.633-.01 1.084.098 1.367.324.287.225.43.6.443 1.114zM81.7 68.275l-3.192 4.88-4.104-4.265-1.476.124.684 7.57 1.475-.123-.42-4.672c-.015-.12-.027-.248-.046-.376l-.073-.424c.06.113.132.233.222.353.084.12.193.245.313.38l3.296 3.55.36-.033 2.598-4.03c.054-.087.113-.196.175-.327.062-.136.132-.304.217-.507-.008.176-.008.33-.008.47 0 .138.004.254.016.344l.42 4.677 1.684-.143-.687-7.57-1.456.125zm-16.894 8.17l-.78-4.755-5.957.916.776 4.752 5.96-.912zm1.743-.637c.112.686.057 1.174-.168 1.463-.22.287-.714.493-1.47.606l-5.717.874c-.75.116-1.28.07-1.588-.14-.303-.205-.512-.652-.62-1.335l-.65-3.963c-.112-.68-.06-1.168.168-1.457.22-.29.706-.495 1.463-.608l5.712-.874c.76-.117 1.293-.07 1.6.14.302.21.508.656.62 1.335l.65 3.96zM50.404 78.69c.163.676.148 1.167-.058 1.468-.21.304-.68.54-1.414.705l-4.58 1.02c-.743.166-1.275.155-1.593-.033-.318-.184-.56-.62-.722-1.29l-.932-3.904c-.16-.676-.14-1.164.062-1.468.202-.304.672-.54 1.417-.705l4.578-1.02c.738-.17 1.266-.155 1.592.03.318.194.56.622.718 1.294l.167.702-1.712.67-.33-1.407-4.815 1.073 1.122 4.692 4.807-1.074-.38-1.59 1.87-.042.203.878z"/></g></svg>