<?xml version="1.0" encoding="UTF-8"?>
<svg width="17px" height="17px" viewBox="0 0 17 17" version="1.1" xmlns="http://www.w3.org/2000/svg" xmlns:xlink="http://www.w3.org/1999/xlink">
    <!-- Generator: Sketch 46.2 (44496) - http://www.bohemiancoding.com/sketch -->
    <title>Group 9</title>
    <desc>Created with Sketch.</desc>
    <defs></defs>
    <g id="Mockups---Products/-Designs" stroke="none" stroke-width="1" fill="none" fill-rule="evenodd">
        <g id="Product-Post---Non-Apparel-Items---Setup-Fee-Open" transform="translate(-121.000000, -718.000000)">
            <g id="Left-Column-" transform="translate(120.000000, 278.000000)">
                <g id="open-setup-fee" transform="translate(1.000000, 439.000000)">
                    <g id="Setup-Fees" transform="translate(0.000000, 1.000000)">
                        <g id="Group">
                            <g id="Group-9">
                                <g id="Group-3">
                                    <rect id="Rectangle" fill="#1E1E1E" x="0" y="0" width="16.7850274" height="17"></rect>
                                    <g id="Group-6" transform="translate(4.000000, 4.000000)" fill="#FFFFFF">
                                        <g id="ICON-Info" transform="translate(0.657043, 0.716688)">
                                            <path d="M3.78684704,0.697335765 C2.06555293,0.697335765 0.688517643,2.09200729 0.688517643,3.83534671 C0.688517643,5.57868612 2.06555293,6.97335765 3.78684704,6.97335765 C5.50814115,6.97335765 6.88517643,5.57868612 6.88517643,3.83534671 C6.88517643,2.09200729 5.50814115,0.697335765 3.78684704,0.697335765 M3.78684704,7.67069341 C1.68686823,7.67069341 0,5.96222079 0,3.83534671 C0,1.70847262 1.68686823,0 3.78684704,0 C5.88682585,0 7.57369408,1.70847262 7.57369408,3.83534671 C7.57369408,5.96222079 5.88682585,7.67069341 3.78684704,7.67069341" id="Fill-1"></path>
                                            <path d="M4.47536468,6.27602188 L3.78684704,6.27602188 C3.58029175,6.27602188 3.44258822,6.13655473 3.44258822,5.927354 L3.44258822,3.48667882 L3.09832939,3.48667882 C2.8917741,3.48667882 2.75407057,3.34721167 2.75407057,3.13801094 C2.75407057,2.92881021 2.8917741,2.78934306 3.09832939,2.78934306 L3.78684704,2.78934306 C3.99340233,2.78934306 4.13110586,2.92881021 4.13110586,3.13801094 L4.13110586,5.57868612 L4.47536468,5.57868612 C4.68191997,5.57868612 4.8196235,5.71815327 4.8196235,5.927354 C4.8196235,6.13655473 4.68191997,6.27602188 4.47536468,6.27602188" id="Fill-3"></path>
                                            <path d="M3.7950172,2.44067518 C3.58355981,2.44067518 3.44258822,2.30120802 3.44258822,2.09200729 L3.44258822,1.74333941 C3.44258822,1.53413868 3.58355981,1.39467153 3.7950172,1.39467153 C4.00647458,1.39467153 4.14744618,1.53413868 4.14744618,1.74333941 L4.14744618,2.09200729 C4.14744618,2.30120802 4.00647458,2.44067518 3.7950172,2.44067518" id="Fill-5"></path>
                                        </g>
                                    </g>
                                </g>
                            </g>
                        </g>
                    </g>
                </g>
            </g>
        </g>
    </g>
</svg>