<?xml version="1.0" encoding="UTF-8"?>
<svg width="21px" height="15px" viewBox="0 0 21 15" version="1.1" xmlns="http://www.w3.org/2000/svg" xmlns:xlink="http://www.w3.org/1999/xlink">
    <!-- Generator: Sketch 45.2 (43514) - http://www.bohemiancoding.com/sketch -->
    <title>ICON email</title>
    <desc>Created with Sketch.</desc>
    <defs></defs>
    <g id="Footer" stroke="none" stroke-width="1" fill="none" fill-rule="evenodd">
        <g id="Footer-(no-CTA)" transform="translate(-425.000000, -161.000000)" stroke-width="0.2" stroke="#1E1E1E" fill="#1E1E1E">
            <g id="FOOTER" transform="translate(0.000000, 21.000000)">
                <g id="Footer-2">
                    <g id="Column-2" transform="translate(425.000000, 76.000000)">
                        <g id="Phone/email">
                            <g id="ICON-email" transform="translate(1.000000, 65.000000)">
                                <path d="M1.53068379,0.796893602 C1.36649871,0.796893602 1.21691663,0.854189114 1.0979877,0.962897116 C0.973927983,1.07697657 0.908806498,1.22085481 0.908806498,1.37982428 C0.908806498,2.60502741 1.49910973,3.65054261 2.66340295,4.48746633 C4.10923146,5.52607538 5.62123394,6.61609691 7.15757474,7.72747637 C7.19704231,7.75753093 7.3275484,7.85767019 7.54383066,8.02405738 C7.76234942,8.19261873 7.93903256,8.32396357 8.06861774,8.41463883 C8.20583331,8.51004609 8.37804346,8.62118404 8.58130142,8.74536694 C8.80113577,8.88042065 9.00834049,8.98311774 9.19673234,9.05000513 C9.39643823,9.12136874 9.58917151,9.15743422 9.76953829,9.15743422 L9.79164013,9.15743422 C9.97227003,9.15743422 10.1650033,9.12124085 10.3643145,9.04987724 C10.5516539,8.98324563 10.7589902,8.88067643 10.9800086,8.74523905 C11.1797144,8.62310241 11.351793,8.51196447 11.4911135,8.4151504 C11.621225,8.32473092 11.7933035,8.19671126 12.0174793,8.02405738 L12.1115437,7.95154274 C12.2709927,7.82876665 12.3692669,7.75318261 12.4067611,7.72504642 C13.9371818,6.61801529 15.4491842,5.52786586 16.8977755,4.48746633 C17.3237621,4.17860771 17.7230423,3.76116899 18.085223,3.24576516 C18.4614805,2.7107939 18.6523719,2.21009763 18.6523719,1.75774445 L18.6523719,1.50707659 L18.6468465,1.36498883 C18.6392161,1.20013634 18.5905394,1.10626379 18.5308118,1.05357238 C18.4456934,0.8357727 18.2646689,0.818379419 18.2099405,0.818379419 C18.189812,0.818379419 18.169552,0.820297796 18.1494236,0.823878765 L18.105483,0.801497706 L18.0304946,0.796893602 L1.53068379,0.796893602 Z M0.908806498,12.4998856 C0.908806498,12.6592387 0.9741911,12.8032448 1.0979877,12.9161733 C1.21691663,13.0247534 1.36649871,13.0821768 1.53068379,13.0821768 L18.0304946,13.0821768 C18.1953375,13.0821768 18.3450511,13.0243697 18.4634538,12.915278 C18.5867242,12.802989 18.6523719,12.6589829 18.6523719,12.4998856 L18.6523719,4.00863956 L18.1983634,4.4740377 C17.9690568,4.70910277 17.7194902,4.92677455 17.4567678,5.12104215 C15.4699705,6.51314404 13.8604831,7.67759858 12.6785611,8.57795662 C12.3041454,8.86596888 11.9951144,9.09348833 11.7590983,9.25488774 C11.5354488,9.4078463 11.2257599,9.56553685 10.8384516,9.72399475 C10.4657462,9.8769533 10.1136955,9.95445571 9.79164013,9.95445571 L9.76953829,9.95445571 C9.44748295,9.95445571 9.09516914,9.8769533 8.72220064,9.72412264 C8.33502381,9.56553685 8.02546653,9.40759051 7.8020801,9.25488774 C7.56672185,9.09387201 7.25755924,8.86635256 6.88340671,8.57872397 C5.71174622,7.68603943 4.10239042,6.52158489 2.09901674,5.1170775 C1.84313536,4.92843715 1.59370034,4.71089325 1.36281507,4.4740377 L0.908806498,4.00838377 L0.908806498,12.4998856 Z M1.53068379,13.8795819 C1.10232913,13.8795819 0.746857917,13.7449119 0.443747006,13.4681541 C0.145109086,13.1957447 0,12.8790846 0,12.4998856 L0,1.37982428 C0,1.00011362 0.145109086,0.683069929 0.443615447,0.410788357 C0.746989475,0.134414247 1.10259225,0 1.53068379,0 L18.0304946,0 C18.4584546,0 18.8140574,0.134286356 19.1174314,0.410916249 C19.4160693,0.683069929 19.5611784,1.00011362 19.5611784,1.37982428 L19.5611784,12.4998856 C19.5611784,12.8790846 19.4160693,13.1957447 19.1174314,13.4678983 C18.8141889,13.7449119 18.4587177,13.8795819 18.0304946,13.8795819 L1.53068379,13.8795819 Z" id="Fill-1"></path>
                            </g>
                        </g>
                    </g>
                </g>
            </g>
        </g>
    </g>
</svg>