<?xml version="1.0" encoding="UTF-8"?>
<svg width="21px" height="23px" viewBox="0 0 21 23" version="1.1" xmlns="http://www.w3.org/2000/svg" xmlns:xlink="http://www.w3.org/1999/xlink">
    <!-- Generator: Sketch 45.2 (43514) - http://www.bohemiancoding.com/sketch -->
    <title>ICON fax</title>
    <desc>Created with Sketch.</desc>
    <defs></defs>
    <g id="Footer" stroke="none" stroke-width="1" fill="none" fill-rule="evenodd">
        <g id="Footer-(no-CTA)" transform="translate(-425.000000, -126.000000)" fill="#1E1E1E">
            <g id="FOOTER" transform="translate(0.000000, 21.000000)">
                <g id="Footer-2">
                    <g id="Column-2" transform="translate(425.000000, 76.000000)">
                        <g id="Phone/email">
                            <g id="ICON-fax" transform="translate(0.000000, 29.000000)">
                                <path d="M1.15463821,18.0584488 C1.13362928,19.3706991 1.87840751,20.5751343 3.06160294,21.1428372 C3.76228551,21.461896 4.55115942,21.5302327 5.29639939,21.3367659 L5.29639939,17.9707192 C5.29778459,17.8571324 5.20682283,17.7643237 5.09323607,17.7629385 L5.09323607,17.7629385 L4.04740675,17.7629385 C3.72857887,17.7680176 3.46608263,17.5138326 3.46100355,17.1950047 C3.46100355,17.1920034 3.46100355,17.1887713 3.46100355,17.18577 L3.46100355,10.7030134 C3.46123442,10.5483322 3.52379948,10.4003462 3.6341541,10.2920694 C3.74473958,10.1844852 3.89318732,10.1246905 4.04740675,10.1258449 L5.09323607,10.1258449 C5.20589936,10.1258449 5.29755372,10.0353448 5.29870806,9.92268155 L5.29870806,6.56356087 C4.55346809,6.37009399 3.76459418,6.43843074 3.06391162,6.75748948 C1.87979272,7.32449982 1.13409101,8.52916592 1.15463821,9.84187796 L1.15463821,18.0584488 Z M0.000301207693,9.84187796 C-0.0200151236,8.07735842 0.988875419,6.46244095 2.58370742,5.70704281 C3.54480841,5.26954909 4.62896173,5.18297381 5.64731784,5.46232337 C6.12105774,5.59576472 6.44819685,6.02771763 6.44842772,6.51969606 L6.44842772,9.9272989 C6.44704251,10.6773871 5.83870691,11.2847992 5.08861873,11.2847992 L4.61764923,11.2847992 L4.61764923,16.6086015 L5.09554475,16.6086015 C5.84563293,16.6086015 6.45396853,17.2160136 6.45535374,17.9661018 L6.45535374,21.3760133 C6.4541994,21.8700696 6.12359728,22.3027151 5.64731784,22.433386 C4.62757653,22.7141208 3.54157627,22.6275455 2.57909008,22.1886666 C0.987028479,21.4321141 -0.0197842562,19.8188127 0.000301207693,18.0561401 L0.000301207693,9.84187796 Z M16.2510576,19.0996607 L16.9967593,19.0996607 C17.3155871,19.0996607 17.5739278,18.8413201 17.5739278,18.5224922 C17.5739278,18.2036644 17.3155871,17.9453237 16.9967593,17.9453237 L16.2533662,17.9453237 C15.9345384,17.9453237 15.6761977,18.2036644 15.6761977,18.5224922 C15.6761977,18.8413201 15.9345384,19.0996607 16.2533662,19.0996607 L16.2510576,19.0996607 Z M9.8167831,19.0996607 L10.5624848,19.0996607 C10.8813127,19.0996607 11.1396533,18.8413201 11.1396533,18.5224922 C11.1396533,18.2036644 10.8813127,17.9453237 10.5624848,17.9453237 L9.8167831,17.9453237 C9.49795522,17.9453237 9.23961459,18.2036644 9.23961459,18.5224922 C9.23961459,18.8413201 9.49795522,19.0996607 9.8167831,19.0996607 L9.8167831,19.0996607 Z M13.0350747,19.0996607 L13.7807764,19.0996607 C14.0996043,19.0996607 14.3579449,18.8413201 14.3579449,18.5224922 C14.3579449,18.2036644 14.0996043,17.9453237 13.7807764,17.9453237 L13.0350747,17.9453237 C12.7162468,17.9453237 12.4579062,18.2036644 12.4579062,18.5224922 C12.4579062,18.8413201 12.7162468,19.0996607 13.0350747,19.0996607 L13.0350747,19.0996607 Z M16.2510576,16.6086015 L16.9967593,16.6086015 C17.3155871,16.6086015 17.5739278,16.3502609 17.5739278,16.031433 C17.5739278,15.7126051 17.3155871,15.4542645 16.9967593,15.4542645 L16.2533662,15.4542645 C15.9345384,15.4542645 15.6761977,15.7126051 15.6761977,16.031433 C15.6761977,16.3502609 15.9345384,16.6086015 16.2533662,16.6086015 L16.2510576,16.6086015 Z M9.8167831,16.6086015 L10.5624848,16.6086015 C10.8813127,16.6086015 11.1396533,16.3502609 11.1396533,16.031433 C11.1396533,15.7126051 10.8813127,15.4542645 10.5624848,15.4542645 L9.8167831,15.4542645 C9.49795522,15.4542645 9.23961459,15.7126051 9.23961459,16.031433 C9.23961459,16.3502609 9.49795522,16.6086015 9.8167831,16.6086015 L9.8167831,16.6086015 Z M13.0350747,16.6086015 L13.7807764,16.6086015 C14.0996043,16.6086015 14.3579449,16.3502609 14.3579449,16.031433 C14.3579449,15.7126051 14.0996043,15.4542645 13.7807764,15.4542645 L13.0350747,15.4542645 C12.7162468,15.4542645 12.4579062,15.7126051 12.4579062,16.031433 C12.4579062,16.3502609 12.7162468,16.6086015 13.0350747,16.6086015 L13.0350747,16.6086015 Z M16.2510576,14.0990728 L16.9967593,14.0990728 C17.3155871,14.0990728 17.5739278,13.8407322 17.5739278,13.5219043 C17.5739278,13.2030765 17.3155871,12.9447358 16.9967593,12.9447358 L16.2533662,12.9447358 C15.9345384,12.9447358 15.6761977,13.2030765 15.6761977,13.5219043 C15.6761977,13.8407322 15.9345384,14.0990728 16.2533662,14.0990728 L16.2510576,14.0990728 Z M9.8167831,14.0990728 L10.5624848,14.0990728 C10.8813127,14.0990728 11.1396533,13.8407322 11.1396533,13.5219043 C11.1396533,13.2030765 10.8813127,12.9447358 10.5624848,12.9447358 L9.8167831,12.9447358 C9.49795522,12.9447358 9.23961459,13.2030765 9.23961459,13.5219043 C9.23961459,13.8407322 9.49795522,14.0990728 9.8167831,14.0990728 L9.8167831,14.0990728 Z M13.0350747,14.0990728 L13.7807764,14.0990728 C14.0996043,14.0990728 14.3579449,13.8407322 14.3579449,13.5219043 C14.3579449,13.2030765 14.0996043,12.9447358 13.7807764,12.9447358 L13.0350747,12.9447358 C12.7162468,12.9447358 12.4579062,13.2030765 12.4579062,13.5219043 C12.4579062,13.8407322 12.7162468,14.0990728 13.0350747,14.0990728 L13.0350747,14.0990728 Z M15.1382767,4.38648128 L17.4931242,4.38648128 L15.1382767,2.03394246 L15.1382767,4.38648128 Z M8.32768836,6.58455983e-07 L14.4964653,6.58455983e-07 C14.6495304,-0.000230208945 14.7965929,0.0602570501 14.9051006,0.168533861 L19.3585328,4.62196603 C19.4668096,4.7304737 19.5272968,4.87753624 19.527066,5.03060133 L19.527066,7.30926257 C19.527066,7.62809045 19.2687254,7.88643108 18.9498975,7.88643108 C18.6310696,7.88643108 18.372729,7.62809045 18.372729,7.30926257 L18.372729,5.54312696 L14.9743608,5.54312696 C14.4278977,5.54197262 13.9853249,5.09916894 13.9839397,4.55270581 L13.9839397,1.15433766 L8.90485686,1.15433766 L8.90485686,7.30926257 C8.90485686,7.62809045 8.64651624,7.88643108 8.32768836,7.88643108 C8.00886048,7.88643108 7.75051986,7.62809045 7.75051986,7.30926257 L7.75051986,0.577169161 C7.75051986,0.25834128 8.00886048,6.58455983e-07 8.32768836,6.58455983e-07 L8.32768836,6.58455983e-07 Z M8.01832604,21.4429649 L18.1141575,21.4429649 C19.0699485,21.4415797 19.8442778,20.6672504 19.845663,19.7114594 L19.845663,10.6060491 L8.01832604,10.6060491 C7.69949816,10.6060491 7.44115754,10.3477084 7.44115754,10.0288806 C7.44115754,9.71005268 7.69949816,9.45171205 8.01832604,9.45171205 L19.9610967,9.45171205 C20.5348022,9.45171205 21,9.91690987 21,10.4906154 L21,19.7253114 C20.991227,21.3132174 19.7020635,22.5961475 18.1141575,22.5973019 L8.01832604,22.5973019 C7.69949816,22.5973019 7.44115754,22.3389612 7.44115754,22.0201334 C7.44115754,21.7013055 7.69949816,21.4429649 8.01832604,21.4429649 L8.01832604,21.4429649 Z" id="Fill-1"></path>
                            </g>
                        </g>
                    </g>
                </g>
            </g>
        </g>
    </g>
</svg>