<?xml version="1.0" encoding="UTF-8"?>
<svg width="21px" height="21px" viewBox="0 0 21 21" version="1.1" xmlns="http://www.w3.org/2000/svg" xmlns:xlink="http://www.w3.org/1999/xlink">
    <!-- Generator: Sketch 45.2 (43514) - http://www.bohemiancoding.com/sketch -->
    <title>ICON phone</title>
    <desc>Created with Sketch.</desc>
    <defs></defs>
    <g id="Footer" stroke="none" stroke-width="1" fill="none" fill-rule="evenodd">
        <g id="Footer-(no-CTA)" transform="translate(-425.000000, -97.000000)">
            <g id="FOOTER" transform="translate(0.000000, 21.000000)">
                <g id="Footer-2">
                    <g id="Column-2" transform="translate(425.000000, 76.000000)">
                        <g id="Phone/email">
                            <g id="ICON-phone">
                                <path d="M18.2373286,18.3856462 L14.1234721,14.2717898 L15.193229,13.2020329 L19.3070854,17.3158073 C19.3070854,17.3158073 18.2376976,18.3860152 18.2373286,18.3856462 Z M16.7724817,18.9291768 C16.7724407,18.9292588 16.7723587,18.9292998 16.7723177,18.9293818 C15.8662966,19.8352389 14.2649828,19.9848277 12.2632483,19.3505104 C10.1206182,18.671497 7.83200775,17.1889357 5.81895565,15.1758836 C3.80586255,13.1628315 2.32326026,10.8742621 1.64432879,8.73159092 C1.01001153,6.72981539 1.15960035,5.12837857 2.06566242,4.22227549 L2.06574443,4.22223448 L2.17933023,4.10860767 L5.37187045,7.30118889 L5.07908971,7.59396963 C5.07888468,7.59417466 5.07867965,7.59442069 5.07843362,7.59466673 C3.86527982,8.80933774 5.32295064,11.5372423 7.39025328,13.604586 C8.93760358,15.1518952 10.8549894,16.357668 12.2310178,16.357668 C12.6937262,16.357668 13.0952541,16.2213651 13.4008696,15.9157085 C13.4009926,15.9155855 13.4010336,15.9155035 13.4011566,15.9153805 L13.6936503,15.6228868 L16.8862316,18.815468 L16.7724817,18.9291768 Z M3.6789909,1.68767182 L7.7928063,5.80161024 L6.72362353,6.87194117 C6.72362353,6.87194117 6.7234185,6.87173614 6.72304945,6.87136709 L2.60919304,2.75751068 L3.6789909,1.68767182 Z M16.0837909,12.311471 C15.5927066,11.8204277 14.7938334,11.8204277 14.3027491,12.311471 L13.2329922,13.3812279 C12.8978116,13.7164085 12.7918119,14.1949451 12.9142139,14.6212404 L12.5105947,15.0249006 C12.5104717,15.0250236 12.5104307,15.0250646 12.5103077,15.0251876 C12.2236368,15.3121455 10.4385764,14.8718263 8.28077419,12.714024 C6.12325899,10.5565909 5.68281671,8.7717355 5.96944659,8.48461355 C5.96944659,8.48453154 5.9695286,8.48453154 5.9695286,8.48453154 L6.37351682,8.08062534 C6.48755368,8.1133479 6.60524006,8.13011923 6.72300844,8.13011923 C7.04551832,8.13011923 7.36798719,8.00738915 7.61357036,7.76184699 L8.6833272,6.69209014 C9.17432952,6.20104682 9.17432952,5.40213266 8.6833272,4.91104833 L4.5694708,0.797191922 C4.33163771,0.55935883 4.0153607,0.428386606 3.6789909,0.428386606 C3.34253908,0.428386606 3.02638509,0.559399835 2.78846999,0.797191922 L1.71863113,1.86703078 C1.38345049,2.20221142 1.27749175,2.68083001 1.39989378,3.10704332 C1.39989378,3.10704332 1.05774217,3.45247538 1.04072481,3.47429041 C-0.0973065393,4.73923442 -0.310823248,6.73088154 0.443640728,9.11204186 C1.18248153,11.4435033 2.77514314,13.9133179 4.92831173,16.0664045 C7.08148032,18.2195321 9.55129497,19.8121937 11.8827564,20.5510755 C12.8193267,20.8478748 13.6954956,20.9949212 14.4911293,20.9949212 C15.7956438,20.9949212 16.8833202,20.5992982 17.6629206,19.8196977 L17.8874269,19.5951915 C17.9997415,19.627504 18.1170998,19.6449314 18.2372465,19.6449314 C18.5736984,19.6449314 18.8899344,19.5139182 19.1277674,19.2761261 L20.1976063,18.2062872 C20.6886086,17.7152849 20.6886086,16.9163297 20.1976063,16.4252454 L16.0837909,12.311471 L16.0837909,12.311471 Z" id="Fill-1" fill="#1E1E1E"></path>
                                <path d="M16.5414556,9.53485169 C16.5414556,9.88262107 16.8233698,10.1646173 17.1711392,10.1646173 C17.5188676,10.1646173 17.8008228,9.88270309 17.8008228,9.5349747 C17.8009048,7.84127504 17.141287,6.24898249 15.9437154,5.05124683 C14.7459798,3.85355219 13.1535642,3.19393441 11.4599875,3.19401642 C11.1122182,3.19401642 10.8303039,3.47593064 10.8303039,3.82370003 C10.8303039,4.17146942 11.1122592,4.45338365 11.4599875,4.45338365 C12.8172764,4.45330164 14.093333,4.98194719 15.0531945,5.94176774 C16.0129741,6.90150628 16.5415376,8.17756283 16.5414556,9.53485169" id="Fill-3" fill="#0A0B09"></path>
                                <path d="M18.2021867,2.79277559 C16.4010931,0.991763995 14.0066059,-8.20114111e-05 11.4597415,0 C11.1119311,0 10.8300579,0.281955231 10.8300579,0.629683615 C10.8300579,0.977453003 11.1120131,1.25936723 11.4597415,1.25936723 C13.6702361,1.25928522 15.7484462,2.120159 17.3116248,3.68325549 C18.8746802,5.24635198 19.735513,7.32456214 19.735472,9.53505671 C19.735472,9.8828261 20.0173862,10.1647403 20.3651556,10.1647403 C20.712884,10.1647403 20.9948392,9.8828261 20.9948392,9.53509772 C20.9949212,6.98815134 20.0030752,4.59374618 18.2021867,2.79277559" id="Fill-4" fill="#000000"></path>
                            </g>
                        </g>
                    </g>
                </g>
            </g>
        </g>
    </g>
</svg>