<?xml version="1.0" encoding="UTF-8"?>
<svg width="88px" height="24px" viewBox="0 0 88 24" version="1.1" xmlns="http://www.w3.org/2000/svg" xmlns:xlink="http://www.w3.org/1999/xlink">
    <!-- Generator: Sketch 45.2 (43514) - http://www.bohemiancoding.com/sketch -->
    <title>IUPAT members logo</title>
    <desc>Created with Sketch.</desc>
    <defs></defs>
    <g id="Header" stroke="none" stroke-width="1" fill="none" fill-rule="evenodd">
        <g id="Navigation-Sticky-Header---Mockups" transform="translate(-124.000000, -60.000000)" fill="#979797">
            <g id="Group-4" transform="translate(124.000000, 48.000000)">
                <g id="Group-4-Copy" transform="translate(0.000000, 8.000000)">
                    <g id="Header-Left">
                        <g id="Group-7" transform="translate(0.000000, 4.000000)">
                            <path d="M63.6734034,0.480695744 C63.912692,0.480695744 64.4430073,0.683093952 64.5885206,0.683093952 C64.7663703,0.683093952 64.5497171,0.547107656 64.7275667,0.550270128 L67.6022635,0.550270128 L67.6022635,1.49901173 L66.6160065,1.49901173 L66.6160065,5.42047701 L65.5812449,5.42047701 L65.5812449,1.50533667 L64.7922393,1.50533667 C64.6143897,1.51166162 64.7275667,1.54644881 64.7016977,1.64764791 C64.5141471,1.30926341 64.1422797,1.37251285 63.9514956,1.37251285 C63.5278901,1.37251285 62.9652385,1.77730926 62.9652385,2.24219265 L62.9652385,3.7380419 C62.9652385,4.29779945 63.6054972,4.53498485 63.912692,4.53498485 C64.2813258,4.53498485 64.1972514,4.32309922 64.7210994,4.2693372 L64.7210994,5.19910397 C64.4882781,5.6133878 64.0646726,5.56911319 63.6734034,5.56911319 C62.4284559,5.56911319 61.7720291,3.97838977 61.7720291,3.05811042 C61.7720291,1.98286994 62.3088116,0.480695744 63.6734034,0.480695744 L63.6734034,0.480695744 Z M69.2643492,0.480695744 C70.7712207,0.480695744 71.12692,1.8974832 71.12692,2.98853604 C71.12692,4.11437607 70.6968472,5.56911319 69.2643492,5.56911319 C67.8544867,5.56911319 67.6087308,3.86454078 67.6087308,2.98853604 C67.6087308,2.00816972 67.8544867,0.480695744 69.2643492,0.480695744 L69.2643492,0.480695744 Z M71.3532741,0.5534326 L73.3548909,0.5534326 C73.956346,1.13532745 74.2958771,1.21755172 74.2958771,1.92278298 C74.2958771,2.66280142 74.1018593,2.60587693 73.4421989,3.05811042 C73.5068715,3.09289761 74.2958771,4.49387271 74.2829426,4.9239689 L74.2829426,5.42363948 L73.2546483,5.42363948 C73.135004,4.71208328 72.9183508,4.03531427 72.6240905,3.36170773 L72.3815683,3.36170773 L72.3815683,5.42047701 L71.3532741,5.42047701 L71.3532741,0.5534326 Z M74.5804365,5.42047701 L75.6151981,5.42047701 L75.6151981,0.556595072 L74.5804365,0.556595072 L74.5804365,5.42047701 Z M76.8407437,0.5534326 L77.8722716,0.5534326 C78.305578,2.08406905 78.65481,3.67162999 78.9943411,5.42047701 L77.9207761,5.42047701 C77.9531124,5.11371722 77.8787389,4.84174463 77.9207761,4.52549743 L76.7405012,4.52549743 C76.8278092,4.76900777 76.7534357,5.05363025 76.7405012,5.42047701 L75.6992724,5.42047701 L75.6992724,4.97456845 C75.6992724,4.45908552 76.7275667,0.961391488 76.8407437,0.5534326 L76.8407437,0.5534326 Z M79.1592563,0.556595072 L80.1875505,0.556595072 L80.1875505,4.54763473 L81.7364592,4.54763473 L81.7364592,5.42047701 L79.1592563,5.42047701 L79.1592563,0.556595072 Z M77.257882,2.20424298 C77.6491512,2.32125445 77.4810024,3.28264593 77.7396928,3.55461853 L77.0509297,3.55461853 C77.1770412,3.05178548 77.2514147,2.64698906 77.257882,2.20424298 L77.257882,2.20424298 Z M72.4009701,1.37883779 L72.7308003,1.37883779 C73.0444624,1.65713533 73.0962005,1.74884702 73.0962005,1.99235736 C73.0962005,2.12201871 72.9506871,2.26116748 72.8698464,2.53314007 L72.4009701,2.53314007 L72.4009701,1.37883779 Z M69.1059014,1.37567532 L69.4195635,1.37567532 C69.6232821,1.53379892 69.755861,1.84372118 69.9272433,2.08406905 L69.9272433,3.87086573 C69.9272433,4.25036237 69.545675,4.60455923 69.2643492,4.60455923 C68.7016977,4.60455923 68.6628941,3.2636711 68.6628941,2.98853604 C68.6628941,2.55843985 68.8601455,1.8753459 69.1059014,1.37567532 L69.1059014,1.37567532 Z M77.4907033,16.7073396 C79.1204527,16.7073396 79.3694422,18.6649097 79.6443007,19.7686125 L79.6443007,21.0019765 C79.6443007,22.1341415 78.9199677,24 77.4907033,24 C75.9773646,24 75.9967664,23.1303202 75.3435732,21.6344709 L75.3435732,19.2120174 C75.3435732,18.3107129 76.3104285,16.7073396 77.4907033,16.7073396 L77.4907033,16.7073396 Z M82.0016168,16.7073396 C83.301536,16.7073396 84.0032336,18.1367769 84.0032336,19.1519304 C84.0032336,20.7584662 82.7291835,22.8931348 82.0824576,23.9905126 L80.5561843,23.9905126 C80.960388,23.149295 81.4130962,22.3555146 81.894907,21.6186586 L81.894907,21.3751482 C80.497979,21.5490842 79.8480194,20.1481091 79.8480194,19.1519304 C79.8480194,17.9976281 80.5497171,16.7073396 82.0016168,16.7073396 L82.0016168,16.7073396 Z M86.2635408,16.716827 L87.4955538,16.716827 L87.4955538,21.0557386 L88,21.0557386 L88,22.1341415 L87.4955538,22.1341415 L87.4955538,23.8545263 L86.2570736,23.8545263 L86.2570736,22.1341415 L84.0226354,22.1341415 L84.0226354,20.9387271 L86.2635408,16.716827 Z M72.7566694,23.8513638 L74.0759903,23.8513638 L74.0759903,16.8591382 L72.7566694,16.8591382 L72.7566694,23.8513638 Z M60.8245756,18.8420082 C62.3476152,18.8420082 62.4737268,20.4580314 62.4737268,21.4194228 C62.4737268,22.6085123 62.0953921,24 60.7760711,24 C60.2942603,24 59.5731609,23.5034919 59.4793856,23.1050204 C59.4470493,23.2884438 59.4535166,23.5540914 59.4405821,23.8545263 L56.8601455,23.8545263 L56.8601455,18.92107 L57.894907,18.92107 L57.894907,23.1176703 L59.4535166,23.1176703 C59.3662086,22.6717618 59.0945837,21.8937936 59.0945837,21.4194228 C59.0945837,20.5940177 59.4470493,18.8420082 60.8245756,18.8420082 L60.8245756,18.8420082 Z M64.4430073,18.8420082 C64.6143897,18.8420082 65.0573969,18.9811569 65.3484236,19.0602187 L65.3484236,20.0785347 C65.1641067,19.9298985 64.8666128,19.7338253 64.6887631,19.7338253 C64.2683913,19.7338253 63.6734034,20.1386217 63.6734034,20.6035051 L63.6734034,22.2385031 C63.6734034,22.760311 64.2845594,22.9690341 64.5141471,22.9690341 C64.6887631,22.9690341 65.0444624,22.760311 65.222312,22.760311 C65.3904608,22.760311 65.3484236,22.9121096 65.3839935,22.9690341 C65.7073565,21.7388325 65.9466451,20.268283 66.2894099,18.9179075 L67.3112369,18.9179075 C67.7962813,20.5687179 67.8480194,21.963368 68.5432498,23.658453 L68.5432498,18.92107 L69.5650768,18.92107 L69.5650768,23.1176703 L71.1204527,23.1176703 L71.1204527,23.8513638 L67.4050121,23.8513638 C67.476152,23.4750296 67.3371059,23.2030571 67.4050121,22.8203979 L66.4640259,22.8203979 C66.3023444,23.0797206 66.244139,23.4022928 66.2700081,23.778627 C65.6879547,23.9715378 64.7275667,24 64.3751011,24 C63.2756669,24 62.952304,23.2125445 62.6192401,22.3207274 L62.6192401,20.5845302 C62.6192401,19.7780999 63.5537591,18.8420082 64.4430073,18.8420082 L64.4430073,18.8420082 Z M66.7873888,20.7015417 C67.0008084,20.9545395 66.9005659,21.2423244 67.1107518,21.4763473 L67.1107518,21.9949928 L66.7679871,21.9949928 C66.6871463,20.945052 66.7938561,21.1506127 66.7873888,20.7015417 L66.7873888,20.7015417 Z M60.7566694,19.7369877 C61.1544058,20.04691 61.5650768,21.2138622 61.5650768,21.3846357 C61.5650768,21.8052444 61.3872272,23.1050204 60.8245756,23.1050204 C60.1810833,23.1050204 60.1552142,21.8052444 60.1552142,21.3846357 C60.1552142,20.7995783 60.2942603,19.8634866 60.7566694,19.7369877 L60.7566694,19.7369877 Z M86.2279709,18.7060219 L86.2279709,21.0272763 L84.9118836,21.0272763 C85.4130962,20.3030702 85.7655618,19.4745026 86.2279709,18.7060219 L86.2279709,18.7060219 Z M81.8496362,18.0134405 C81.9369442,18.0134405 82.3540825,18.3834497 82.5901374,18.5162736 L82.5901374,19.8571617 C82.2926435,20.0089603 82.1535974,20.2113585 81.9272433,20.3536698 C81.7687955,20.2176835 81.432498,19.9615233 81.257882,19.8571617 L81.257882,18.3739623 C81.6911884,18.2158387 81.6297494,18.0134405 81.8496362,18.0134405 L81.8496362,18.0134405 Z M77.4907033,18.0134405 C77.9919159,18.0134405 78.0727567,19.0697062 78.2312045,19.2784293 L78.2312045,21.5490842 C78.2312045,21.8748188 77.8787389,22.760311 77.4616006,22.760311 C76.847211,22.760311 77.0509297,22.0202925 76.6822959,21.568059 L76.6822959,19.2815918 C76.6822959,18.9273949 77.0315279,18.0134405 77.4907033,18.0134405 L77.4907033,18.0134405 Z M58.3993533,1.37883779 L58.7970897,1.37883779 C59.0493129,1.58439847 59.1689572,1.7172223 59.1689572,2.02714455 C59.1689572,2.19791804 59.0945837,2.36869153 59.0881164,2.53314007 L58.3993533,2.53314007 L58.3993533,1.37883779 Z M43.3112369,1.64764791 L47.3144705,1.64764791 C50.2667745,1.64764791 56.8278092,3.80761629 57.8561035,4.28198709 C59.5375909,5.10422981 62.6677445,7.28949796 62.7970897,7.2958229 L81.2514147,7.2958229 C81.1867421,7.53617077 81.0347615,7.68796943 80.9021827,7.80498089 C81.4195635,8.44380024 82.1018593,9.18698116 82.1018593,10.1072605 C82.1018593,11.4291738 80.8342765,12.7131374 80.8342765,12.9945974 C80.8342765,13.1653709 81.2514147,13.6270918 81.4648343,13.9465015 L65.4292643,13.9465015 C65.2514147,13.9623139 65.4680679,14.0983002 65.2902183,14.0951377 L62.7970897,14.0951377 C57.2869846,17.8205297 51.5602264,19.9425484 44.6079224,19.9425484 C33.4163298,19.9425484 28.2425222,14.231124 27.3403395,14.231124 L15.8059822,14.3038609 C15.738076,14.3038609 15.6313662,14.338648 15.6184317,14.4240348 L9.94017785,14.4240348 C10.0792239,14.1805244 10.2991108,13.9022269 10.4963622,13.7156411 C9.88197251,12.9819476 9.33225546,12.5139017 8.87954729,11.7327711 L8.87954729,10.338121 C8.87954729,10.2369219 9.33872272,8.93714587 10.0856912,8.94979576 L10.0856912,7.91250494 L15.9094584,7.91250494 C16.0905416,7.90618 15.8771221,7.7701937 16.0517381,7.7701937 L23.4438157,7.7701937 C23.6119644,7.7701937 23.4050121,7.63420741 23.5828618,7.63420741 L27.4793856,7.63420741 C27.8059822,7.63420741 35.2918351,1.64764791 43.3112369,1.64764791 L43.3112369,1.64764791 Z M26.2667745,1.85953354 C26.4672595,1.93227039 26.8100243,2.4730531 26.8100243,2.54262749 C26.8100243,2.71656345 26.6774454,3.00118593 26.5869038,3.21939649 L26.2667745,3.21939649 L26.2667745,1.85953354 Z M23.265966,2.19791804 C23.2918351,2.43826591 23.2918351,2.63433918 23.3532741,2.8683621 L23.0266774,2.8683621 C23.0881164,2.70075109 23.152789,2.4287785 23.265966,2.19791804 L23.265966,2.19791804 Z M46.8973323,3.77915404 C46.9296686,4.08907629 46.9296686,4.37686125 46.8229588,4.60455923 C46.7906225,4.29779945 46.7970897,4.01001449 46.8973323,3.77915404 L46.8973323,3.77915404 Z M42.4510914,4.15865068 C42.5028294,4.33258664 42.7000808,4.43694821 42.4510914,4.53182237 L42.4510914,4.15865068 Z M40.6467259,4.39899855 C40.672595,4.57293451 40.6661277,4.79114508 40.5594179,4.94926868 C40.5270816,4.77533272 40.5335489,4.55395968 40.6467259,4.39899855 L40.6467259,4.39899855 Z M51.0363783,4.96508104 L51.2950687,4.96508104 C51.2077607,5.07576756 51.1430881,5.27500329 51.0363783,5.42996442 L51.0363783,4.96508104 Z M54.0921584,5.43312689 C54.0371867,5.67979971 53.9531124,5.90117275 53.7687955,6.04664646 L53.7687955,5.79048623 C53.9143088,5.70826196 53.9789814,5.51218869 54.0921584,5.43312689 L54.0921584,5.43312689 Z M41.4033953,5.91066017 C41.8334681,6.01502174 41.7946645,6.25853209 41.7946645,6.56529187 C41.7946645,6.74555277 41.8528698,7.28949796 41.4874697,7.28949796 C41.3031528,7.28949796 41.3354891,7.2167611 41.2449475,7.20727369 C41.2352466,6.720253 41.1026677,6.62537884 41.1026677,6.49571749 C41.1026677,6.324944 41.2449475,6.06245882 41.4033953,5.91066017 L41.4033953,5.91066017 Z M42.4575586,5.91066017 C42.8455942,5.91066017 42.7809216,6.29015681 42.7809216,6.56529187 C42.7809216,6.66965345 42.6806791,7.02701278 42.628941,7.20727369 L42.2958771,7.20727369 C42.2894099,6.97641323 42.1503638,6.66965345 42.1503638,6.49571749 C42.1503638,6.31861905 42.0856912,5.91066017 42.4575586,5.91066017 L42.4575586,5.91066017 Z M43.2853678,5.92014758 L43.6831043,5.92014758 C43.7671787,6.14468309 43.8350849,6.35973119 43.8350849,6.53366715 C43.8350849,6.91000132 43.7477769,6.70127817 43.6087308,7.21043616 L43.3629749,7.21043616 C43.2724333,6.98906312 43.1398545,6.77401502 43.1398545,6.59691659 C43.1398545,6.4261431 43.2724333,6.15100804 43.2853678,5.92014758 L43.2853678,5.92014758 Z M45.2772838,5.91382264 C45.5101051,6.01818421 45.5909458,6.15100804 45.5909458,6.25853209 C45.5909458,6.4261431 45.5230396,6.44195546 45.4260307,6.59691659 C45.1608731,6.47674265 45.1059014,6.324944 45.1059014,6.25853209 C45.1059014,6.08459613 45.1802749,6.06878377 45.2772838,5.91382264 L45.2772838,5.91382264 Z M44.3395311,6.06245882 L44.6693614,6.06245882 L44.6693614,6.72974041 C44.5691188,6.73922783 44.5432498,6.77401502 44.523848,6.87205165 C44.4494745,6.84358941 44.1907842,6.51469232 44.1907842,6.4261431 C44.1907842,6.25853209 44.3298302,6.22058242 44.3395311,6.06245882 L44.3395311,6.06245882 Z M46.0889248,6.45144288 L46.2894099,6.45144288 L46.2894099,6.06245882 L46.0889248,6.06245882 L46.0889248,6.45144288 Z M47.2724333,6.06245882 L47.2724333,6.45144288 L47.0072757,6.45144288 L47.0072757,6.12887073 C47.1075182,6.11622085 47.1754244,6.04980893 47.2724333,6.06245882 L47.2724333,6.06245882 Z M40.4009701,6.12570826 L40.6531932,6.12570826 C40.734034,6.27750692 40.8860146,6.39135591 40.8860146,6.56529187 C40.8860146,6.73922783 40.734034,6.98590065 40.6531932,7.28001054 L40.4009701,7.28001054 C40.323363,6.91316379 40.323363,6.48939254 40.4009701,6.12570826 L40.4009701,6.12570826 Z M39.4955538,6.40084333 L39.8124495,6.40084333 L39.8124495,7.20727369 C39.7251415,7.2167611 39.799515,7.28949796 39.6184317,7.28949796 C39.3403395,7.28949796 39.3403395,6.78982738 39.3403395,6.77401502 C39.3403395,6.59691659 39.3532741,6.46725524 39.4955538,6.40084333 L39.4955538,6.40084333 Z M55.5311237,6.47674265 L55.7898141,6.47674265 C55.6475344,6.720253 55.4308812,7.00171301 55.178658,7.2167611 L55.178658,6.95427593 C55.5214228,6.91000132 55.3920776,6.67597839 55.5311237,6.47674265 L55.5311237,6.47674265 Z M38.7582862,6.60956648 C38.7712207,6.70127817 38.8326597,6.78033997 38.6580437,7.2167611 C38.6580437,7.2167611 38.6709782,6.59691659 38.7582862,6.60956648 L38.7582862,6.60956648 Z M46.4704931,7.28949796 C46.7647534,7.28949796 47.1463217,7.23573593 47.1463217,7.59625774 C47.1463217,7.7701937 46.9296686,8.18131506 46.9296686,8.35208855 C46.9296686,8.62722361 46.9814066,8.80115957 47.2530315,8.80115957 C47.8156831,8.80115957 48.7372676,8.11806562 48.5464834,7.64053235 L48.8763137,7.64053235 C49.3548909,7.93464225 50.1374293,8.42166293 50.4478577,9.04466992 C49.982215,9.57912768 49.4745352,9.58229016 48.9894907,10.2875214 C48.1422797,10.0819607 47.4987874,10.5974437 47.4987874,11.3817367 C47.4987874,11.7675583 47.4987874,11.7011464 47.8965238,12.1723547 L49.2352466,12.1723547 C49.3193209,12.2514165 49.3742926,12.3115035 49.5392078,12.4063777 C49.109135,12.7795493 49.196443,13.2697325 48.6499596,13.2697325 C48.4721099,13.2697325 47.7768795,12.8586111 47.5990299,12.8586111 C47.152789,12.8586111 46.9296686,13.0736592 46.9296686,13.5132429 C46.9296686,13.614442 47.0072757,13.9306892 47.2853678,14.1235999 C46.5642684,15.0565292 43.6637025,15.6099618 43.4502829,15.6099618 C43.2724333,15.6099618 43.3759095,15.4739755 43.2045271,15.4739755 C43.0266774,15.4739755 43.065481,15.6099618 42.8876314,15.6099618 C42.7130154,15.6099618 42.5351657,15.4739755 42.2958771,15.4550007 C42.3637833,15.2873896 42.4284559,15.0944789 42.4284559,14.9205429 C42.4284559,14.6896824 42.2829426,14.0983002 41.8981407,14.0983002 C41.2902183,14.0983002 41.3548909,14.5600211 41.3678254,15.2589274 L41.0703314,15.2589274 C40.025869,15.2652523 39.1172191,13.8105152 39.1172191,12.8933983 C39.1172191,9.50639083 43.7089733,7.28949796 46.4704931,7.28949796 L46.4704931,7.28949796 Z M11.2012935,9.63605218 L12.0226354,9.63605218 C12.113177,9.78152589 12.1875505,9.79733825 12.1875505,9.96811174 C12.1875505,10.1420477 12.113177,10.1578601 12.0226354,10.3064962 L11.2012935,10.3064962 L11.2012935,9.63605218 Z M24.2263541,9.63605218 L25.0347615,9.63605218 C25.1156023,9.78152589 25.1932094,9.79733825 25.1932094,9.96811174 C25.1932094,10.1420477 25.1156023,10.1578601 25.0347615,10.3064962 L24.2263541,10.3064962 L24.2263541,9.63605218 Z M35.3338723,9.63605218 L36.1552142,9.63605218 C36.2813258,10.1167479 36.5173808,10.0218738 36.5173808,10.3476084 C36.5173808,10.6290684 36.4462409,10.8283041 36.2198868,11.1983133 L35.3338723,11.1983133 L35.3338723,9.63605218 Z M13.9046079,9.76571353 C13.9498787,10.0724733 14.0889248,10.3444459 14.1406629,10.7144551 L13.5974131,10.7144551 C13.7364592,10.338121 13.7978981,10.0629859 13.9046079,9.76571353 L13.9046079,9.76571353 Z M30.7259499,9.76571353 C30.7550525,10.0724733 30.8197251,10.4013704 30.9587712,10.7144551 L30.331447,10.7144551 L30.331447,10.4772697 C30.3249798,10.3033338 30.6160065,9.99341152 30.7259499,9.76571353 L30.7259499,9.76571353 Z M63.6798707,9.77203848 L64.4947454,9.77203848 C64.7210994,9.98076163 64.8666128,10.3476084 64.8666128,10.5183819 C64.8666128,10.6923178 64.6467259,11.1255765 64.4947454,11.3406246 L63.6798707,11.3406246 L63.6798707,9.77203848 Z M69.4454325,9.77203848 L70.4769604,9.77203848 L70.4769604,10.3033338 C70.392886,10.3128212 70.2861762,10.3476084 70.2667745,10.4424825 L69.4454325,10.4424825 L69.4454325,9.77203848 Z M74.65481,9.77203848 L75.4696847,9.77203848 C75.6928052,9.98076163 75.8383185,10.3476084 75.8383185,10.5183819 C75.8383185,10.6923178 75.6216653,11.1255765 75.4696847,11.3406246 L74.65481,11.3406246 L74.65481,9.77203848 Z M53.8722716,9.97127421 C53.8981407,10.2811965 53.9595796,10.6037686 54.0986257,10.847279 L53.4033953,10.847279 C53.5489086,10.5373567 53.6200485,10.1863223 53.8722716,9.97127421 L53.8722716,9.97127421 Z M72.4074373,10.1167479 L72.6596605,10.1167479 C72.672595,10.3476084 72.7372676,10.6037686 72.8827809,10.847279 L72.1940178,10.847279 C72.2554568,10.6765055 72.3201293,10.4108578 72.4074373,10.1167479 L72.4074373,10.1167479 Z M47.3144705,15.6099618 C47.4244139,15.7680854 47.6378335,15.8155225 47.6378335,15.986296 C47.6378335,16.0969825 47.3662086,16.4132297 47.152789,16.4954539 C47.1463217,16.3910924 47.1754244,16.1823692 47.0072757,16.0021083 C47.0008084,15.8503097 47.2206952,15.7680854 47.3144705,15.6099618 L47.3144705,15.6099618 Z M48.0679062,16.2898933 L48.3265966,16.2898933 L48.3265966,15.758598 L48.0679062,15.758598 L48.0679062,16.2898933 Z M39.5537591,16.2898933 L39.9644301,16.2898933 L39.9644301,15.8250099 L39.5537591,15.8250099 L39.5537591,16.2898933 Z M40.5400162,15.8250099 L40.87308,15.8250099 L40.87308,16.3594677 C40.7728375,16.3657926 40.734034,16.4005798 40.7210994,16.4986164 C40.5400162,16.4132297 40.3880356,16.1950191 40.3880356,16.1254447 C40.3880356,15.9546712 40.4559418,15.9736461 40.5400162,15.8250099 L40.5400162,15.8250099 Z M46.3185125,15.8250099 L46.5707357,15.8250099 L46.5707357,16.4954539 L46.3185125,16.4954539 C46.2247373,16.2740809 46.2247373,16.0463829 46.3185125,15.8250099 L46.3185125,15.8250099 Z M45.3969281,15.9641587 L45.7235247,15.9641587 L45.7235247,16.6282778 L45.4648343,16.6282778 C45.458367,16.5397286 45.3839935,16.4701542 45.3969281,15.9641587 L45.3969281,15.9641587 Z M41.4551334,16.6314402 L41.7849636,16.6314402 L41.7849636,16.1697193 L41.4551334,16.1697193 L41.4551334,16.6314402 Z M42.5286985,16.1602319 C42.628941,16.2392937 42.7615198,16.2993807 42.9135004,16.381605 C42.9264349,16.4701542 42.7809216,16.5397286 42.7679871,16.6346027 L42.5157639,16.6346027 C42.4349232,16.4828041 42.4349232,16.315193 42.5286985,16.1602319 L42.5286985,16.1602319 Z M44.5497171,16.1697193 C44.7146322,16.1570694 44.7275667,16.2993807 44.8892482,16.3942548 C44.8148747,16.4922915 44.7275667,16.6377652 44.5497171,16.7041771 L44.5497171,16.1697193 Z M42.8940986,17.8110423 L42.8940986,18.6902095 L42.6483428,18.6902095 C42.7873888,18.3138753 42.7873888,18.0387403 42.8940986,17.8110423 L42.8940986,17.8110423 Z M52.8051738,22.6243247 C52.8342765,22.9342469 52.8342765,23.2188694 52.7275667,23.4497299 C52.6919968,23.1398076 52.7016977,22.8551851 52.8051738,22.6243247 L52.8051738,22.6243247 Z M52.3556993,22.2891026 C52.8666128,22.2796152 53.0185934,22.3491896 53.1770412,22.358677 L53.1770412,23.6458031 C53.083266,23.658453 53.0509297,23.6900777 53.0379951,23.7817894 L52.3556993,23.7817894 L52.3556993,22.2891026 Z M50.8067906,22.2891026 L51.4955538,22.2891026 L51.4955538,22.6179997 C51.388844,22.6243247 51.2756669,22.6179997 51.1430881,22.6780867 L51.1430881,22.8425352 L51.4955538,22.8425352 L51.4955538,23.1651074 C51.388844,23.1777573 51.2756669,23.1682699 51.1430881,23.2283568 L51.1430881,23.4022928 C51.2756669,23.4528923 51.4729184,23.4497299 51.6345998,23.4623798 L51.6345998,23.7817894 L50.8067906,23.7817894 L50.8067906,22.2891026 Z M49.196443,22.2891026 L49.7041229,22.2891026 C49.8787389,22.2796152 50.1018593,22.4851759 50.1018593,22.6591119 C50.1018593,22.8298854 49.956346,22.8804849 49.8852061,23.0101463 C49.8852061,23.0733957 49.9886823,23.1050204 50.0824576,23.1176703 L50.0824576,23.7817894 L49.7526273,23.7817894 C49.7396928,23.5540914 49.7526273,23.3548557 49.6911884,23.1682699 L49.5133387,23.1682699 L49.5133387,23.7817894 L49.196443,23.7817894 L49.196443,22.2891026 Z M47.6443007,22.2891026 L48.4009701,22.2891026 L48.4009701,22.6179997 C48.3007276,22.6243247 48.1810833,22.6179997 48.0485044,22.6685993 C48.1422797,22.7887732 48.174616,22.8646726 48.3265966,22.8362103 L48.3265966,23.1651074 C48.2392886,23.1777573 48.1099434,23.1651074 48.0485044,23.2220319 L48.0485044,23.4623798 L48.4009701,23.4623798 L48.4009701,23.7817894 L47.6443007,23.7817894 L47.6443007,22.2891026 Z M46.2247373,22.2922651 L47.0008084,22.2922651 C46.8552951,22.9310845 46.8617623,23.2789564 46.777688,23.7817894 L46.4575586,23.7817894 C46.367017,23.3864804 46.4058205,23.0101463 46.2247373,22.2922651 L46.2247373,22.2922651 Z M45.4454325,22.3618395 L45.4454325,22.7508236 C45.34519,22.760311 45.2255457,22.760311 45.1059014,22.8014231 C45.3969281,23.0639083 45.458367,23.035446 45.458367,23.3801555 C45.458367,23.5540914 45.4454325,23.6363157 45.3645918,23.7849519 L44.7631366,23.7849519 C44.7437348,23.6900777 44.6822959,23.6205034 44.6887631,23.1872447 C44.7760711,23.1777573 44.90865,23.1777573 45.0282943,23.1398076 C44.90865,23.0986955 44.7502021,23.0860456 44.6822959,22.9405719 L44.6822959,22.3618395 C44.90865,22.2827777 45.2126112,22.2827777 45.4454325,22.3618395 L45.4454325,22.3618395 Z M43.6345998,23.7817894 L43.9708973,23.7817894 L43.9708973,22.2891026 L43.6345998,22.2891026 L43.6345998,23.7817894 Z M42.7679871,22.3618395 L42.7679871,22.8203979 L42.4349232,22.8203979 C42.4284559,22.7286863 42.3896524,22.6243247 42.3152789,22.6179997 L42.3152789,22.921597 C42.4090542,22.9721966 42.6030719,22.9690341 42.7679871,22.9785215 L42.7679871,23.7881144 L42.567502,23.7881144 C42.3896524,23.7944393 42.6418755,23.658453 42.4575586,23.658453 C42.2894099,23.658453 42.4284559,23.7944393 42.2506063,23.7944393 C42.0727567,23.7944393 42.0921584,23.7217025 41.9466451,23.6394782 L41.9466451,22.3618395 C42.1697656,22.2827777 42.4704931,22.2827777 42.7679871,22.3618395 L42.7679871,22.3618395 Z M40.3945028,22.2891026 L41.2287793,22.2891026 L41.2287793,22.6179997 C41.0573969,22.6243247 40.8601455,22.6179997 40.734034,22.6780867 L40.734034,22.8425352 L41.0767987,22.8425352 L41.0767987,23.1651074 C40.9862571,23.1777573 40.8601455,23.1682699 40.734034,23.2283568 L40.734034,23.4022928 C40.8601455,23.4528923 41.0573969,23.4497299 41.2287793,23.4623798 L41.2287793,23.7817894 L40.3945028,23.7817894 L40.3945028,22.2891026 Z M38.777688,22.3238898 C39.4341148,22.2796152 39.5666936,22.3555146 39.6734034,22.3207274 L39.6734034,22.9152721 C39.6798707,23.0860456 39.5472918,22.8646726 39.5472918,23.035446 C39.5472918,23.2125445 39.6798707,23.0038213 39.6734034,23.1777573 L39.6734034,23.7817894 L39.3468068,23.7817894 C39.3403395,23.5540914 39.3403395,23.3548557 39.2821342,23.1682699 L39.1107518,23.1682699 L39.1107518,23.7817894 L38.777688,23.7817894 L38.777688,22.3238898 Z M46.4446241,17.5453947 L46.8876314,17.5453947 C46.7906225,17.9248913 46.9296686,18.2601133 46.8876314,18.7123468 L47.2724333,18.7123468 L47.2724333,19.0412439 L46.5966047,19.0412439 C46.5836702,18.9432073 46.5448666,18.8420082 46.4446241,18.8325208 L46.4446241,17.5453947 Z M43.9870655,17.5453947 L44.3848019,17.5453947 C44.4300728,17.788905 44.5109135,17.902754 44.7081649,18.2221637 L44.7081649,17.5359072 C44.7437348,17.6371063 44.8536783,17.6718935 45.021827,17.6813809 L45.021827,19.0412439 L44.5497171,19.0412439 C44.5432498,18.807221 44.4042037,18.6079852 44.3589329,18.3613124 C44.3298302,18.5415733 44.3298302,18.807221 44.3168957,19.0380814 L43.9870655,19.0380814 L43.9870655,17.5453947 Z M47.9967664,17.4758203 L48.5400162,17.4758203 C48.585287,17.7636052 48.698464,18.2031888 48.8892482,18.5225985 L48.8892482,18.8989327 L48.5594179,18.8989327 C48.5464834,18.807221 48.5594179,18.7629464 48.5044462,18.7028594 C48.3136621,18.7692713 48.1875505,18.8989327 48.0032336,19.0444064 C47.9838319,18.5320859 47.9838319,17.9818158 47.9967664,17.4758203 L47.9967664,17.4758203 Z M42.8132579,17.4663329 C43.2853678,17.4663329 43.3435732,17.6971933 43.3435732,18.0134405 C43.3435732,18.4308868 43.2853678,19.0507313 42.8132579,19.0507313 C42.3508488,19.0507313 42.2894099,18.7028594 42.2894099,18.4308868 C42.2894099,18.2569508 42.4284559,17.8458295 42.4349232,17.5453947 C42.5351657,17.5359072 42.6418755,17.4663329 42.8132579,17.4663329 L42.8132579,17.4663329 Z M49.5715441,17.339834 L50.2215036,17.339834 C50.3023444,17.4853077 50.4478577,17.5706944 50.4478577,17.7414679 C50.4478577,17.9122414 50.3023444,17.7414679 50.3023444,17.9122414 C50.3023444,18.0861774 50.5933711,18.2221637 50.5933711,18.3929371 C50.5933711,18.5668731 50.367017,18.6965345 50.2150364,18.8325208 L49.5715441,18.8325208 C49.6006467,18.5953354 49.6006467,18.3265252 49.5715441,17.339834 L49.5715441,17.339834 Z M41.3904608,17.339834 L41.6556184,17.339834 C41.5877122,17.9849783 41.5877122,18.3866122 41.6556184,18.8293583 L41.1026677,18.8293583 C41.283751,18.1715641 41.0767987,17.7224931 41.3904608,17.339834 L41.3904608,17.339834 Z M51.8447858,17.0646989 L51.8447858,17.3176967 L51.3565077,17.3176967 C51.4276475,17.4916326 51.4955538,17.5548821 51.5472918,17.6782185 C51.6119644,17.6718935 51.6798707,17.5359072 51.8447858,17.5453947 L51.8447858,17.8679668 L51.4955538,17.8679668 C51.5472918,18.2190012 51.8932902,18.2031888 52.0582053,18.237976 L52.0582053,18.4878113 C51.8932902,18.4972987 51.7542441,18.4972987 51.3080032,18.5605482 C51.1560226,18.130452 51.0169766,17.6402688 50.9458367,17.0646989 C51.2562652,17.0552115 51.5408246,16.9887996 51.8447858,17.0646989 L51.8447858,17.0646989 Z M39.7574778,16.9856371 C40.2489895,16.9856371 39.6798707,17.2860719 40.3298302,17.5422322 L40.3298302,17.2006852 L40.6661277,17.2006852 L40.6661277,17.6307814 C40.672595,17.6782185 40.3880356,18.3802873 40.3815683,18.6965345 C39.8383185,18.6649097 40.1616815,18.1810515 39.8059822,17.8742917 L39.8059822,18.5605482 C39.6345998,18.4941362 39.5084883,18.4972987 39.3468068,18.4814864 C39.5149555,18.0861774 39.5796281,17.5453947 39.5537591,17.0646989 C39.6410671,17.0552115 39.5796281,16.9856371 39.7574778,16.9856371 L39.7574778,16.9856371 Z M52.8051738,16.7073396 C53.0638642,17.0488865 52.8407437,17.9122414 53.5230396,17.8173672 C53.5489086,17.9122414 53.6135812,18.0513902 53.6006467,18.1431019 C53.4357316,18.1557517 53.30962,18.1557517 52.8536783,18.2190012 C52.7016977,17.788905 52.5561843,17.3651337 52.4947454,16.8591382 C52.5949879,16.8464883 52.7016977,16.7895638 52.8051738,16.7073396 L52.8051738,16.7073396 Z M38.0759903,16.6472526 C38.1697656,16.6409277 38.3152789,16.7073396 38.4866613,16.7263144 C38.3152789,17.1880353 38.2538399,17.4821452 38.1406629,17.848992 C38.1406629,17.9122414 38.1341956,17.956516 38.1762328,18.016603 C38.6386419,17.8869416 38.5869038,17.0836737 38.6386419,16.7199895 C38.7324171,16.7073396 38.8100243,16.8464883 38.9717057,16.8654632 C38.7453517,17.4220582 39.004042,18.2221637 38.2829426,18.2221637 C37.9757478,18.2221637 37.7784964,17.962841 37.7784964,17.7730926 C37.7784964,17.6054816 37.9951496,17.0836737 38.0759903,16.6472526 L38.0759903,16.6472526 Z M44.2522231,14.231124 C44.6014551,14.231124 45.1059014,14.338648 45.1059014,14.6137831 C45.1059014,14.9964422 44.6693614,15.129266 44.3654002,15.129266 C43.9482619,15.129266 43.6895715,14.9964422 43.6895715,14.6137831 C43.6895715,14.1963368 43.9320938,14.231124 44.2522231,14.231124 L44.2522231,14.231124 Z M40.5400162,10.7302675 L41.0056589,10.7302675 C41.0897332,10.8820661 41.1026677,10.9642904 41.1026677,11.1382264 C41.1026677,11.5366979 40.7663703,11.4671235 40.4947454,11.8972197 C40.3298302,11.7485835 40.1843169,11.5493477 40.1843169,11.3817367 C40.1843169,11.2078008 40.3945028,10.9484781 40.5400162,10.7302675 L40.5400162,10.7302675 Z M4.17461601,9.35775464 L4.7178658,9.35775464 C4.88601455,9.77520095 4.9894907,10.1863223 5.24171382,10.6575306 L5.24171382,9.36091712 L5.63945028,9.36091712 L5.63945028,11.6790091 L5.08973323,11.6790091 C5.08326597,11.2868626 5.04446241,11.068652 4.7178658,10.7239425 L4.7178658,11.6790091 L4.17461601,11.6790091 L4.17461601,9.35775464 Z M3.34033953,11.6790091 L3.87065481,11.6790091 L3.87065481,9.36091712 L3.34033953,9.36091712 L3.34033953,11.6790091 Z M79.9547292,9.28185532 C80.5173808,9.28185532 80.5303153,9.48425352 81.0347615,9.77836342 L81.0347615,10.0977731 L80.5691188,10.0977731 C80.5109135,9.96494927 80.1584479,9.62656476 80.0323363,9.62656476 C79.8480194,9.62656476 79.6895715,9.75938859 79.4955538,9.882725 L79.4955538,10.056661 C80.0388036,10.3444459 81.1867421,10.1420477 81.1867421,11.0338648 C81.1867421,11.5967848 80.5561843,11.8972197 80.0937753,11.8972197 C79.9547292,11.8972197 79.0719483,11.3754118 79.0137429,11.3279747 L79.0137429,11.01489 L79.4890865,11.01489 C79.476152,11.2204507 79.7348424,11.4165239 80.0323363,11.4165239 C80.2069523,11.4165239 80.3718674,11.3469495 80.5691188,11.3532745 L80.5691188,10.8536039 C80.1519806,10.847279 79.0008084,10.8725787 79.0008084,10.0408486 C79.0008084,9.44630386 79.4179466,9.28185532 79.9547292,9.28185532 L79.9547292,9.28185532 Z M76.6952304,9.29134273 L78.6418755,9.29134273 L78.6418755,9.75306364 L77.2449475,9.75306364 L77.2449475,10.3223086 L78.4316896,10.3223086 L78.4316896,10.6480432 L77.2320129,10.6480432 L77.2320129,11.3532745 L78.6418755,11.3532745 L78.6418755,11.7485835 L76.6952304,11.7485835 L76.6952304,9.29134273 Z M74.2344382,9.28818026 L75.5925627,9.28818026 C76.0905416,9.28185532 76.3298302,10.2527342 76.3298302,10.4835947 C76.3298302,10.9642904 76.1358124,11.7580709 75.4470493,11.7517459 L74.2344382,11.7517459 L74.2344382,9.28818026 Z M72.200485,9.28818026 L72.8698464,9.28818026 C73.0962005,10.1357228 73.4421989,10.9579655 73.720291,11.745421 L73.1026677,11.745421 C73.222312,11.236263 72.672595,11.3469495 72.5270816,11.3469495 C72.2425222,11.3469495 72.1940178,11.4418237 71.8156831,11.7485835 L71.3403395,11.7485835 C71.6184317,10.9579655 71.9644301,10.1357228 72.200485,9.28818026 L72.200485,9.28818026 Z M69.0347615,9.28818026 L70.4575586,9.28818026 C70.7970897,9.28185532 71.12692,9.82263803 71.12692,10.0028989 C71.12692,10.1768349 70.9749394,10.445645 70.777688,10.5626565 C70.8423605,10.6765055 70.9943411,10.7365924 70.9814066,10.9042035 L70.9814066,11.7485835 L70.4704931,11.7485835 C70.4252223,11.4513111 70.4252223,11.1698511 70.4704931,10.8536039 L69.4260307,10.8536039 L69.4260307,11.7485835 L69.0347615,11.7485835 L69.0347615,9.28818026 Z M66.4963622,9.29134273 L68.6499596,9.29134273 L68.6499596,9.75306364 L67.8156831,9.75306364 L67.8156831,11.7485835 L67.3435732,11.7485835 L67.3435732,9.75306364 L66.4963622,9.75306364 L66.4963622,9.29134273 Z M63.1172191,9.28818026 L64.6014551,9.28818026 C65.1188359,9.28185532 65.3548909,10.2527342 65.3548909,10.4835947 C65.3548909,10.9642904 65.1641067,11.7580709 64.4688763,11.7517459 L63.1172191,11.7517459 L63.1172191,9.28818026 Z M60.7308003,9.29134273 L62.7453517,9.29134273 L62.7453517,9.75306364 L61.2675829,9.75306364 L61.2675829,10.3223086 L62.4672595,10.3223086 L62.4672595,10.6480432 L61.2675829,10.6480432 L61.2675829,11.3532745 L62.7453517,11.3532745 L62.7453517,11.7485835 L60.7308003,11.7485835 L60.7308003,9.29134273 Z M59.676637,11.745421 L60.2134196,11.745421 L60.2134196,9.29134273 L59.676637,9.29134273 L59.676637,11.745421 Z M57.5650768,9.29134273 L58.1083266,9.29134273 L58.1083266,11.3532745 L59.4405821,11.3532745 L59.4405821,11.7485835 L57.5650768,11.7485835 L57.5650768,9.29134273 Z M55.4567502,9.29134273 L55.8544867,9.29134273 L55.8544867,11.3532745 L57.1932094,11.3532745 L57.1932094,11.7485835 L55.4567502,11.7485835 L55.4567502,9.29134273 Z M53.4163298,9.28818026 L54.0921584,9.28818026 C54.4704931,10.0313612 54.6612773,10.7207801 54.9393694,11.4418237 L54.9393694,11.7517459 L54.4769604,11.7517459 C54.2635408,11.6410594 54.331447,11.5872974 54.331447,11.3406246 L53.3160873,11.3406246 C53.257882,11.463961 53.196443,11.5841349 53.1770412,11.7485835 L52.7016977,11.7485835 L52.7016977,11.2299381 C53.0121261,10.7081302 53.2093775,9.98708657 53.4163298,9.28818026 L53.4163298,9.28818026 Z M6.70008084,9.28185532 C7.10428456,9.28185532 7.13662086,9.51271577 7.46321746,9.63921465 L7.46321746,10.1673475 L6.85206144,10.1673475 C6.78092158,10.0155488 7.01697656,9.89853736 6.64187551,9.75938859 L6.64187551,11.350112 C6.78092158,11.1951509 6.84559418,10.8662538 6.84559418,10.7397549 L7.46321746,10.7397549 L7.46321746,11.3342996 C7.26919968,11.3880617 7.01697656,11.7580709 6.66127728,11.7580709 C6.47696039,11.7580709 6.12449475,11.5936223 6.06952304,11.5303729 L6.06952304,9.50322836 C6.30234438,9.42100408 6.51576395,9.28185532 6.70008084,9.28185532 L6.70008084,9.28185532 Z M34.8488278,9.14903149 L36.0549717,9.14903149 C36.6370251,9.14586902 37.083266,9.99657399 37.083266,10.3823956 C37.083266,11.1730136 36.8892482,10.9326657 36.3589329,11.6821716 L34.8488278,11.6821716 L34.8488278,9.14903149 Z M32.1649151,9.15535644 L32.7016977,9.15535644 C33.0606306,9.63921465 33.3516572,10.1926473 33.6232821,10.6670181 C33.6232821,10.6670181 33.694422,10.6670181 33.7364592,10.727105 C33.7946645,10.6670181 33.78173,10.5531691 33.7170574,9.15535644 L34.2667745,9.15535644 L34.2667745,11.6821716 L33.7170574,11.6821716 C33.4842361,11.2046383 33.1447049,10.5784688 32.7016977,10.104098 L32.7016977,11.6790091 L32.1649151,11.6790091 L32.1649151,9.15535644 Z M30.331447,9.14903149 L30.9587712,9.14903149 C31.3435732,9.76255106 31.4179466,10.5373567 31.799515,11.236263 L31.799515,11.6821716 L31.3371059,11.6821716 C31.2497979,11.5335354 31.1721908,11.3817367 31.1851253,11.1983133 L30.105093,11.1983133 C30.1180275,11.3089999 30.105093,11.5430228 29.9595796,11.6790091 L29.4227971,11.6790091 C29.7784964,10.8852286 29.9854487,9.99341152 30.331447,9.14903149 L30.331447,9.14903149 Z M27.1366209,9.14586902 C27.6798707,9.14586902 27.5537591,9.31348004 28.1422797,9.64237712 L28.1422797,9.9617868 L27.6734034,9.9617868 C27.6604689,9.79733825 27.5214228,9.74357623 27.4664511,9.62023982 L26.6645109,9.62023982 C26.6774454,9.73092634 26.5998383,9.89221241 26.6645109,10.1167479 C26.9555376,10.1673475 28.2231205,10.2021347 28.2231205,10.9326657 C28.2231205,11.6189221 27.6410671,11.7580709 27.1624899,11.7580709 C26.6645109,11.7580709 26.4413905,11.3912241 26.1212611,11.1919884 L26.1212611,10.8725787 L26.5869038,10.8725787 C26.6774454,11.128739 27.004042,11.3469495 27.2368634,11.3469495 C27.4664511,11.3469495 27.799515,11.0876268 27.799515,10.9642904 C27.799515,10.4930821 26.1083266,10.8536039 26.1083266,9.86691264 C26.1083266,9.31664251 26.5610348,9.14586902 27.1366209,9.14586902 L27.1366209,9.14586902 Z M23.6637025,9.14903149 L25.0088925,9.14903149 C25.4001617,9.14586902 25.7590946,9.49690341 25.7590946,9.90169983 C25.7590946,10.1673475 25.6976556,10.2622216 25.4066289,10.4804322 C25.8172999,10.6353933 25.4066289,11.4354987 25.7590946,11.6726841 L25.2061439,11.6726841 C25.1285368,11.3342996 25.3872272,10.9358282 25.0088925,10.7176176 L24.1940178,10.7176176 L24.1940178,11.6790091 L23.6637025,11.6790091 L23.6637025,9.14903149 Z M21.2708165,9.15535644 L23.1463217,9.15535644 L23.1463217,9.61707735 L21.7429264,9.61707735 L21.7429264,10.1863223 L23.0072757,10.1863223 L23.0072757,10.6480432 L21.7429264,10.6480432 L21.7429264,11.2204507 L23.1463217,11.2204507 L23.1463217,11.6790091 L21.2708165,11.6790091 L21.2708165,9.15535644 Z M18.8067906,9.15535644 L20.8924818,9.15535644 L20.8924818,9.61707735 L20.1907842,9.61707735 L20.1907842,11.6790091 L19.6540016,11.6790091 L19.6540016,9.61707735 L18.8067906,9.61707735 L18.8067906,9.15535644 Z M16.4139046,9.15535644 L17.0250606,9.15535644 C17.2966855,9.8036632 17.5683104,10.2558967 18.1115602,10.8662538 L18.1115602,9.15535644 L18.5739693,9.15535644 L18.5739693,11.6821716 L17.9660469,11.6821716 C17.6814875,11.01489 17.4163298,10.5531691 16.8860146,9.96494927 L16.8860146,11.6790091 L16.4139046,11.6790091 L16.4139046,9.15535644 Z M15.4987874,11.6790091 L15.9708973,11.6790091 L15.9708973,9.15535644 L15.4987874,9.15535644 L15.4987874,11.6790091 Z M13.5974131,9.14903149 L14.1535974,9.14903149 C14.4995958,9.99341152 14.7841552,10.8188167 15.1301536,11.6790091 L14.5189976,11.6790091 C14.4284559,11.5335354 14.4284559,11.3817367 14.4413905,11.1983133 L13.3678254,11.1983133 C13.3742926,11.3089999 13.3678254,11.5430228 13.2158448,11.6790091 L12.6855295,11.6790091 C13.0347615,10.8852286 13.2481811,9.99341152 13.5974131,9.14903149 L13.5974131,9.14903149 Z M10.7906225,9.14903149 L12,9.14903149 C12.523848,9.14586902 12.6758286,9.64237712 12.6758286,10.0028989 C12.6758286,10.8536039 12.3330639,10.7081302 11.1915926,10.7144551 L11.1915926,11.6790091 L10.7906225,11.6790091 L10.7906225,9.14903149 Z M45.7041229,7.56463302 C45.8755053,7.56463302 46.0468876,7.63420741 46.2118027,7.63736988 C46.2991108,7.78916853 46.2991108,7.87139281 46.2991108,8.04532877 C46.2991108,8.21610225 46.0856912,8.57978653 45.9337106,8.79167216 L45.4648343,8.79167216 C45.3839935,8.57346159 45.3839935,8.35208855 45.3839935,8.18131506 C45.3839935,7.95677955 45.3775263,7.56463302 45.7041229,7.56463302 L45.7041229,7.56463302 Z M35.1883589,7.31796021 C34.9814066,7.59942021 34.7679871,7.51403347 34.6224737,7.59625774 C34.6224737,7.59625774 34.6645109,7.63420741 34.7550525,7.64053235 L34.7550525,7.89036764 C34.6386419,7.96310449 34.5189976,8.12439057 34.3799515,8.32046383 C34.0080841,8.10857821 33.5780113,7.89669258 33.283751,7.60890763 C33.283751,7.52984583 33.3581245,7.44445909 33.458367,7.28949796 C33.694422,7.50454605 34.0533549,7.71010673 34.3185125,7.97891685 C34.3734842,7.97575438 34.4187551,7.9852418 34.4834276,7.93464225 C34.2732417,7.61523257 33.9951496,7.28001054 33.7105901,6.97325076 C33.8625707,6.8783766 34.1083266,6.8783766 34.2312045,6.94478851 C34.2312045,6.94478851 34.2732417,7.01436289 34.2732417,6.84042693 C34.2732417,6.66965345 34.1277284,6.84042693 34.1277284,6.66965345 L34.2926435,6.60324153 C34.4381568,6.54315457 34.8358933,7.09658717 35.1883589,7.31796021 L35.1883589,7.31796021 Z M55.6475344,6.11622085 C56.0129345,6.11622085 56,6.4261431 56,6.56529187 C56,6.92581368 55.9417947,6.8783766 55.6475344,7.24522335 C55.6475344,7.24522335 55.5828618,7.28949796 55.7607114,7.28949796 C55.9353274,7.28949796 56.1778496,6.73922783 56.3524656,6.73922783 C56.5303153,6.73922783 56.7760711,7.09974964 56.8407437,7.28001054 L56.5820534,7.28001054 C56.5044462,7.20727369 56.5044462,7.1376993 56.4430073,7.07761233 C56.3912692,7.08077481 56.3298302,7.21359863 56.2134196,7.25471077 C56.3298302,7.28949796 56.4171382,7.43497167 56.4915117,7.54249572 C56.3912692,7.56463302 56.4624091,7.63420741 56.2910267,7.63420741 C56.113177,7.63420741 56.1584479,7.48240875 56.1002425,7.42548425 C55.9805982,7.49189617 55.8674212,7.6120701 55.7801132,7.76070629 L55.5214228,7.76070629 C55.5149555,7.66583213 55.5149555,7.52984583 55.5214228,7.47924628 C55.3306386,7.42548425 55.1172191,7.28949796 54.8197251,7.20411121 L54.8197251,6.89102649 C55.0202102,6.76769008 55.3823767,6.11622085 55.6475344,6.11622085 L55.6475344,6.11622085 Z M35.0945837,5.91698511 C35.1139854,6.01502174 35.1139854,6.08459613 35.1139854,6.25853209 C35.1139854,6.4261431 35.4535166,6.74871525 35.676637,6.96376334 C35.676637,7.04915009 35.5375909,7.115562 35.5246564,7.2167611 C35.2271625,6.99538806 34.8940986,6.41981816 34.4834276,6.37238108 C34.6354082,6.19528265 34.8488278,6.05613388 35.0945837,5.91698511 L35.0945837,5.91698511 Z M46.6095392,5.42996442 C46.7906225,5.42996442 47.3856103,5.64501252 47.7445432,5.67979971 C49.6006467,5.87903545 51.6992724,6.1889577 53.0509297,7.31796021 C52.960388,7.46975886 52.5400162,7.63420741 52.4494745,7.62471999 L50.6451091,7.62471999 C50.6580437,7.66583213 50.5933711,7.70061932 50.5933711,7.87139281 C50.5933711,7.91566741 50.9393694,9.06680722 50.9361358,9.5316906 L50.9361358,10.1199104 C51.3694422,10.1420477 51.8706548,10.5183819 52.3362975,10.5341942 C52.2813258,10.8377915 52.2037187,10.9326657 52.2037187,11.1034392 C52.2037187,11.2773751 52.3427648,11.3817367 52.3427648,11.5493477 C52.3427648,11.9383318 52.2554568,11.8972197 51.9773646,12.7194624 L50.7000808,12.7194624 C50.5254648,12.7226249 50.6580437,12.5834761 50.480194,12.5834761 C50.3411479,12.5834761 48.4397736,14.3576229 47.7025061,14.8351561 C47.7025061,14.8889182 47.8415521,14.9426802 47.9029911,15.0628541 L52.1584479,15.0628541 C52.2166532,14.9996047 52.1713824,14.9205429 52.3427648,14.9205429 C52.5206144,14.9205429 52.8795473,15.0596917 53.1899757,15.1514033 C53.0509297,15.3854263 52.9118836,15.6542364 52.8181083,15.9483463 C52.5820534,15.8819344 52.4947454,15.8155225 52.3039612,15.8155225 C52.1358124,15.8155225 49.6717866,16.7073396 49.4939369,16.7073396 L47.7025061,16.7073396 C47.5246564,16.7073396 47.7316087,16.8464883 47.56346,16.8338385 L43.6281326,16.8338385 C43.7865804,16.7136645 43.9805982,16.5745157 43.9805982,16.4005798 C43.9805982,16.2266438 43.8350849,16.1570694 43.6637025,16.1570694 C43.502021,16.1570694 43.3435732,16.4796416 43.3435732,16.5049414 C43.3435732,16.6757149 43.3306386,16.5840032 43.4179466,16.6978522 L41.4163298,16.6978522 C40.0097009,16.7073396 35.7962813,15.7332982 35.5375909,15.590987 C35.5375909,15.4360258 35.676637,15.2652523 35.851253,15.2652523 C36.0291027,15.2652523 35.9223929,15.4044011 36.1067098,15.4044011 C36.2748585,15.4044011 36.1067098,15.2652523 36.2748585,15.2652523 C36.4527082,15.2652523 36.2748585,15.4044011 36.4527082,15.4044011 C36.6305578,15.4044011 36.4139046,15.2652523 36.585287,15.2652523 L38.9426031,15.2652523 C39.1107518,15.2652523 39.1560226,15.129266 39.2821342,15.135591 C39.2821342,15.135591 39.3403395,15.195678 39.3403395,15.0249045 C39.3403395,14.4746343 38.3282134,12.7226249 37.9951496,12.7226249 C37.8237672,12.7226249 36.6305578,12.931348 36.4527082,12.931348 C36.2748585,12.931348 36.3524656,12.8586111 36.2522231,12.8491237 L36.2522231,12.596126 C36.5335489,12.4727896 38.6321746,12.4253525 38.6321746,11.7264462 C38.6321746,11.068652 37.432498,11.3469495 37.0282943,11.3342996 C37.0153597,11.242588 37.083266,11.1034392 37.0897332,10.8725787 C37.6265158,10.8630913 38.1083266,10.727105 38.3476152,10.727105 C38.5319321,10.727105 38.3476152,10.8630913 38.5319321,10.8630913 C38.7000808,10.8630913 38.7194826,10.7302675 38.8455942,10.6891554 C38.4931285,10.4108578 37.6717866,10.3128212 37.2352466,10.3033338 L37.2352466,9.77203848 C38.1083266,9.83212544 38.9102668,9.96811174 39.09135,9.96811174 C40.3815683,9.96811174 40.9312854,8.84859665 41.9337106,8.07062854 C41.8722716,7.95677955 41.7267583,7.88720517 41.668553,7.76703123 L39.1948262,7.76703123 C39.0169766,7.7701937 39.2303961,7.90618 39.0557801,7.90618 C38.8843977,7.90618 39.09135,7.7701937 38.9102668,7.7701937 C38.7324171,7.7701937 38.9102668,7.90618 38.7324171,7.90618 C38.5545675,7.90618 38.7000808,7.7701937 38.5319321,7.7701937 C38.3476152,7.7701937 38.5319321,7.90618 38.3476152,7.90618 C38.1697656,7.90618 38.3476152,7.7701937 38.1697656,7.7701937 C37.9951496,7.7701937 38.1697656,7.90618 37.9951496,7.89669258 L35.327405,7.89669258 C35.6184317,7.57412044 35.9223929,7.12821189 36.2748585,6.96376334 C36.698464,6.76769008 40.1099434,5.56911319 40.7146322,5.56911319 C40.8860146,5.56911319 40.6337914,5.70509949 40.8116411,5.70509949 C41.1641067,5.70509949 41.9143088,5.42996442 42.331447,5.42996442 L46.6095392,5.42996442 Z M38.4349232,4.40216102 C38.8132579,4.53182237 38.9426031,5.19910397 39.1172191,5.55013836 C39.0169766,5.56911319 38.9846403,5.60390038 38.9717057,5.69561207 C38.8843977,5.70509949 38.8520614,5.62603769 38.8100243,5.56911319 C38.6192401,5.76518645 38.3282134,5.90749769 38.0307195,6.04980893 C37.9434115,5.97074713 37.7849636,5.89484781 37.7461601,5.7715114 C37.7105901,5.83159837 37.7170574,5.94544736 37.7105901,6.10673343 C37.545675,6.11622085 37.3678254,6.25853209 37.1932094,6.25853209 C37.0153597,6.25853209 36.8892482,6.03715905 36.7631366,5.91066017 C36.7178658,5.97074713 36.7308003,5.91066017 36.7308003,6.08459613 C36.7308003,6.25853209 36.8763137,6.29015681 36.8569119,6.45776782 C36.4139046,6.30596917 36.3007276,6.98590065 35.8350849,6.93846357 C35.676637,6.57794176 35.4664511,6.17314534 35.1883589,5.79048623 C35.3403395,5.80946106 35.4373484,5.69877454 35.5569927,5.57543813 L35.8771221,5.57543813 C35.8900566,5.67031229 35.7962813,5.7715114 35.6701698,5.82527342 L35.6701698,6.00237185 C35.6701698,6.00237185 35.5990299,6.04980893 35.7768795,6.04980893 C35.9676637,6.04980893 35.8900566,6.01502174 35.8965238,5.92014758 C35.9838319,5.91066017 36.0679062,6.04980893 36.1552142,6.06245882 C36.1681487,6.22058242 36.0161681,6.23955725 35.8771221,6.41033074 C35.9223929,6.39135591 36.0679062,6.46093029 36.4721099,6.47041771 C36.4721099,6.47041771 36.5173808,6.53366715 36.5173808,6.35973119 C36.5173808,6.1889577 36.2522231,5.82843589 36.0291027,5.534326 C36.1196443,5.36039004 36.5723525,5.18961655 36.698464,5.08841745 C36.9700889,5.49953881 36.8439774,5.90749769 37.3193209,6.04980893 C37.3742926,5.98972197 37.3678254,6.04980893 37.3678254,5.87903545 C37.3678254,5.70509949 37.083266,5.26551588 37.0282943,4.88918171 L37.3193209,4.88918171 C37.4939369,4.87969429 37.4680679,5.08525497 37.519806,5.09474239 C37.519806,5.09474239 37.5780113,5.15799183 37.5780113,4.98405587 C37.5780113,4.81328238 37.432498,4.84806957 37.4518998,4.75319541 C37.545675,4.743708 37.6523848,4.76268283 37.7526273,4.60455923 C37.9628133,4.90499407 37.9434115,5.38885229 38.2894099,5.77467387 L38.2894099,5.24970352 C38.2829426,5.22440374 38.1406629,4.90499407 38.1406629,4.87969429 C38.1406629,4.47806035 38.2732417,4.82909474 38.4349232,4.40216102 L38.4349232,4.40216102 Z M39.214228,4.1333509 L39.4955538,4.1333509 C39.4729184,4.5065226 39.4729184,4.84174463 39.4955538,5.55962577 L39.2077607,5.55962577 C39.0848828,5.19910397 39.4082458,4.57293451 38.7712207,4.51601001 C39.0105093,4.17446304 38.9846403,4.32309922 39.214228,4.1333509 L39.214228,4.1333509 Z M49.9692805,3.92146528 C50.2829426,4.05745157 50.5610348,4.05745157 50.7970897,4.13651337 L50.7970897,4.52549743 C50.6936136,4.53498485 50.6451091,4.59507181 50.6127728,4.65199631 L50.6127728,5.36039004 C50.7970897,4.97773093 51.004042,4.67729609 50.9587712,4.13018843 C51.1301536,4.19660034 51.2562652,4.49071024 51.3338723,4.60455923 C51.3694422,4.54763473 51.3629749,4.43378574 51.3694422,4.27249967 L51.6992724,4.27249967 C51.6410671,4.57609698 51.6410671,4.83858216 51.6798707,5.08841745 C51.7542441,4.94294373 51.8189167,4.61720912 52.0194018,4.54447226 L52.5529507,4.54447226 C52.5561843,4.84806957 52.5561843,5.12004217 52.5335489,5.56911319 C52.5820534,5.44577678 52.6919968,5.18961655 52.7016977,4.96508104 C52.8601455,4.88601924 52.9442199,4.87969429 53.1188359,4.87969429 C53.3160873,4.87969429 53.5489086,5.17380419 53.5489086,5.25919093 C53.5489086,5.42996442 53.4616006,5.42047701 53.4227971,5.47423903 L53.4227971,5.70826196 C53.5553759,5.57860061 53.6814875,5.38885229 53.7752627,5.09157992 C53.9789814,5.15799183 54.4575586,5.36987745 54.4575586,5.56911319 C54.4575586,5.74304915 54.1729992,6.09408354 54.0921584,6.38819344 L53.4163298,6.38819344 C53.0962005,5.83792331 52.7016977,6.38819344 52.43654,5.55962577 C52.3815683,5.56911319 52.3427648,5.67031229 52.3362975,5.76518645 L51.6540016,5.76518645 C51.6410671,5.59441297 51.8447858,5.20542891 51.4793856,5.07893003 C51.502021,5.25919093 51.3629749,5.46475161 51.3403395,5.70193701 C51.1042846,5.52483858 50.7130154,5.35406509 50.2538399,5.42363948 C50.2409054,5.30979049 50.3023444,5.19594149 50.0824576,4.94610621 L50.0824576,5.35406509 C49.9886823,5.36039004 49.9046079,5.29081565 49.7526273,5.20542891 C49.8852061,4.76900777 49.956346,4.36421136 49.9692805,3.92146528 L49.9692805,3.92146528 Z M48.2069523,3.71906707 L48.5270816,3.71906707 C48.6176233,3.86770325 48.3459984,3.98787719 48.7049313,4.13018843 L48.7049313,3.71274213 C48.8181083,3.78864145 49.0412288,3.7949664 49.0412288,3.7949664 C49.0412288,4.08907629 48.9021827,4.36421136 48.9021827,4.53498485 C48.9021827,4.73422058 48.8439774,4.80695744 49.0541633,4.95559362 C49.0412288,4.45908552 49.3872272,4.32309922 49.047696,3.7949664 L49.5909458,3.7949664 C49.6006467,3.88351561 49.7332255,3.92779022 49.8787389,4.10488865 C49.6006467,4.06377652 49.4745352,4.14283832 49.3807599,4.41481091 L49.7396928,4.41481091 C49.6717866,4.52549743 49.5133387,4.60139676 49.3872272,4.65832125 L49.3872272,4.83541969 C49.4518998,4.88918171 49.5004042,4.87969429 49.6006467,4.90815654 C49.0412288,5.19594149 48.9183508,5.03149295 48.5594179,5.07893003 C48.5464834,4.95243115 48.7437348,4.71208328 48.3880356,4.53182237 L48.3880356,4.93978126 L48.061439,4.93978126 L48.061439,4.28831203 C48.061439,4.21873765 48.1940178,4.23455001 48.2069523,3.71906707 L48.2069523,3.71906707 Z M47.3597413,3.58624325 C47.6831043,3.64316774 47.8835893,3.70957965 48.0485044,3.72539201 C47.9676637,4.1333509 47.9159256,4.62985901 47.8350849,4.94294373 C47.2530315,4.9239689 47.56346,4.07010146 47.3597413,3.58624325 L47.3597413,3.58624325 Z M46.8617623,3.57359336 C47.301536,3.57359336 47.2853678,3.84872842 47.2853678,4.15865068 C47.2853678,4.33258664 47.2077607,4.58242193 47.12692,4.87336935 L46.5966047,4.87336935 C46.5254648,4.70259586 46.4381568,4.33258664 46.4381568,4.22822506 C46.4381568,3.82659112 46.3993533,3.57359336 46.8617623,3.57359336 L46.8617623,3.57359336 Z M42.4575586,3.57359336 C42.8132579,3.71274213 42.7938561,4.16813809 42.9587712,4.53498485 C42.9911075,4.28831203 42.9911075,3.95941494 42.9264349,3.58308077 L43.3306386,3.58308077 L43.3306386,4.61720912 L43.6831043,4.61720912 L43.6831043,4.87653182 L43.2045271,4.87653182 C43.0266774,4.87969429 43.2433306,4.743708 43.065481,4.743708 C42.8876314,4.743708 42.9587712,4.95243115 42.7809216,4.95243115 C42.6030719,4.95243115 42.6483428,4.80063249 42.6030719,4.743708 C42.4155214,4.87336935 42.130962,4.94610621 41.8205335,5.08525497 C41.6879547,4.90815654 41.668553,4.85123205 41.4292643,4.60455923 L41.4292643,5.0820925 C41.1026677,4.93029385 41.1317704,4.5855844 41.0573969,4.39899855 C40.87308,4.79114508 41.1188359,5.22440374 40.6014551,5.22440374 C40.2942603,5.22440374 40.5755861,5.15799183 40.1616815,4.94294373 L40.1616815,5.35406509 C40.0711399,5.36039004 39.9320938,5.42996442 39.8318513,5.42047701 C39.938561,4.87336935 39.7316087,4.76268283 39.5537591,4.13651337 C39.6410671,4.12386349 39.7801132,4.13018843 39.9514956,4.05745157 C39.9967664,4.36104889 39.9062247,4.61404665 40.2037187,4.88285677 C40.261924,4.48122282 39.9967664,3.91514033 40.5270816,3.91514033 C40.7146322,3.91514033 40.87308,4.06693899 41.0379951,4.26301225 L41.0379951,3.78864145 L41.3548909,3.78864145 C41.3839935,3.83291606 41.3031528,4.00368955 41.5941795,4.13018843 L41.5941795,3.71906707 C42.2053355,3.78864145 41.9725141,4.38002372 42.1180275,4.87969429 C42.2958771,4.45908552 41.9110752,3.79812887 42.4575586,3.57359336 L42.4575586,3.57359336 Z M45.6038804,3.45025695 L46.2603072,3.45025695 C46.2247373,3.55461853 46.2991108,3.67795493 46.2473727,4.87336935 L45.9531124,4.87336935 C45.8755053,4.64883384 46.1406629,4.46224799 45.7881973,4.25668731 L45.7881973,4.87020688 L45.4777688,4.87020688 L45.4777688,3.80761629 C45.4777688,3.80761629 45.5909458,3.84240348 45.6038804,3.45025695 L45.6038804,3.45025695 Z M44.6176233,3.44709448 L45.0994341,3.44709448 C45.1059014,3.54196864 45.2061439,3.57359336 45.3839935,3.58308077 L45.3839935,4.00368955 C45.3839935,4.17762551 45.2449475,3.91514033 45.2449475,4.08907629 C45.2449475,4.25984978 45.3839935,4.25984978 45.3839935,4.43378574 C45.3839935,4.60455923 45.3063864,4.72473317 45.2255457,4.87336935 L44.6176233,4.87336935 C44.6822959,4.56344709 44.6822959,4.23138753 44.6176233,3.44709448 L44.6176233,3.44709448 Z M25.7655618,1.51798656 L26.6580437,1.51798656 C26.9717057,2.02398208 27.3080032,2.13150613 27.3080032,2.61220187 C27.3080032,3.10238503 27.1430881,2.98853604 26.7970897,3.56726841 L25.7655618,3.56726841 L25.7655618,1.51798656 Z M22.9620049,1.51798656 L23.4987874,1.51798656 C23.5052546,2.06825669 23.4987874,2.767163 24.0097009,3.23204638 L24.0097009,1.52114903 L24.5529507,1.52114903 C24.5400162,1.91645803 24.8245756,2.04295691 25.0767987,2.54262749 L25.0767987,1.52114903 L25.5392078,1.52114903 L25.5392078,3.56726841 L25.0767987,3.56726841 C24.8439774,3.21623402 24.7113985,2.79878772 24.5303153,2.40347872 C24.4915117,2.71972592 24.4915117,3.12135986 24.5464834,3.56094347 L23.5181892,3.56094347 L23.5181892,3.21939649 L22.9296686,3.21939649 L22.9296686,3.56094347 L22.4640259,3.56094347 C22.6645109,2.77665042 22.7970897,2.1568059 22.9620049,1.51798656 L22.9620049,1.51798656 Z M16.5529507,1.03729082 L17.3742926,1.03729082 C17.7073565,1.7614969 17.807599,2.767163 18.4672595,3.44076953 L18.4672595,1.04045329 L19.2756669,1.04045329 L19.2756669,5.90433522 L18.454325,5.90433522 C18.2829426,4.83225721 17.6814875,4.17762551 17.4098626,3.22888391 C17.3872272,3.28897088 17.3904608,3.3996574 17.4357316,5.90117275 L16.5529507,5.90117275 L16.5529507,1.03729082 Z M12.1875505,5.90433522 L13.0153597,5.90433522 L13.0153597,1.04045329 L12.1875505,1.04045329 L12.1875505,5.90433522 Z M15.0687146,0.891817104 C15.7574778,0.891817104 15.2206952,1.02147846 16.0452708,1.17643958 L16.0452708,2.1915931 C15.4211803,2.19791804 15.5925627,1.85320859 15.1366209,1.85320859 C14.3346807,1.85320859 14.1535974,3.14349717 14.1535974,3.50718145 C14.1535974,4.01001449 14.2409054,5.08525497 15.004042,5.08525497 C15.1754244,5.08525497 15.2336297,4.95243115 15.3597413,4.89550665 L15.3597413,4.04480169 L14.8714632,4.04480169 L14.8714632,3.23837133 L16.1778496,3.23837133 L16.1778496,5.55013836 C15.6734034,5.84741073 15.4987874,6.04980893 14.9620049,6.04980893 C13.5780113,6.04980893 13.2352466,4.46541046 13.2352466,3.50718145 C13.2352466,2.45724074 13.930477,0.891817104 15.0687146,0.891817104 L15.0687146,0.891817104 Z M3.34680679,-1.0658141e-14 L7.29183508,-1.0658141e-14 C8.05820534,-1.0658141e-14 9.70088925,1.90697062 9.90137429,2.09671894 C9.95957963,2.45407827 10.1471302,3.13717222 10.279709,3.46290684 L10.279709,3.77282909 L8.53678254,3.77282909 C8.49797898,2.13783107 6.92643492,1.16695217 5.39369442,1.16695217 C4.07760711,1.16695217 2.34114794,1.8974832 2.34114794,3.3996574 C2.34114794,6.91000132 8.12611156,6.06562129 9.24494745,7.63420741 L9.24494745,7.22308605 L13.3742926,7.22308605 C13.5650768,7.2167611 13.3484236,7.08077481 13.519806,7.08077481 L20.9733226,7.08077481 C21.1511722,7.08077481 20.934519,6.94162604 21.1123686,6.94162604 L27.2627324,6.94162604 C31.6410671,3.27948346 37.1156023,1.66662274 42.6806791,0.891817104 L47.8027486,0.891817104 C50.4025869,0.891817104 55.9256265,2.65647648 57.4195635,3.37119515 L57.4195635,0.550270128 L59.2724333,0.550270128 C59.9838319,0.547107656 60.2198868,1.57174858 60.2198868,2.02714455 C60.2198868,3.05178548 59.851253,3.57359336 58.4381568,3.43444459 C58.3864188,3.49453156 58.392886,3.43444459 58.392886,3.60838055 C58.392886,3.94360258 60.1164107,4.63934642 60.2748585,4.88918171 L60.5141471,4.88918171 L60.5141471,0.556595072 L61.5650768,0.556595072 L61.5650768,5.37936487 C61.5650768,5.55013836 61.4810024,5.42047701 61.4260307,5.46158914 C61.8916734,5.78099881 62.392886,6.05613388 62.8714632,6.47358018 L82.7970897,6.47358018 C82.5189976,6.93213862 81.8884398,7.59625774 81.8884398,7.7701937 C81.8884398,8.0864409 82.7970897,9.06680722 82.7970897,10.1072605 C82.7970897,11.2172882 81.7493937,12.5328765 81.7493937,12.9629727 C81.7493937,13.098959 82.7097817,14.177362 82.8617623,14.6390829 L70.2085691,14.6390829 C70.0404204,14.6454078 70.2538399,14.7813941 70.0727567,14.7813941 L63.0105093,14.7813941 C58.3508488,18.1905389 52.5949879,19.9583608 46.7615198,20.6983792 L42.3637833,20.6983792 C42.1827001,20.6983792 42.3896524,20.5623929 42.21827,20.5623929 L40.9248181,20.5623929 C37.4939369,20.5623929 28.4882781,16.2108315 27.1883589,15.0565292 L8.31689572,15.1071287 C8.67582862,14.6580577 9.02506063,14.2437739 9.42279709,13.8453024 L9.42279709,13.614442 C8.9021827,14.2880485 7.62166532,14.6580577 6.80679062,15.0596917 L4.21018593,15.0596917 C2.71301536,15.0596917 0.155214228,12.9345105 0.155214228,11.3912241 L0.155214228,10.6670181 L1.96928052,10.6670181 C2.03071948,12.8997233 3.78334681,13.614442 5.64591754,13.614442 C6.1632983,13.614442 8.38480194,13.159046 8.38480194,12.3779154 C8.38480194,12.3526156 8.03880356,11.1730136 8.03880356,11.0338648 C8.03880356,10.7682172 8.52384802,9.37672948 8.52384802,9.31664251 C8.52384802,8.32046383 4.04203719,7.26103571 3.1301536,6.96060087 C2.50606306,6.7423903 1.91107518,6.27750692 1.30638642,5.8727105 C1.16087308,5.49321386 1.06063056,4.84174463 0.717865804,4.51601001 L0.717865804,2.77665042 C0.711398545,1.77098432 2.87793048,0.401633944 3.34680679,-1.0658141e-14 L3.34680679,-1.0658141e-14 Z M1.43896524,18.298063 C1.43896524,18.6554223 1.48423605,18.9115826 1.57154406,19.0538938 C1.66531932,19.196205 1.82376718,19.2689419 2.03071948,19.2689419 C2.26030719,19.2689419 2.41228779,19.1930426 2.50606306,19.0444064 C2.59337106,18.8957702 2.65157639,18.6459349 2.65157639,18.298063 C2.65157639,17.9407037 2.59337106,17.6877059 2.50606306,17.5453947 C2.40582053,17.4030834 2.24737268,17.3303466 2.01455133,17.3303466 C1.81729992,17.3303466 1.6523848,17.4062459 1.5650768,17.5485571 C1.48423605,17.6971933 1.43896524,17.9470286 1.43896524,18.298063 L1.43896524,18.298063 Z M2.03071948,20.2240084 C1.78496362,20.2240084 1.61034762,20.3188826 1.50687146,20.5054684 C1.41956346,20.6888918 1.35812449,21.0557386 1.35812449,21.6123336 C1.35812449,22.0550797 1.41956346,22.358677 1.50687146,22.526288 C1.62328213,22.6875741 1.78496362,22.7697984 2.03071948,22.7697984 C2.29911075,22.7697984 2.47372676,22.6844116 2.57073565,22.5073132 C2.67097817,22.3365397 2.71301536,22.0044802 2.71301536,21.5016471 C2.71301536,21.0272763 2.67097817,20.6952168 2.56426839,20.5086309 C2.46079224,20.3188826 2.28617623,20.2240084 2.03071948,20.2240084 L2.03071948,20.2240084 Z M1.08973323,19.7401502 C0.789005659,19.6484385 0.549717057,19.4713401 0.3912692,19.20253 C0.232821342,18.9400448 0.155214228,18.5953354 0.155214228,18.1620767 C0.155214228,17.5738569 0.320129345,17.1279483 0.637025061,16.8211886 C0.963621665,16.5144288 1.43896524,16.3626301 2.043654,16.3626301 C2.66451091,16.3626301 3.1301536,16.5175913 3.45351657,16.8338385 C3.78334681,17.1500857 3.93856103,17.6054816 3.93856103,18.2031888 C3.93856103,18.6174727 3.85772029,18.9558572 3.69280517,19.2056924 C3.52789006,19.4586902 3.28860146,19.6389511 2.95553759,19.7401502 C3.34680679,19.8128871 3.63136621,19.9963104 3.80598222,20.2809329 C3.98383185,20.5687179 4.07760711,20.9893267 4.07760711,21.5490842 C4.07760711,22.3238898 3.90945837,22.8931348 3.57316087,23.2599816 C3.2497979,23.6268283 2.7388844,23.8039267 2.02748585,23.8039267 C1.33225546,23.8039267 0.824575586,23.6331532 0.504446241,23.2789564 C0.168148747,22.9310845 0,22.3903018 0,21.6471208 C0,21.065226 0.0937752627,20.6288048 0.271624899,20.32837 C0.446240905,20.0247727 0.711398545,19.8286994 1.08973323,19.7401502 L1.08973323,19.7401502 Z M6.30234438,21.292924 C6.30234438,21.8526815 6.35731609,22.2385031 6.46079224,22.4503887 C6.56103476,22.6654368 6.74535166,22.7697984 6.99110752,22.7697984 C7.2497979,22.7697984 7.43088116,22.6780867 7.52789006,22.4915009 C7.62166532,22.304915 7.66693614,21.9127685 7.66693614,21.3118988 C7.66693614,20.7047042 7.62166532,20.3093952 7.52789006,20.1196469 C7.43088116,19.9425484 7.24333064,19.8476743 6.978173,19.8476743 C6.7388844,19.8476743 6.56103476,19.9520358 6.46079224,20.160759 C6.35731609,20.3726446 6.30234438,20.7489788 6.30234438,21.292924 L6.30234438,21.292924 Z M6.30234438,19.256292 C6.40905416,19.088681 6.5545675,18.9716695 6.72594988,18.8862828 C6.90056589,18.8040585 7.11721908,18.7661088 7.35004042,18.7661088 C7.912692,18.7661088 8.34276475,18.9526947 8.62085691,19.3258664 C8.89894907,19.7022006 9.03799515,20.2809329 9.03799515,21.065226 C9.03799515,22.0645671 8.87954729,22.7697984 8.56265158,23.1904072 C8.24575586,23.604691 7.70897332,23.8197391 6.978173,23.8197391 C6.58043654,23.8197391 6.24413905,23.7533272 5.98544867,23.6205034 C5.72675829,23.490842 5.50687146,23.2852813 5.32255457,23.0069838 C5.19644301,22.7856108 5.08973323,22.4598761 5.03152789,22.0266175 C4.98302344,21.5933588 4.94421989,20.9577019 4.94421989,20.1164844 C4.94421989,19.2752668 4.98302344,18.6364475 5.03152789,18.2000264 C5.08973323,17.7636052 5.18350849,17.4410331 5.30315279,17.225985 C5.47453517,16.9223877 5.70735651,16.7010146 5.99191593,16.5587034 C6.2829426,16.4227171 6.64187551,16.3531427 7.08488278,16.3531427 C7.66046888,16.3531427 8.10024252,16.489129 8.41713824,16.7547767 C8.72756669,17.0235868 8.89248181,17.4030834 8.89248181,17.8901041 L8.89248181,17.9976281 L7.60226354,17.9976281 C7.60226354,17.728818 7.55699272,17.5770194 7.45028294,17.4758203 C7.36297494,17.3809461 7.21099434,17.3303466 7.01697656,17.3303466 C6.74858529,17.3303466 6.57396928,17.4441955 6.46079224,17.6687311 C6.34438157,17.8901041 6.28940986,18.2822506 6.28940986,18.8420082 L6.30234438,19.0444064 L6.30234438,19.256292 Z" id="IUPAT-members-logo"></path>
                        </g>
                    </g>
                </g>
            </g>
        </g>
    </g>
</svg>