<?xml version="1.0" encoding="UTF-8"?>
<svg width="38px" height="38px" viewBox="0 0 38 38" version="1.1" xmlns="http://www.w3.org/2000/svg" xmlns:xlink="http://www.w3.org/1999/xlink">
    <!-- Generator: Sketch 46.2 (44496) - http://www.bohemiancoding.com/sketch -->
    <title>Phone Icon</title>
    <desc>Created with Sketch.</desc>
    <defs></defs>
    <g id="Mockups---Products/-Designs" stroke="none" stroke-width="1" fill="none" fill-rule="evenodd">
        <g id="Mobile-Menu" transform="translate(-28.000000, -22.000000)" fill="#252B33">
            <g id="Phone-Icon" transform="translate(21.000000, 19.000000)">
                <path d="M45,32.4066542 L45,34.1251522 C44.4838492,37.922078 40.7073367,40.9351778 36.0251256,40.9991441 C32.6715779,41.0451617 28.7132764,39.2271818 25.5226131,37.5621482 C16.884392,33.054337 8.87861307,23.3654454 7,13.3122321 L7,11.0209015 C8.12777889,6.6748201 9.84828141,2.9216205 15.4020101,3.00124424 C16.7266633,4.27885202 17.3119397,5.67885505 18.2663317,7.39296131 C18.9583518,8.63600819 20.8106131,10.9788938 20.7487437,12.1665668 C20.604191,14.9469056 16.1669749,15.3960064 15.9748744,17.7039492 C15.866603,19.0052341 17.6940402,21.3706511 18.4572864,22.4775547 C19.4282915,23.8857684 20.6074372,25.4032021 21.7035176,26.4873834 C22.9302111,27.7012158 28.2872563,32.2987707 30.4874372,32.0247658 C32.5321809,31.7702371 33.4499095,27.375274 35.8341709,27.2511602 C36.8324824,27.1994144 38.9767136,28.7407161 40.4170854,29.5424909 C42.2972261,30.5892471 44.0933467,31.6478419 45,32.4066542" id="Fill-1"></path>
            </g>
        </g>
    </g>
</svg>