<svg width="21" height="15" viewBox="0 0 21 15" xmlns="http://www.w3.org/2000/svg"><title>ICON email</title><path d="M2.53 1.797c-.164 0-.313.057-.432.166-.124.114-.19.258-.19.417 0 1.225.59 2.27 1.755 3.107 1.446 1.04 2.958 2.13 4.495 3.24l.386.297c.218.17.395.3.525.39.136.096.308.207.51.33.22.136.428.24.617.306.2.07.392.107.573.107h.022c.18 0 .373-.036.572-.107.188-.067.395-.17.616-.305.2-.122.372-.233.51-.33.13-.09.303-.218.527-.39l.095-.073c.16-.123.257-.2.295-.227 1.53-1.107 3.042-2.197 4.49-3.238.427-.308.826-.726 1.188-1.24.376-.536.567-1.037.567-1.49v-.25l-.005-.142c-.008-.165-.056-.26-.116-.31-.084-.22-.265-.237-.32-.237-.02 0-.04.002-.06.006l-.045-.023-.075-.003H2.53zM1.91 13.5c0 .16.064.303.188.416.12.11.268.166.433.166h16.5c.165 0 .315-.058.433-.167.124-.112.19-.256.19-.415V5.01l-.455.464c-.23.235-.48.453-.74.647-1.988 1.393-3.598 2.558-4.78 3.458-.374.288-.683.515-.92.677-.223.153-.532.31-.92.47-.372.152-.724.23-1.046.23h-.022c-.323 0-.675-.078-1.048-.23-.387-.16-.697-.317-.92-.47-.235-.16-.544-.39-.92-.676-1.17-.894-2.78-2.058-4.783-3.463-.257-.19-.506-.406-.737-.643l-.454-.466V13.5zm.62 1.38c-.428 0-.783-.135-1.086-.412-.3-.272-.444-.59-.444-.968V2.38c0-.38.145-.697.444-.97.303-.276.66-.41 1.087-.41h16.5c.428 0 .784.134 1.087.41.3.273.444.59.444.97V13.5c0 .38-.144.696-.443.968-.303.277-.658.412-1.087.412H2.53z" stroke-width=".2" stroke="#1E1E1E" fill="#1E1E1E" fill-rule="evenodd"/></svg>