<svg width="21" height="23" viewBox="0 0 21 23" xmlns="http://www.w3.org/2000/svg"><title>ICON fax</title><path d="M1.155 18.058c-.02 1.313.723 2.517 1.907 3.085.7.32 1.49.387 2.234.194V17.97c.002-.113-.09-.206-.203-.207H4.047c-.318.005-.58-.25-.586-.568v-6.492c0-.155.064-.303.174-.41.11-.11.26-.168.413-.167h1.046c.113 0 .205-.09.206-.203v-3.36c-.747-.193-1.535-.125-2.236.194-1.184.567-1.93 1.772-1.91 3.085v8.216zM0 9.842c-.02-1.765.99-3.38 2.584-4.135.96-.437 2.045-.524 3.063-.245.474.134.8.566.8 1.058v3.407c0 .75-.608 1.358-1.358 1.358h-.472v5.324h.478c.75 0 1.358.606 1.36 1.356v3.41c-.002.494-.332.927-.81 1.057-1.018.28-2.104.195-3.067-.244C.986 21.43-.02 19.82 0 18.055V9.842zM16.25 19.1h.747c.32 0 .577-.26.577-.578 0-.318-.258-.577-.577-.577h-.744c-.318 0-.577.26-.577.577 0 .32.26.578.577.578h-.002zm-6.433 0h.745c.32 0 .578-.26.578-.578 0-.318-.26-.577-.578-.577h-.745c-.32 0-.577.26-.577.577 0 .32.258.578.577.578zm3.218 0h.746c.32 0 .578-.26.578-.578 0-.318-.258-.577-.577-.577h-.745c-.32 0-.577.26-.577.577 0 .32.258.578.577.578zm3.216-2.49h.747c.32 0 .577-.26.577-.58 0-.317-.258-.576-.577-.576h-.744c-.318 0-.577.26-.577.577 0 .32.26.58.577.58h-.002zm-6.433 0h.745c.32 0 .578-.26.578-.58 0-.317-.26-.576-.578-.576h-.745c-.32 0-.577.26-.577.577 0 .32.258.58.577.58zm3.218 0h.746c.32 0 .578-.26.578-.58 0-.317-.258-.576-.577-.576h-.745c-.32 0-.577.26-.577.577 0 .32.258.58.577.58zm3.216-2.51h.747c.32 0 .577-.26.577-.578 0-.32-.258-.577-.577-.577h-.744c-.318 0-.577.258-.577.577 0 .32.26.577.577.577h-.002zm-6.433 0h.745c.32 0 .578-.26.578-.578 0-.32-.26-.577-.578-.577h-.745c-.32 0-.577.258-.577.577 0 .32.258.577.577.577zm3.218 0h.746c.32 0 .578-.26.578-.578 0-.32-.258-.577-.577-.577h-.745c-.32 0-.577.258-.577.577 0 .32.258.577.577.577zm2.103-9.714h2.355l-2.355-2.352v2.352zM8.328 0h6.168c.154 0 .3.06.41.17l4.453 4.452c.107.108.167.256.167.41v2.277c0 .318-.258.576-.577.576-.32 0-.577-.258-.577-.577V5.542h-3.4c-.545 0-.988-.444-.99-.99v-3.4H8.906V7.31c0 .318-.258.576-.577.576-.32 0-.577-.258-.577-.577V.576c0-.32.26-.577.578-.577zm-.31 21.443h10.096c.956 0 1.73-.776 1.732-1.732v-9.104H8.018c-.32 0-.577-.258-.577-.577 0-.32.26-.578.578-.578H19.96c.575 0 1.04.465 1.04 1.04v9.233c-.01 1.588-1.298 2.87-2.886 2.872H8.018c-.32 0-.577-.258-.577-.577 0-.32.26-.577.578-.577z" fill="#1E1E1E" fill-rule="evenodd"/></svg>