<svg width="46" height="52" viewBox="0 0 46 52" xmlns="http://www.w3.org/2000/svg"><title>my quote icon</title><defs><path id="a" d="M.007 54.993h42.166V0H.007z"/></defs><g transform="translate(2 -8)" fill="none" fill-rule="evenodd"><path fill="#063342" d="M14.058 18.88h23.98v-1.64h-23.98M14.058 29.552h23.98V27.91h-23.98M14.058 39.403h23.98V37.76h-23.98M14.058 49.254h23.98v-1.642h-23.98M21.5 15.597h1.654v-1.642H21.5M17.365 15.597h1.654v-1.642h-1.655M14.058 15.597h1.654v-1.642h-1.654"/><path stroke="#063342" stroke-width="2" d="M5 16h5v5H5zM5 26h5v5H5zM5 36h5v5H5zM5 46h5v5H5z"/><rect stroke="#063342" stroke-width="3" x="-.5" y="9.5" width="43" height="49" rx="4"/></g></svg>