<svg width="21" height="21" viewBox="0 0 21 21" xmlns="http://www.w3.org/2000/svg"><title>ICON phone</title><g fill="none" fill-rule="evenodd"><path d="M18.237 18.386l-4.114-4.114 1.07-1.07 4.114 4.114-1.07 1.07zm-1.465.543c-.906.905-2.507 1.055-4.51.42-2.14-.68-4.43-2.16-6.443-4.174-2.014-2.013-3.497-4.302-4.176-6.444-.634-2.002-.484-3.604.422-4.51l.113-.113L5.37 7.3l-.293.294h-.002c-1.213 1.215.245 3.943 2.312 6.01 1.548 1.548 3.465 2.754 4.84 2.754.464 0 .865-.137 1.17-.442l.294-.293 3.192 3.192-.114.114zM3.68 1.687l4.113 4.114-1.07 1.07L2.61 2.757l1.07-1.07zM16.083 12.31c-.49-.49-1.29-.49-1.78 0l-1.07 1.07c-.336.336-.442.815-.32 1.24l-.403.405c-.286.287-2.07-.153-4.23-2.31-2.157-2.158-2.597-3.943-2.31-4.23l.404-.404c.114.033.23.05.35.05.322 0 .644-.123.89-.368l1.07-1.07c.49-.49.49-1.29 0-1.78L4.568.796C4.33.56 4.014.427 3.68.427c-.337 0-.654.132-.892.37l-1.07 1.07c-.335.335-.44.814-.318 1.24 0 0-.342.345-.36.367C-.096 4.74-.31 6.73.445 9.112c.738 2.332 2.33 4.8 4.484 6.954 2.153 2.154 4.623 3.746 6.955 4.485.936.298 1.812.445 2.608.445 1.306 0 2.393-.396 3.173-1.175l.224-.225c.113.033.23.05.35.05.337 0 .653-.13.89-.37l1.07-1.07c.492-.49.492-1.29 0-1.78l-4.113-4.114z" fill="#1E1E1E"/><path d="M16.54 9.535c0 .348.283.63.63.63.35 0 .63-.282.63-.63 0-1.694-.66-3.286-1.856-4.484-1.198-1.196-2.79-1.856-4.484-1.856-.348 0-.63.282-.63.63 0 .347.282.63.63.63 1.357 0 2.633.528 3.593 1.488s1.49 2.236 1.488 3.593" fill="#0A0B09"/><path d="M18.202 2.793C16.402.993 14.007 0 11.46 0c-.348 0-.63.282-.63.63 0 .347.282.63.63.63 2.21 0 4.288.86 5.852 2.423 1.563 1.563 2.424 3.642 2.423 5.852 0 .348.282.63.63.63.348 0 .63-.282.63-.63 0-2.547-.992-4.94-2.793-6.742" fill="#000"/></g></svg>