<svg width="30" height="30" viewBox="0 0 30 30" xmlns="http://www.w3.org/2000/svg" xmlns:xlink="http://www.w3.org/1999/xlink"><title>Icon/Search Copy</title><defs><path d="M32.56 30.44l-8.09-8.09C26.106 20.256 27 17.698 27 15c0-3.206-1.25-6.22-3.516-8.484C21.22 4.248 18.204 3 15 3c-3.206 0-6.22 1.248-8.484 3.516C4.25 8.78 3 11.794 3 15c0 3.206 1.25 6.22 3.516 8.484C8.78 25.752 11.794 27 15 27c2.698 0 5.256-.894 7.35-2.53l8.09 8.09 2.12-2.12zM15 24c-2.405 0-4.664-.936-6.363-2.636C6.937 19.665 6 17.404 6 15c0-2.403.936-4.664 2.637-6.363C10.337 6.937 12.595 6 15 6c2.404 0 4.663.936 6.363 2.637C23.063 10.337 24 12.597 24 15c0 2.404-.936 4.665-2.637 6.364C19.663 23.064 17.403 24 15 24z" id="a"/></defs><g fill="none" fill-rule="evenodd"><g transform="translate(-3 -3)"><path d="M0 0h36v36H0z"/><mask id="b" fill="#fff"><use xlink:href="#a"/></mask><path d="M0 0h36v36H0z" mask="url(#b)" fill="#FFF"/></g><path d="M13.04 12.983v3.75h-2.08v-3.75H7.25V10.99h3.71V7.23h2.08v3.76h3.71v1.993" fill="#FFF"/></g></svg>