<?xml version="1.0" encoding="UTF-8"?>
<svg width="176px" height="176px" viewBox="0 0 176 176" version="1.1" xmlns="http://www.w3.org/2000/svg" xmlns:xlink="http://www.w3.org/1999/xlink">
    <!-- Generator: Sketch 45.2 (43514) - http://www.bohemiancoding.com/sketch -->
    <title>ICON Polos</title>
    <desc>Created with Sketch.</desc>
    <defs>
        <polygon id="path-1" points="0 175.163 175.164 175.163 175.164 0 0 0"></polygon>
    </defs>
    <g id="Mockups---Products/-Designs" stroke="none" stroke-width="1" fill="none" fill-rule="evenodd">
        <g id="Home" transform="translate(-1003.000000, -1088.000000)">
            <g id="BODY" transform="translate(0.000000, 228.000000)">
                <g id="product-icons" transform="translate(76.000000, 859.000000)">
                    <g id="ICON-Polos" transform="translate(927.000000, 1.000000)">
                        <path d="M0,87.581 C0,39.212 39.213,0 87.582,0 C135.951,0 175.164,39.212 175.164,87.581 C175.164,135.951 135.951,175.163 87.582,175.163 C39.213,175.163 0,135.951 0,87.581 Z" id="Fill-1" fill="#063342"></path>
                        <path d="M119.0195,148.5263 L119.0195,71.5023 L131.2325,78.2163 L143.7485,57.1543 L116.8085,37.5493 L100.0075,31.8193 C96.6775,33.0833 92.1585,33.9553 87.5805,33.9553 C83.0075,33.9553 78.4845,33.0833 75.1565,31.8193 L57.4145,37.5493 L31.4155,57.1543 L43.9315,78.2163 L56.1385,71.5023 L56.1385,148.5263 L119.0195,148.5263 Z" id="Fill-3" fill="#063342"></path>
                        <path d="M57.5966,147.0683 L117.5616,147.0683 L117.5616,71.5023 C117.5616,70.9863 117.8336,70.5093 118.2776,70.2473 C118.7206,69.9863 119.2706,69.9763 119.7216,70.2243 L130.6996,76.2603 L141.8166,57.5513 L116.1286,38.8573 L100.0266,33.3653 C96.3746,34.6703 91.8726,35.4133 87.5796,35.4133 C83.2826,35.4133 78.7776,34.6683 75.1246,33.3613 L58.0956,38.8603 L33.3356,57.5323 L44.4646,76.2593 L55.4366,70.2243 C55.8886,69.9763 56.4386,69.9863 56.8806,70.2473 C57.3246,70.5093 57.5966,70.9863 57.5966,71.5023 L57.5966,147.0683 Z M119.0196,149.9843 L56.1386,149.9843 C55.3336,149.9843 54.6806,149.3313 54.6806,148.5263 L54.6806,73.9673 L44.6336,79.4943 C43.9506,79.8723 43.0806,79.6373 42.6786,78.9613 L30.1626,57.8983 C29.7836,57.2593 29.9456,56.4373 30.5376,55.9903 L56.5356,36.3843 C56.6656,36.2873 56.8116,36.2123 56.9656,36.1623 L74.7076,30.4323 C75.0246,30.3293 75.3626,30.3383 75.6736,30.4573 C79.0896,31.7543 83.4286,32.4973 87.5796,32.4973 C91.7316,32.4973 96.0726,31.7543 99.4906,30.4573 C99.8086,30.3363 100.1566,30.3313 100.4786,30.4393 L117.2796,36.1693 C117.4176,36.2163 117.5476,36.2843 117.6656,36.3703 L144.6056,55.9753 C145.2136,56.4193 145.3856,57.2523 145.0006,57.8983 L132.4856,78.9613 C132.0836,79.6373 131.2196,79.8723 130.5306,79.4943 L120.4776,73.9663 L120.4776,148.5263 C120.4776,149.3313 119.8246,149.9843 119.0196,149.9843 L119.0196,149.9843 Z" id="Fill-5" fill="#C8C8C8"></path>
                        <polygon id="Fill-7" fill="#C8C8C8" points="46.8105 76.6494 34.2245 54.9494 35.2325 54.3634 47.8185 76.0634"></polygon>
                        <polygon id="Fill-9" fill="#C8C8C8" points="128.3505 76.6581 127.3525 76.0541 140.4505 54.3541 141.4485 54.9581"></polygon>
                        <mask id="mask-2" fill="white">
                            <use xlink:href="#path-1"></use>
                        </mask>
                        <g id="Clip-12"></g>
                        <polygon id="Fill-11" fill="#C8C8C8" mask="url(#mask-2)" points="56.139 145.037 119.02 145.037 119.02 143.871 56.139 143.871"></polygon>
                        <path d="M96.792,79.4296 L104.266,82.9956 L111.737,79.4296 L111.737,64.6506 L96.792,64.6506 L96.792,79.4296 Z M104.266,84.2256 C104.18,84.2256 104.094,84.2066 104.015,84.1686 L95.958,80.3246 C95.755,80.2276 95.626,80.0226 95.626,79.7976 L95.626,64.0676 C95.626,63.7446 95.887,63.4846 96.209,63.4846 L112.32,63.4846 C112.642,63.4846 112.903,63.7446 112.903,64.0676 L112.903,79.7976 C112.903,80.0226 112.774,80.2276 112.571,80.3246 L104.517,84.1686 C104.437,84.2066 104.351,84.2256 104.266,84.2256 L104.266,84.2256 Z" id="Fill-13" fill="#C8C8C8" mask="url(#mask-2)"></path>
                        <polygon id="Fill-14" fill="#063342" mask="url(#mask-2)" points="72.7402 25.3779 67.4722 34.2079 72.7402 43.0829 77.0172 35.0439 87.5802 48.8119 98.1462 35.0439 102.4242 43.0829 107.6932 34.2079 102.4242 25.3779"></polygon>
                        <path d="M77.0175,33.5859 C77.4685,33.5859 77.8965,33.7959 78.1735,34.1559 L87.5805,46.4169 L96.9905,34.1559 C97.2925,33.7629 97.7755,33.5469 98.2665,33.5919 C98.7605,33.6329 99.2005,33.9219 99.4335,34.3589 L102.4935,40.1099 L105.9975,34.2099 L101.5965,26.8359 L73.5685,26.8359 L69.1685,34.2099 L72.6705,40.1099 L75.7305,34.3589 C75.9635,33.9219 76.4035,33.6319 76.8975,33.5919 C76.9375,33.5879 76.9775,33.5859 77.0175,33.5859 M87.5805,50.2699 L87.5805,50.2699 C87.1265,50.2699 86.6995,50.0589 86.4235,49.6989 L77.2405,37.7289 L74.0275,43.7679 C73.7795,44.2319 73.3005,44.5279 72.7745,44.5399 C72.7625,44.5399 72.7505,44.5409 72.7405,44.5409 C72.2265,44.5409 71.7495,44.2709 71.4865,43.8269 L66.2185,34.9519 C65.9465,34.4919 65.9475,33.9199 66.2205,33.4609 L71.4885,24.6309 C71.7505,24.1909 72.2265,23.9199 72.7405,23.9199 L102.4235,23.9199 C102.9375,23.9199 103.4125,24.1909 103.6755,24.6309 L108.9455,33.4609 C109.2185,33.9199 109.2195,34.4919 108.9465,34.9519 L103.6765,43.8269 C103.4075,44.2799 102.9055,44.5489 102.3895,44.5399 C101.8635,44.5279 101.3845,44.2319 101.1365,43.7679 L97.9235,37.7289 L88.7365,49.6989 C88.4605,50.0589 88.0335,50.2699 87.5805,50.2699" id="Fill-15" fill="#C8C8C8" mask="url(#mask-2)"></path>
                        <path d="M98.1464,35.0439 L100.8944,30.0839" id="Fill-16" fill="#063342" mask="url(#mask-2)"></path>
                        <path d="M98.1455,36.5019 C97.9065,36.5019 97.6635,36.4429 97.4405,36.3189 C96.7365,35.9289 96.4815,35.0419 96.8715,34.3379 L99.6195,29.3779 C100.0105,28.6729 100.8985,28.4179 101.6005,28.8089 C102.3045,29.1989 102.5595,30.0859 102.1695,30.7899 L99.4215,35.7499 C99.1555,36.2309 98.6585,36.5019 98.1455,36.5019" id="Fill-17" fill="#C8C8C8" mask="url(#mask-2)"></path>
                        <path d="M77.0175,35.0439 L74.2675,30.0839" id="Fill-18" fill="#063342" mask="url(#mask-2)"></path>
                        <path d="M77.0185,36.5019 C76.5055,36.5019 76.0085,36.2309 75.7435,35.7509 L72.9935,30.7909 C72.6025,30.0869 72.8565,29.1989 73.5605,28.8099 C74.2665,28.4199 75.1525,28.6739 75.5415,29.3769 L78.2915,34.3369 C78.6825,35.0409 78.4285,35.9289 77.7245,36.3179 C77.4995,36.4419 77.2575,36.5019 77.0185,36.5019" id="Fill-19" fill="#C8C8C8" mask="url(#mask-2)"></path>
                        <path d="M99.5214,33.1474 L75.6424,33.1474 C75.3204,33.1474 75.0594,32.8864 75.0594,32.5644 C75.0594,32.2424 75.3204,31.9814 75.6424,31.9814 L99.5214,31.9814 C99.8434,31.9814 100.1044,32.2424 100.1044,32.5644 C100.1044,32.8864 99.8434,33.1474 99.5214,33.1474" id="Fill-20" fill="#C8C8C8" mask="url(#mask-2)"></path>
                        <path d="M87.58,53.9013 C87.58,53.1693 88.174,52.5763 88.904,52.5763 C89.637,52.5763 90.228,53.1693 90.228,53.9013 C90.228,54.6313 89.637,55.2233 88.904,55.2233 C88.174,55.2233 87.58,54.6313 87.58,53.9013" id="Fill-21" fill="#C8C8C8" mask="url(#mask-2)"></path>
                        <path d="M87.58,65.5058 C87.58,64.7758 88.174,64.1818 88.904,64.1818 C89.637,64.1818 90.228,64.7758 90.228,65.5058 C90.228,66.2368 89.637,66.8288 88.904,66.8288 C88.174,66.8288 87.58,66.2368 87.58,65.5058" id="Fill-22" fill="#C8C8C8" mask="url(#mask-2)"></path>
                        <path d="M85.1738,70.1621 C84.3688,70.1621 83.7158,69.5091 83.7158,68.7041 L83.7158,52.5261 C83.7158,52.2451 83.7978,51.9701 83.9498,51.7341 L86.3568,48.0191 C86.7948,47.3431 87.6988,47.1521 88.3718,47.5881 C89.0478,48.0251 89.2408,48.9291 88.8038,49.6031 L86.6318,52.9571 L86.6318,68.7041 C86.6318,69.5091 85.9788,70.1621 85.1738,70.1621" id="Fill-23" fill="#C8C8C8" mask="url(#mask-2)"></path>
                    </g>
                </g>
            </g>
        </g>
    </g>
</svg>