<?xml version="1.0" encoding="UTF-8"?>
<svg width="176px" height="176px" viewBox="0 0 176 176" version="1.1" xmlns="http://www.w3.org/2000/svg" xmlns:xlink="http://www.w3.org/1999/xlink">
    <!-- Generator: Sketch 45.2 (43514) - http://www.bohemiancoding.com/sketch -->
    <title>ICON tshirt</title>
    <desc>Created with Sketch.</desc>
    <defs>
        <polygon id="path-1" points="0 175.163 175.164 175.163 175.164 0 0 0"></polygon>
    </defs>
    <g id="Mockups---Products/-Designs" stroke="none" stroke-width="1" fill="none" fill-rule="evenodd">
        <g id="Home" transform="translate(-76.000000, -1088.000000)">
            <g id="BODY" transform="translate(0.000000, 228.000000)">
                <g id="product-icons" transform="translate(76.000000, 859.000000)">
                    <g id="ICON-tshirt" transform="translate(0.000000, 1.000000)">
                        <path d="M0,87.581 C0,39.212 39.213,0 87.582,0 C135.951,0 175.164,39.212 175.164,87.581 C175.164,135.951 135.951,175.163 87.582,175.163 C39.213,175.163 0,135.951 0,87.581 Z" id="Fill-1" fill="#063342"></path>
                        <path d="M119.0547,147.0771 L119.0547,69.9731 L131.2777,76.6951 L143.8047,55.6131 L116.8377,35.9891 L100.0217,30.2511 C96.6877,31.5141 92.1617,32.3891 87.5817,32.3891 C83.0017,32.3891 78.4747,31.5141 75.1427,30.2511 L57.3807,35.9891 L31.3597,55.6131 L43.8867,76.6951 L56.1097,69.9731 L56.1097,147.0771 L119.0547,147.0771 Z" id="Fill-3" fill="#063342"></path>
                        <path d="M57.5674,145.6191 L117.5964,145.6191 L117.5964,69.9731 C117.5964,69.4581 117.8694,68.9811 118.3124,68.7191 C118.7564,68.4581 119.3054,68.4481 119.7564,68.6961 L130.7444,74.7391 L141.8734,56.0111 L116.1584,37.2981 L100.0404,31.7971 C96.3804,33.1031 91.8744,33.8481 87.5824,33.8481 C83.2834,33.8481 78.7724,33.1011 75.1114,31.7931 L58.0624,37.3011 L33.2794,55.9911 L44.4204,74.7391 L55.4074,68.6961 C55.8594,68.4481 56.4094,68.4581 56.8514,68.7191 C57.2954,68.9811 57.5674,69.4581 57.5674,69.9731 L57.5674,145.6191 Z M119.0544,148.5351 L56.1094,148.5351 C55.3044,148.5351 54.6514,147.8821 54.6514,147.0771 L54.6514,72.4381 L44.5884,77.9731 C43.9024,78.3501 43.0364,78.1171 42.6334,77.4391 L30.1064,56.3571 C29.7264,55.7191 29.8884,54.8961 30.4814,54.4491 L56.5034,34.8251 C56.6334,34.7271 56.7784,34.6521 56.9324,34.6021 L74.6944,28.8641 C75.0084,28.7611 75.3494,28.7711 75.6594,28.8871 C79.0854,30.1871 83.4294,30.9311 87.5824,30.9311 C91.7314,30.9311 96.0774,30.1871 99.5054,28.8871 C99.8234,28.7681 100.1744,28.7621 100.4924,28.8711 L117.3084,34.6091 C117.4474,34.6571 117.5774,34.7241 117.6954,34.8101 L144.6624,54.4341 C145.2704,54.8781 145.4424,55.7111 145.0574,56.3571 L132.5304,77.4391 C132.1294,78.1171 131.2644,78.3501 130.5754,77.9731 L120.5124,72.4381 L120.5124,147.0771 C120.5124,147.8821 119.8594,148.5351 119.0544,148.5351 L119.0544,148.5351 Z" id="Fill-5" fill="#C8C8C8"></path>
                        <path d="M87.5821,46.1718 C78.3941,46.1718 73.5871,40.8248 73.2911,30.2818 L76.2051,30.1998 C76.4581,39.2298 79.9671,43.2558 87.5821,43.2558 C95.1951,43.2558 98.7041,39.2298 98.9591,30.1998 L101.8731,30.2818 C101.5751,40.8248 96.7681,46.1718 87.5821,46.1718" id="Fill-7" fill="#C8C8C8"></path>
                        <path d="M87.5821,48.8613 C81.0811,48.8613 76.3081,46.5603 73.3961,42.0213 C70.8021,37.9773 70.5241,33.3523 70.5261,31.5523 L71.6921,31.5523 C71.6911,33.2513 71.9501,37.6083 74.3781,41.3923 C77.0611,45.5743 81.5041,47.6953 87.5821,47.6953 C93.6601,47.6953 98.1021,45.5743 100.7861,41.3923 C103.2141,37.6073 103.4731,33.2513 103.4721,31.5523 L104.6381,31.5523 C104.6401,33.3523 104.3621,37.9773 101.7661,42.0213 C98.8551,46.5603 94.0831,48.8613 87.5821,48.8613" id="Fill-9" fill="#C8C8C8"></path>
                        <path d="M87.5821,36.5761 C83.0561,36.5761 77.7701,35.2821 74.7751,34.0791 L75.2091,32.9971 C78.1031,34.1591 83.2101,35.4101 87.5821,35.4101 C91.9541,35.4101 97.0611,34.1591 99.9551,32.9971 L100.3891,34.0791 C97.3931,35.2821 92.1081,36.5761 87.5821,36.5761" id="Fill-11" fill="#C8C8C8"></path>
                        <polygon id="Fill-13" fill="#C8C8C8" points="46.7676 75.1269 34.1696 53.4039 35.1776 52.8179 47.7756 74.5409"></polygon>
                        <polygon id="Fill-15" fill="#C8C8C8" points="128.3897 75.1357 127.3917 74.5317 140.5047 52.8097 141.5027 53.4127"></polygon>
                        <mask id="mask-2" fill="white">
                            <use xlink:href="#path-1"></use>
                        </mask>
                        <g id="Clip-18"></g>
                        <polygon id="Fill-17" fill="#C8C8C8" mask="url(#mask-2)" points="56.11 143.586 119.055 143.586 119.055 142.42 56.11 142.42"></polygon>
                    </g>
                </g>
            </g>
        </g>
    </g>
</svg>