<?xml version="1.0" encoding="UTF-8"?>
<svg width="176px" height="176px" viewBox="0 0 176 176" version="1.1" xmlns="http://www.w3.org/2000/svg" xmlns:xlink="http://www.w3.org/1999/xlink">
    <!-- Generator: Sketch 45.2 (43514) - http://www.bohemiancoding.com/sketch -->
    <title>ICON sticker</title>
    <desc>Created with Sketch.</desc>
    <defs>
        <path d="M6.373,0.116 C2.916,0.116 0.113,2.919 0.113,6.377 L0.113,6.377 L0.113,68.462 C0.113,71.92 2.916,74.721 6.373,74.721 L6.373,74.721 L82.188,74.721 L119.051,38.792 L119.051,6.377 C119.051,2.919 116.248,0.116 112.791,0.116 L112.791,0.116 L6.373,0.116 Z" id="path-1"></path>
    </defs>
    <g id="Mockups---Products/-Designs" stroke="none" stroke-width="1" fill="none" fill-rule="evenodd">
        <g id="Home" transform="translate(-447.000000, -1088.000000)">
            <g id="BODY" transform="translate(0.000000, 228.000000)">
                <g id="product-icons" transform="translate(76.000000, 859.000000)">
                    <g id="ICON-sticker" transform="translate(371.000000, 0.000000)">
                        <g id="Group-5" transform="translate(0.000000, 0.163000)" fill="#063342">
                            <path d="M0,88.418 C0,40.049 39.213,0.837 87.582,0.837 C135.951,0.837 175.164,40.049 175.164,88.418 C175.164,136.788 135.951,176 87.582,176 C39.213,176 0,136.788 0,88.418" id="Fill-1"></path>
                            <path d="M84.2774,51.5733 L34.3734,51.5733 C33.0424,51.5743 31.8514,52.1093 30.9774,52.9803 C30.1064,53.8543 29.5714,55.0463 29.5714,56.3773 L29.5714,90.1913 L84.2774,90.1913 L84.2774,84.6093 L84.2774,79.0283 L84.2774,73.4483 L84.2774,67.8663 L84.2774,62.2853 L84.2774,56.7063 L84.2774,51.5733 M74.5804,59.5473 L75.3634,57.1373 L73.3124,55.6483 L75.8454,55.6483 L76.6314,53.2383 L77.4144,55.6483 L79.9454,55.6483 L77.8964,57.1373 L78.6794,59.5473 L76.6314,58.0573 L74.5804,59.5473 M64.4594,59.5473 L65.2404,57.1373 L63.1914,55.6483 L65.7264,55.6483 L66.5094,53.2383 L67.2934,55.6483 L69.8284,55.6483 L67.7754,57.1373 L68.5604,59.5473 L66.5094,58.0573 L64.4594,59.5473 M54.4274,59.5473 L55.2114,57.1373 L53.1624,55.6483 L55.6954,55.6483 L56.4784,53.2383 L57.2594,55.6483 L59.7954,55.6483 L57.7464,57.1373 L58.5294,59.5473 L56.4784,58.0573 L54.4274,59.5473 M44.3984,59.5473 L45.1814,57.1373 L43.1314,55.6483 L45.6644,55.6483 L46.4474,53.2383 L47.2324,55.6483 L49.7654,55.6483 L47.7164,57.1373 L48.4984,59.5473 L46.4474,58.0573 L44.3984,59.5473 M34.3674,59.5473 L35.1504,57.1373 L33.0994,55.6483 L35.6344,55.6483 L36.4164,53.2383 L37.1994,55.6483 L39.7364,55.6483 L37.6834,57.1373 L38.4664,59.5473 L36.4164,58.0573 L34.3674,59.5473 M69.0954,66.4913 L69.8774,64.0833 L67.8284,62.5923 L70.3634,62.5923 L71.1464,60.1813 L71.9274,62.5923 L74.4634,62.5923 L72.4124,64.0833 L73.1954,66.4913 L71.1464,65.0033 L69.0954,66.4913 M58.9744,66.4913 L59.7574,64.0833 L57.7074,62.5923 L60.2424,62.5923 L61.0254,60.1813 L61.8084,62.5923 L64.3414,62.5923 L62.2934,64.0833 L63.0764,66.4913 L61.0254,65.0033 L58.9744,66.4913 M48.9434,66.4913 L49.7284,64.0833 L47.6774,62.5923 L50.2114,62.5923 L50.9944,60.1813 L51.7794,62.5923 L54.3124,62.5923 L52.2614,64.0833 L53.0434,66.4913 L50.9944,65.0033 L48.9434,66.4913 M38.9144,66.4913 L39.6974,64.0833 L37.6464,62.5923 L40.1794,62.5923 L40.9634,60.1813 L41.7484,62.5923 L44.2794,62.5923 L42.2304,64.0833 L43.0134,66.4913 L40.9634,65.0033 L38.9144,66.4913 M74.5804,73.7233 L75.3634,71.3133 L73.3124,69.8253 L75.8454,69.8253 L76.6314,67.4143 L77.4144,69.8253 L79.9454,69.8253 L77.8964,71.3133 L78.6794,73.7233 L76.6314,72.2333 L74.5804,73.7233 M64.4594,73.7233 L65.2404,71.3133 L63.1914,69.8253 L65.7264,69.8253 L66.5094,67.4143 L67.2934,69.8253 L69.8284,69.8253 L67.7754,71.3133 L68.5604,73.7233 L66.5094,72.2333 L64.4594,73.7233 M54.4274,73.7233 L55.2114,71.3133 L53.1624,69.8253 L55.6954,69.8253 L56.4784,67.4143 L57.2594,69.8253 L59.7954,69.8253 L57.7464,71.3133 L58.5294,73.7233 L56.4784,72.2333 L54.4274,73.7233 M44.3984,73.7233 L45.1814,71.3133 L43.1314,69.8253 L45.6644,69.8253 L46.4474,67.4143 L47.2324,69.8253 L49.7654,69.8253 L47.7164,71.3133 L48.4984,73.7233 L46.4474,72.2333 L44.3984,73.7233 M34.3674,73.7233 L35.1504,71.3133 L33.0994,69.8253 L35.6344,69.8253 L36.4164,67.4143 L37.1994,69.8253 L39.7364,69.8253 L37.6834,71.3133 L38.4664,73.7233 L36.4164,72.2333 L34.3674,73.7233 M69.0954,80.1243 L69.8774,77.7133 L67.8284,76.2243 L70.3634,76.2243 L71.1464,73.8133 L71.9274,76.2243 L74.4634,76.2243 L72.4124,77.7133 L73.1954,80.1243 L71.1464,78.6333 L69.0954,80.1243 M58.9744,80.1243 L59.7574,77.7133 L57.7074,76.2243 L60.2424,76.2243 L61.0254,73.8133 L61.8084,76.2243 L64.3414,76.2243 L62.2934,77.7133 L63.0764,80.1243 L61.0254,78.6333 L58.9744,80.1243 M48.9434,80.1243 L49.7284,77.7133 L47.6774,76.2243 L50.2114,76.2243 L50.9944,73.8133 L51.7794,76.2243 L54.3124,76.2243 L52.2614,77.7133 L53.0434,80.1243 L50.9944,78.6333 L48.9434,80.1243 M38.9144,80.1243 L39.6974,77.7133 L37.6464,76.2243 L40.1794,76.2243 L40.9634,73.8133 L41.7484,76.2243 L44.2794,76.2243 L42.2304,77.7133 L43.0134,80.1243 L40.9634,78.6333 L38.9144,80.1243 M74.5804,87.3543 L75.3634,84.9453 L73.3124,83.4573 L75.8454,83.4573 L76.6314,81.0453 L77.4144,83.4573 L79.9454,83.4573 L77.8964,84.9453 L78.6794,87.3543 L76.6314,85.8653 L74.5804,87.3543 M64.4594,87.3543 L65.2404,84.9453 L63.1914,83.4573 L65.7264,83.4573 L66.5094,81.0453 L67.2934,83.4573 L69.8284,83.4573 L67.7754,84.9453 L68.5604,87.3543 L66.5094,85.8653 L64.4594,87.3543 M54.4274,87.3543 L55.2114,84.9453 L53.1624,83.4573 L55.6954,83.4573 L56.4784,81.0453 L57.2594,83.4573 L59.7954,83.4573 L57.7464,84.9453 L58.5294,87.3543 L56.4784,85.8653 L54.4274,87.3543 M44.3984,87.3543 L45.1814,84.9453 L43.1314,83.4573 L45.6644,83.4573 L46.4474,81.0453 L47.2324,83.4573 L49.7654,83.4573 L47.7164,84.9453 L48.4984,87.3543 L46.4474,85.8653 L44.3984,87.3543 M34.3674,87.3543 L35.1504,84.9453 L33.0994,83.4573 L35.6344,83.4573 L36.4164,81.0453 L37.1994,83.4573 L39.7364,83.4573 L37.6834,84.9453 L38.4664,87.3543 L36.4164,85.8653 L34.3674,87.3543" id="Fill-3"></path>
                        </g>
                        <g id="Group-44" transform="translate(28.000000, 50.163000)">
                            <path d="M112.7911,1.5733 C114.1211,1.5743 115.3121,2.1093 116.1861,2.9803 C117.0581,3.8543 117.5921,5.0463 117.5941,6.3773 L117.5941,6.7063 L56.2771,6.7063 L56.2771,1.5733 L112.7911,1.5733 Z" id="Fill-6" fill="#063342"></path>
                            <mask id="mask-2" fill="white">
                                <use xlink:href="#path-1"></use>
                            </mask>
                            <g id="Clip-9"></g>
                            <polygon id="Fill-8" fill="#C8C8C8" mask="url(#mask-2)" points="56.278 12.285 117.594 12.285 117.594 6.706 56.278 6.706"></polygon>
                            <polygon id="Fill-10" fill="#063342" mask="url(#mask-2)" points="56.278 17.866 117.594 17.866 117.594 12.285 56.278 12.285"></polygon>
                            <polygon id="Fill-11" fill="#C8C8C8" mask="url(#mask-2)" points="56.278 23.448 117.594 23.448 117.594 17.866 56.278 17.866"></polygon>
                            <polygon id="Fill-12" fill="#063342" mask="url(#mask-2)" points="56.278 29.028 117.594 29.028 117.594 23.448 56.278 23.448"></polygon>
                            <polygon id="Fill-13" fill="#C8C8C8" mask="url(#mask-2)" points="56.278 34.609 117.594 34.609 117.594 29.028 56.278 29.028"></polygon>
                            <path d="M117.5938,34.6094 L56.2778,34.6094 L56.2778,40.1914 L82.4528,40.1914 C83.8668,38.4484 86.0278,37.3354 88.4478,37.3344 L117.5938,37.3344 L117.5938,34.6094" id="Fill-14" fill="#063342" mask="url(#mask-2)"></path>
                            <path d="M82.4532,40.1914 L56.2772,40.1914 L1.5712,40.1914 L1.5712,45.7714 L80.7292,45.7714 L80.7292,45.0524 C80.7302,43.2104 81.3762,41.5184 82.4532,40.1914" id="Fill-15" fill="#C8C8C8" mask="url(#mask-2)"></path>
                            <polygon id="Fill-16" fill="#063342" mask="url(#mask-2)" points="1.572 51.352 80.73 51.352 80.73 45.771 1.572 45.771"></polygon>
                            <polygon id="Fill-17" fill="#C8C8C8" mask="url(#mask-2)" points="1.572 56.934 80.73 56.934 80.73 51.353 1.572 51.353"></polygon>
                            <polygon id="Fill-18" fill="#063342" mask="url(#mask-2)" points="1.572 62.515 80.73 62.515 80.73 56.934 1.572 56.934"></polygon>
                            <polygon id="Fill-19" fill="#C8C8C8" mask="url(#mask-2)" points="1.572 68.096 80.73 68.096 80.73 62.515 1.572 62.515"></polygon>
                            <path d="M80.7295,68.0957 L1.5715,68.0957 L1.5715,68.4617 C1.5715,69.7927 2.1065,70.9837 2.9765,71.8577 C3.8505,72.7287 5.0415,73.2627 6.3735,73.2627 L80.7295,73.2627 L80.7295,68.0957" id="Fill-20" fill="#063342" mask="url(#mask-2)"></path>
                            <polygon id="Fill-21" fill="#C8C8C8" mask="url(#mask-2)" points="8.4161 3.2383 7.6351 5.6483 5.1001 5.6483 7.1501 7.1373 6.3671 9.5473 8.4161 8.0573 10.4671 9.5473 9.6841 7.1373 11.7361 5.6483 9.1991 5.6483"></polygon>
                            <polygon id="Fill-22" fill="#C8C8C8" mask="url(#mask-2)" points="18.4473 3.2383 17.6643 5.6483 15.1313 5.6483 17.1813 7.1373 16.3983 9.5473 18.4473 8.0573 20.4983 9.5473 19.7173 7.1373 21.7653 5.6483 19.2323 5.6483"></polygon>
                            <polygon id="Fill-23" fill="#C8C8C8" mask="url(#mask-2)" points="28.4786 3.2383 27.6956 5.6483 25.1626 5.6483 27.2106 7.1373 26.4276 9.5473 28.4786 8.0573 30.5296 9.5473 29.7466 7.1373 31.7946 5.6483 29.2596 5.6483"></polygon>
                            <polygon id="Fill-24" fill="#C8C8C8" mask="url(#mask-2)" points="38.5098 3.2383 37.7268 5.6483 35.1918 5.6483 37.2398 7.1373 36.4588 9.5473 38.5098 8.0573 40.5608 9.5473 39.7758 7.1373 41.8278 5.6483 39.2928 5.6483"></polygon>
                            <polygon id="Fill-25" fill="#C8C8C8" mask="url(#mask-2)" points="8.4161 17.4141 7.6351 19.8251 5.1001 19.8251 7.1501 21.3131 6.3671 23.7241 8.4161 22.2331 10.4671 23.7241 9.6841 21.3131 11.7361 19.8251 9.1991 19.8251"></polygon>
                            <polygon id="Fill-26" fill="#C8C8C8" mask="url(#mask-2)" points="18.4473 17.4141 17.6643 19.8251 15.1313 19.8251 17.1813 21.3131 16.3983 23.7241 18.4473 22.2331 20.4983 23.7241 19.7173 21.3131 21.7653 19.8251 19.2323 19.8251"></polygon>
                            <polygon id="Fill-27" fill="#C8C8C8" mask="url(#mask-2)" points="28.4786 17.4141 27.6956 19.8251 25.1626 19.8251 27.2106 21.3131 26.4276 23.7241 28.4786 22.2331 30.5296 23.7241 29.7466 21.3131 31.7946 19.8251 29.2596 19.8251"></polygon>
                            <polygon id="Fill-28" fill="#C8C8C8" mask="url(#mask-2)" points="38.5098 17.4141 37.7268 19.8251 35.1918 19.8251 37.2398 21.3131 36.4588 23.7241 38.5098 22.2331 40.5608 23.7241 39.7758 21.3131 41.8278 19.8251 39.2928 19.8251"></polygon>
                            <polygon id="Fill-29" fill="#C8C8C8" mask="url(#mask-2)" points="12.9629 10.1817 12.1799 12.5927 9.6469 12.5927 11.6969 14.0827 10.9139 16.4907 12.9629 15.0027 15.0139 16.4907 14.2309 14.0827 16.2789 12.5927 13.7479 12.5927"></polygon>
                            <polygon id="Fill-30" fill="#C8C8C8" mask="url(#mask-2)" points="22.9942 10.1817 22.2112 12.5927 19.6782 12.5927 21.7282 14.0827 20.9432 16.4907 22.9942 15.0027 25.0432 16.4907 24.2622 14.0827 26.3122 12.5927 23.7792 12.5927"></polygon>
                            <polygon id="Fill-31" fill="#C8C8C8" mask="url(#mask-2)" points="33.0254 10.1817 32.2424 12.5927 29.7074 12.5927 31.7574 14.0827 30.9744 16.4907 33.0254 15.0027 35.0764 16.4907 34.2934 14.0827 36.3414 12.5927 33.8084 12.5927"></polygon>
                            <polygon id="Fill-32" fill="#C8C8C8" mask="url(#mask-2)" points="48.6309 3.2383 47.8459 5.6483 45.3129 5.6483 47.3629 7.1373 46.5799 9.5473 48.6309 8.0573 50.6799 9.5473 49.8969 7.1373 51.9449 5.6483 49.4139 5.6483"></polygon>
                            <polygon id="Fill-33" fill="#C8C8C8" mask="url(#mask-2)" points="48.6309 17.4141 47.8459 19.8251 45.3129 19.8251 47.3629 21.3131 46.5799 23.7241 48.6309 22.2331 50.6799 23.7241 49.8969 21.3131 51.9449 19.8251 49.4139 19.8251"></polygon>
                            <polygon id="Fill-34" fill="#C8C8C8" mask="url(#mask-2)" points="43.1465 10.1817 42.3635 12.5927 39.8285 12.5927 41.8765 14.0827 41.0955 16.4907 43.1465 15.0027 45.1955 16.4907 44.4125 14.0827 46.4625 12.5927 43.9275 12.5927"></polygon>
                            <polygon id="Fill-35" fill="#C8C8C8" mask="url(#mask-2)" points="8.4161 31.045 7.6351 33.457 5.1001 33.457 7.1501 34.945 6.3671 37.354 8.4161 35.865 10.4671 37.354 9.6841 34.945 11.7361 33.457 9.1991 33.457"></polygon>
                            <polygon id="Fill-36" fill="#C8C8C8" mask="url(#mask-2)" points="18.4473 31.045 17.6643 33.457 15.1313 33.457 17.1813 34.945 16.3983 37.354 18.4473 35.865 20.4983 37.354 19.7173 34.945 21.7653 33.457 19.2323 33.457"></polygon>
                            <polygon id="Fill-37" fill="#C8C8C8" mask="url(#mask-2)" points="28.4786 31.045 27.6956 33.457 25.1626 33.457 27.2106 34.945 26.4276 37.354 28.4786 35.865 30.5296 37.354 29.7466 34.945 31.7946 33.457 29.2596 33.457"></polygon>
                            <polygon id="Fill-38" fill="#C8C8C8" mask="url(#mask-2)" points="38.5098 31.045 37.7268 33.457 35.1918 33.457 37.2398 34.945 36.4588 37.354 38.5098 35.865 40.5608 37.354 39.7758 34.945 41.8278 33.457 39.2928 33.457"></polygon>
                            <polygon id="Fill-39" fill="#C8C8C8" mask="url(#mask-2)" points="12.9629 23.8135 12.1799 26.2245 9.6469 26.2245 11.6969 27.7125 10.9139 30.1245 12.9629 28.6335 15.0139 30.1245 14.2309 27.7125 16.2789 26.2245 13.7479 26.2245"></polygon>
                            <polygon id="Fill-40" fill="#C8C8C8" mask="url(#mask-2)" points="22.9942 23.8135 22.2112 26.2245 19.6782 26.2245 21.7282 27.7125 20.9432 30.1245 22.9942 28.6335 25.0432 30.1245 24.2622 27.7125 26.3122 26.2245 23.7792 26.2245"></polygon>
                            <polygon id="Fill-41" fill="#C8C8C8" mask="url(#mask-2)" points="33.0254 23.8135 32.2424 26.2245 29.7074 26.2245 31.7574 27.7125 30.9744 30.1245 33.0254 28.6335 35.0764 30.1245 34.2934 27.7125 36.3414 26.2245 33.8084 26.2245"></polygon>
                            <polygon id="Fill-42" fill="#C8C8C8" mask="url(#mask-2)" points="48.6309 31.045 47.8459 33.457 45.3129 33.457 47.3629 34.945 46.5799 37.354 48.6309 35.865 50.6799 37.354 49.8969 34.945 51.9449 33.457 49.4139 33.457"></polygon>
                            <polygon id="Fill-43" fill="#C8C8C8" mask="url(#mask-2)" points="43.1465 23.8135 42.3635 26.2245 39.8285 26.2245 41.8765 27.7125 41.0955 30.1245 43.1465 28.6335 45.1955 30.1245 44.4125 27.7125 46.4625 26.2245 43.9275 26.2245"></polygon>
                        </g>
                        <g id="Group-53" transform="translate(26.000000, 48.163000)">
                            <path d="M114.7911,0.6592 L8.3731,0.6592 C4.1101,0.6592 0.6561,4.1132 0.6551,8.3772 L0.6551,70.4622 C0.6561,74.7252 4.1111,78.1782 8.3731,78.1792 L84.1871,78.1792 C84.3801,78.1792 84.5691,78.1392 84.7451,78.0672 C84.5671,78.1392 84.3771,78.1782 84.1861,78.1782 C83.9951,78.1782 83.8031,78.1412 83.6211,78.0632 C83.0821,77.8362 82.7291,77.3052 82.7291,76.7212 L82.7291,75.2632 L8.3731,75.2632 C7.0421,75.2632 5.8501,74.7282 4.9771,73.8572 C4.1061,72.9832 3.5711,71.7932 3.5711,70.4622 L3.5711,70.0962 L3.5711,64.5142 L3.5711,58.9332 L3.5711,53.3522 L3.5711,47.7712 L3.5711,42.1912 L3.5711,8.3772 C3.5711,7.0462 4.1061,5.8542 4.9771,4.9802 C5.8521,4.1092 7.0421,3.5742 8.3731,3.5732 L58.2771,3.5732 L114.7911,3.5732 C116.1211,3.5742 117.3121,4.1092 118.1861,4.9802 C119.0581,5.8542 119.5921,7.0462 119.5941,8.3772 L119.5941,8.7062 L119.5941,14.2852 L119.5941,19.8662 L119.5941,25.4482 L119.5941,31.0282 L119.5941,36.6092 L119.5941,39.3342 L121.0511,39.3342 C121.6451,39.3342 122.1771,39.6922 122.4001,40.2432 C122.4691,40.4112 122.5051,40.5872 122.5081,40.7622 L122.5081,8.3772 C122.5081,4.1132 119.0541,0.6592 114.7911,0.6592 M122.4491,41.2042 C122.4481,41.2072 122.4471,41.2092 122.4471,41.2122 C122.4471,41.2092 122.4481,41.2072 122.4491,41.2042 M122.4451,41.2192 C122.3921,41.3892 122.3091,41.5502 122.1971,41.6922 C122.3081,41.5502 122.3921,41.3892 122.4451,41.2192 M122.1971,41.6922 C122.1891,41.7022 122.1821,41.7122 122.1741,41.7222 C122.1821,41.7122 122.1891,41.7022 122.1971,41.6922 M122.1711,41.7242 C122.1691,41.7272 122.1671,41.7292 122.1651,41.7322 C122.1671,41.7292 122.1691,41.7272 122.1711,41.7242 M122.1591,41.7382 C122.1581,41.7402 122.1561,41.7422 122.1551,41.7442 C122.1561,41.7422 122.1581,41.7402 122.1591,41.7382 M122.1331,41.7682 C122.1331,41.7692 122.1321,41.7702 122.1311,41.7712 C122.1321,41.7702 122.1331,41.7692 122.1331,41.7682 M122.1221,41.7812 C122.1211,41.7822 122.1201,41.7832 122.1191,41.7842 C122.1201,41.7832 122.1211,41.7822 122.1221,41.7812 M122.0961,41.8082 C122.0951,41.8092 122.0941,41.8102 122.0931,41.8112 C122.0941,41.8102 122.0951,41.8092 122.0961,41.8082 M122.0831,41.8212 C122.0821,41.8222 122.0811,41.8232 122.0801,41.8242 C122.0811,41.8232 122.0821,41.8222 122.0831,41.8212 M86.2661,76.7292 L85.2051,77.7642 C85.1841,77.7852 85.1611,77.8052 85.1391,77.8252 C85.1611,77.8052 85.1841,77.7852 85.2051,77.7642 L86.2661,76.7292 M85.1361,77.8272 C85.1321,77.8312 85.1291,77.8332 85.1251,77.8362 C85.1291,77.8332 85.1321,77.8312 85.1361,77.8272 M85.1171,77.8432 C85.1151,77.8452 85.1131,77.8462 85.1121,77.8482 C85.1131,77.8462 85.1151,77.8452 85.1171,77.8432 M85.1001,77.8572 C85.0991,77.8572 85.0991,77.8582 85.0991,77.8582 C85.0991,77.8582 85.0991,77.8572 85.1001,77.8572 M84.7701,78.0552 C84.7701,78.0572 84.7681,78.0572 84.7681,78.0572 C84.7681,78.0572 84.7701,78.0572 84.7701,78.0552 M84.7581,78.0612 C84.7551,78.0622 84.7521,78.0632 84.7491,78.0652 C84.7521,78.0632 84.7551,78.0622 84.7581,78.0612" id="Fill-45" fill="#C8C8C8"></path>
                            <path d="M117.4668,42.2491 L90.4478,42.2491 C89.1168,42.2501 87.9258,42.7841 87.0518,43.6561 C86.1798,44.5301 85.6458,45.7221 85.6448,47.0531 L85.6448,73.2651 L117.4668,42.2491" id="Fill-47" fill="#063342"></path>
                            <path d="M121.0508,39.334 L119.5938,39.334 L90.4478,39.334 C88.0278,39.335 85.8668,40.448 84.4528,42.191 C83.3758,43.519 82.7308,45.21 82.7298,47.053 L82.7298,47.772 L82.7298,53.353 L82.7298,58.934 L82.7298,64.515 L82.7298,70.096 L82.7298,75.263 L82.7298,76.721 C82.7298,77.306 83.0818,77.836 83.6208,78.063 C83.8028,78.141 83.9948,78.178 84.1858,78.178 C84.3768,78.178 84.5678,78.14 84.7448,78.067 C84.7458,78.066 84.7478,78.065 84.7488,78.065 C84.7518,78.063 84.7548,78.063 84.7578,78.062 C84.7608,78.061 84.7638,78.059 84.7678,78.058 C84.7688,78.057 84.7698,78.057 84.7708,78.056 C84.8868,78.005 84.9968,77.939 85.0988,77.858 C85.0988,77.858 85.0988,77.857 85.0998,77.857 C85.1038,77.854 85.1078,77.851 85.1128,77.848 C85.1128,77.846 85.1158,77.845 85.1168,77.843 C85.1198,77.841 85.1228,77.839 85.1248,77.836 C85.1288,77.833 85.1318,77.831 85.1358,77.827 C85.1368,77.827 85.1378,77.826 85.1388,77.825 C85.1608,77.806 85.1838,77.785 85.2048,77.765 L86.2668,76.729 L86.2668,76.721 C86.2668,76.398 86.5278,76.138 86.8498,76.138 L86.8738,76.138 L120.4678,43.395 L120.4678,41.36 L120.4678,40.792 C120.4678,40.47 120.7288,40.209 121.0508,40.209 C121.3718,40.209 121.6338,40.47 121.6338,40.792 L121.6338,42.259 L122.0688,41.836 C122.0718,41.832 122.0758,41.828 122.0798,41.824 C122.0808,41.823 122.0818,41.822 122.0828,41.821 C122.0858,41.817 122.0898,41.814 122.0928,41.812 C122.0938,41.811 122.0948,41.81 122.0958,41.809 C122.1038,41.801 122.1118,41.792 122.1188,41.784 C122.1198,41.783 122.1208,41.782 122.1218,41.781 C122.1248,41.777 122.1278,41.774 122.1308,41.772 C122.1318,41.77 122.1328,41.77 122.1328,41.769 C122.1408,41.761 122.1478,41.752 122.1558,41.744 C122.1558,41.742 122.1578,41.74 122.1588,41.738 C122.1608,41.736 122.1628,41.734 122.1648,41.732 C122.1668,41.729 122.1688,41.728 122.1708,41.725 C122.1718,41.724 122.1728,41.723 122.1738,41.722 C122.1818,41.712 122.1898,41.702 122.1968,41.692 C122.3098,41.55 122.3928,41.389 122.4458,41.219 C122.4458,41.217 122.4468,41.214 122.4468,41.212 C122.4468,41.209 122.4488,41.207 122.4488,41.204 C122.4918,41.061 122.5118,40.911 122.5078,40.762 C122.5048,40.587 122.4688,40.411 122.4008,40.243 C122.1768,39.692 121.6448,39.334 121.0508,39.334 M85.6448,73.265 L85.6448,47.053 C85.6458,45.722 86.1798,44.53 87.0518,43.656 C87.9258,42.784 89.1168,42.25 90.4478,42.249 L117.4668,42.249 L85.6448,73.265" id="Fill-49" fill="#C8C8C8"></path>
                            <path d="M121.0508,40.209 C120.7288,40.209 120.4678,40.47 120.4678,40.792 L120.4678,41.36 L121.0508,40.792 L120.4678,41.36 L120.4678,43.395 L120.4678,44.704 C120.4678,45.026 120.7288,45.287 121.0508,45.287 C121.3728,45.287 121.6338,45.026 121.6338,44.704 L121.6338,42.259 L121.6338,40.792 C121.6338,40.47 121.3718,40.209 121.0508,40.209 M121.0508,48.028 C120.7288,48.028 120.4678,48.289 120.4678,48.611 L120.4678,52.517 C120.4678,52.839 120.7288,53.1 121.0508,53.1 C121.3728,53.1 121.6338,52.839 121.6338,52.517 L121.6338,48.611 C121.6338,48.289 121.3718,48.028 121.0508,48.028 M121.0508,55.839 C120.7288,55.839 120.4678,56.1 120.4678,56.422 L120.4678,60.327 C120.4678,60.649 120.7288,60.911 121.0508,60.911 C121.3728,60.911 121.6338,60.649 121.6338,60.327 L121.6338,56.422 C121.6338,56.1 121.3718,55.839 121.0508,55.839 M121.0508,63.651 C120.7288,63.651 120.4678,63.913 120.4678,64.234 L120.4678,68.092 L120.4668,68.147 C120.4648,68.469 120.7238,68.732 121.0448,68.735 L121.0508,68.735 C121.3698,68.735 121.6308,68.478 121.6328,68.157 L121.6338,68.092 L121.6338,64.234 C121.6338,63.913 121.3718,63.651 121.0508,63.651 M120.1168,71.319 C119.9028,71.319 119.6968,71.438 119.5938,71.644 C119.0798,72.675 118.3308,73.653 117.3188,74.431 C117.0628,74.628 117.0148,74.993 117.2108,75.249 C117.3258,75.398 117.4988,75.477 117.6738,75.477 C117.7978,75.477 117.9228,75.438 118.0288,75.356 C119.1968,74.459 120.0548,73.335 120.6388,72.163 C120.7808,71.874 120.6638,71.524 120.3758,71.381 C120.2918,71.339 120.2028,71.319 120.1168,71.319 M114.1578,75.903 C114.1178,75.903 114.0768,75.907 114.0358,75.917 C113.3668,76.059 112.6348,76.138 111.8358,76.138 L110.2758,76.138 C109.9528,76.138 109.6928,76.398 109.6928,76.721 C109.6928,77.043 109.9528,77.304 110.2758,77.304 L111.8358,77.304 C112.7108,77.304 113.5258,77.217 114.2798,77.057 C114.5938,76.989 114.7948,76.68 114.7278,76.365 C114.6688,76.091 114.4278,75.903 114.1578,75.903 M106.3698,76.138 L102.4668,76.138 C102.1448,76.138 101.8838,76.398 101.8838,76.721 C101.8838,77.043 102.1448,77.304 102.4668,77.304 L106.3698,77.304 C106.6928,77.304 106.9528,77.043 106.9528,76.721 C106.9528,76.398 106.6928,76.138 106.3698,76.138 M98.5638,76.138 L94.6588,76.138 C94.3368,76.138 94.0758,76.398 94.0758,76.721 C94.0758,77.043 94.3368,77.304 94.6588,77.304 L98.5638,77.304 C98.8848,77.304 99.1468,77.043 99.1468,76.721 C99.1468,76.398 98.8848,76.138 98.5638,76.138 M90.7558,76.138 L86.8738,76.138 L86.8498,76.138 C86.5278,76.138 86.2668,76.398 86.2668,76.721 L86.2668,76.729 C86.2718,77.047 86.5308,77.304 86.8498,77.304 L90.7558,77.304 C91.0768,77.304 91.3378,77.043 91.3378,76.721 C91.3378,76.398 91.0768,76.138 90.7558,76.138" id="Fill-51" fill="#C8C8C8"></path>
                        </g>
                    </g>
                </g>
            </g>
        </g>
    </g>
</svg>