<?xml version="1.0" encoding="UTF-8"?>
<svg width="176px" height="176px" viewBox="0 0 176 176" version="1.1" xmlns="http://www.w3.org/2000/svg" xmlns:xlink="http://www.w3.org/1999/xlink">
    <!-- Generator: Sketch 45.2 (43514) - http://www.bohemiancoding.com/sketch -->
    <title>ICON jacket</title>
    <desc>Created with Sketch.</desc>
    <defs>
        <linearGradient x1="50%" y1="52.6013629%" x2="50%" y2="100%" id="linearGradient-1">
            <stop stop-color="#FB6266" offset="0%"></stop>
            <stop stop-color="#F53336" offset="100%"></stop>
        </linearGradient>
        <polygon id="path-2" points="0 175.163 175.164 175.163 175.164 72.0664062 175.164 0 0 0"></polygon>
    </defs>
    <g id="Mockups---Products/-Designs" stroke="none" stroke-width="1" fill="none" fill-rule="evenodd">
        <g id="Home" transform="translate(-817.000000, -1088.000000)">
            <g id="BODY" transform="translate(0.000000, 228.000000)">
                <g id="product-icons" transform="translate(76.000000, 859.000000)">
                    <g id="ICON-jacket" transform="translate(741.000000, 1.000000)">
                        <path d="M0,87.581 C0,39.212 39.213,0 87.582,0 C135.951,0 175.164,39.212 175.164,87.581 C175.164,135.951 135.951,175.163 87.582,175.163 C39.213,175.163 0,135.951 0,87.581 Z" id="Fill-1" fill="#063342"></path>
                        <path d="M4.87795177,87.5810278 C4.87795177,41.9059792 41.9069514,4.87792392 87.582,4.87792392 C133.257049,4.87792392 170.286048,41.9059792 170.286048,87.5810278 C170.286048,133.257021 133.257049,170.285076 87.582,170.285076 C41.9069514,170.285076 4.87795177,133.257021 4.87795177,87.5810278 Z" id="Fill-1-Copy" stroke="url(#linearGradient-1)" fill="#063342"></path>
                        <polygon id="Fill-3" fill="#063342" points="117.7383 137.6162 117.7383 123.8472 115.9923 101.7222 116.4283 72.4942 121.4553 98.2812 126.4823 129.3112 141.3423 129.3112 141.3423 118.7102 137.3753 75.4872 125.9703 41.5952 107.2483 31.1942 88.2383 29.6652 86.9283 29.6652 67.9143 31.1942 49.1953 41.5952 37.7893 75.4872 33.8223 118.7102 33.8223 129.3112 48.6793 129.3112 53.7113 98.2812 58.7383 72.4942 59.1743 101.7222 57.4253 123.8472 57.4253 137.6162"></polygon>
                        <path d="M58.8838,136.1581 L116.2798,136.1581 L116.2798,123.9051 L114.5388,101.8371 C114.5348,101.7921 114.5338,101.7461 114.5348,101.7011 L114.9708,72.4721 C114.9818,71.7251 115.5548,71.1081 116.2988,71.0421 C117.0348,70.9741 117.7158,71.4831 117.8588,72.2151 L122.8858,98.0021 L127.7228,127.8531 L139.8838,127.8531 L139.8838,118.7761 L135.9398,75.7901 L124.7698,42.5951 L106.8168,32.6221 L88.1798,31.1231 L86.9868,31.1231 L68.3458,32.6221 L50.3968,42.5951 L39.2248,75.7901 L35.2798,118.7761 L35.2798,127.8531 L47.4398,127.8531 L52.2728,98.0481 L57.3078,72.2151 C57.4498,71.4831 58.1298,70.9741 58.8668,71.0421 C59.6118,71.1081 60.1848,71.7251 60.1958,72.4721 L60.6308,101.7011 C60.6318,101.7461 60.6308,101.7921 60.6268,101.8381 L58.8838,123.9051 L58.8838,136.1581 Z M117.7378,139.0741 L57.4258,139.0741 C56.6208,139.0741 55.9678,138.4211 55.9678,137.6161 L55.9678,123.8471 C55.9678,123.8091 55.9698,123.7711 55.9728,123.7321 L57.7158,101.6761 L57.4888,86.5161 L55.1418,98.5601 L50.1178,129.5451 C50.0038,130.2511 49.3948,130.7691 48.6798,130.7691 L33.8218,130.7691 C33.0178,130.7691 32.3638,130.1161 32.3638,129.3111 L32.3638,118.7101 C32.3638,118.6651 32.3668,118.6211 32.3708,118.5771 L36.3378,75.3541 C36.3478,75.2411 36.3708,75.1301 36.4068,75.0221 L47.8138,41.1301 C47.9298,40.7851 48.1698,40.4971 48.4878,40.3201 L67.2058,29.9201 C67.3878,29.8191 67.5898,29.7581 67.7968,29.7411 L86.8108,28.2121 C86.8498,28.2091 86.8888,28.2071 86.9278,28.2071 L88.2378,28.2071 C88.2778,28.2071 88.3168,28.2091 88.3558,28.2121 L107.3658,29.7411 C107.5728,29.7581 107.7738,29.8191 107.9558,29.9201 L126.6788,40.3201 C126.9958,40.4971 127.2368,40.7851 127.3528,41.1301 L138.7568,75.0221 C138.7928,75.1301 138.8168,75.2411 138.8258,75.3541 L142.7928,118.5771 C142.7968,118.6211 142.7998,118.6651 142.7998,118.7101 L142.7998,129.3111 C142.7998,130.1161 142.1468,130.7691 141.3418,130.7691 L126.4828,130.7691 C125.7678,130.7691 125.1578,130.2501 125.0438,129.5451 L120.0168,98.5141 L117.6768,86.5141 L117.4498,101.6761 L119.1918,123.7331 C119.1948,123.7711 119.1968,123.8091 119.1968,123.8471 L119.1968,137.6161 C119.1968,138.4211 118.5428,139.0741 117.7378,139.0741 L117.7378,139.0741 Z" id="Fill-5" fill="#C8C8C8"></path>
                        <mask id="mask-3" fill="white">
                            <use xlink:href="#path-2"></use>
                        </mask>
                        <g id="Clip-8"></g>
                        <polygon id="Fill-7" fill="#063342" mask="url(#mask-3)" points="35.354 136.394 47.176 136.394 47.176 129.311 35.354 129.311"></polygon>
                        <path d="M36.812,134.936 L45.718,134.936 L45.718,130.769 L36.812,130.769 L36.812,134.936 Z M47.176,137.852 L35.354,137.852 C34.549,137.852 33.896,137.199 33.896,136.394 L33.896,129.311 C33.896,128.507 34.549,127.853 35.354,127.853 L47.176,127.853 C47.98,127.853 48.634,128.507 48.634,129.311 L48.634,136.394 C48.634,137.199 47.98,137.852 47.176,137.852 L47.176,137.852 Z" id="Fill-9" fill="#C8C8C8" mask="url(#mask-3)"></path>
                        <polygon id="Fill-10" fill="#063342" mask="url(#mask-3)" points="127.991 136.394 139.811 136.394 139.811 129.311 127.991 129.311"></polygon>
                        <path d="M129.448,134.936 L138.352,134.936 L138.352,130.769 L129.448,130.769 L129.448,134.936 Z M139.811,137.852 L127.99,137.852 C127.186,137.852 126.532,137.199 126.532,136.394 L126.532,129.311 C126.532,128.507 127.186,127.853 127.99,127.853 L139.811,127.853 C140.615,127.853 141.269,128.507 141.269,129.311 L141.269,136.394 C141.269,137.199 140.615,137.852 139.811,137.852 L139.811,137.852 Z" id="Fill-11" fill="#C8C8C8" mask="url(#mask-3)"></path>
                        <polygon id="Fill-12" fill="#063342" mask="url(#mask-3)" points="59.338 144.172 115.99 144.172 115.99 137.616 59.338 137.616"></polygon>
                        <path d="M60.796,142.714 L114.532,142.714 L114.532,139.074 L60.796,139.074 L60.796,142.714 Z M115.99,145.63 L59.338,145.63 C58.533,145.63 57.88,144.976 57.88,144.172 L57.88,137.616 C57.88,136.811 58.533,136.158 59.338,136.158 L115.99,136.158 C116.795,136.158 117.448,136.811 117.448,137.616 L117.448,144.172 C117.448,144.976 116.795,145.63 115.99,145.63 L115.99,145.63 Z" id="Fill-13" fill="#C8C8C8" mask="url(#mask-3)"></path>
                        <path d="M62.125,125.6328 C61.969,125.6328 61.809,125.6078 61.652,125.5538 C60.891,125.2928 60.485,124.4638 60.746,123.7018 L68.777,100.2668 C69.037,99.5058 69.865,99.0988 70.629,99.3598 C71.391,99.6208 71.796,100.4498 71.535,101.2118 L63.504,124.6478 C63.297,125.2518 62.73,125.6328 62.125,125.6328" id="Fill-14" fill="#C8C8C8" mask="url(#mask-3)"></path>
                        <path d="M113.2032,125.6328 C112.5982,125.6328 112.0312,125.2518 111.8242,124.6478 L103.7932,101.2118 C103.5322,100.4498 103.9372,99.6208 104.6992,99.3598 C105.4592,99.0988 106.2902,99.5058 106.5512,100.2668 L114.5822,123.7018 C114.8432,124.4638 114.4372,125.2928 113.6762,125.5538 C113.5192,125.6078 113.3592,125.6328 113.2032,125.6328" id="Fill-15" fill="#C8C8C8" mask="url(#mask-3)"></path>
                        <polygon id="Fill-16" fill="#063342" mask="url(#mask-3)" points="87.584 61.8935 102.066 38.5895 107.088 40.4235 107.088 31.1945 101.938 26.5325 94.613 24.6995 80.553 24.6995 73.229 26.5325 68.078 31.1945 68.078 40.4235 73.102 38.5895"></polygon>
                        <path d="M73.1016,37.1318 C73.5936,37.1318 74.0676,37.3828 74.3396,37.8208 L87.5836,59.1318 L100.8286,37.8208 C101.1926,37.2348 101.9196,36.9868 102.5666,37.2208 L105.6296,38.3398 L105.6296,31.8408 L101.2296,27.8578 L94.4336,26.1568 L80.7326,26.1568 L73.9366,27.8578 L69.5366,31.8408 L69.5366,38.3398 L72.6016,37.2208 C72.7656,37.1608 72.9346,37.1318 73.1016,37.1318 M87.5836,63.3518 C87.0806,63.3518 86.6126,63.0908 86.3456,62.6628 L72.4896,40.3648 L68.5786,41.7928 C68.1316,41.9568 67.6326,41.8918 67.2436,41.6178 C66.8526,41.3458 66.6206,40.8998 66.6206,40.4238 L66.6206,31.1948 C66.6206,30.7818 66.7946,30.3898 67.0996,30.1128 L72.2496,25.4508 C72.4276,25.2908 72.6426,25.1768 72.8746,25.1178 L80.1996,23.2848 C80.3146,23.2558 80.4336,23.2408 80.5526,23.2408 L94.6136,23.2408 C94.7326,23.2408 94.8516,23.2558 94.9666,23.2848 L102.2906,25.1178 C102.5236,25.1768 102.7386,25.2908 102.9156,25.4508 L108.0666,30.1128 C108.3716,30.3898 108.5456,30.7818 108.5456,31.1948 L108.5456,40.4238 C108.5456,40.8998 108.3136,41.3458 107.9226,41.6178 C107.5336,41.8918 107.0356,41.9568 106.5876,41.7928 L102.6786,40.3648 L88.8226,62.6628 C88.5556,63.0908 88.0876,63.3518 87.5836,63.3518" id="Fill-17" fill="#C8C8C8" mask="url(#mask-3)"></path>
                        <path d="M87.584,145.6298 C86.779,145.6298 86.126,144.9768 86.126,144.1718 L86.126,61.8938 C86.126,61.0888 86.779,60.4358 87.584,60.4358 C88.389,60.4358 89.042,61.0888 89.042,61.8938 L89.042,144.1718 C89.042,144.9768 88.389,145.6298 87.584,145.6298" id="Fill-18" fill="#C8C8C8" mask="url(#mask-3)"></path>
                        <path d="M95.6797,34.2617 C95.3577,34.2617 95.0967,34.0007 95.0967,33.6787 L95.0967,31.4207 C95.0967,31.0987 95.3577,30.8377 95.6797,30.8377 C96.0017,30.8377 96.2627,31.0987 96.2627,31.4207 L96.2627,33.6787 C96.2627,34.0007 96.0017,34.2617 95.6797,34.2617" id="Fill-19" fill="#C8C8C8" mask="url(#mask-3)"></path>
                        <path d="M79.4844,34.2617 C79.1624,34.2617 78.9014,34.0007 78.9014,33.6787 L78.9014,31.4207 C78.9014,31.0987 79.1624,30.8377 79.4844,30.8377 C79.8064,30.8377 80.0674,31.0987 80.0674,31.4207 L80.0674,33.6787 C80.0674,34.0007 79.8064,34.2617 79.4844,34.2617" id="Fill-20" fill="#C8C8C8" mask="url(#mask-3)"></path>
                        <path d="M80.2579,34.2617 L87.3859,59.1277 L94.8949,34.2617 L80.2579,34.2617 Z M87.3709,61.7767 L87.3669,61.7767 C87.1079,61.7747 86.8819,61.6027 86.8109,61.3547 L78.9239,33.8397 C78.8729,33.6627 78.9079,33.4737 79.0189,33.3277 C79.1289,33.1817 79.3019,33.0957 79.4849,33.0957 L95.6799,33.0957 C95.8639,33.0957 96.0379,33.1827 96.1479,33.3307 C96.2579,33.4797 96.2909,33.6707 96.2379,33.8477 L87.9299,61.3627 C87.8549,61.6087 87.6279,61.7767 87.3709,61.7767 L87.3709,61.7767 Z" id="Fill-21" fill="#C8C8C8" mask="url(#mask-3)"></path>
                        <path d="M80.8066,37.9423 C80.4846,37.9423 80.2236,37.6813 80.2236,37.3593 C80.2236,37.0373 80.4846,36.7763 80.8066,36.7763 L94.4356,36.7763 C94.7576,36.7763 95.0186,37.0373 95.0186,37.3593 C95.0186,37.6813 94.7576,37.9423 94.4356,37.9423 L80.8066,37.9423 Z" id="Fill-22" fill="#C8C8C8" mask="url(#mask-3)"></path>
                    </g>
                </g>
            </g>
        </g>
    </g>
</svg>