<?xml version="1.0" encoding="UTF-8"?>
<svg width="176px" height="176px" viewBox="0 0 176 176" version="1.1" xmlns="http://www.w3.org/2000/svg" xmlns:xlink="http://www.w3.org/1999/xlink">
    <!-- Generator: Sketch 45.2 (43514) - http://www.bohemiancoding.com/sketch -->
    <title>ICON pins</title>
    <desc>Created with Sketch.</desc>
    <defs></defs>
    <g id="Mockups---Products/-Designs" stroke="none" stroke-width="1" fill="none" fill-rule="evenodd">
        <g id="Home" transform="translate(-1188.000000, -1088.000000)">
            <g id="BODY" transform="translate(0.000000, 228.000000)">
                <g id="product-icons" transform="translate(76.000000, 859.000000)">
                    <g id="ICON-pins" transform="translate(1112.000000, 1.000000)">
                        <path d="M0,87.581 C0,39.212 39.213,0 87.582,0 C135.951,0 175.164,39.212 175.164,87.581 C175.164,135.951 135.951,175.163 87.582,175.163 C39.213,175.163 0,135.951 0,87.581" id="Fill-1" fill="#063342"></path>
                        <polygon id="Fill-3" fill="#063342" points="93.1191 82.5156 61.5001 111.0866 54.3961 120.9146 65.2051 115.7126 96.8241 87.1426"></polygon>
                        <path d="M62.5859,112.0605 L58.9239,117.1265 L64.3879,114.4975 L94.8389,86.9825 L92.9489,84.6235 L62.5859,112.0605 Z M54.3969,122.3655 C53.9779,122.3655 53.5669,122.1835 53.2839,121.8455 C52.8579,121.3365 52.8329,120.6035 53.2219,120.0655 L60.3249,110.2375 C60.3849,110.1555 60.4519,110.0795 60.5279,110.0105 L92.1469,81.4395 C92.4429,81.1715 92.8439,81.0465 93.2349,81.0705 C93.6339,81.1025 94.0009,81.2975 94.2509,81.6095 L97.9559,86.2365 C98.4359,86.8345 98.3649,87.7045 97.7959,88.2185 L66.1769,116.7895 C66.0739,116.8815 65.9589,116.9585 65.8339,117.0195 L55.0249,122.2215 C54.8239,122.3185 54.6089,122.3655 54.3969,122.3655 L54.3969,122.3655 Z" id="Fill-5" fill="#C8C8C8"></path>
                        <path d="M120.1435,74.4667 C120.2545,74.4857 120.3685,74.5037 120.4795,74.5227 C120.7885,74.5767 121.0935,74.6337 121.3925,74.6907 C121.5115,74.7137 121.6255,74.7377 121.7435,74.7617 C121.9295,74.7987 122.1165,74.8357 122.2985,74.8747 C122.4305,74.9027 122.5575,74.9307 122.6865,74.9587 C122.8485,74.9947 123.0095,75.0287 123.1665,75.0677 C123.2985,75.0977 123.4255,75.1287 123.5535,75.1597 C123.7045,75.1967 123.8535,75.2337 123.9975,75.2707 C124.1225,75.3027 124.2415,75.3347 124.3625,75.3677 C124.5045,75.4057 124.6435,75.4467 124.7835,75.4857 C124.8975,75.5187 125.0115,75.5537 125.1225,75.5877 C125.2725,75.6337 125.4185,75.6777 125.5595,75.7257 C125.6325,75.7497 125.7035,75.7727 125.7725,75.7957 C125.9875,75.8697 126.1935,75.9457 126.3885,76.0217 L132.0425,70.9227 L120.8775,61.5357 L123.5865,56.0437 C120.5205,54.8347 115.0965,54.0357 110.0735,53.5237 L105.5915,45.6367 C97.0855,41.1827 80.3435,41.9777 72.6355,43.6757 C66.7395,44.9747 57.2665,48.7587 52.1965,53.5077 C52.2895,53.4217 52.3755,53.3357 52.4715,53.2497 C50.5865,54.9487 48.7025,56.6487 46.8175,58.3477 C46.6065,58.5377 46.4025,58.7287 46.2055,58.9217 C46.1325,58.9957 46.0645,59.0697 45.9935,59.1437 C45.8735,59.2657 45.7515,59.3867 45.6395,59.5077 C45.5645,59.5897 45.4965,59.6717 45.4225,59.7537 C45.3215,59.8697 45.2165,59.9857 45.1205,60.1017 C45.0485,60.1877 44.9845,60.2767 44.9155,60.3627 C44.8285,60.4757 44.7355,60.5877 44.6535,60.7017 C44.5875,60.7917 44.5305,60.8807 44.4695,60.9707 C44.3915,61.0837 44.3115,61.1987 44.2395,61.3117 C44.1825,61.4027 44.1345,61.4927 44.0805,61.5827 C44.0145,61.6987 43.9445,61.8117 43.8845,61.9267 C43.8345,62.0177 43.7965,62.1097 43.7505,62.2007 C43.6965,62.3177 43.6375,62.4327 43.5865,62.5487 C43.5505,62.6417 43.5185,62.7337 43.4855,62.8257 C43.4445,62.9327 43.3995,63.0377 43.3665,63.1447 C43.3595,63.1647 43.3525,63.1847 43.3455,63.2047 L47.5915,70.6717 C45.9665,72.1377 44.3415,73.6027 42.7165,75.0677 C41.7525,75.9357 40.9355,76.7847 40.3595,77.5747 C40.1665,77.8377 40.0005,78.0947 39.8665,78.3437 L47.5185,81.5527 L48.3235,93.2237 L53.9765,88.1247 C54.2795,87.8007 56.5095,85.9467 57.6015,85.0707 L71.3605,109.2787 C71.5525,109.6147 71.7675,109.9527 71.9985,110.2887 C72.0795,110.4057 72.1705,110.5197 72.2545,110.6347 C72.4165,110.8557 72.5785,111.0757 72.7535,111.2947 C72.8625,111.4297 72.9795,111.5627 73.0935,111.6967 C73.2635,111.8967 73.4365,112.0967 73.6175,112.2957 C73.7415,112.4317 73.8715,112.5667 73.9995,112.7007 C74.1105,112.8167 74.2115,112.9307 74.3255,113.0447 C74.4145,113.1347 74.5105,113.2227 74.6025,113.3127 C74.7135,113.4197 74.8245,113.5287 74.9385,113.6347 C75.1675,113.8537 75.4065,114.0707 75.6495,114.2847 C75.7565,114.3817 75.8625,114.4787 75.9715,114.5747 C76.3215,114.8777 76.6805,115.1787 77.0505,115.4757 C77.0695,115.4897 77.0915,115.5057 77.1105,115.5237 C77.4635,115.8057 77.8275,116.0827 78.1955,116.3587 C78.3255,116.4557 78.4555,116.5507 78.5875,116.6477 C78.8565,116.8427 79.1255,117.0377 79.4015,117.2297 C79.5465,117.3307 79.6905,117.4317 79.8365,117.5327 C80.1195,117.7237 80.4035,117.9137 80.6885,118.1027 C80.8195,118.1877 80.9485,118.2747 81.0795,118.3587 C81.4775,118.6147 81.8775,118.8667 82.2805,119.1127 C82.2975,119.1247 82.3155,119.1357 82.3305,119.1457 C82.3415,119.1507 82.3465,119.1557 82.3545,119.1587 C82.7655,119.4077 83.1785,119.6527 83.5935,119.8907 C83.7095,119.9567 83.8275,120.0217 83.9445,120.0887 C84.2605,120.2697 84.5775,120.4447 84.8945,120.6167 C85.0125,120.6827 85.1325,120.7467 85.2485,120.8107 C86.0885,121.2607 86.9215,121.6847 87.7395,122.0747 C87.8485,122.1277 87.9555,122.1777 88.0675,122.2287 C88.3765,122.3757 88.6835,122.5177 88.9875,122.6557 C89.0985,122.7047 89.2075,122.7537 89.3155,122.8017 C89.7095,122.9757 90.1005,123.1457 90.4795,123.3017 C97.2115,126.0857 113.1025,131.1307 113.9395,131.3967 L119.5935,126.2987 C119.9765,125.7647 127.2315,115.6177 129.6535,110.8177 C132.0795,106.0217 133.5815,98.1107 130.3515,92.4267 L120.1435,74.4667 Z" id="Fill-7" fill="#063342"></path>
                        <path d="M83.0908,117.9101 C83.0958,117.9131 83.1008,117.9161 83.1058,117.9191 C83.5068,118.1621 83.9098,118.4001 84.3158,118.6331 L84.6668,118.8321 C84.9718,119.0061 85.2788,119.1761 85.5878,119.3441 L85.9448,119.5381 C86.7538,119.9711 87.5668,120.3861 88.3638,120.7661 L88.6688,120.9091 C88.9918,121.0621 89.2908,121.2011 89.5858,121.3351 L89.9048,121.4771 C90.2838,121.6431 90.6638,121.8091 91.0318,121.9611 C96.9418,124.4051 109.9678,128.6061 113.5868,129.7621 L118.5058,125.3271 C119.4058,124.0661 126.0898,114.6621 128.3588,110.1641 C130.7188,105.4971 131.9548,98.1811 129.0908,93.1431 L118.8828,75.1831 C118.6068,74.6971 118.6348,74.0961 118.9548,73.6371 C119.2748,73.1791 119.8288,72.9521 120.3818,73.0361 L120.7178,73.0921 C121.0468,73.1501 121.3588,73.2081 121.6628,73.2651 L125.5378,74.1981 C125.7568,74.2651 125.8938,74.3071 126.0268,74.3521 L126.0618,74.3641 L129.8348,70.9611 L119.9448,62.6461 C119.4338,62.2171 119.2818,61.4931 119.5768,60.8941 L121.5528,56.8901 C118.9478,56.1401 114.9828,55.4821 109.9258,54.9661 C109.4588,54.9181 109.0438,54.6471 108.8128,54.2401 L104.5468,46.7321 C100.6468,44.8251 94.4398,43.7781 86.9898,43.7781 C81.9318,43.7781 76.6818,44.2691 72.9478,45.0921 C66.8598,46.4331 57.8788,50.1961 53.2248,54.5311 C53.1858,54.5671 53.1458,54.6011 53.1038,54.6331 L47.7878,59.4251 C47.5938,59.5991 47.4048,59.7761 47.2238,59.9551 L45.9688,61.3691 C45.9218,61.4291 45.8738,61.4871 45.8308,61.5481 L45.7188,61.7111 C45.7148,61.7181 45.6318,61.8401 45.6268,61.8461 C45.5698,61.9281 45.5138,62.0101 45.4618,62.0921 L45.2698,62.4221 C45.2358,62.4791 45.2018,62.5351 45.1728,62.5931 L44.9408,63.0761 L48.8528,69.9551 C49.1888,70.5471 49.0678,71.2931 48.5638,71.7491 L43.6878,76.1441 C43.0648,76.7061 42.5368,77.2301 42.1108,77.7131 L48.0788,80.2161 C48.5848,80.4281 48.9278,80.9061 48.9648,81.4531 L49.5648,90.1511 L52.9758,87.0751 C53.5438,86.5121 55.9608,84.5271 56.6948,83.9391 C57.0258,83.6741 57.4578,83.5671 57.8738,83.6461 C58.2908,83.7251 58.6518,83.9841 58.8618,84.3531 L72.6208,108.5611 C72.7918,108.8611 72.9858,109.1651 73.1928,109.4671 L73.4268,109.7811 C73.5918,110.0061 73.7328,110.1971 73.8838,110.3871 C73.9528,110.4731 74.0268,110.5571 74.1008,110.6431 L74.1958,110.7551 C74.3598,110.9461 74.5218,111.1351 74.6918,111.3221 C74.7878,111.4291 74.8938,111.5381 74.9988,111.6471 L75.9268,112.5741 C76.1548,112.7911 76.3798,112.9961 76.6098,113.1981 L76.9318,113.4891 C77.2568,113.7691 77.6028,114.0591 77.9578,114.3451 C77.9708,114.3541 77.9908,114.3721 78.0148,114.3901 C78.3568,114.6631 78.7078,114.9301 79.0638,115.1971 L79.4448,115.4781 C79.7008,115.6641 79.9618,115.8531 80.2288,116.0391 L80.6568,116.3371 C80.9288,116.5201 81.2078,116.7081 81.4878,116.8921 L81.8618,117.1371 C82.2518,117.3891 82.6438,117.6361 83.0368,117.8761 L83.0358,117.8781 C83.0548,117.8891 83.0728,117.8991 83.0908,117.9101 M113.9398,132.8461 C113.7928,132.8461 113.6448,132.8241 113.5008,132.7781 C111.7838,132.2331 96.5408,127.3781 89.9258,124.6411 C89.5368,124.4811 89.1358,124.3071 88.7308,124.1291 L88.3958,123.9781 C88.0758,123.8351 87.7618,123.6891 87.4428,123.5371 L87.1098,123.3821 C86.2768,122.9831 85.4238,122.5501 84.5638,122.0891 L84.1928,121.8861 C83.8748,121.7131 83.5498,121.5331 83.2258,121.3481 L82.8738,121.1491 C82.4488,120.9051 82.0288,120.6571 81.6108,120.4041 C81.5948,120.3941 81.5778,120.3851 81.5628,120.3751 C81.5508,120.3671 81.4868,120.3271 81.4758,120.3191 C81.1118,120.0981 80.7028,119.8401 80.2958,119.5781 L79.8998,119.3181 C79.5988,119.1201 79.3098,118.9271 79.0238,118.7321 L78.6438,118.4691 C78.2898,118.2221 78.0118,118.0211 77.7358,117.8201 L77.3238,117.5171 C76.9458,117.2351 76.5708,116.9481 76.2058,116.6561 C76.1908,116.6441 76.1748,116.6321 76.1598,116.6181 C75.7388,116.2811 75.3758,115.9771 75.0228,115.6711 L74.6798,115.3631 C74.4328,115.1441 74.1808,114.9161 73.9388,114.6841 L73.2998,114.0701 C73.2168,113.9861 73.1428,113.9071 73.0678,113.8271 L72.9528,113.7041 C72.7828,113.5271 72.6618,113.4001 72.5468,113.2731 C72.3518,113.0581 72.1678,112.8461 71.9878,112.6351 L71.9038,112.5361 C71.8088,112.4261 71.7138,112.3151 71.6238,112.2041 C71.4448,111.9801 71.2788,111.7561 71.1138,111.5311 L70.9978,111.3751 C70.9318,111.2881 70.8658,111.2001 70.8048,111.1111 C70.5498,110.7411 70.3138,110.3691 70.1018,109.9971 L57.1898,87.2791 C56.1858,88.1091 55.2098,88.9381 55.0298,89.1211 C55.0098,89.1421 54.9698,89.1821 54.9468,89.2021 L49.2938,94.3011 C48.8818,94.6721 48.2928,94.7721 47.7798,94.5681 C47.2658,94.3601 46.9148,93.8771 46.8768,93.3231 L46.1338,82.5441 L39.3058,79.6801 C38.9278,79.5221 38.6348,79.2121 38.4988,78.8261 C38.3618,78.4391 38.3968,78.0141 38.5908,77.6531 C38.7528,77.3541 38.9538,77.0391 39.1898,76.7191 C39.7888,75.8961 40.6508,74.9771 41.7458,73.9901 L45.7548,70.3751 L42.0848,63.9221 C41.8818,63.5641 41.8398,63.1371 41.9698,62.7471 C42.0168,62.6001 42.0598,62.4881 42.1048,62.3761 L42.2358,62.0221 C42.2988,61.8751 42.3428,61.7821 42.3878,61.6901 L42.4398,61.5841 L43.8028,62.0941 L42.4878,61.4801 C42.5268,61.3961 42.5678,61.3121 42.6128,61.2291 C42.6508,61.1561 42.7108,61.0541 42.7718,60.9501 L43.0088,60.5441 C43.0878,60.4211 43.1648,60.3081 43.2418,60.1971 L44.5128,60.9061 L43.3078,60.1001 C43.3628,60.0161 43.4198,59.9321 43.4818,59.8481 C43.5448,59.7601 43.6188,59.6651 43.6948,59.5691 L44.0038,59.1761 C44.0818,59.0821 44.1618,58.9911 44.2428,58.8991 L44.5708,58.5281 C44.6658,58.4251 44.7618,58.3281 44.8578,58.2301 L45.1738,57.9031 C45.3998,57.6801 45.6188,57.4761 45.8458,57.2711 L51.4858,52.1861 L51.4878,52.1841 L51.4888,52.1831 C51.4928,52.1801 51.5018,52.1721 51.5028,52.1711 C51.5308,52.1451 51.5618,52.1211 51.5918,52.0971 C57.3658,46.9581 67.0818,43.4141 72.3238,42.2601 C76.2508,41.3941 81.7338,40.8781 86.9898,40.8781 C92.7558,40.8781 100.7808,41.4801 106.2648,44.3521 C106.5108,44.4811 106.7148,44.6791 106.8528,44.9201 L110.9658,52.1591 C117.0858,52.8131 121.5088,53.6661 124.1188,54.6951 C124.4958,54.8441 124.7938,55.1431 124.9398,55.5211 C125.0858,55.8991 125.0668,56.3221 124.8878,56.6851 L122.6818,61.1581 L132.9758,69.8121 C133.2968,70.0831 133.4858,70.4781 133.4928,70.8971 C133.4998,71.3171 133.3248,71.7191 133.0138,72.0001 L127.3598,77.0981 C126.9528,77.4661 126.3708,77.5731 125.8618,77.3721 C125.6838,77.3031 125.4948,77.2341 125.2988,77.1661 L125.2018,77.1351 C125.1998,77.1341 125.1038,77.1011 125.1038,77.1011 C124.9868,77.0621 124.8788,77.0291 124.7678,76.9961 L122.9738,76.5121 L131.6118,91.7101 C135.0228,97.7111 133.7358,105.9591 130.9468,111.4711 C128.4648,116.3921 121.0848,126.7071 120.7728,127.1431 C120.7118,127.2281 120.6418,127.3051 120.5648,127.3761 L114.9098,132.4731 C114.6408,132.7171 114.2928,132.8461 113.9398,132.8461" id="Fill-9" fill="#C8C8C8"></path>
                        <path d="M101.4404,58.0654 L106.9764,67.5824 C107.1934,67.5894 111.3384,67.7434 116.5934,68.2194 L130.3514,92.4264 C133.5824,98.1104 132.0794,106.0214 129.6534,110.8174 C127.2314,115.6184 119.9764,125.7644 119.5934,126.2984 C118.7564,126.0334 102.8664,120.9884 96.1344,118.2034 C89.4074,115.4234 80.2434,109.8624 77.0144,104.1794 L63.2554,79.9724 C66.8604,77.5454 69.9284,75.8024 70.0884,75.7114 L64.6864,66.2034 L78.4134,53.5234 L101.4404,58.0654 Z" id="Fill-11" fill="#063342"></path>
                        <path d="M65.1846,80.4316 L78.2756,103.4626 C81.2306,108.6636 89.8916,114.0546 96.6886,116.8636 C102.4826,119.2606 115.1316,123.3506 119.0256,124.5956 C120.8756,121.9816 126.3496,114.1476 128.3586,110.1636 C130.7186,105.4966 131.9546,98.1816 129.0906,93.1436 L115.7086,69.5966 C110.8426,69.1746 107.0896,69.0366 106.9246,69.0316 C106.4266,69.0126 105.9736,68.7416 105.7236,68.3116 L100.5166,59.3616 L78.8556,55.0886 L66.5156,66.4876 L71.3496,74.9946 C71.7446,75.6896 71.5026,76.5716 70.8096,76.9686 C70.3086,77.2556 67.9926,78.5916 65.1846,80.4316 M119.5936,127.7486 C119.4476,127.7486 119.2996,127.7266 119.1556,127.6806 C117.4386,127.1356 102.1936,122.2796 95.5806,119.5426 C88.0976,116.4516 79.0646,110.7236 75.7536,104.8956 L61.9956,80.6896 C61.6216,80.0306 61.8176,79.1936 62.4466,78.7696 C64.7426,77.2236 66.8116,75.9566 68.1206,75.1806 L63.4256,66.9196 C63.0926,66.3326 63.2076,65.5956 63.7026,65.1376 L77.4286,52.4576 C77.7696,52.1446 78.2456,52.0116 78.6936,52.1006 L101.7206,56.6426 C102.1296,56.7236 102.4846,56.9766 102.6936,57.3356 L107.8306,66.1666 C109.3186,66.2346 112.7086,66.4106 116.7246,66.7756 C117.1976,66.8186 117.6206,67.0906 117.8546,67.5026 L131.6126,91.7096 C135.0226,97.7106 133.7356,105.9586 130.9476,111.4716 C128.4646,116.3916 121.0846,126.7066 120.7726,127.1436 C120.4956,127.5306 120.0526,127.7486 119.5936,127.7486" id="Fill-13" fill="#C8C8C8"></path>
                        <path d="M101.5723,58.0761 C106.4283,58.4671 111.0623,59.4061 114.4163,61.1631 L106.9763,67.5821 L101.5723,58.0761 Z" id="Fill-15" fill="#063342"></path>
                        <path d="M104.2275,59.8124 L107.3655,65.3324 L111.7365,61.5594 C109.6695,60.7844 107.1325,60.1944 104.2275,59.8124 M106.9765,69.0324 C106.8945,69.0324 106.8115,69.0254 106.7295,69.0104 C106.3025,68.9374 105.9305,68.6754 105.7155,68.2984 L100.3115,58.7924 C100.0455,58.3264 100.0605,57.7494 100.3495,57.2964 C100.6375,56.8434 101.1375,56.5814 101.6885,56.6304 C107.3325,57.0844 111.8415,58.1774 115.0885,59.8784 C115.5135,60.1014 115.8015,60.5204 115.8565,60.9974 C115.9115,61.4734 115.7265,61.9474 115.3635,62.2604 L107.9235,68.6794 C107.6585,68.9094 107.3215,69.0324 106.9765,69.0324" id="Fill-17" fill="#C8C8C8"></path>
                        <path d="M110.0732,53.5234 C115.0972,54.0364 120.5202,54.8344 123.5872,56.0434 L120.8782,61.5364 L132.0432,70.9224 C128.5772,69.5604 122.0972,68.7184 116.5942,68.2194 C111.3392,67.7434 107.1932,67.5894 106.9762,67.5824 L101.5722,58.0764 L106.9762,67.5824 L114.4162,61.1634 L110.0732,53.5234 Z" id="Fill-19" fill="#063342"></path>
                        <path d="M110.6611,66.3183 C112.3131,66.4193 114.4161,66.5663 116.7251,66.7753 C120.4591,67.1143 123.6531,67.5163 126.2881,67.9793 L119.9451,62.6463 C119.4341,62.2163 119.2821,61.4933 119.5771,60.8943 L121.5531,56.8903 C119.4531,56.2863 116.4681,55.7403 112.7401,55.2813 L115.6771,60.4463 C116.0181,61.0493 115.8881,61.8083 115.3631,62.2603 L110.6611,66.3183 Z M132.0431,72.3733 C131.8651,72.3733 131.6851,72.3413 131.5131,72.2723 C128.8211,71.2153 123.6171,70.3123 116.4631,69.6643 C111.3851,69.2033 107.3371,69.0473 106.9491,69.0323 C106.8771,69.0303 106.8051,69.0233 106.7331,69.0113 C106.6301,68.9943 106.5291,68.9653 106.4341,68.9263 C106.1741,68.8223 105.9431,68.6423 105.7771,68.3973 C105.7531,68.3613 105.7301,68.3253 105.7101,68.2873 L100.3111,58.7933 C100.1821,58.5663 100.1221,58.3203 100.1221,58.0773 C100.1221,57.5723 100.3861,57.0833 100.8551,56.8153 C101.5521,56.4213 102.4361,56.6623 102.8331,57.3593 L107.3651,65.3323 L112.5661,60.8433 L108.8121,54.2403 C108.5451,53.7683 108.5621,53.1863 108.8581,52.7313 C109.1551,52.2763 109.6791,52.0303 110.2211,52.0813 C116.7271,52.7453 121.4031,53.6253 124.1191,54.6953 C124.4961,54.8433 124.7941,55.1433 124.9391,55.5213 C125.0861,55.8993 125.0661,56.3223 124.8881,56.6853 L122.6821,61.1583 L132.9751,69.8123 C133.5191,70.2703 133.6521,71.0533 133.2891,71.6643 C133.0201,72.1153 132.5411,72.3733 132.0431,72.3733 L132.0431,72.3733 Z" id="Fill-21" fill="#C8C8C8"></path>
                        <path d="M81.4599,59.2011 C86.1009,58.1781 94.0189,57.4841 101.4399,58.0651 L121.7819,93.8581 C122.1299,95.3301 121.8679,99.3351 120.0559,102.9281 C118.7299,105.5611 115.3369,110.6371 112.7879,114.3241 C107.0819,112.4561 99.3189,109.8391 95.6259,108.3101 C90.5879,106.2281 86.3379,103.2171 85.1199,101.9361 L64.7779,66.1441 C69.9599,62.7851 76.8189,60.2231 81.4599,59.2011" id="Fill-23" fill="#063342"></path>
                        <path d="M85.5644,101.6044 C86.7124,102.7764 90.8074,105.7244 95.8354,107.8014 C99.6874,109.3964 107.8074,112.1114 112.5694,113.6734 C114.6974,110.5864 118.2074,105.3754 119.5644,102.6804 C121.3304,99.1814 121.5404,95.4004 121.2624,94.0584 L101.1064,58.5914 C94.6634,58.1174 86.7164,58.6044 81.5784,59.7384 C77.2474,60.6924 70.6704,63.0864 65.5144,66.3274 L85.5644,101.6044 Z M112.7884,114.8744 C112.7314,114.8744 112.6724,114.8654 112.6174,114.8464 C107.9064,113.3044 99.4084,110.4704 95.4164,108.8184 C90.3484,106.7244 86.0394,103.7004 84.7214,102.3154 C84.6904,102.2834 84.6644,102.2474 84.6414,102.2084 L64.2994,66.4164 C64.1564,66.1634 64.2344,65.8414 64.4794,65.6824 C69.8114,62.2254 76.7904,59.6664 81.3414,58.6644 C86.6584,57.4924 94.8744,57.0004 101.4834,57.5174 C101.6654,57.5314 101.8284,57.6344 101.9184,57.7934 L122.2604,93.5864 C122.2864,93.6314 122.3054,93.6804 122.3174,93.7324 C122.7024,95.3614 122.4064,99.4904 120.5464,103.1754 C119.1084,106.0314 115.3514,111.5824 113.2404,114.6364 C113.1354,114.7884 112.9644,114.8744 112.7884,114.8744 L112.7884,114.8744 Z" id="Fill-25" fill="#C8C8C8"></path>
                        <path d="M86.1689,73.7929 C85.9889,74.8089 86.2929,76.0039 87.0749,77.3819 L88.2829,79.5079 L90.3009,79.0629 L89.1919,77.1129 C88.7909,76.4069 88.6069,75.8239 88.6379,75.3769 C88.6669,74.9239 88.9019,74.6519 89.3329,74.5569 C89.7689,74.4609 90.2259,74.5799 90.7189,74.9199 C91.2019,75.2529 91.6479,75.7769 92.0489,76.4829 C92.7449,77.7089 93.2079,78.9789 93.4349,80.3019 L95.2929,91.7949 L96.3679,93.6859 L103.3309,92.1509 L101.9229,89.6729 L97.3489,90.6809 L95.8009,81.1079 C95.4689,79.0539 94.8969,77.3119 94.0769,75.8719 C93.2729,74.4559 92.3009,73.3909 91.1549,72.6789 C90.0099,71.9659 88.9329,71.7169 87.9229,71.9409 C86.9349,72.1569 86.3509,72.7779 86.1689,73.7929 L86.1689,73.7929 Z M79.3439,74.1669 L77.6239,79.4639 L79.7369,81.0259 L80.8909,77.5799 L90.7469,94.9239 L92.8599,94.4589 L81.1069,73.7779 L79.3439,74.1669 Z M97.7479,69.7739 C98.6899,69.5669 99.7189,69.7989 100.8289,70.4639 C101.9359,71.1229 102.8599,72.1109 103.5989,73.4089 L104.9579,75.7989 C105.7979,77.2789 106.0289,78.5239 105.6459,79.5399 C107.0709,80.1139 108.2669,81.2579 109.2409,82.9719 L110.7199,85.5719 C111.5139,86.9689 111.8099,88.1769 111.6059,89.1979 C111.4029,90.2179 110.7889,90.8379 109.7689,91.0629 C108.7609,91.2859 107.6919,91.0539 106.5579,90.3599 C105.4239,89.6669 104.4619,88.6209 103.6689,87.2269 L102.5099,85.1879 L104.5299,84.7429 L105.6179,86.6579 C106.0129,87.3489 106.4559,87.8629 106.9479,88.1949 C107.4469,88.5329 107.9149,88.6489 108.3659,88.5499 C108.8279,88.4469 109.0849,88.1769 109.1259,87.7319 C109.1719,87.2919 108.9949,86.7139 108.5919,86.0039 L106.9109,83.0489 C106.5219,82.3619 106.0749,81.8499 105.5829,81.5179 C105.0869,81.1799 104.6139,81.0629 104.1679,81.1609 L103.2359,81.3669 L101.9769,79.1529 L102.9079,78.9469 C103.2939,78.8619 103.5099,78.6169 103.5439,78.2059 C103.5829,77.8009 103.4259,77.2889 103.0809,76.6829 L101.5529,73.9919 C101.2039,73.3789 100.8119,72.9259 100.3739,72.6249 C99.9309,72.3199 99.5159,72.2139 99.1299,72.2989 C98.7419,72.3839 98.5299,72.6289 98.4909,73.0399 C98.4519,73.4459 98.6059,73.9519 98.9539,74.5649 L99.9289,76.2789 L97.9089,76.7259 L96.9169,74.9799 C96.1789,73.6829 95.8979,72.5409 96.0729,71.5609 C96.2429,70.5809 96.8009,69.9839 97.7479,69.7739 L97.7479,69.7739 Z" id="Fill-27" fill="#C8C8C8"></path>
                        <path d="M64.6865,66.2031 L70.0885,75.7111 L57.8255,73.6331 C58.6555,70.9541 61.3075,68.4091 64.6865,66.2031" id="Fill-29" fill="#063342"></path>
                        <path d="M59.9385,72.5205 L67.3185,73.7705 L64.2065,68.2925 C62.2415,69.7175 60.7985,71.1475 59.9385,72.5205 M70.0885,77.1615 C70.0085,77.1615 69.9275,77.1545 69.8465,77.1405 L57.5835,75.0625 C57.1705,74.9925 56.8085,74.7475 56.5895,74.3925 C56.3715,74.0365 56.3165,73.6025 56.4405,73.2045 C57.3035,70.4175 59.8105,67.6545 63.8935,64.9895 C64.2295,64.7705 64.6385,64.7005 65.0285,64.7935 C65.4175,64.8885 65.7495,65.1385 65.9475,65.4865 L71.3495,74.9945 C71.6265,75.4815 71.5975,76.0835 71.2765,76.5425 C71.0025,76.9345 70.5565,77.1615 70.0885,77.1615" id="Fill-31" fill="#C8C8C8"></path>
                        <path d="M72.6357,43.6757 C80.3437,41.9777 97.0857,41.1827 105.5917,45.6367 L110.0737,53.5237 L114.4157,61.1627 C111.0627,59.4057 106.4287,58.4667 101.5727,58.0757 C94.0187,57.4847 86.1007,58.1777 81.4597,59.2007 C76.8197,60.2237 69.9597,62.7847 64.7787,66.1447 C61.3077,68.4087 58.6557,70.9537 57.8247,73.6327 L53.4827,65.9937 L48.9997,58.1077 C51.1077,51.3127 64.9297,45.3727 72.6357,43.6757" id="Fill-33" fill="#063342"></path>
                        <path d="M50.5928,57.9746 L57.7528,70.5726 C59.0638,68.6706 61.1488,66.7826 63.9858,64.9306 C69.4158,61.4086 76.5178,58.8056 81.1488,57.7856 C86.5578,56.5916 94.9018,56.1006 101.6858,56.6306 C105.3068,56.9216 108.4588,57.4756 111.1108,58.2836 L104.5468,46.7336 C100.6468,44.8246 94.4398,43.7786 86.9898,43.7786 C81.9318,43.7786 76.6818,44.2696 72.9478,45.0916 C65.1378,46.8116 53.0088,52.3116 50.5928,57.9746 M57.8248,75.0826 C57.3078,75.0826 56.8238,74.8056 56.5648,74.3496 L47.7388,58.8246 C47.5408,58.4756 47.4958,58.0606 47.6148,57.6776 C50.0998,49.6666 65.6238,43.7356 72.3238,42.2596 C76.2508,41.3946 81.7338,40.8776 86.9898,40.8776 C92.7558,40.8776 100.7808,41.4806 106.2648,44.3526 C106.5108,44.4816 106.7148,44.6786 106.8528,44.9196 L115.6768,60.4466 C115.9938,61.0056 115.9058,61.7076 115.4588,62.1706 C115.0098,62.6336 114.3118,62.7446 113.7428,62.4476 C110.8848,60.9496 106.6358,59.9386 101.4558,59.5216 C94.9528,59.0106 86.9148,59.4826 81.7728,60.6176 C77.3968,61.5806 70.6898,64.0396 65.5678,67.3616 C62.0588,69.6506 59.8598,71.9686 59.2098,74.0616 C59.0388,74.6146 58.5568,75.0116 57.9818,75.0746 C57.9298,75.0796 57.8768,75.0826 57.8248,75.0826" id="Fill-35" fill="#C8C8C8"></path>
                        <path d="M53.4824,65.9941 L57.8254,73.6331 L70.0884,75.7111 C69.9284,75.8031 66.8604,77.5451 63.2554,79.9731 C59.4814,82.5151 55.2944,85.7081 53.9764,88.1251 L53.1724,76.4551 L45.5204,73.2461 C46.6854,71.1041 50.0964,68.3591 53.4824,65.9941" id="Fill-37" fill="#063342"></path>
                        <path d="M47.7685,72.6162 L53.7335,75.1182 C54.2395,75.3302 54.5815,75.8082 54.6195,76.3552 L55.1745,84.4152 C56.8805,82.7692 59.3115,80.8822 62.4455,78.7702 C63.7235,77.9092 64.9315,77.1362 65.9765,76.4842 L57.5825,75.0622 C57.1535,74.9892 56.7805,74.7272 56.5645,74.3492 L53.0165,68.1082 C50.2465,70.1312 48.6665,71.6002 47.7685,72.6162 M53.9765,89.5752 C53.8735,89.5752 53.7705,89.5642 53.6665,89.5422 C53.0375,89.4042 52.5745,88.8672 52.5305,88.2242 L51.7885,77.4462 L44.9595,74.5832 C44.5815,74.4252 44.2885,74.1132 44.1525,73.7262 C44.0165,73.3402 44.0505,72.9132 44.2475,72.5522 C45.3545,70.5172 48.1035,67.9822 52.6525,64.8052 C52.9865,64.5722 53.4045,64.4892 53.8015,64.5802 C54.1995,64.6702 54.5405,64.9232 54.7435,65.2772 L58.7465,72.3182 L70.3305,74.2812 C70.9345,74.3842 71.4095,74.8532 71.5165,75.4572 C71.6235,76.0592 71.3405,76.6652 70.8095,76.9682 C70.2435,77.2932 67.3595,78.9572 64.0655,81.1752 C57.6735,85.4822 55.7985,87.8132 55.2495,88.8192 C54.9925,89.2922 54.4985,89.5752 53.9765,89.5752" id="Fill-39" fill="#C8C8C8"></path>
                        <polygon id="Fill-41" fill="#C8C8C8" points="47.8867 81.9609 47.1507 81.1449 52.8047 76.0469 53.5407 76.8629"></polygon>
                        <polygon id="Fill-43" fill="#C8C8C8" points="59.7959 88.5351 59.0599 87.7191 64.7139 82.6201 65.4499 83.4361"></polygon>
                        <polygon id="Fill-45" fill="#C8C8C8" points="107.6279 129.1503 106.8919 128.3343 112.5449 123.2353 113.2809 124.0513"></polygon>
                        <polygon id="Fill-47" fill="#C8C8C8" points="98.0967 126.6015 97.3607 125.7855 103.0147 120.6865 103.7507 121.5025"></polygon>
                        <polygon id="Fill-49" fill="#C8C8C8" points="73.6807 112.3515 72.9447 111.5355 78.5987 106.4365 79.3347 107.2525"></polygon>
                        <polygon id="Fill-51" fill="#C8C8C8" points="45.7637 66.8515 45.0277 66.0355 50.6807 60.9365 51.4167 61.7525"></polygon>
                        <polygon id="Fill-53" fill="#C8C8C8" points="44.0976 80.1015 43.3616 79.2855 49.0146 74.1865 49.7506 75.0025"></polygon>
                        <polygon id="Fill-55" fill="#C8C8C8" points="61.1807 90.9355 60.4447 90.1195 66.0987 85.0205 66.8347 85.8365"></polygon>
                        <polygon id="Fill-57" fill="#C8C8C8" points="101.1973 127.4072 100.4613 126.5912 106.1153 121.4932 106.8513 122.3092"></polygon>
                        <polygon id="Fill-59" fill="#C8C8C8" points="82.3799 118.8398 81.6439 118.0238 87.2979 112.9258 88.0339 113.7418"></polygon>
                        <polygon id="Fill-61" fill="#C8C8C8" points="75.9541 114.4257 75.2181 113.6097 80.8721 108.5097 81.6081 109.3257"></polygon>
                        <polygon id="Fill-63" fill="#C8C8C8" points="67.8916 101.9228 67.1556 101.1068 72.8086 96.0068 73.5446 96.8228"></polygon>
                        <polygon id="Fill-65" fill="#C8C8C8" points="64.9267 97.6103 64.1907 96.7943 69.8437 91.6953 70.5797 92.5113"></polygon>
                        <polygon id="Fill-67" fill="#C8C8C8" points="121.0957 74.4033 120.3597 73.5873 126.0127 68.4883 126.7487 69.3043"></polygon>
                    </g>
                </g>
            </g>
        </g>
    </g>
</svg>