<?xml version="1.0" encoding="UTF-8"?>
<svg width="176px" height="176px" viewBox="0 0 176 176" version="1.1" xmlns="http://www.w3.org/2000/svg" xmlns:xlink="http://www.w3.org/1999/xlink">
    <!-- Generator: Sketch 45.2 (43514) - http://www.bohemiancoding.com/sketch -->
    <title>ICON sweatshirt</title>
    <desc>Created with Sketch.</desc>
    <defs>
        <polygon id="path-1" points="0 175.163 175.164 175.163 175.164 0 0 0"></polygon>
    </defs>
    <g id="Mockups---Products/-Designs" stroke="none" stroke-width="1" fill="none" fill-rule="evenodd">
        <g id="Home" transform="translate(-261.000000, -1088.000000)">
            <g id="BODY" transform="translate(0.000000, 228.000000)">
                <g id="product-icons" transform="translate(76.000000, 859.000000)">
                    <g id="ICON-sweatshirt" transform="translate(185.000000, 1.000000)">
                        <path d="M0,87.581 C0,39.212 39.213,0 87.582,0 C135.951,0 175.164,39.212 175.164,87.581 C175.164,135.951 135.951,175.163 87.582,175.163 C39.213,175.163 0,135.951 0,87.581 Z" id="Fill-1" fill="#063342"></path>
                        <polygon id="Fill-3" fill="#063342" points="117.0879 139.1191 117.0879 125.6851 115.3789 104.0901 115.8069 75.5671 120.7129 100.7331 125.6189 131.0151 140.1189 131.0151 140.1189 120.6731 136.2499 78.4921 125.1189 45.4121 106.8499 35.2621 88.2969 33.7681 87.0179 33.7681 68.4649 35.2621 50.1929 45.4121 39.0649 78.4921 35.1929 120.6731 35.1929 131.0151 49.6929 131.0151 54.6019 100.7331 59.5079 75.5671 59.9339 104.0901 58.2269 125.6851 58.2269 139.1191"></polygon>
                        <path d="M59.6845,137.6611 L115.6295,137.6611 L115.6295,125.7431 L113.9255,104.2051 C113.9215,104.1591 113.9205,104.1131 113.9215,104.0681 L114.3495,75.5461 C114.3605,74.7991 114.9335,74.1821 115.6775,74.1151 C116.4085,74.0571 117.0935,74.5561 117.2375,75.2881 L122.1435,100.4541 L126.8595,129.5571 L138.6615,129.5571 L138.6615,120.7391 L134.8145,78.7951 L123.9175,46.4121 L106.4175,36.6901 L88.2385,35.2261 L87.0765,35.2261 L68.8965,36.6901 L51.3945,46.4121 L40.4995,78.7951 L36.6515,120.7391 L36.6515,129.5571 L48.4535,129.5571 L53.1635,100.5001 L58.0775,75.2881 C58.2205,74.5561 58.9035,74.0571 59.6365,74.1151 C60.3805,74.1821 60.9545,74.7991 60.9645,75.5461 L61.3905,104.0681 C61.3915,104.1131 61.3905,104.1591 61.3865,104.2051 L59.6845,125.7431 L59.6845,137.6611 Z M117.0875,140.5771 L58.2265,140.5771 C57.4215,140.5771 56.7685,139.9241 56.7685,139.1191 L56.7685,125.6851 C56.7685,125.6471 56.7705,125.6091 56.7735,125.5701 L58.4755,104.0431 L58.2595,89.5891 L56.0325,101.0131 L51.1315,131.2491 C51.0175,131.9551 50.4085,132.4741 49.6935,132.4741 L35.1935,132.4741 C34.3885,132.4741 33.7355,131.8201 33.7355,131.0161 L33.7355,120.6731 C33.7355,120.6281 33.7385,120.5841 33.7425,120.5401 L37.6135,78.3591 C37.6225,78.2461 37.6465,78.1351 37.6825,78.0271 L48.8115,44.9471 C48.9275,44.6021 49.1675,44.3141 49.4855,44.1381 L67.7565,33.9881 C67.9395,33.8881 68.1405,33.8261 68.3475,33.8091 L86.9005,32.3151 C86.9395,32.3121 86.9785,32.3101 87.0175,32.3101 L88.2965,32.3101 C88.3355,32.3101 88.3745,32.3121 88.4135,32.3151 L106.9665,33.8091 C107.1735,33.8261 107.3755,33.8881 107.5575,33.9881 L125.8275,44.1381 C126.1445,44.3141 126.3845,44.6021 126.5005,44.9471 L137.6315,78.0271 C137.6675,78.1351 137.6915,78.2461 137.7015,78.3591 L141.5705,120.5401 C141.5745,120.5841 141.5775,120.6281 141.5775,120.6731 L141.5775,131.0161 C141.5775,131.8201 140.9235,132.4741 140.1195,132.4741 L125.6195,132.4741 C124.9045,132.4741 124.2945,131.9541 124.1805,131.2491 L119.2745,100.9671 L117.0545,89.5821 L116.8365,104.0431 L118.5405,125.5701 C118.5435,125.6081 118.5455,125.6471 118.5455,125.6851 L118.5455,139.1191 C118.5455,139.9241 117.8925,140.5771 117.0875,140.5771 L117.0875,140.5771 Z" id="Fill-5" fill="#C8C8C8"></path>
                        <mask id="mask-2" fill="white">
                            <use xlink:href="#path-1"></use>
                        </mask>
                        <g id="Clip-8"></g>
                        <polygon id="Fill-7" fill="#063342" mask="url(#mask-2)" points="36.688 137.927 48.223 137.927 48.223 131.016 36.688 131.016"></polygon>
                        <path d="M38.146,136.469 L46.765,136.469 L46.765,132.474 L38.146,132.474 L38.146,136.469 Z M48.223,139.385 L36.688,139.385 C35.883,139.385 35.23,138.731 35.23,137.927 L35.23,131.016 C35.23,130.211 35.883,129.558 36.688,129.558 L48.223,129.558 C49.027,129.558 49.681,130.211 49.681,131.016 L49.681,137.927 C49.681,138.731 49.027,139.385 48.223,139.385 L48.223,139.385 Z" id="Fill-9" fill="#C8C8C8" mask="url(#mask-2)"></path>
                        <path d="M63.3935,138.5361 L112.0775,138.5361 L112.0775,126.2861 C106.0875,121.4961 103.5785,114.0511 104.2025,102.9181 L71.2705,102.9181 C71.8945,114.0481 69.3835,121.4941 63.3935,126.2851 L63.3935,138.5361 Z M112.6605,139.7021 L62.8105,139.7021 C62.4885,139.7021 62.2275,139.4411 62.2275,139.1191 L62.2275,126.0031 C62.2275,125.8231 62.3105,125.6531 62.4535,125.5431 C68.3845,120.9301 70.8045,113.5671 70.0685,102.3731 C70.0575,102.2121 70.1145,102.0541 70.2245,101.9361 C70.3345,101.8181 70.4895,101.7521 70.6505,101.7521 L104.8225,101.7521 C104.9835,101.7521 105.1375,101.8181 105.2475,101.9361 C105.3585,102.0541 105.4145,102.2121 105.4045,102.3731 C104.6585,113.7241 107.0055,120.8691 113.0175,125.5431 C113.1605,125.6531 113.2435,125.8231 113.2435,126.0031 L113.2435,139.1191 C113.2435,139.4411 112.9825,139.7021 112.6605,139.7021 L112.6605,139.7021 Z" id="Fill-10" fill="#C8C8C8" mask="url(#mask-2)"></path>
                        <polygon id="Fill-11" fill="#063342" mask="url(#mask-2)" points="127.09 137.927 138.625 137.927 138.625 131.016 127.09 131.016"></polygon>
                        <path d="M128.548,136.469 L137.167,136.469 L137.167,132.474 L128.548,132.474 L128.548,136.469 Z M138.625,139.385 L127.09,139.385 C126.285,139.385 125.632,138.731 125.632,137.927 L125.632,131.016 C125.632,130.211 126.285,129.558 127.09,129.558 L138.625,129.558 C139.43,129.558 140.083,130.211 140.083,131.016 L140.083,137.927 C140.083,138.731 139.43,139.385 138.625,139.385 L138.625,139.385 Z" id="Fill-12" fill="#C8C8C8" mask="url(#mask-2)"></path>
                        <polygon id="Fill-13" fill="#063342" mask="url(#mask-2)" points="60.094 145.517 115.379 145.517 115.379 139.12 60.094 139.12"></polygon>
                        <path d="M61.552,144.058 L113.921,144.058 L113.921,140.577 L61.552,140.577 L61.552,144.058 Z M115.379,146.975 L60.094,146.975 C59.289,146.975 58.636,146.321 58.636,145.517 L58.636,139.119 C58.636,138.314 59.289,137.661 60.094,137.661 L115.379,137.661 C116.184,137.661 116.837,138.314 116.837,139.119 L116.837,145.517 C116.837,146.321 116.184,146.975 115.379,146.975 L115.379,146.975 Z" id="Fill-14" fill="#C8C8C8" mask="url(#mask-2)"></path>
                        <path d="M62.8115,127.4609 C62.3765,127.4609 61.9475,127.2679 61.6605,126.8979 C61.1655,126.2629 61.2805,125.3469 61.9155,124.8529 C67.6095,120.4249 69.9225,113.5559 69.1965,103.2329 C69.1395,102.4299 69.7455,101.7329 70.5475,101.6769 C71.3285,101.6299 72.0475,102.2259 72.1045,103.0279 C72.8935,114.2529 70.1465,122.1449 63.7045,127.1529 C63.4395,127.3599 63.1235,127.4609 62.8115,127.4609" id="Fill-15" fill="#C8C8C8" mask="url(#mask-2)"></path>
                        <path d="M112.6591,127.4609 C112.3471,127.4609 112.0311,127.3599 111.7661,127.1529 C105.3251,122.1479 102.5781,114.2559 103.3681,103.0279 C103.4241,102.2259 104.1261,101.6299 104.9251,101.6769 C105.7271,101.7329 106.3331,102.4299 106.2761,103.2329 C105.5501,113.5579 107.8631,120.4279 113.5551,124.8529 C114.1901,125.3469 114.3051,126.2619 113.8101,126.8979 C113.5231,127.2679 113.0941,127.4609 112.6591,127.4609" id="Fill-16" fill="#C8C8C8" mask="url(#mask-2)"></path>
                        <path d="M93.0742,47.8476 L93.0742,67.8066" id="Fill-17" fill="#063342" mask="url(#mask-2)"></path>
                        <path d="M93.0742,69.2646 C92.2692,69.2646 91.6162,68.6116 91.6162,67.8066 L91.6162,47.8476 C91.6162,47.0426 92.2692,46.3896 93.0742,46.3896 C93.8792,46.3896 94.5322,47.0426 94.5322,47.8476 L94.5322,67.8066 C94.5322,68.6116 93.8792,69.2646 93.0742,69.2646" id="Fill-18" fill="#C8C8C8" mask="url(#mask-2)"></path>
                        <path d="M81.4648,47.3632 L81.4648,61.9952" id="Fill-19" fill="#063342" mask="url(#mask-2)"></path>
                        <path d="M81.4648,63.4531 C80.6598,63.4531 80.0068,62.8001 80.0068,61.9951 L80.0068,47.3631 C80.0068,46.5581 80.6598,45.9051 81.4648,45.9051 C82.2698,45.9051 82.9228,46.5581 82.9228,47.3631 L82.9228,61.9951 C82.9228,62.8001 82.2698,63.4531 81.4648,63.4531" id="Fill-20" fill="#C8C8C8" mask="url(#mask-2)"></path>
                        <polygon id="Fill-21" fill="#063342" mask="url(#mask-2)" points="75.7324 22.5537 66.1464 29.8477 63.8064 36.3547 87.6584 51.2247 111.5054 36.3547 109.1684 29.8477 99.5804 22.5537"></polygon>
                        <path d="M65.5761,35.7402 L87.6581,49.5072 L109.7361,35.7402 L107.9421,30.7462 L99.0891,24.0112 L76.2231,24.0112 L67.3721,30.7462 L65.5761,35.7402 Z M87.6581,52.6822 C87.3901,52.6822 87.1231,52.6082 86.8871,52.4622 L63.0351,37.5922 C62.4531,37.2282 62.2031,36.5082 62.4341,35.8612 L64.7741,29.3542 C64.8701,29.0902 65.0401,28.8582 65.2641,28.6872 L74.8491,21.3932 C75.1031,21.2002 75.4141,21.0952 75.7321,21.0952 L99.5801,21.0952 C99.8981,21.0952 100.2091,21.2002 100.4631,21.3932 L110.0511,28.6872 C110.2741,28.8582 110.4441,29.0902 110.5401,29.3542 L112.8781,35.8612 C113.1091,36.5082 112.8591,37.2282 112.2771,37.5922 L88.4301,52.4622 C88.1931,52.6082 87.9261,52.6822 87.6581,52.6822 L87.6581,52.6822 Z" id="Fill-22" fill="#C8C8C8" mask="url(#mask-2)"></path>
                        <path d="M87.6582,51.8076 L87.6522,51.8076 C87.4782,51.8056 87.3152,51.7276 87.2062,51.5926 L72.9232,34.0586 C72.8772,34.0016 72.8422,33.9386 72.8202,33.8696 L71.5412,29.8936 C71.4422,29.5866 71.6102,29.2586 71.9172,29.1606 C72.2262,29.0596 72.5532,29.2306 72.6502,29.5366 L73.8962,33.4076 L87.6682,50.3136 L101.4432,34.1026 L101.8222,30.2086 C101.8532,29.8886 102.1482,29.6576 102.4592,29.6856 C102.7792,29.7166 103.0132,30.0016 102.9822,30.3226 L102.5862,34.3976 C102.5742,34.5156 102.5272,34.6276 102.4502,34.7186 L88.1022,51.6026 C87.9912,51.7326 87.8292,51.8076 87.6582,51.8076" id="Fill-23" fill="#C8C8C8" mask="url(#mask-2)"></path>
                        <path d="M74.5703,35.4716 C74.4333,35.4716 74.2963,35.4236 74.1853,35.3266 C73.9433,35.1146 73.9203,34.7456 74.1333,34.5036 L77.8793,30.2446 C77.9543,30.1586 78.0523,30.0966 78.1633,30.0666 L83.5013,28.6126 C83.5503,28.5986 83.6023,28.5916 83.6543,28.5916 L96.3633,28.5916 C96.6853,28.5916 96.9463,28.8526 96.9463,29.1746 C96.9463,29.4966 96.6853,29.7576 96.3633,29.7576 L83.7323,29.7576 L78.6383,31.1456 L75.0073,35.2736 C74.8923,35.4046 74.7313,35.4716 74.5703,35.4716" id="Fill-24" fill="#C8C8C8" mask="url(#mask-2)"></path>
                        <path d="M99.0771,37.7138 C98.9711,37.7138 98.8631,37.6848 98.7661,37.6238 L93.7591,34.4598 L84.3721,34.4598 L79.8671,36.4598 C79.5751,36.5918 79.2281,36.4578 79.0981,36.1628 C78.9681,35.8688 79.1001,35.5248 79.3941,35.3938 L84.0121,33.3438 C84.0861,33.3108 84.1671,33.2938 84.2481,33.2938 L93.9281,33.2938 C94.0381,33.2938 94.1451,33.3248 94.2391,33.3838 L99.3891,36.6378 C99.6621,36.8098 99.7431,37.1698 99.5711,37.4428 C99.4601,37.6178 99.2701,37.7138 99.0771,37.7138" id="Fill-25" fill="#C8C8C8" mask="url(#mask-2)"></path>
                    </g>
                </g>
            </g>
        </g>
    </g>
</svg>