<?xml version="1.0" encoding="UTF-8"?>
<svg width="176px" height="176px" viewBox="0 0 176 176" version="1.1" xmlns="http://www.w3.org/2000/svg" xmlns:xlink="http://www.w3.org/1999/xlink">
    <!-- Generator: Sketch 45.2 (43514) - http://www.bohemiancoding.com/sketch -->
    <title>ICON cap</title>
    <desc>Created with Sketch.</desc>
    <defs></defs>
    <g id="Mockups---Products/-Designs" stroke="none" stroke-width="1" fill="none" fill-rule="evenodd">
        <g id="Home" transform="translate(-632.000000, -1088.000000)">
            <g id="BODY" transform="translate(0.000000, 228.000000)">
                <g id="product-icons" transform="translate(76.000000, 859.000000)">
                    <g id="ICON-cap" transform="translate(556.000000, 1.000000)">
                        <path d="M0,87.581 C0,39.212 39.213,0 87.582,0 C135.951,0 175.164,39.212 175.164,87.581 C175.164,135.951 135.951,175.163 87.582,175.163 C39.213,175.163 0,135.951 0,87.581" id="Fill-1" fill="#063342"></path>
                        <path d="M39.9843,107.6708 C46.8513,110.8538 103.9743,108.5098 124.2443,88.0718 C120.8923,77.5188 118.0453,66.6298 116.8733,62.2738 C115.7013,57.9198 106.9613,47.5168 83.6773,49.0258 C60.3903,50.5318 41.1563,59.5518 39.3143,74.7338 C37.4703,89.9158 38.3083,101.3068 39.9843,107.6708" id="Fill-3" fill="#063342"></path>
                        <path d="M41.209,106.5634 C42.723,106.9894 46.032,107.3794 51.528,107.3794 C71.949,107.3794 107.417,102.1144 122.585,87.6584 C119.694,78.4684 117.232,69.2604 115.892,64.2444 L115.466,62.6524 C114.605,59.4574 107.74,50.3364 88.147,50.3364 C86.731,50.3364 85.26,50.3844 83.772,50.4804 C59.252,52.0664 42.369,61.6554 40.762,74.9104 C39.251,87.3444 39.424,99.0844 41.209,106.5634 M51.531,110.2954 L51.528,110.2954 C48.037,110.2954 41.814,110.1254 39.371,108.9934 C38.978,108.8104 38.686,108.4614 38.575,108.0424 C37.593,104.3114 35.558,93.5814 37.867,74.5584 C39.68,59.6194 57.197,49.2784 83.584,47.5724 C85.134,47.4714 86.669,47.4204 88.147,47.4204 C109.671,47.4204 117.197,57.8694 118.28,61.8944 L118.708,63.4914 C120.085,68.6404 122.647,78.2264 125.634,87.6304 C125.798,88.1484 125.661,88.7134 125.279,89.0984 C108.65,105.8644 69.771,110.2954 51.531,110.2954" id="Fill-5" fill="#C8C8C8"></path>
                        <path d="M146.5234,103.8173 L138.5954,98.0093 C126.9784,96.5983 118.5504,100.1333 118.5504,100.1333 C120.2524,110.7393 126.7574,115.5443 134.7964,116.7163 C144.0914,118.0743 153.2244,108.8433 146.5234,103.8173" id="Fill-7" fill="#063342"></path>
                        <path d="M120.206,101.0878 C121.888,109.3158 126.862,114.0858 135.007,115.2748 C135.55,115.3538 136.107,115.3938 136.665,115.3938 C141.706,115.3938 146.161,112.1878 147.159,109.1928 C147.703,107.5598 147.195,106.1438 145.648,104.9838 L138.044,99.4128 C136.406,99.2288 134.74,99.1348 133.086,99.1348 C126.946,99.1348 122.235,100.4208 120.206,101.0878 M136.666,118.3098 L136.665,118.3098 C135.968,118.3098 135.267,118.2588 134.586,118.1588 C127.757,117.1628 119.181,113.2668 117.111,100.3638 C117.005,99.6998 117.367,99.0498 117.987,98.7898 C118.237,98.6848 124.215,96.2198 133.086,96.2198 C134.983,96.2198 136.896,96.3348 138.771,96.5628 C139.019,96.5928 139.256,96.6868 139.457,96.8338 L147.385,102.6418 C149.947,104.5638 150.868,107.2828 149.925,110.1138 C148.392,114.7088 142.568,118.3098 136.666,118.3098" id="Fill-9" fill="#C8C8C8"></path>
                        <path d="M124.2441,88.0722 L146.5231,103.8172 C137.9281,98.0102 126.7581,103.8172 110.0041,117.8902 C97.8361,128.1122 78.3441,127.7722 69.8011,123.3532 C58.6811,117.6022 52.2131,108.8362 52.2131,108.8362 C86.3321,106.7222 91.0211,85.9482 124.2441,88.0722" id="Fill-11" fill="#063342"></path>
                        <path d="M55.1416,110.0673 C57.7246,112.9543 63.0576,118.2243 70.4706,122.0583 C73.8716,123.8183 78.9936,124.8273 84.5206,124.8273 C94.0276,124.8273 102.9746,121.8923 109.0666,116.7743 C122.6626,105.3533 131.5986,100.3413 138.7846,100.1333 L123.7416,89.5023 C122.3326,89.4193 120.9426,89.3783 119.6036,89.3783 C105.3786,89.3783 96.8316,94.0263 87.7836,98.9483 C79.0026,103.7233 69.9416,108.6523 55.1416,110.0673 M84.5206,127.7423 C78.5416,127.7423 72.9326,126.6143 69.1306,124.6483 C57.8396,118.8083 51.3126,110.0703 51.0396,109.7013 C50.7226,109.2713 50.6656,108.7033 50.8916,108.2193 C51.1186,107.7353 51.5896,107.4143 52.1226,107.3803 C67.9846,106.3983 77.3416,101.3093 86.3906,96.3873 C95.7746,91.2833 104.6376,86.4623 119.6036,86.4623 C121.1336,86.4623 122.7266,86.5143 124.3366,86.6173 C124.6066,86.6343 124.8656,86.7263 125.0846,86.8813 L147.3646,102.6273 C148.0176,103.0873 148.1766,103.9883 147.7226,104.6463 C147.2676,105.3023 146.3686,105.4713 145.7066,105.0253 C143.7326,103.6903 141.6206,103.0423 139.2516,103.0423 C132.7306,103.0423 124.2636,107.8163 110.9416,119.0063 C104.3326,124.5583 94.7026,127.7423 84.5206,127.7423" id="Fill-13" fill="#C8C8C8"></path>
                        <path d="M55.3935,108.7578 C55.1155,108.7578 54.8695,108.5578 54.8205,108.2738 C53.0195,97.7958 52.1085,77.6918 52.4665,70.1208 C52.6715,65.8188 56.5335,57.1968 66.0185,52.3738 C66.3045,52.2308 66.6565,52.3408 66.8025,52.6288 C66.9495,52.9158 66.8345,53.2678 66.5475,53.4128 C56.4115,58.5668 53.7605,67.4658 53.6305,70.1758 C53.2755,77.6958 54.1805,97.6668 55.9685,108.0758 C56.0235,108.3938 55.8105,108.6958 55.4935,108.7488 C55.4595,108.7548 55.4265,108.7578 55.3935,108.7578" id="Fill-15" fill="#C8C8C8"></path>
                        <path d="M110.2304,89.4365 C110.0064,89.4365 109.7924,89.3065 109.6964,89.0875 C109.4194,88.4565 108.9784,86.5175 108.1564,82.8565 C107.0214,77.8045 105.4674,70.8875 103.6414,64.9015 C100.6474,55.0875 84.6154,50.9885 77.2224,51.6325 C76.9044,51.6605 76.6194,51.4245 76.5904,51.1025 C76.5634,50.7815 76.8004,50.4985 77.1214,50.4705 C84.8434,49.8095 101.5844,54.1625 104.7564,64.5615 C106.5954,70.5885 108.1554,77.5315 109.2934,82.6005 C109.9784,85.6525 110.5204,88.0625 110.7644,88.6195 C110.8934,88.9135 110.7594,89.2575 110.4644,89.3875 C110.3884,89.4205 110.3084,89.4365 110.2304,89.4365" id="Fill-17" fill="#C8C8C8"></path>
                    </g>
                </g>
            </g>
        </g>
    </g>
</svg>